<?xml version="1.0" encoding="UTF-8" standalone="no"?>
<!-- Created with Inkscape (http://www.inkscape.org/) -->

<svg
   xmlns:dc="http://purl.org/dc/elements/1.1/"
   xmlns:cc="http://creativecommons.org/ns#"
   xmlns:rdf="http://www.w3.org/1999/02/22-rdf-syntax-ns#"
   xmlns:svg="http://www.w3.org/2000/svg"
   xmlns="http://www.w3.org/2000/svg"
   xmlns:xlink="http://www.w3.org/1999/xlink"
   xmlns:sodipodi="http://sodipodi.sourceforge.net/DTD/sodipodi-0.dtd"
   xmlns:inkscape="http://www.inkscape.org/namespaces/inkscape"
   width="181mm"
   height="181mm"
   viewBox="0 0 181 181"
   version="1.1"
   id="svg4301"
   inkscape:version="0.92.4 (5da689c313, 2019-01-14)"
   sodipodi:docname="AboutCha3.svg">
  <defs
     id="defs4295">
    <clipPath
       id="SVGID_00000113321611784114216870000013912409115802730685_">
      <use
         height="100%"
         width="100%"
         y="0"
         x="0"
         xlink:href="#SVGID_00000000941233820754225300000017452832062705836447_"
         style="overflow:visible"
         id="use1930" />
    </clipPath>
    <path
       inkscape:connector-curvature="0"
       id="SVGID_00000000941233820754225300000017452832062705836447_"
       d="m 172.199,89.229 c 0,38.175 -30.946,69.121 -69.12,69.121 -38.175,0 -69.121,-30.946 -69.121,-69.121 0,-38.174 30.946,-69.12 69.121,-69.12 38.174,0 69.12,30.946 69.12,69.12 z" />
    <clipPath
       id="SVGID_00000052092502169152378210000005145085261227362728_">
      <use
         height="100%"
         width="100%"
         y="0"
         x="0"
         xlink:href="#SVGID_00000165202363642182927450000002705565891009891480_"
         style="overflow:visible"
         id="use1844" />
    </clipPath>
    <path
       inkscape:connector-curvature="0"
       id="SVGID_00000165202363642182927450000002705565891009891480_"
       d="m 319.117,89.229 c 0,38.175 -30.945,69.121 -69.119,69.121 -38.175,0 -69.121,-30.946 -69.121,-69.121 0,-38.174 30.946,-69.12 69.121,-69.12 38.174,0 69.119,30.946 69.119,69.12 z" />
    <clipPath
       id="SVGID_00000036246779500956181350000015724627732898847411_">
      <use
         height="100%"
         width="100%"
         y="0"
         x="0"
         xlink:href="#SVGID_1_"
         style="overflow:visible"
         id="use1764" />
    </clipPath>
    <path
       inkscape:connector-curvature="0"
       id="SVGID_1_"
       d="m 466.037,89.229 c 0,38.175 -30.946,69.121 -69.12,69.121 -38.174,0 -69.12,-30.946 -69.12,-69.121 0,-38.174 30.946,-69.12 69.12,-69.12 38.174,0 69.12,30.946 69.12,69.12 z" />
    <clipPath
       id="SVGID_00000093884470694313660920000011347713797113203852_">
      <use
         height="100%"
         width="100%"
         y="0"
         x="0"
         xlink:href="#SVGID_00000002343308194870606080000011706874031757160848_"
         style="overflow:visible"
         id="use2052" />
    </clipPath>
    <path
       inkscape:connector-curvature="0"
       id="SVGID_00000002343308194870606080000011706874031757160848_"
       d="m 172.086,240.001 c 0,38.175 -30.946,69.121 -69.12,69.121 -38.175,0 -69.121,-30.946 -69.121,-69.121 0,-38.174 30.946,-69.12 69.121,-69.12 38.174,0 69.12,30.946 69.12,69.12 z" />
  </defs>
  <sodipodi:namedview
     id="base"
     pagecolor="#ffffff"
     bordercolor="#666666"
     borderopacity="1.0"
     inkscape:pageopacity="0.0"
     inkscape:pageshadow="2"
     inkscape:zoom="0.7"
     inkscape:cx="161.19793"
     inkscape:cy="351.43754"
     inkscape:document-units="mm"
     inkscape:current-layer="Parni_1_"
     showgrid="false"
     inkscape:window-width="1366"
     inkscape:window-height="745"
     inkscape:window-x="-8"
     inkscape:window-y="-8"
     inkscape:window-maximized="1" />
  <metadata
     id="metadata4298">
    <rdf:RDF>
      <cc:Work
         rdf:about="">
        <dc:format>image/svg+xml</dc:format>
        <dc:type
           rdf:resource="http://purl.org/dc/dcmitype/StillImage" />
        <dc:title></dc:title>
      </cc:Work>
    </rdf:RDF>
  </metadata>
  <g
     inkscape:label="Layer 1"
     inkscape:groupmode="layer"
     id="layer1"
     transform="translate(0,-116)">
    <rect
       style="opacity:1;fill:#7cd1f2;fill-opacity:1;stroke:none;stroke-width:2.44956493;stroke-miterlimit:4;stroke-dasharray:none;stroke-opacity:1"
       id="rect12114"
       width="182.5625"
       height="184.0744"
       x="-0.75595248"
       y="114.81548" />
    <g
       transform="matrix(1.3527881,0,0,1.3527881,-48.576223,-104.02238)"
       id="Parni_1_">
      <g
         id="g2130"
         transform="matrix(1.0631614,0,0,1.0631614,-6.4550129,-17.362433)">
        <defs
           id="defs2050">
          <path
             inkscape:connector-curvature="0"
             id="path6993"
             d="m 172.086,240.001 c 0,38.175 -30.946,69.121 -69.12,69.121 -38.175,0 -69.121,-30.946 -69.121,-69.121 0,-38.174 30.946,-69.12 69.121,-69.12 38.174,0 69.12,30.946 69.12,69.12 z" />
        </defs>
        <clipPath
           id="clipPath6896">
          <use
             height="100%"
             width="100%"
             y="0"
             x="0"
             xlink:href="#SVGID_00000002343308194870606080000011706874031757160848_"
             style="overflow:visible"
             id="use6894" />
        </clipPath>
        <g
           clip-path="url(#SVGID_00000093884470694313660920000011347713797113203852_)"
           id="g2128">
          <g
             id="g2101">
            <path
               inkscape:connector-curvature="0"
               style="fill:#f7bf74"
               d="m 90.27,268.695 c 0.133,2.841 0.841,5.223 3.595,7.166 2.802,1.979 5.551,2.548 9.009,2.263 3.675,-0.303 7.364,-1.951 9.381,-5.158 0.971,-1.548 1.392,-3.274 1.68,-5.043 -1.816,-0.357 -3.63,-0.721 -5.409,-1.173 l -0.988,-0.249 -0.038,-0.96 c -0.06,-1.772 -0.049,-3.512 0.009,-5.281 l 0.034,-0.802 0.698,-0.2 c 7.426,-2.116 13.581,-6.009 16.019,-14.031 2.611,-8.593 2.084,-17.64 3.116,-26.45 -3.984,-2.241 -6.538,-7.016 -8.421,-10.972 -1.716,-3.604 -3.704,-7.742 -3.708,-11.849 -5.19,5.522 -12.029,9.252 -19.08,11.872 -6.33,2.354 -14.045,5.191 -21.057,4.577 -1.073,10.266 -1.424,21.687 1.929,31.55 1.673,4.92 4.526,9.663 8.742,12.805 2.996,2.234 6.246,3.258 9.724,3.667 0.734,-0.014 1.47,-0.018 2.203,-0.079 1.643,-0.139 3.276,-0.381 4.923,-0.45 0.208,-0.008 0.222,0.281 0.046,0.343 -1.392,0.497 -3.078,0.982 -4.764,1.188 l 0.01,0.104 c 0.116,1.184 0.213,2.402 0.246,3.61 l 0.015,0.679 -1.199,0.488 c -2.204,0.872 -4.456,1.641 -6.715,2.385 z m 25.371,-47.66 c -0.301,0.45 -0.304,0.964 -0.763,1.318 -0.126,0.098 -0.262,0.166 -0.399,0.215 0.315,1.348 -0.528,3.286 -1.227,4.202 -1.146,1.503 -2.303,0.151 -2.343,-1.306 -0.024,-0.901 0.175,-2.023 0.72,-2.827 0.192,-0.508 0.453,-0.965 1.032,-1.155 0.551,-0.183 1.201,-0.044 1.545,0.442 0.243,-0.087 0.472,-0.195 0.626,-0.433 0.19,-0.292 0.239,-0.609 0.629,-0.689 0.126,-0.026 0.262,0.11 0.18,0.233 z m 3.073,7.05 c 0.273,-0.444 0.642,-0.878 1.163,-1.012 0.155,-0.039 0.294,0.166 0.164,0.281 -0.346,0.307 -0.721,0.541 -0.991,0.928 -0.141,0.202 -0.469,0.02 -0.336,-0.197 z m -0.292,-0.854 c -0.539,0.5 -1.08,0.875 -1.466,1.521 -0.1,0.169 -0.403,0.053 -0.325,-0.137 0.297,-0.722 0.825,-1.47 1.615,-1.688 0.17,-0.047 0.31,0.178 0.176,0.304 z m -8.221,-12.369 c 0.742,-1.474 2.748,-2.908 4.478,-2.669 1.355,0.186 3.161,1.509 3.267,2.936 0.022,0.306 -0.376,0.42 -0.574,0.236 -0.924,-0.853 -2.138,-1.962 -3.476,-1.878 -1.308,0.081 -2.369,0.965 -3.401,1.667 -0.191,0.13 -0.383,-0.115 -0.294,-0.292 z m -12.475,21.851 c 0.399,-0.917 0.894,-1.921 1.692,-2.555 0.164,-0.13 0.37,0.029 0.285,0.22 -0.397,0.898 -2.201,2.988 -1.479,3.993 0.622,0.864 2.443,0.554 3.354,0.678 0.255,0.035 0.303,0.459 0.073,0.56 -1.236,0.542 -3.711,0.77 -4.44,-0.744 -0.321,-0.671 0.251,-1.549 0.515,-2.152 z m -14.841,-7.164 c -0.402,0.286 -0.796,0.504 -1.116,0.896 -0.212,0.26 -0.575,-0.111 -0.368,-0.369 0.33,-0.41 0.784,-0.82 1.319,-0.919 0.244,-0.045 0.365,0.25 0.165,0.392 z m 1.714,-0.041 c -0.387,0.332 -0.775,0.591 -1.074,1.018 -0.151,0.215 -0.507,0.015 -0.359,-0.211 0.309,-0.464 0.712,-0.93 1.237,-1.143 0.186,-0.075 0.342,0.21 0.196,0.336 z m 3.366,-2.738 c -1.145,1.503 -2.302,0.151 -2.342,-1.306 -0.025,-0.899 0.174,-2.018 0.717,-2.822 -0.724,-0.069 -1.296,-0.911 -1.313,-1.583 -0.003,-0.158 0.21,-0.167 0.261,-0.035 0.123,0.324 0.294,0.608 0.557,0.838 0.203,0.179 0.442,0.266 0.675,0.382 0.18,-0.339 0.432,-0.622 0.855,-0.762 0.56,-0.186 1.226,-0.044 1.565,0.461 0.865,1.291 -0.16,3.758 -0.975,4.827 z m 3.332,-11.394 c -1.123,-1.558 -3.062,-2.139 -4.808,-1.223 -0.97,0.509 -1.65,1.395 -2.623,1.91 -0.214,0.113 -0.513,-0.076 -0.43,-0.331 1.23,-3.779 6.594,-4.186 8.083,-0.45 0.057,0.139 -0.148,0.196 -0.222,0.094 z m 8.738,32.071 c -1.643,0.081 -3.575,0.15 -4.725,-1.11 -0.16,0.301 -0.372,0.566 -0.65,0.699 -0.21,0.101 -0.447,-0.064 -0.392,-0.302 0.127,-0.55 0.631,-1.085 0.933,-1.562 0.154,-0.244 0.52,-0.084 0.458,0.193 -0.035,0.156 -0.085,0.329 -0.147,0.504 3.214,2.284 8.785,0.157 12.05,-1.113 0.023,-0.309 0.067,-0.611 0.16,-0.866 0.067,-0.185 0.31,-0.185 0.376,0 0.238,0.659 0.234,1.604 0.032,2.272 -0.066,0.216 -0.374,0.216 -0.439,0 -0.07,-0.233 -0.107,-0.503 -0.127,-0.78 -2.286,1.303 -4.911,1.935 -7.529,2.065 z"
               id="path2055" />
            <path
               inkscape:connector-curvature="0"
               style="fill:#d88666"
               d="m 88.211,212.367 c 8.424,-0.84 15.88,-5.569 23.354,-9.158 0.351,-0.169 0.774,-0.037 0.888,0.361 1.237,4.344 3.692,7.744 6.941,10.827 2.389,2.268 5.48,3.814 7.795,6.167 0.057,-0.596 0.119,-1.191 0.188,-1.786 -3.984,-2.241 -6.538,-7.016 -8.421,-10.972 -1.716,-3.604 -3.704,-7.742 -3.708,-11.849 -5.19,5.522 -12.029,9.252 -19.08,11.872 -6.33,2.354 -14.045,5.191 -21.057,4.577 -0.081,0.784 -0.158,1.577 -0.23,2.373 3.742,-2.414 9.109,-1.991 13.33,-2.412 z"
               id="path2057" />
            <path
               inkscape:connector-curvature="0"
               style="fill:#d88666"
               d="m 97.927,261.531 c 0.116,1.184 0.213,2.402 0.246,3.61 l 0.015,0.679 -1.199,0.488 c -0.668,0.264 -1.346,0.503 -2.021,0.751 2.842,0.688 5.713,1.09 8.462,0.464 1.525,-0.348 2.901,-1.167 4.065,-2.263 -0.045,-1.537 -0.038,-3.055 0.006,-4.591 -2.665,0.349 -5.384,0.555 -8.076,0.499 -0.499,0.105 -1.003,0.196 -1.51,0.259 z"
               id="path2059" />
            <path
               inkscape:connector-curvature="0"
               style="fill:#ea4256"
               d="m 120.729,295.123 c -0.77,0.407 -1.34,1.005 -1.858,1.677 0.095,0.006 0.121,0.129 0.044,0.18 -0.136,0.09 -0.272,0.181 -0.408,0.271 -0.132,0.086 -0.315,-0.013 -0.35,-0.155 -0.089,-0.018 -0.174,-0.064 -0.209,-0.185 -0.357,-1.247 -2.693,-3.295 -3.249,-1.089 -0.217,0.86 0.003,1.851 0.295,2.666 0.497,1.397 1.42,2.728 2.379,3.857 1.177,-1.535 2.582,-2.833 3.592,-4.521 0.424,-0.708 1.651,-3.697 -0.236,-2.701 z"
               id="path2061" />
            <path
               inkscape:connector-curvature="0"
               style="fill:#ffffff"
               d="m 112.689,222.479 c -0.283,0.292 -0.516,0.607 -0.685,0.985 10e-4,0.003 0.004,0.003 0.004,0.007 0.091,0.378 0.389,0.7 0.79,0.733 0.255,0.021 0.462,-0.101 0.688,-0.16 0.004,-0.029 0.01,-0.06 0.016,-0.088 0.031,-0.191 0.187,-0.973 0.053,-1.206 -0.26,-0.453 -0.573,-0.445 -0.866,-0.271 z"
               id="path2063" />
            <path
               inkscape:connector-curvature="0"
               style="fill:#1e353f"
               d="m 73.891,272.757 c 0.36,-0.103 0.716,-0.2 1.058,-0.305 2.693,-0.829 5.381,-1.668 8.067,-2.52 2.19,-0.696 4.374,-1.438 6.563,-2.169 l 0.666,-0.219 c 2.232,-0.738 4.471,-1.457 6.731,-2.086 -0.003,-1.262 0.049,-2.539 0.104,-3.79 -8.969,1.149 -17.137,-7.51 -20.273,-15.079 -2.176,-5.251 -2.98,-10.928 -3.24,-16.573 -0.267,-5.769 -0.614,-12.035 0.938,-17.669 -0.579,-0.068 -1.153,-0.152 -1.719,-0.272 -0.257,-0.054 -0.182,-0.431 0.06,-0.44 7.852,-0.29 15.238,-2.061 22.606,-4.758 7.439,-2.725 13.742,-6.798 19.829,-11.794 0.055,-0.795 0.183,-1.588 0.419,-2.376 0.052,-0.175 0.331,-0.146 0.323,0.044 -0.197,5.43 1.885,10.369 4.25,15.162 2.058,4.173 4.735,7.287 7.982,10.561 0.251,0.254 0.011,0.607 -0.283,0.591 0.481,5.3 -0.183,10.817 -0.772,16.07 -0.493,4.389 -1.065,8.899 -2.803,12.995 -2.863,6.752 -9.166,10.54 -16.085,11.893 0.131,1.868 0.214,3.746 0.216,5.618 1.863,0.254 3.733,0.61 5.597,1.015 l 1.003,0.225 c 2.708,0.605 5.396,1.287 8.025,1.871 0.766,0.173 1.532,0.348 2.299,0.521 1.104,-0.874 2.152,-1.818 3.085,-2.906 2.887,-3.372 3.669,-7.544 4.034,-11.838 0.732,-8.648 0.767,-17.357 0.598,-26.028 -0.166,-8.494 -0.331,-17.035 -2.733,-25.251 -2.017,-6.895 -5.209,-15.283 -11.729,-19.094 -0.112,0.047 -0.241,0.048 -0.366,-0.043 -8.819,-6.352 -19.371,-4.059 -28.812,-0.343 -17.809,7.011 -21.606,27.91 -22.663,44.908 -0.557,8.945 -1.096,18.224 -0.272,27.164 0.587,6.366 2.715,12.709 7.297,16.915 z"
               id="path2065" />
            <path
               inkscape:connector-curvature="0"
               style="fill:#101f23"
               d="m 76.807,246.589 c -2.176,-5.251 -2.98,-10.928 -3.24,-16.573 -0.267,-5.769 -0.614,-12.035 0.938,-17.669 -0.579,-0.068 -1.153,-0.152 -1.719,-0.272 -0.257,-0.054 -0.182,-0.431 0.06,-0.44 7.852,-0.29 15.238,-2.061 22.606,-4.758 7.377,-2.701 13.635,-6.732 19.674,-11.671 -0.097,-0.356 -0.195,-0.712 -0.29,-1.071 -2.911,3.51 -7.339,6.257 -11.969,5.998 -0.462,-0.025 -0.745,-0.492 -0.521,-0.909 0.677,-1.264 1.425,-2.481 2.11,-3.735 -7.302,4.71 -15.35,9.025 -24.154,9.445 -0.504,0.024 -0.69,-0.521 -0.521,-0.909 0.499,-1.152 0.922,-2.122 1.166,-3.238 -2.048,1.363 -4.114,2.645 -6.486,3.405 -0.36,0.116 -0.789,-0.198 -0.765,-0.583 0.136,-2.2 0.438,-4.417 0.87,-6.602 -5.355,9.27 -7.05,21.206 -7.701,31.668 -0.557,8.945 -1.096,18.224 -0.272,27.164 0.587,6.367 2.716,12.71 7.298,16.916 0.36,-0.103 0.716,-0.2 1.058,-0.305 2.693,-0.829 5.381,-1.668 8.067,-2.52 2.19,-0.696 4.374,-1.438 6.563,-2.169 l 0.666,-0.219 c 2.232,-0.738 4.471,-1.457 6.731,-2.086 -0.003,-1.262 0.049,-2.539 0.104,-3.79 -8.969,1.151 -17.137,-7.508 -20.273,-15.077 z"
               id="path2067" />
            <path
               inkscape:connector-curvature="0"
               style="fill:#101f23"
               d="m 133.169,228.501 c -0.147,-7.568 -0.306,-15.171 -2.036,-22.551 -0.129,0.684 -0.291,1.358 -0.521,2.009 -0.532,1.509 -2.407,4.449 -4.414,3.005 -1.764,-1.269 -2.732,-3.35 -3.59,-5.378 -0.175,0.84 -0.405,1.668 -0.673,2.506 -0.171,0.535 -0.794,0.556 -1.104,0.145 -0.533,-0.707 -1.004,-1.438 -1.449,-2.177 0.29,0.621 0.588,1.237 0.891,1.852 2.058,4.173 4.735,7.287 7.982,10.561 0.251,0.254 0.011,0.607 -0.283,0.591 0.481,5.3 -0.183,10.817 -0.772,16.07 -0.493,4.389 -1.065,8.899 -2.803,12.995 -2.863,6.752 -9.166,10.54 -16.085,11.893 0.131,1.868 0.214,3.746 0.216,5.618 1.863,0.254 3.733,0.61 5.597,1.015 l 1.003,0.225 c 2.708,0.605 5.396,1.287 8.025,1.871 0.766,0.173 1.532,0.348 2.299,0.521 1.104,-0.874 2.152,-1.818 3.085,-2.906 2.887,-3.372 3.669,-7.544 4.034,-11.838 0.732,-8.648 0.766,-17.357 0.598,-26.027 z"
               id="path2069" />
            <path
               inkscape:connector-curvature="0"
               style="fill:#ffffff"
               d="m 87.402,222.479 c -0.283,0.292 -0.515,0.607 -0.685,0.985 0.001,0.003 0.005,0.003 0.005,0.007 0.09,0.378 0.389,0.7 0.789,0.733 0.256,0.021 0.462,-0.101 0.688,-0.16 0.005,-0.029 0.011,-0.06 0.015,-0.088 0.032,-0.191 0.188,-0.973 0.054,-1.206 -0.259,-0.453 -0.573,-0.445 -0.866,-0.271 z"
               id="path2071" />
            <path
               inkscape:connector-curvature="0"
               style="fill:#f97aa1"
               d="m 139.162,280.004 c -0.521,-2.819 -1.026,-5.491 -3.798,-6.912 -2.162,-1.111 -4.75,-1.512 -7.093,-2.064 -0.815,-0.194 -1.633,-0.376 -2.449,-0.564 l -1.482,-0.343 c -1.241,-0.285 -2.48,-0.577 -3.721,-0.858 -1.834,-0.413 -3.709,-0.767 -5.588,-1.129 -0.284,2.563 -1.145,5.038 -2.911,6.985 -2.563,2.827 -6.366,4.139 -10.108,4.247 -4.072,0.116 -7.099,-0.962 -10.092,-3.726 -1.93,-1.781 -2.426,-4.225 -2.391,-6.7 -1.184,0.386 -2.367,0.77 -3.548,1.155 -3.671,1.198 -7.512,2.167 -11.184,3.447 l -1.335,0.483 c -0.394,0.148 -0.787,0.295 -1.176,0.451 -2.623,1.068 -3.495,4.027 -4.489,6.452 -0.89,2.167 -1.688,4.372 -2.357,6.617 -1.254,4.206 -1.803,8.432 -2.14,12.763 2.589,1.343 5.12,2.797 7.788,3.991 0.202,0.09 0.409,0.171 0.611,0.259 -0.032,-3.865 0.785,-7.913 1.267,-11.715 0.295,-2.324 0.996,-4.576 -0.568,-6.6 -0.684,-0.887 -1.293,-1.598 -1.593,-2.708 -0.088,-0.324 0.371,-0.432 0.488,-0.135 0.681,1.716 2.479,2.598 3.139,4.303 0.564,1.458 0.096,3.197 -0.086,4.684 -0.499,4.085 -0.7,8.538 -1.793,12.533 3.038,1.281 6.157,2.368 9.337,3.234 7.164,1.957 14.607,2.844 22.03,2.583 10.098,-0.357 19.539,-2.92 28.454,-6.986 -0.73,-2.174 -1.141,-4.491 -1.634,-6.72 -0.475,-2.146 -1.136,-4.375 -1.37,-6.56 -0.315,-2.93 2.071,-5.263 3.994,-7.256 0.2,-0.207 0.522,0.058 0.388,0.298 -0.866,1.559 -2.339,2.919 -3.093,4.512 -0.712,1.505 0.3,3.846 0.645,5.383 0.721,3.232 1.671,6.579 2.028,9.897 2.437,-1.146 4.837,-2.396 7.197,-3.751 -0.001,-3.728 0.153,-7.46 -0.195,-11.202 -0.265,-2.799 -0.661,-5.582 -1.172,-8.348 z m -17.778,19.029 c -0.979,1.469 -2.146,3.048 -3.667,3.977 -0.086,0.054 -0.184,0.052 -0.274,0.024 -0.037,0.008 -0.072,0.018 -0.118,0.006 -1.468,-0.438 -2.327,-2.367 -2.921,-3.661 -0.6,-1.308 -0.981,-2.932 -0.421,-4.323 1.075,-2.67 4.308,-0.91 4.527,1.304 0.981,-1.43 3.489,-3.729 4.289,-1.711 0.545,1.374 -0.701,3.31 -1.415,4.384 z"
               id="path2073" />
            <path
               inkscape:connector-curvature="0"
               style="fill:#d65c7a"
               d="m 110.036,278.247 c 4.561,-1.015 8.957,-2.708 13.023,-5.022 1.241,-0.705 2.654,-1.525 3.987,-2.479 -0.408,-0.095 -0.816,-0.19 -1.224,-0.283 l -1.482,-0.343 c -1.241,-0.285 -2.48,-0.577 -3.721,-0.858 -1.834,-0.413 -3.709,-0.767 -5.588,-1.129 -0.284,2.563 -1.145,5.038 -2.911,6.985 -1.81,1.997 -4.242,3.224 -6.831,3.817 1.597,-0.118 3.185,-0.339 4.747,-0.688 z"
               id="path2075" />
            <path
               inkscape:connector-curvature="0"
               style="fill:#d65c7a"
               d="m 92.518,277.557 c 1.208,0.358 2.439,0.641 3.682,0.868 -1.499,-0.604 -2.896,-1.508 -4.28,-2.785 -1.93,-1.781 -2.426,-4.225 -2.391,-6.7 -1.184,0.386 -2.367,0.77 -3.548,1.155 -1.136,0.371 -2.291,0.719 -3.45,1.062 1.796,3.508 6.451,5.354 9.987,6.4 z"
               id="path2077" />
            <path
               inkscape:connector-curvature="0"
               style="fill:#d65c7a"
               d="m 130.081,294.262 c -0.011,0.046 -0.02,0.091 -0.03,0.135 -0.665,2.821 -1.732,5.262 -3.495,7.58 -1.825,2.398 -4.28,4.334 -6.583,6.275 4.245,-1.16 8.378,-2.668 12.398,-4.5 -0.73,-2.174 -1.141,-4.491 -1.634,-6.72 -0.201,-0.912 -0.434,-1.838 -0.656,-2.77 z"
               id="path2079" />
            <path
               inkscape:connector-curvature="0"
               style="fill:#d65c7a"
               d="m 136.338,298.999 c -3.095,-3.994 -2.419,-9.306 -3.415,-14.022 -1.23,1.934 -1.755,4.071 -2.209,6.271 0.2,0.778 0.447,1.536 0.586,2.16 0.721,3.232 1.671,6.579 2.028,9.897 1.739,-0.818 3.453,-1.708 5.154,-2.633 -0.802,-0.348 -1.542,-0.897 -2.144,-1.673 z"
               id="path2081" />
            <path
               inkscape:connector-curvature="0"
               style="fill:#d65c7a"
               d="m 72.395,286.244 c -0.093,-0.121 -0.18,-0.234 -0.27,-0.351 -0.062,4.224 -1.949,8.301 -5.24,11.049 -0.903,0.754 -2.146,1.483 -3.467,1.939 -0.043,0.474 -0.084,0.951 -0.121,1.427 2.589,1.343 5.12,2.797 7.788,3.991 0.202,0.09 0.409,0.171 0.611,0.259 -0.032,-3.865 0.785,-7.913 1.267,-11.715 0.296,-2.323 0.997,-4.575 -0.568,-6.599 z"
               id="path2083" />
            <path
               inkscape:connector-curvature="0"
               style="fill:#d65c7a"
               d="m 78.426,303.469 c -1.748,-4.098 -2.366,-8.591 -3.841,-12.728 -0.078,0.565 -0.177,1.122 -0.241,1.646 -0.499,4.085 -0.7,8.538 -1.793,12.533 2.761,1.162 5.591,2.158 8.47,2.983 -1.012,-1.332 -1.895,-2.789 -2.595,-4.434 z"
               id="path2085" />
            <path
               inkscape:connector-curvature="0"
               style="fill:#f99582"
               d="m 89.745,231.94 c 0.097,1.356 -2.103,2.617 -4.913,2.818 -2.811,0.2 -5.167,-0.736 -5.263,-2.091 -0.097,-1.355 2.102,-2.617 4.913,-2.818 2.81,-0.201 5.166,0.736 5.263,2.091 z"
               id="path2087" />
            <path
               inkscape:connector-curvature="0"
               style="fill:#f99582"
               d="m 122.645,231.463 c -0.039,1.358 -2.353,2.394 -5.169,2.313 -2.817,-0.082 -5.068,-1.249 -5.028,-2.607 0.038,-1.358 2.354,-2.394 5.17,-2.313 2.816,0.081 5.067,1.249 5.027,2.607 z"
               id="path2089" />
            <path
               inkscape:connector-curvature="0"
               style="fill:#ffffff"
               d="m 92.065,192.471 c -2.197,-0.207 -4.089,0.855 -6.113,1.479 0.465,-0.54 0.949,-1.066 1.267,-1.729 0.161,-0.334 -0.029,-0.76 -0.435,-0.758 -2.408,0.016 -4.335,1.392 -6.465,2.259 2.135,-2.432 4.405,-4.762 7.021,-6.667 0.153,-0.111 0.017,-0.362 -0.152,-0.259 -3.511,2.131 -6.471,4.713 -9.27,7.708 -0.355,0.38 -0.142,1.18 0.463,1.119 2.525,-0.259 4.459,-2.337 6.799,-2.974 -0.683,0.625 -1.257,1.309 -1.646,2.237 -0.176,0.422 0.274,1.016 0.729,0.956 2.351,-0.308 4.499,-1.785 6.838,-1.976 -0.057,0.186 -0.111,0.372 -0.183,0.557 -0.19,0.491 0.38,1.002 0.85,0.85 0.43,-0.139 0.51,-0.18 0.837,-0.485 0.147,-0.139 0.06,-0.368 -0.113,-0.427 -0.215,-0.072 0.192,-0.878 0.244,-1.008 0.183,-0.457 -0.266,-0.844 -0.671,-0.882 z"
               id="path2091" />
            <path
               inkscape:connector-curvature="0"
               style="fill:#ffffff"
               d="m 98.258,192.788 c -1.031,-0.419 -2.538,0.792 -2.927,1.689 -0.2,0.459 0.256,1.146 0.776,0.777 0.797,-0.566 1.347,-1.494 2.216,-1.972 0.225,-0.125 0.137,-0.413 -0.065,-0.494 z"
               id="path2093" />
            <path
               inkscape:connector-curvature="0"
               style="fill:#ffffff"
               d="m 100.08,192.449 c -0.062,0.236 -0.201,0.43 -0.262,0.669 -0.132,0.508 0.372,1.164 0.935,0.936 0.455,-0.185 0.738,-0.481 0.973,-0.911 0.638,-1.172 -1.32,-1.946 -1.646,-0.694 z"
               id="path2095" />
            <path
               inkscape:connector-curvature="0"
               style="fill:#ffffff"
               d="m 121.129,188.494 c -0.259,-0.145 -0.574,0.227 -0.327,0.424 1.347,1.078 2.203,2.927 3.014,4.417 0.653,1.202 1.354,2.646 1.544,4.077 -1.059,-0.516 -1.925,-1.591 -3.015,-2.035 -0.41,-0.167 -0.824,0.32 -0.705,0.704 0.184,0.594 0.401,1.041 0.802,1.518 0.321,0.381 0.979,-0.023 0.828,-0.481 -0.021,-0.066 -0.048,-0.128 -0.071,-0.191 0.971,0.697 1.764,2.037 2.841,2.489 0.404,0.17 1.017,-0.18 1.08,-0.612 0.559,-3.857 -2.749,-8.507 -5.991,-10.31 z"
               id="path2097" />
            <path
               inkscape:connector-curvature="0"
               style="fill:#ffffff"
               d="m 120.059,196.029 c -0.206,-0.646 -1.24,-0.356 -1.013,0.279 0.163,0.458 0.545,1.456 1.213,1.119 0.551,-0.276 -0.084,-1.032 -0.2,-1.398 z"
               id="path2099" />
          </g>
          <g
             id="Parni">
            <path
               inkscape:connector-curvature="0"
               d="m 141.321,287.004 c -0.297,-2.744 -0.704,-5.479 -1.255,-8.183 -0.448,-2.198 -0.938,-4.293 -2.747,-5.766 -1.5,-1.223 -3.456,-1.772 -5.297,-2.234 -1.701,-0.427 -3.41,-0.828 -5.122,-1.22 2.299,-1.934 4.217,-4.271 5.31,-7.092 1.139,-2.939 1.411,-6.133 1.639,-9.247 0.284,-3.885 0.447,-7.778 0.522,-11.672 0.287,-14.529 0.865,-30.139 -4.61,-43.868 -2.117,-5.312 -5.069,-11.773 -10.754,-14.017 0.002,-0.105 -0.034,-0.213 -0.122,-0.302 -6.506,-6.578 -17.023,-5.031 -24.955,-2.506 -4.319,1.376 -8.669,2.986 -12.304,5.763 -3.301,2.522 -5.933,5.813 -7.99,9.405 -4.742,8.283 -6.622,17.953 -7.521,27.352 -0.991,10.346 -1.546,21.181 -0.756,31.556 0.49,6.446 2.497,13.614 7.155,18.198 -0.926,0.31 -1.817,0.706 -2.529,1.333 -1.487,1.313 -2.152,3.478 -2.901,5.249 -0.977,2.315 -1.862,4.671 -2.594,7.076 -1.268,4.164 -2.239,8.635 -2.089,13.029 l 0.071,1.078 0.741,0.533 c 5.331,3.629 11.94,5.977 17.977,7.661 7.375,2.058 15.077,3.005 22.729,2.735 12.662,-0.445 25.866,-4.127 36.616,-11.146 l 1.407,-0.953 0.043,-1.073 c 0.135,-3.919 -0.263,-7.965 -0.664,-11.689 M 66.593,255.841 c -0.824,-8.939 -0.285,-18.219 0.272,-27.164 1.057,-16.998 4.854,-37.897 22.663,-44.908 9.441,-3.716 19.993,-6.008 28.812,0.343 0.125,0.091 0.254,0.09 0.366,0.043 6.52,3.811 9.712,12.199 11.729,19.094 2.402,8.216 2.567,16.757 2.733,25.251 0.168,8.67 0.134,17.38 -0.598,26.028 -0.364,4.294 -1.146,8.466 -4.034,11.838 -0.933,1.088 -1.98,2.032 -3.085,2.906 -0.767,-0.174 -1.533,-0.349 -2.299,-0.521 -2.629,-0.584 -5.317,-1.266 -8.025,-1.871 l -1.003,-0.225 c -1.864,-0.404 -3.734,-0.761 -5.597,-1.015 -0.002,-1.872 -0.084,-3.75 -0.216,-5.618 6.919,-1.354 13.222,-5.142 16.085,-11.893 1.738,-4.096 2.31,-8.606 2.803,-12.995 0.589,-5.253 1.253,-10.77 0.772,-16.07 0.293,0.016 0.534,-0.337 0.283,-0.591 -3.247,-3.274 -5.924,-6.388 -7.982,-10.561 -2.364,-4.793 -4.447,-9.732 -4.25,-15.162 0.008,-0.19 -0.271,-0.219 -0.323,-0.044 -0.236,0.788 -0.364,1.581 -0.419,2.376 -6.087,4.996 -12.389,9.069 -19.829,11.794 -7.368,2.697 -14.754,4.468 -22.606,4.758 -0.242,0.01 -0.317,0.387 -0.06,0.44 0.566,0.12 1.141,0.204 1.719,0.272 -1.553,5.634 -1.205,11.9 -0.938,17.669 0.26,5.645 1.064,11.322 3.24,16.573 3.136,7.569 11.304,16.229 20.273,15.079 -0.054,1.251 -0.107,2.528 -0.104,3.79 -2.26,0.629 -4.499,1.348 -6.731,2.086 l -0.666,0.219 c -2.189,0.73 -4.373,1.473 -6.563,2.169 -2.686,0.853 -5.374,1.691 -8.067,2.52 -0.342,0.105 -0.697,0.202 -1.058,0.305 -4.581,-4.205 -6.709,-10.548 -7.297,-16.915 m 31.58,9.301 c -0.034,-1.208 -0.13,-2.427 -0.246,-3.61 l -0.01,-0.104 c 1.686,-0.205 3.372,-0.69 4.764,-1.188 0.176,-0.061 0.162,-0.351 -0.046,-0.343 -1.648,0.069 -3.281,0.312 -4.923,0.45 -0.733,0.062 -1.469,0.065 -2.203,0.079 -3.479,-0.409 -6.728,-1.433 -9.724,-3.667 -4.216,-3.142 -7.069,-7.884 -8.742,-12.805 -3.353,-9.863 -3.002,-21.284 -1.929,-31.55 7.011,0.615 14.727,-2.223 21.057,-4.577 7.051,-2.621 13.89,-6.35 19.08,-11.872 0.004,4.107 1.992,8.246 3.708,11.849 1.882,3.955 4.436,8.73 8.421,10.972 -1.032,8.81 -0.505,17.857 -3.116,26.45 -2.438,8.022 -8.593,11.915 -16.019,14.031 l -0.698,0.2 -0.034,0.802 c -0.058,1.77 -0.068,3.509 -0.009,5.281 l 0.038,0.96 0.988,0.249 c 1.779,0.452 3.593,0.816 5.409,1.173 -0.288,1.768 -0.709,3.495 -1.68,5.043 -2.017,3.207 -5.706,4.855 -9.381,5.158 -3.458,0.285 -6.207,-0.283 -9.009,-2.263 -2.753,-1.943 -3.462,-4.325 -3.595,-7.166 2.259,-0.744 4.51,-1.514 6.719,-2.387 l 1.199,-0.488 z m 42.353,34.413 c -2.36,1.355 -4.761,2.605 -7.197,3.751 -0.357,-3.318 -1.307,-6.665 -2.028,-9.897 -0.344,-1.537 -1.356,-3.878 -0.645,-5.383 0.754,-1.593 2.227,-2.953 3.093,-4.512 0.135,-0.24 -0.188,-0.505 -0.388,-0.298 -1.922,1.993 -4.309,4.326 -3.994,7.256 0.234,2.185 0.895,4.415 1.37,6.56 0.494,2.229 0.904,4.546 1.634,6.72 -8.915,4.066 -18.355,6.63 -28.454,6.986 -7.423,0.261 -14.865,-0.626 -22.03,-2.583 -3.18,-0.866 -6.299,-1.953 -9.337,-3.234 1.093,-3.995 1.293,-8.448 1.793,-12.533 0.182,-1.486 0.65,-3.226 0.086,-4.684 -0.66,-1.705 -2.458,-2.587 -3.139,-4.303 -0.117,-0.297 -0.576,-0.189 -0.488,0.135 0.299,1.11 0.909,1.821 1.593,2.708 1.565,2.023 0.863,4.275 0.568,6.6 -0.482,3.802 -1.298,7.85 -1.267,11.715 -0.203,-0.088 -0.409,-0.169 -0.611,-0.259 -2.668,-1.194 -5.2,-2.648 -7.788,-3.991 0.337,-4.331 0.886,-8.557 2.14,-12.763 0.669,-2.245 1.467,-4.45 2.357,-6.617 0.995,-2.425 1.867,-5.384 4.489,-6.452 0.389,-0.156 0.782,-0.303 1.176,-0.451 l 1.335,-0.483 c 3.672,-1.28 7.513,-2.249 11.184,-3.447 1.181,-0.385 2.365,-0.77 3.548,-1.155 -0.035,2.475 0.461,4.919 2.391,6.7 2.994,2.764 6.021,3.842 10.092,3.726 3.742,-0.108 7.546,-1.42 10.108,-4.247 1.766,-1.947 2.628,-4.422 2.911,-6.985 1.879,0.362 3.754,0.716 5.588,1.129 1.241,0.281 2.48,0.573 3.721,0.858 l 1.482,0.343 c 0.816,0.189 1.634,0.37 2.449,0.564 2.343,0.553 4.931,0.953 7.093,2.064 2.771,1.421 3.277,4.093 3.798,6.912 0.511,2.766 0.907,5.549 1.169,8.349 0.352,3.741 0.197,7.472 0.198,11.201"
               id="path2103" />
            <path
               inkscape:connector-curvature="0"
               d="m 122.799,294.648 c -0.8,-2.018 -3.308,0.281 -4.289,1.711 -0.219,-2.214 -3.453,-3.974 -4.527,-1.304 -0.56,1.392 -0.179,3.016 0.421,4.323 0.594,1.294 1.454,3.224 2.921,3.661 0.046,0.013 0.081,0.002 0.118,-0.006 0.09,0.027 0.188,0.029 0.274,-0.024 1.521,-0.929 2.688,-2.508 3.667,-3.977 0.714,-1.073 1.96,-3.009 1.415,-4.384 m -1.834,3.176 c -1.01,1.688 -2.415,2.985 -3.592,4.521 -0.959,-1.129 -1.883,-2.46 -2.379,-3.857 -0.292,-0.815 -0.512,-1.806 -0.295,-2.666 0.555,-2.206 2.891,-0.158 3.249,1.089 0.034,0.12 0.119,0.167 0.209,0.185 0.036,0.143 0.218,0.241 0.35,0.155 0.136,-0.09 0.271,-0.181 0.408,-0.271 0.077,-0.051 0.051,-0.174 -0.044,-0.18 0.519,-0.672 1.089,-1.27 1.858,-1.677 1.887,-0.996 0.66,1.993 0.236,2.701"
               id="path2105" />
            <path
               inkscape:connector-curvature="0"
               d="m 108.097,243.89 c -0.066,-0.185 -0.308,-0.185 -0.376,0 -0.092,0.255 -0.137,0.558 -0.16,0.866 -3.265,1.27 -8.835,3.397 -12.05,1.113 0.062,-0.175 0.112,-0.348 0.147,-0.504 0.062,-0.276 -0.304,-0.436 -0.458,-0.193 -0.302,0.477 -0.806,1.012 -0.933,1.562 -0.055,0.238 0.183,0.402 0.392,0.302 0.278,-0.133 0.49,-0.398 0.65,-0.699 1.15,1.261 3.081,1.191 4.725,1.11 2.618,-0.13 5.244,-0.762 7.528,-2.064 0.021,0.276 0.057,0.547 0.127,0.78 0.065,0.216 0.373,0.216 0.439,0 0.203,-0.669 0.207,-1.614 -0.031,-2.273"
               id="path2107" />
            <path
               inkscape:connector-curvature="0"
               d="m 101.578,239.048 c -0.911,-0.124 -2.732,0.186 -3.354,-0.678 -0.722,-1.005 1.082,-3.095 1.479,-3.993 0.084,-0.191 -0.121,-0.35 -0.285,-0.22 -0.799,0.634 -1.293,1.638 -1.692,2.555 -0.264,0.603 -0.836,1.481 -0.514,2.151 0.729,1.514 3.204,1.285 4.44,0.744 0.229,-0.1 0.181,-0.524 -0.074,-0.559"
               id="path2109" />
            <path
               inkscape:connector-curvature="0"
               d="m 83.436,215.731 c -0.082,0.255 0.216,0.444 0.43,0.331 0.973,-0.515 1.652,-1.4 2.623,-1.91 1.746,-0.916 3.685,-0.335 4.808,1.223 0.074,0.102 0.279,0.045 0.223,-0.094 -1.489,-3.736 -6.854,-3.329 -8.084,0.45"
               id="path2111" />
            <path
               inkscape:connector-curvature="0"
               d="m 114.679,212.193 c -1.729,-0.239 -3.735,1.195 -4.478,2.669 -0.089,0.177 0.103,0.422 0.293,0.293 1.033,-0.703 2.094,-1.587 3.401,-1.667 1.338,-0.084 2.552,1.025 3.476,1.878 0.198,0.184 0.596,0.069 0.574,-0.236 -0.106,-1.428 -1.911,-2.752 -3.266,-2.937"
               id="path2113" />
            <path
               inkscape:connector-curvature="0"
               d="m 88.939,221.944 c -0.339,-0.505 -1.005,-0.647 -1.565,-0.461 -0.423,0.14 -0.675,0.423 -0.855,0.762 -0.232,-0.116 -0.472,-0.203 -0.675,-0.382 -0.264,-0.23 -0.434,-0.514 -0.557,-0.838 -0.05,-0.132 -0.264,-0.124 -0.261,0.035 0.017,0.672 0.589,1.514 1.313,1.583 -0.543,0.804 -0.741,1.923 -0.717,2.822 0.04,1.458 1.197,2.809 2.342,1.306 0.816,-1.07 1.841,-3.537 0.975,-4.827 m -0.725,2.012 c -0.004,0.028 -0.01,0.059 -0.015,0.088 -0.226,0.059 -0.432,0.182 -0.688,0.16 -0.4,-0.034 -0.699,-0.355 -0.789,-0.733 0,-0.004 -0.004,-0.004 -0.005,-0.007 0.17,-0.377 0.402,-0.693 0.685,-0.985 0.293,-0.173 0.607,-0.181 0.866,0.271 0.135,0.233 -0.021,1.014 -0.054,1.206"
               id="path2115" />
            <path
               inkscape:connector-curvature="0"
               d="m 115.461,220.802 c -0.39,0.08 -0.439,0.397 -0.629,0.689 -0.154,0.238 -0.383,0.345 -0.626,0.433 -0.344,-0.486 -0.994,-0.624 -1.545,-0.442 -0.579,0.19 -0.84,0.647 -1.032,1.155 -0.545,0.804 -0.744,1.926 -0.72,2.827 0.041,1.458 1.197,2.809 2.343,1.306 0.699,-0.916 1.542,-2.854 1.227,-4.202 0.138,-0.05 0.274,-0.117 0.399,-0.215 0.458,-0.354 0.462,-0.869 0.763,-1.318 0.082,-0.123 -0.054,-0.259 -0.18,-0.233 m -1.959,3.154 c -0.005,0.028 -0.011,0.059 -0.016,0.088 -0.226,0.059 -0.433,0.182 -0.688,0.16 -0.401,-0.034 -0.699,-0.355 -0.79,-0.733 0,-0.004 -0.003,-0.004 -0.004,-0.007 0.169,-0.377 0.401,-0.693 0.685,-0.985 0.293,-0.173 0.606,-0.181 0.866,0.271 0.134,0.233 -0.022,1.014 -0.053,1.206"
               id="path2117" />
            <path
               inkscape:connector-curvature="0"
               d="m 118.245,226.927 c -0.79,0.218 -1.318,0.966 -1.615,1.688 -0.078,0.19 0.226,0.306 0.325,0.137 0.387,-0.646 0.928,-1.021 1.466,-1.521 0.135,-0.126 -0.005,-0.351 -0.176,-0.304"
               id="path2119" />
            <path
               inkscape:connector-curvature="0"
               d="m 119.877,227.073 c -0.522,0.134 -0.89,0.568 -1.163,1.012 -0.132,0.216 0.195,0.399 0.336,0.197 0.27,-0.387 0.645,-0.622 0.991,-0.928 0.13,-0.115 -0.009,-0.32 -0.164,-0.281"
               id="path2121" />
            <path
               inkscape:connector-curvature="0"
               d="m 82.721,229.157 c -0.535,0.099 -0.989,0.509 -1.319,0.919 -0.208,0.258 0.156,0.629 0.368,0.369 0.319,-0.392 0.713,-0.61 1.116,-0.896 0.199,-0.142 0.078,-0.437 -0.165,-0.392"
               id="path2123" />
            <path
               inkscape:connector-curvature="0"
               d="m 84.403,229.172 c -0.526,0.213 -0.928,0.679 -1.237,1.143 -0.148,0.226 0.208,0.426 0.359,0.211 0.299,-0.427 0.687,-0.686 1.074,-1.018 0.146,-0.126 -0.01,-0.411 -0.196,-0.336"
               id="path2125" />
          </g>
        </g>
      </g>
    </g>
  </g>
</svg>
