<?xml version="1.0" encoding="UTF-8" standalone="no"?>
<!-- Created with Inkscape (http://www.inkscape.org/) -->

<svg
   xmlns:dc="http://purl.org/dc/elements/1.1/"
   xmlns:cc="http://creativecommons.org/ns#"
   xmlns:rdf="http://www.w3.org/1999/02/22-rdf-syntax-ns#"
   xmlns:svg="http://www.w3.org/2000/svg"
   xmlns="http://www.w3.org/2000/svg"
   xmlns:xlink="http://www.w3.org/1999/xlink"
   xmlns:sodipodi="http://sodipodi.sourceforge.net/DTD/sodipodi-0.dtd"
   xmlns:inkscape="http://www.inkscape.org/namespaces/inkscape"
   width="181mm"
   height="181mm"
   viewBox="0 0 181 181"
   version="1.1"
   id="svg4301"
   inkscape:version="0.92.4 (5da689c313, 2019-01-14)"
   sodipodi:docname="AboutCha1.svg">
  <defs
     id="defs4295">
    <clipPath
       id="SVGID_00000113321611784114216870000013912409115802730685_">
      <use
         height="100%"
         width="100%"
         y="0"
         x="0"
         xlink:href="#SVGID_00000000941233820754225300000017452832062705836447_"
         style="overflow:visible"
         id="use1930" />
    </clipPath>
    <path
       inkscape:connector-curvature="0"
       id="SVGID_00000000941233820754225300000017452832062705836447_"
       d="m 172.199,89.229 c 0,38.175 -30.946,69.121 -69.12,69.121 -38.175,0 -69.121,-30.946 -69.121,-69.121 0,-38.174 30.946,-69.12 69.121,-69.12 38.174,0 69.12,30.946 69.12,69.12 z" />
    <clipPath
       id="SVGID_00000052092502169152378210000005145085261227362728_">
      <use
         height="100%"
         width="100%"
         y="0"
         x="0"
         xlink:href="#SVGID_00000165202363642182927450000002705565891009891480_"
         style="overflow:visible"
         id="use1844" />
    </clipPath>
    <path
       inkscape:connector-curvature="0"
       id="SVGID_00000165202363642182927450000002705565891009891480_"
       d="m 319.117,89.229 c 0,38.175 -30.945,69.121 -69.119,69.121 -38.175,0 -69.121,-30.946 -69.121,-69.121 0,-38.174 30.946,-69.12 69.121,-69.12 38.174,0 69.119,30.946 69.119,69.12 z" />
  </defs>
  <sodipodi:namedview
     id="base"
     pagecolor="#ffffff"
     bordercolor="#666666"
     borderopacity="1.0"
     inkscape:pageopacity="0.0"
     inkscape:pageshadow="2"
     inkscape:zoom="0.7"
     inkscape:cx="361.24519"
     inkscape:cy="351.43754"
     inkscape:document-units="mm"
     inkscape:current-layer="g1923"
     showgrid="false"
     inkscape:window-width="1366"
     inkscape:window-height="745"
     inkscape:window-x="-8"
     inkscape:window-y="-8"
     inkscape:window-maximized="1" />
  <metadata
     id="metadata4298">
    <rdf:RDF>
      <cc:Work
         rdf:about="">
        <dc:format>image/svg+xml</dc:format>
        <dc:type
           rdf:resource="http://purl.org/dc/dcmitype/StillImage" />
        <dc:title></dc:title>
      </cc:Work>
    </rdf:RDF>
  </metadata>
  <g
     inkscape:label="Layer 1"
     inkscape:groupmode="layer"
     id="layer1"
     transform="translate(0,-116)">
    <rect
       style="opacity:1;fill:#6ff757;fill-opacity:1;stroke:none;stroke-width:2.44956493;stroke-miterlimit:4;stroke-dasharray:none;stroke-opacity:1"
       id="rect12114"
       width="182.5625"
       height="184.0744"
       x="-0.75595248"
       y="114.81548" />
    <g
       transform="matrix(1.4293537,0,0,1.4293537,-270.39961,86.304733)"
       id="g1923">
      <g
         id="g1921"
         transform="translate(-0.52887706,4.495455)">
        <defs
           id="defs1842">
          <path
             inkscape:connector-curvature="0"
             id="path6692"
             d="m 319.117,89.229 c 0,38.175 -30.945,69.121 -69.119,69.121 -38.175,0 -69.121,-30.946 -69.121,-69.121 0,-38.174 30.946,-69.12 69.121,-69.12 38.174,0 69.119,30.946 69.119,69.12 z" />
        </defs>
        <clipPath
           id="clipPath6597">
          <use
             height="100%"
             width="100%"
             y="0"
             x="0"
             xlink:href="#SVGID_00000165202363642182927450000002705565891009891480_"
             style="overflow:visible"
             id="use6595" />
        </clipPath>
        <g
           clip-path="url(#SVGID_00000052092502169152378210000005145085261227362728_)"
           id="g1919">
          <g
             id="g1883">
            <path
               inkscape:connector-curvature="0"
               style="fill:#ffffff"
               d="m 264.834,81.706 c -0.259,-0.29 -0.469,-0.279 -0.625,0.031 -0.065,0.024 -0.138,0.061 -0.211,0.1 -0.083,0.667 -0.015,1.801 -0.002,1.962 0.007,0.082 0.011,0.182 0.018,0.289 0.234,0.038 0.483,-0.005 0.675,-0.154 0.176,-0.133 0.259,-0.339 0.39,-0.509 0.021,-0.45 0.018,-0.907 -0.092,-1.317 -0.052,-0.134 -0.102,-0.268 -0.153,-0.402 z"
               id="path1847" />
            <path
               inkscape:connector-curvature="0"
               style="fill:#9e3f2a"
               d="m 265.017,74.632 c 2.056,-0.382 2.957,0.421 3.752,1.92 0.253,-1.416 0.271,-2.774 -1.522,-3.292 -0.952,-0.275 -2.209,-0.09 -3.152,0.192 -0.963,0.29 -1.896,0.834 -2.628,1.53 -0.613,0.586 -2.189,2.428 -1.522,3.516 1.202,-1.801 2.882,-3.458 5.072,-3.866 z"
               id="path1849" />
            <path
               inkscape:connector-curvature="0"
               style="fill:#ffffff"
               d="m 249.719,106.131 c 0.496,0.085 1.178,-0.079 1.677,-0.136 2.532,-0.288 5.542,-0.562 7.135,-2.631 -1.546,0.544 -3.274,0.671 -4.884,0.851 -1.848,0.206 -3.795,0.429 -5.658,0.179 0.051,0.109 0.12,0.251 0.244,0.45 0.38,0.618 0.491,1.116 1.486,1.287 z"
               id="path1851" />
            <path
               inkscape:connector-curvature="0"
               style="fill:#9e3f2a"
               d="m 238.66,73.399 c -0.892,-0.112 -1.952,-0.171 -2.796,0.191 -1.393,0.597 -1.598,1.533 -1.752,2.744 2.794,-2.071 7.174,-1.218 9.061,1.795 0.898,-2.484 -2.626,-4.493 -4.513,-4.73 z"
               id="path1853" />
            <path
               inkscape:connector-curvature="0"
               style="fill:#e8a46b"
               d="m 251.244,133.243 c 2.953,0.637 5.651,-4.346 6.812,-6.428 1.2,-2.152 2.123,-4.429 3.184,-6.649 -0.764,-0.1 -1.526,-0.207 -2.285,-0.338 -0.068,1.026 -0.209,2.03 -0.478,2.956 -0.086,0.291 -0.577,0.336 -0.636,0 -0.454,-2.642 0.052,-5.714 0.32,-8.368 0.04,-0.382 0.487,-0.465 0.674,-0.229 2.619,-0.937 5.617,-0.946 8.097,-2.25 2.491,-1.312 4.064,-4.101 5.079,-6.632 2.174,-5.421 2.035,-11.477 2.213,-17.222 0.009,-0.301 0.434,-0.339 0.46,-0.047 0.161,1.648 0.293,2.975 0.352,4.896 h 10e-4 c 1.861,2.881 4.197,0.107 4.991,-1.233 0.456,-0.77 0.763,-1.529 0.996,-2.389 0.4,-1.479 0.517,-3.055 0.623,-4.578 0.143,-1.977 0.538,-5.817 -2.509,-5.315 -1.656,0.273 -2.894,1.788 -3.773,3.184 -0.028,0.117 -0.046,0.239 -0.076,0.355 -0.044,0.16 -0.177,0.22 -0.309,0.222 -0.198,0.187 -0.575,0.019 -0.484,-0.279 0.041,-0.137 0.089,-0.277 0.141,-0.418 -0.01,-4.201 0.145,-8.34 -0.204,-12.545 -0.396,-4.8 -1.926,-8.557 -4.963,-12.289 -0.044,-0.054 -0.053,-0.11 -0.057,-0.163 -0.176,0.087 -0.349,0.171 -0.52,0.251 -3.442,1.605 -7.219,2.472 -11.019,2.502 -2.715,0.023 -6.371,-0.153 -8.893,-1.605 0.316,0.739 0.488,1.642 -0.238,2 -0.943,0.464 -2.568,-0.585 -3.711,-1.496 0.1,0.201 0.208,0.4 0.342,0.59 0.185,0.31 -0.119,0.639 -0.441,0.576 -1.226,-0.242 -2.335,-0.631 -3.404,-1.165 0.154,0.216 0.308,0.433 0.461,0.65 0.208,0.296 -0.078,0.635 -0.378,0.66 -1.38,0.115 -2.561,-0.224 -3.713,-0.795 0.094,0.157 0.189,0.313 0.284,0.47 0.005,0.005 0.003,0.014 0.008,0.02 0.009,0.002 0.021,0.003 0.033,0.005 0.383,0.065 0.242,0.595 -0.086,0.627 -1.526,0.152 -3.576,-0.278 -5.347,-1.165 -3.376,2.075 -4.177,5.87 -4.74,9.539 -0.691,4.5 -0.639,9.084 -0.113,13.6 0.03,0.262 -0.397,0.311 -0.453,0.062 -0.238,-1.056 -0.416,-2.117 -0.565,-3.181 -0.46,-0.452 -1.272,-1.368 -1.797,-1.494 -1.174,-0.282 -1.392,0.612 -1.749,1.282 -0.654,1.225 -0.522,3.351 -0.541,4.77 -0.023,1.996 0.509,11.13 4.526,8.647 -0.002,-1.98 0.131,-3.931 0.372,-5.784 0.034,-0.269 0.447,-0.287 0.435,0 -0.28,6.386 0.447,13.628 3.444,19.379 2.706,5.194 8.165,8.015 13.792,8.785 0.171,-0.13 0.431,-0.148 0.542,0.084 0.484,1.008 0.717,2.243 0.752,3.478 0.137,0.127 0.135,0.346 0.006,0.49 -0.014,0.899 -0.131,1.781 -0.345,2.559 -0.109,0.394 -0.639,0.277 -0.672,-0.091 -0.063,-0.686 -0.082,-1.374 -0.104,-2.062 -0.902,0.266 -1.828,0.488 -2.761,0.69 0.835,2.44 1.565,4.923 2.793,7.205 1.091,2.028 3.184,5.149 5.631,5.676 z m 25.643,-49.735 c 1.324,-1.515 2.884,-0.288 3.285,1.274 0.115,0.448 -0.478,0.667 -0.721,0.305 -0.552,-0.82 -1.158,-1.014 -1.868,-0.22 -0.415,0.463 -0.569,1.394 -0.71,1.996 -0.279,1.189 -0.329,2.415 -0.559,3.612 -0.047,0.236 -0.443,0.243 -0.483,0 -0.34,-2.076 -0.433,-5.265 1.056,-6.967 z m -50.325,3.009 c -0.384,-0.564 -0.588,-1.206 -0.84,-1.836 -0.128,-0.321 -0.257,-0.683 -0.49,-0.947 -0.271,-0.307 -1.042,-0.542 -0.996,0.114 0.024,0.366 -0.54,0.427 -0.627,0.085 -0.292,-1.135 1.019,-1.79 1.948,-1.292 0.556,0.298 0.876,0.878 1.111,1.437 0.304,0.722 0.583,1.459 0.587,2.252 0.002,0.388 -0.492,0.48 -0.693,0.187 z M 240,84.119 c -0.033,0.763 -0.039,1.638 -0.707,2.146 -1.538,1.166 -2.309,-1.189 -2.382,-2.29 -0.042,-0.643 -0.077,-2.867 0.781,-3.147 0.519,-0.719 1.667,-0.438 2.11,0.665 0.329,0.823 0.234,1.762 0.198,2.626 z m 3.629,-5.213 c -0.104,0.082 -0.22,0.102 -0.326,0.082 -0.119,0.125 -0.297,0.179 -0.469,0.053 -1.256,-0.917 -2.223,-2.087 -3.751,-2.604 -1.761,-0.597 -3.734,-0.352 -5.143,0.91 -0.283,0.254 -0.672,-0.081 -0.529,-0.372 -0.03,-0.037 -0.069,-0.06 -0.088,-0.114 -1.273,-3.705 3.105,-5.008 5.889,-4.522 1.851,0.324 3.578,1.383 4.493,3.06 0.585,1.077 1.003,2.646 -0.076,3.507 z m 22.458,5.213 c -0.031,0.763 -0.038,1.638 -0.706,2.146 -1.538,1.166 -2.31,-1.189 -2.382,-2.29 -0.042,-0.643 -0.077,-2.867 0.78,-3.147 0.52,-0.719 1.667,-0.438 2.108,0.665 0.332,0.823 0.237,1.762 0.2,2.626 z m -6.945,-7.76 c 0.902,-1.925 2.634,-3.361 4.656,-3.979 1.775,-0.543 4.24,-0.629 5.585,0.88 1.15,1.29 0.876,3.049 -0.171,4.29 -0.037,0.044 -0.077,0.069 -0.119,0.087 -0.091,0.145 -0.268,0.228 -0.465,0.129 -0.559,-0.28 -0.477,-0.304 -0.871,-0.782 -0.957,-1.156 -1.853,-1.526 -3.274,-1.026 -1.778,0.625 -2.925,2.204 -4.232,3.459 -0.031,0.03 -0.068,0.032 -0.104,0.05 -0.006,0.104 -0.052,0.211 -0.162,0.231 -0.522,0.093 -0.908,-0.434 -1.012,-0.976 -0.45,-0.573 -0.211,-1.552 0.169,-2.363 z m -10.24,16.653 c 0.297,-2.104 0.736,-4.15 1.27,-6.205 0.077,-0.296 0.487,-0.162 0.445,0.122 -0.299,2.061 -0.548,4.141 -0.73,6.215 -0.052,0.604 -0.29,1.504 -0.135,2.109 0.6,2.334 2.928,1.767 4.48,1.74 0.355,-0.006 0.54,0.545 0.189,0.704 -1.786,0.813 -4.983,1.12 -5.696,-1.247 -0.325,-1.077 0.023,-2.351 0.177,-3.438 z m -1.647,10.718 c 0.013,0.005 0.019,0.009 0.03,0.015 1.801,-0.363 3.666,-0.332 5.491,-0.52 2.135,-0.219 4.329,-0.91 6.471,-0.853 0.249,0.006 0.393,0.292 0.294,0.491 -0.057,1.215 -0.097,2.285 -1.257,2.85 -1.556,0.761 -3.784,0.961 -5.486,1.233 -1.307,0.208 -3.199,0.746 -4.464,0.146 -1.354,-0.644 -0.769,-1.843 -1.465,-2.976 -0.158,-0.254 0.145,-0.507 0.386,-0.386 z"
               id="path1855" />
            <path
               inkscape:connector-curvature="0"
               style="fill:#d3745e"
               d="m 254.814,116.722 c -1.712,0.491 -3.548,0.514 -5.314,0.404 -1.069,-0.066 -2.081,-0.199 -3.066,-0.375 0.151,0.65 0.242,1.335 0.26,2.024 0.137,0.127 0.135,0.346 0.006,0.49 -0.002,0.108 -0.019,0.211 -0.023,0.318 2.04,1.368 4.655,2.658 6.709,2.592 1.711,-0.055 3.063,-0.409 4.276,-1.42 -0.032,-1.728 0.187,-3.537 0.379,-5.233 -1.124,0.265 -2.274,0.926 -3.227,1.2 z"
               id="path1857" />
            <path
               inkscape:connector-curvature="0"
               style="fill:#d3745e"
               d="m 229.549,64.946 c 3.643,-2.202 8.779,5.378 11.333,-0.29 0.092,-0.205 0.391,-0.31 0.596,-0.242 2.125,0.697 3.426,-0.548 5.473,-0.61 2.025,-0.059 3.999,0.482 6.013,0.446 4.883,-0.088 9.684,-1.444 14.596,-1.221 1.919,0.087 3.886,0.522 5.71,1.28 -0.819,-2.356 -2.054,-4.518 -3.8,-6.663 -0.044,-0.054 -0.053,-0.11 -0.057,-0.163 -0.176,0.087 -0.349,0.171 -0.52,0.251 -3.442,1.605 -7.219,2.472 -11.019,2.502 -2.715,0.023 -6.371,-0.153 -8.893,-1.605 0.316,0.739 0.488,1.642 -0.238,2 -0.943,0.464 -2.568,-0.585 -3.711,-1.496 0.1,0.201 0.208,0.4 0.342,0.59 0.185,0.31 -0.119,0.639 -0.441,0.576 -1.226,-0.242 -2.335,-0.631 -3.404,-1.165 0.154,0.216 0.308,0.433 0.461,0.65 0.208,0.296 -0.078,0.635 -0.378,0.66 -1.38,0.115 -2.561,-0.224 -3.713,-0.795 0.094,0.157 0.189,0.313 0.284,0.47 0.005,0.005 0.003,0.014 0.008,0.02 0.009,0.002 0.021,0.003 0.033,0.005 0.383,0.065 0.242,0.595 -0.086,0.627 -1.526,0.152 -3.576,-0.278 -5.347,-1.165 -2.273,1.397 -3.376,3.574 -4.028,5.966 0.251,-0.244 0.512,-0.462 0.786,-0.628 z"
               id="path1859" />
            <path
               inkscape:connector-curvature="0"
               style="fill:#c16c33"
               d="m 226.76,78.338 c -0.395,-3.764 -0.244,-7.562 0.482,-11.315 0.573,-2.955 1.646,-6.742 4.706,-7.887 -1.671,-1.044 -2.926,-2.536 -2.925,-4.375 0,-0.271 0.382,-0.31 0.46,-0.062 1.067,3.344 4.591,4.627 7.774,5.267 -0.287,-0.291 -0.508,-0.611 -0.708,-1.047 -0.064,0.053 -0.148,0.083 -0.233,0.032 -3.698,-2.252 -4.866,-6.63 -3.468,-10.622 0.109,-0.313 0.599,-0.185 0.503,0.138 -1.174,3.88 0.159,7.442 3.117,10.058 0.052,-0.23 0.287,-0.384 0.555,-0.254 1.269,0.616 2.427,1.169 3.779,1.281 -0.289,-0.461 -0.578,-0.923 -0.874,-1.381 -0.203,-0.311 0.202,-0.716 0.512,-0.512 1.219,0.792 2.485,1.333 3.858,1.685 -0.174,-0.397 -0.307,-0.8 -0.411,-1.282 -0.081,-0.382 0.363,-0.656 0.656,-0.382 0.81,0.757 4.4,3.324 3.495,0.407 -0.015,-0.043 0.003,-0.075 0.007,-0.112 -0.023,-0.02 -0.053,-0.033 -0.077,-0.054 -0.157,-0.135 -0.031,-0.422 0.171,-0.41 3.042,0.176 5.896,1.437 9.02,1.496 3.157,0.06 6.325,-0.48 9.292,-1.558 6.459,-2.349 13.59,-8.037 12.247,-15.522 -0.877,1.965 -2.121,3.791 -3.386,5.251 -0.162,0.185 -0.434,-0.053 -0.327,-0.252 0.893,-1.667 1.926,-3.266 2.699,-4.997 0.904,-2.025 1.15,-3.934 1.31,-6.065 -5.923,9.191 -19.157,5.903 -27.775,3.293 -6.172,-1.87 -14.398,-4.754 -19.639,0.513 -2.16,2.169 -3.896,5.076 -4.576,8.075 -0.799,3.524 0.004,6.512 1.513,9.695 0.173,0.366 -0.27,0.791 -0.583,0.5 -6.344,3.577 -5.254,12.84 -3.52,18.847 0.889,0.094 1.738,0.793 2.346,1.551 z M 251.031,55.46 c -0.18,0.278 -0.4,0.525 -0.61,0.779 -0.175,0.216 -0.487,-0.094 -0.307,-0.307 0.201,-0.238 0.394,-0.487 0.62,-0.7 0.154,-0.141 0.414,0.044 0.297,0.228 z m -7.106,-3.701 c 0.037,1.349 0.255,2.618 0.672,3.865 0.356,-1.758 0.956,-3.434 1.783,-5.042 0.169,-0.328 0.588,-0.126 0.626,0.169 0.122,0.989 -0.212,1.901 -0.261,2.889 -0.047,0.961 0.118,1.894 0.428,2.789 0.619,-1.302 1.392,-3.017 2.768,-3.322 0.93,-0.207 1.688,0.335 1.681,1.284 -0.001,0.148 -0.224,0.181 -0.259,0.035 -1.24,-0.842 -2.079,-0.703 -2.514,0.419 -0.131,0.245 -0.259,0.492 -0.384,0.74 -0.337,0.646 -0.673,1.292 -1.014,1.937 -0.12,0.227 -0.524,0.254 -0.637,0 -0.406,-0.921 -0.694,-1.857 -0.774,-2.866 -0.051,-0.653 0.062,-1.3 0.169,-1.943 -0.511,1.355 -0.902,2.742 -1.197,4.179 -0.07,0.339 -0.515,0.268 -0.617,0 -0.64,-1.673 -0.957,-3.342 -0.959,-5.131 0,-0.317 0.481,-0.315 0.489,-0.002 z m -1.039,-0.583 c 0.117,-0.214 0.482,-0.065 0.398,0.168 -0.695,1.913 -1.034,3.731 -0.609,5.756 0.059,0.281 -0.369,0.401 -0.432,0.119 -0.459,-2.009 -0.36,-4.204 0.643,-6.043 z m -6.258,-1.994 c 0.058,-0.322 0.525,-0.178 0.482,0.134 -0.418,3.043 1.152,5.405 3.408,7.255 0.285,0.233 -0.081,0.6 -0.362,0.471 -2.894,-1.327 -4.054,-4.907 -3.528,-7.86 z"
               id="path1861" />
            <path
               inkscape:connector-curvature="0"
               style="fill:#c16c33"
               d="m 269.82,57.272 c 0.005,0.003 0.011,0.002 0.016,0.005 3.301,2.736 4.931,6.719 5.505,10.886 0.533,3.87 0.978,8.279 0.424,12.301 0.807,-1.054 1.888,-1.922 3.1,-2.241 0.002,-0.014 -0.002,-0.026 10e-4,-0.041 0.893,-4.423 0.886,-8.819 0.207,-13.272 -0.674,-4.423 -2.36,-8.268 -7.21,-8.836 -0.689,0.446 -1.375,0.848 -2.043,1.198 z"
               id="path1863" />
            <path
               inkscape:connector-curvature="0"
               style="fill:#9e3f2a"
               d="m 267.17,52.696 c -4.528,0.801 -9.459,1.472 -14.058,0.963 -0.738,-0.081 -1.429,-0.218 -2.075,-0.399 0.358,0.219 0.589,0.61 0.585,1.13 -0.001,0.148 -0.224,0.181 -0.259,0.035 -1.24,-0.842 -2.079,-0.703 -2.514,0.419 -0.131,0.245 -0.259,0.492 -0.384,0.74 -0.337,0.646 -0.673,1.292 -1.014,1.937 -0.12,0.227 -0.524,0.254 -0.637,0 -0.406,-0.921 -0.694,-1.857 -0.774,-2.866 -0.051,-0.653 0.062,-1.3 0.169,-1.943 -0.511,1.355 -0.902,2.742 -1.197,4.179 -0.07,0.339 -0.515,0.268 -0.617,0 -0.64,-1.673 -0.957,-3.342 -0.959,-5.131 0,-0.315 0.481,-0.313 0.489,0 0.037,1.349 0.255,2.618 0.672,3.865 0.356,-1.758 0.956,-3.434 1.783,-5.042 0.169,-0.328 0.588,-0.126 0.626,0.169 0.122,0.989 -0.212,1.901 -0.261,2.889 -0.047,0.961 0.118,1.894 0.428,2.789 0.619,-1.302 1.392,-3.017 2.768,-3.322 0.178,-0.04 0.346,-0.044 0.507,-0.031 -2.063,-0.725 -3.482,-2.094 -3.693,-4.524 -1.083,1 -2.463,2.545 -3.763,1.783 -1.039,-0.608 -1.065,-2.321 -1.214,-3.613 -1.261,1.272 -3.141,3.764 -4.654,2.25 -1.167,-1.167 -0.296,-3.581 0.045,-5.351 -2.376,1.875 -7.67,6.628 -8.508,2.766 -0.188,-0.87 -0.186,-1.806 -0.042,-2.764 -0.728,1.309 -1.292,2.705 -1.614,4.124 -0.799,3.524 0.004,6.512 1.513,9.695 0.173,0.366 -0.27,0.791 -0.583,0.5 -6.344,3.577 -5.254,12.84 -3.52,18.847 0.888,0.093 1.737,0.792 2.345,1.55 -0.395,-3.764 -0.244,-7.562 0.482,-11.315 0.573,-2.955 1.646,-6.742 4.706,-7.887 -1.671,-1.044 -2.926,-2.536 -2.925,-4.375 0,-0.271 0.382,-0.31 0.46,-0.062 1.067,3.344 4.591,4.627 7.774,5.267 -0.287,-0.291 -0.508,-0.611 -0.708,-1.047 -0.064,0.053 -0.148,0.083 -0.233,0.032 -3.698,-2.252 -4.866,-6.63 -3.468,-10.622 0.109,-0.313 0.599,-0.185 0.503,0.138 -1.174,3.88 0.159,7.442 3.117,10.058 0.052,-0.23 0.287,-0.384 0.555,-0.254 1.269,0.616 2.427,1.169 3.779,1.281 -0.289,-0.461 -0.578,-0.923 -0.874,-1.381 -0.203,-0.311 0.202,-0.716 0.512,-0.512 1.219,0.792 2.485,1.333 3.858,1.685 -0.174,-0.397 -0.307,-0.8 -0.411,-1.282 -0.081,-0.382 0.363,-0.656 0.656,-0.382 0.81,0.757 4.4,3.324 3.495,0.407 -0.015,-0.043 0.003,-0.075 0.007,-0.112 -0.023,-0.02 -0.053,-0.033 -0.077,-0.054 -0.157,-0.135 -0.031,-0.422 0.171,-0.41 3.042,0.176 5.896,1.437 9.02,1.496 3.157,0.06 6.325,-0.48 9.292,-1.558 3.914,-1.423 8.063,-4.079 10.435,-7.612 -3.107,1.38 -6.476,2.284 -9.716,2.857 z m -27.013,4.346 c -2.895,-1.326 -4.055,-4.907 -3.528,-7.86 0.058,-0.322 0.525,-0.178 0.482,0.134 -0.418,3.043 1.152,5.405 3.408,7.255 0.285,0.233 -0.081,0.6 -0.362,0.471 z m 2.518,0.058 c 0.059,0.281 -0.369,0.401 -0.432,0.119 -0.459,-2.009 -0.36,-4.204 0.643,-6.043 0.117,-0.214 0.482,-0.065 0.398,0.168 -0.695,1.913 -1.034,3.731 -0.609,5.756 z m 8.356,-1.64 c -0.18,0.278 -0.4,0.525 -0.61,0.779 -0.175,0.216 -0.487,-0.094 -0.307,-0.307 0.201,-0.238 0.394,-0.487 0.62,-0.7 0.154,-0.141 0.414,0.044 0.297,0.228 z"
               id="path1865" />
            <path
               inkscape:connector-curvature="0"
               style="fill:#9e3f2a"
               d="m 269.82,57.272 c 0.005,0.003 0.011,0.002 0.016,0.005 3.301,2.736 4.931,6.719 5.505,10.886 0.533,3.87 0.978,8.279 0.424,12.301 0.807,-1.054 1.888,-1.922 3.1,-2.241 0.002,-0.014 -0.002,-0.026 10e-4,-0.041 0.893,-4.423 0.886,-8.819 0.207,-13.272 -0.674,-4.423 -2.36,-8.268 -7.21,-8.836 -0.689,0.446 -1.375,0.848 -2.043,1.198 z"
               id="path1867" />
            <path
               inkscape:connector-curvature="0"
               style="fill:#ffffff"
               d="m 238.748,81.706 c -0.261,-0.29 -0.469,-0.279 -0.626,0.031 -0.065,0.024 -0.137,0.061 -0.211,0.1 -0.082,0.667 -0.016,1.801 -0.001,1.962 0.005,0.082 0.009,0.182 0.017,0.289 0.234,0.038 0.483,-0.005 0.675,-0.154 0.175,-0.133 0.259,-0.339 0.39,-0.509 0.02,-0.45 0.017,-0.907 -0.093,-1.317 -0.051,-0.134 -0.1,-0.268 -0.151,-0.402 z"
               id="path1869" />
            <path
               inkscape:connector-curvature="0"
               style="fill:#f9da55"
               d="m 270.798,146.314 c -1.705,-0.493 -1.715,-2.81 -1.63,-4.396 -0.885,0.154 -1.674,0.44 -2.476,0.884 0.529,1.159 1.028,2.329 1.542,3.494 0.802,1.818 1.78,3.274 3.994,2.602 1.776,-0.54 3.057,-2.566 4.067,-4.397 -1.694,1.123 -3.868,2.286 -5.497,1.813 z"
               id="path1871" />
            <path
               inkscape:connector-curvature="0"
               style="fill:#ea4256"
               d="m 292.115,130.495 c -0.297,-1.078 -0.512,-2.546 -1.117,-3.495 -0.849,-1.329 -2.852,-1.81 -4.258,-2.31 -4.536,-1.613 -9.27,-2.621 -14.028,-3.307 -3.455,-0.498 -6.975,-0.686 -10.451,-1.089 0.015,0.077 0.017,0.158 -0.015,0.246 -1.197,3.318 -2.686,6.663 -4.738,9.545 -1.301,1.827 -3.333,4.68 -5.908,4.503 -2.634,-0.181 -5.018,-3.079 -6.309,-5.113 -1.708,-2.688 -2.618,-5.836 -3.191,-8.957 -3.282,0.668 -6.677,1.072 -9.888,1.767 -4.531,0.978 -9.214,1.924 -13.606,3.427 -4.87,1.666 -5.868,7.472 -6.991,11.919 -0.949,3.759 -1.361,7.572 -1.951,11.374 3.117,2.988 6.725,5.283 10.62,7.04 -0.732,-3.055 -0.714,-6.545 -1.043,-9.584 -0.43,-3.959 -0.795,-7.924 -1.119,-11.892 -0.029,-0.354 0.568,-0.435 0.622,-0.085 0.548,3.669 1.065,7.344 1.524,11.026 0.435,3.49 1.42,7.497 1.243,11.071 10.268,4.261 22.384,4.852 33.118,3.761 8.997,-0.914 18.081,-2.881 26.63,-5.843 1.737,-0.601 3.443,-1.287 5.124,-2.025 -0.309,-6.218 -0.065,-12.866 1.336,-18.925 0.079,-0.338 0.616,-0.262 0.603,0.081 -0.252,6.142 -0.739,12.229 -0.858,18.377 2.003,-0.921 3.96,-1.943 5.86,-3.069 0.373,-0.221 0.724,-0.465 1.09,-0.694 -0.068,-3.598 -0.198,-7.175 -0.78,-10.778 -0.379,-2.349 -0.889,-4.677 -1.519,-6.971 z m -20.708,10.852 c 0.271,-1.063 1.273,-1.547 2.275,-1.442 1.022,-0.295 2.359,0.243 2.369,1.428 0.01,1.267 -1.487,2.306 -2.651,2.329 -1.252,0.024 -2.316,-1.042 -1.993,-2.315 z m 6.709,1.827 c -1.247,2.611 -3.463,6.958 -6.861,7.178 -3.492,0.227 -4.392,-5.021 -5.152,-7.466 -0.306,-0.162 -0.443,-0.647 -0.052,-0.876 1.189,-0.691 2.301,-1.044 3.665,-1.198 0.261,-0.03 0.524,0.256 0.509,0.51 -0.04,0.638 -0.202,1.552 0.004,2.184 0.796,2.449 1.724,1.857 3.046,1.335 1.506,-0.593 2.867,-1.391 4.184,-2.324 0.429,-0.304 0.842,0.268 0.657,0.657 z"
               id="path1873" />
            <path
               inkscape:connector-curvature="0"
               style="fill:#a52d3e"
               d="m 218.373,137.447 c -1.083,2.716 -2.224,6.763 -4.384,6.405 -1.426,-0.237 -2.519,-2.021 -2.896,-3.846 -0.596,2.986 -0.963,5.995 -1.428,8.999 3.117,2.988 6.725,5.283 10.62,7.04 -0.732,-3.055 -0.714,-6.545 -1.043,-9.584 -0.327,-3.001 -0.607,-6.007 -0.869,-9.014 z"
               id="path1875" />
            <path
               inkscape:connector-curvature="0"
               style="fill:#a52d3e"
               d="m 287.53,149.974 c -0.022,0.678 -0.052,1.354 -0.066,2.033 2.003,-0.921 3.96,-1.943 5.86,-3.069 0.373,-0.221 0.724,-0.465 1.09,-0.694 -0.009,-0.441 -0.023,-0.881 -0.034,-1.321 -2.24,1.098 -4.528,2.113 -6.85,3.051 z"
               id="path1877" />
            <path
               inkscape:connector-curvature="0"
               style="fill:#a52d3e"
               d="m 275.545,154.086 c -12.024,3.426 -25.17,4.756 -37.163,0.423 -8.815,-3.186 -16.654,-9.073 -19.385,-18.271 0.452,3.086 0.885,6.177 1.271,9.272 0.435,3.49 1.42,7.497 1.243,11.071 10.268,4.261 22.384,4.852 33.118,3.761 8.997,-0.914 18.081,-2.881 26.63,-5.843 1.737,-0.601 3.443,-1.287 5.124,-2.025 -0.032,-0.665 -0.057,-1.337 -0.076,-2.011 -3.548,1.384 -7.157,2.595 -10.762,3.623 z"
               id="path1879" />
            <path
               inkscape:connector-curvature="0"
               style="fill:#f9da55"
               d="m 273.4,142.577 c 0.55,-0.033 1.532,-0.555 1.567,-1.197 0.046,-0.864 -1.22,-0.558 -1.722,-0.684 -0.039,-0.01 -0.061,-0.036 -0.089,-0.055 -0.327,0.121 -0.609,0.335 -0.742,0.689 -0.264,0.705 0.271,1.289 0.986,1.247 z"
               id="path1881" />
          </g>
          <path
             inkscape:connector-curvature="0"
             style="fill:#ffffff"
             d="m 265.793,44.216 c -2.195,-1.059 -4.771,-0.463 -6.904,0.497 -0.428,0.193 -0.149,0.742 0.213,0.785 1.011,0.118 2.18,-0.131 3.142,0.258 -0.906,0.159 -1.749,0.327 -2.589,0.818 -0.315,0.184 -0.321,0.665 0,0.848 0.541,0.307 1.119,0.465 1.708,0.594 -0.698,0.176 -1.421,0.323 -1.971,0.738 -0.259,0.195 -0.239,0.575 0.09,0.686 1.189,0.399 2.422,-0.401 3.18,-1.282 0.13,-0.152 0.096,-0.419 -0.124,-0.471 -0.589,-0.138 -1.102,-0.397 -1.611,-0.68 0.7,-0.335 1.434,-0.605 2.139,-0.92 0.138,-0.062 0.157,-0.284 0.048,-0.38 -0.602,-0.524 -1.291,-0.676 -2.009,-0.762 1.463,-0.373 2.909,-0.579 4.492,-0.261 0.268,0.053 0.47,-0.335 0.196,-0.468 z"
             id="path1885" />
          <g
             id="g1917">
            <path
               inkscape:connector-curvature="0"
               d="m 294.977,137.555 c -0.436,-2.79 -1.047,-5.555 -1.831,-8.269 -0.554,-1.906 -0.947,-3.527 -2.755,-4.554 -4.393,-2.497 -10.244,-3.46 -15.159,-4.281 -5.28,-0.883 -10.856,-1.703 -16.23,-1.607 0.033,-1.264 -0.016,-2.54 -0.059,-3.739 2.585,-0.151 5.573,-0.75 7.933,-1.718 2.594,-1.063 4.28,-3.3 5.53,-5.732 2.059,-4.003 2.666,-8.383 2.66,-12.795 1.005,0.85 3.011,0.506 4.125,-0.315 2.805,-2.064 3.306,-5.787 3.584,-9.004 0.19,-2.212 0.807,-6.813 -2.256,-7.394 -0.176,-0.034 -0.349,-0.042 -0.522,-0.049 1.318,-5.149 1.12,-11.075 -0.251,-16.189 -0.787,-2.938 -3.217,-6.725 -6.532,-6.773 4.627,-3.427 8.689,-8.784 5.99,-14.243 -0.014,-0.03 -0.034,-0.05 -0.055,-0.072 0.695,-1.924 0.992,-3.94 0.569,-5.853 -0.016,-0.074 -0.06,-0.113 -0.102,-0.152 0,-0.001 0,-0.001 0,-0.001 0.15,-0.283 -0.227,-0.611 -0.461,-0.355 -2.42,2.668 -4.889,4.846 -8.459,5.82 -3.661,0.999 -7.569,0.701 -11.243,-0.058 -6.431,-1.328 -12.521,-4.198 -19.132,-4.656 -6.011,-0.417 -10.26,2.713 -12.971,7.963 -2.112,4.086 -2.821,9.844 0.051,13.756 -3.392,0.466 -4.768,4.434 -5.146,7.415 -0.483,3.8 -0.964,8.843 1.339,12.191 -0.009,0.003 -0.018,0.003 -0.026,0.007 -2.004,0.783 -1.84,5.629 -1.866,7.288 -0.042,2.661 0.068,6.627 1.831,8.831 0.964,1.206 2.552,1.748 3.844,1.08 0.158,5.027 1.254,10.142 3.899,14.22 3.052,4.702 8.428,7.601 13.992,7.78 0.057,0.832 0.217,1.664 0.269,2.498 0.002,0.032 0.002,0.066 0.003,0.099 -4.822,0.055 -9.937,1.483 -14.577,2.51 -2.684,0.595 -5.357,1.24 -8.016,1.937 -2.322,0.609 -4.977,1.032 -7.02,2.357 -3.301,2.141 -4.257,6.973 -5.208,10.493 -1.019,3.772 -1.961,7.869 -2.18,11.887 l -0.042,1.459 0.935,1.083 c 7.691,8.126 20.939,10.951 31.465,11.56 14.632,0.849 30.458,-2.02 44.035,-7.494 3.176,-1.28 6.423,-2.846 9.51,-4.687 l 1.34,-0.818 0.041,-1.636 c 0.009,-3.285 -0.349,-6.593 -0.846,-9.79 M 279.072,64.91 c 0.679,4.454 0.685,8.849 -0.207,13.272 -0.003,0.014 10e-4,0.026 -0.001,0.041 -1.212,0.319 -2.293,1.187 -3.1,2.241 0.554,-4.022 0.109,-8.432 -0.424,-12.301 -0.574,-4.167 -2.204,-8.149 -5.505,-10.886 -0.005,-0.003 -0.011,-0.002 -0.016,-0.005 0.668,-0.35 1.354,-0.752 2.042,-1.199 4.851,0.569 6.537,4.414 7.211,8.837 m -51.137,-6.969 c 0.313,0.291 0.756,-0.135 0.583,-0.5 -1.509,-3.183 -2.311,-6.171 -1.513,-9.695 0.68,-2.999 2.416,-5.905 4.576,-8.075 5.241,-5.267 13.467,-2.382 19.639,-0.513 8.618,2.61 21.853,5.897 27.775,-3.293 -0.16,2.131 -0.406,4.04 -1.31,6.065 -0.773,1.731 -1.806,3.331 -2.699,4.997 -0.107,0.199 0.165,0.437 0.327,0.252 1.265,-1.46 2.509,-3.286 3.386,-5.251 1.343,7.485 -5.788,13.173 -12.247,15.522 -2.967,1.078 -6.135,1.618 -9.292,1.558 -3.125,-0.06 -5.978,-1.32 -9.02,-1.496 -0.202,-0.012 -0.328,0.275 -0.171,0.41 0.024,0.021 0.054,0.034 0.077,0.054 -0.004,0.038 -0.022,0.069 -0.007,0.112 0.906,2.917 -2.684,0.35 -3.495,-0.407 -0.294,-0.274 -0.737,0 -0.656,0.382 0.104,0.481 0.236,0.885 0.411,1.282 -1.373,-0.353 -2.639,-0.893 -3.858,-1.685 -0.31,-0.204 -0.714,0.201 -0.512,0.512 0.296,0.458 0.585,0.92 0.874,1.381 -1.353,-0.111 -2.51,-0.665 -3.779,-1.281 -0.268,-0.13 -0.503,0.024 -0.555,0.254 -2.958,-2.616 -4.291,-6.178 -3.117,-10.058 0.096,-0.323 -0.394,-0.451 -0.503,-0.138 -1.398,3.992 -0.23,8.37 3.468,10.622 0.085,0.051 0.169,0.021 0.233,-0.032 0.2,0.436 0.422,0.757 0.708,1.047 -3.183,-0.64 -6.706,-1.923 -7.774,-5.267 -0.079,-0.248 -0.46,-0.209 -0.46,0.062 -0.001,1.839 1.254,3.33 2.925,4.375 -3.059,1.145 -4.133,4.932 -4.706,7.887 -0.726,3.754 -0.876,7.552 -0.482,11.315 -0.607,-0.758 -1.457,-1.458 -2.345,-1.55 -1.735,-6.007 -2.825,-15.27 3.519,-18.848 m 17.644,61.731 c 0.022,0.688 0.042,1.376 0.104,2.062 0.033,0.368 0.563,0.485 0.672,0.091 0.214,-0.778 0.331,-1.66 0.345,-2.559 0.129,-0.145 0.131,-0.364 -0.006,-0.49 -0.035,-1.235 -0.268,-2.47 -0.752,-3.478 -0.111,-0.232 -0.371,-0.214 -0.542,-0.084 -5.627,-0.77 -11.086,-3.59 -13.792,-8.785 -2.997,-5.752 -3.724,-12.994 -3.444,-19.379 0.012,-0.287 -0.401,-0.269 -0.435,0 -0.24,1.853 -0.373,3.804 -0.372,5.784 -4.017,2.483 -4.549,-6.651 -4.526,-8.647 0.018,-1.419 -0.114,-3.545 0.541,-4.77 0.358,-0.67 0.576,-1.564 1.749,-1.282 0.524,0.126 1.336,1.043 1.797,1.494 0.149,1.064 0.327,2.125 0.565,3.181 0.055,0.249 0.483,0.2 0.453,-0.062 -0.526,-4.516 -0.579,-9.099 0.113,-13.6 0.563,-3.669 1.364,-7.463 4.74,-9.539 1.771,0.887 3.821,1.317 5.347,1.165 0.328,-0.033 0.469,-0.562 0.086,-0.627 -0.012,-0.002 -0.024,-0.003 -0.033,-0.005 -0.005,-0.006 -0.004,-0.015 -0.008,-0.02 -0.095,-0.157 -0.191,-0.313 -0.284,-0.47 1.152,0.572 2.333,0.91 3.713,0.795 0.3,-0.024 0.585,-0.364 0.378,-0.66 -0.153,-0.217 -0.307,-0.434 -0.461,-0.65 1.069,0.533 2.179,0.922 3.404,1.165 0.322,0.063 0.626,-0.266 0.441,-0.576 -0.134,-0.19 -0.243,-0.389 -0.342,-0.59 1.143,0.911 2.768,1.96 3.711,1.496 0.726,-0.358 0.555,-1.261 0.238,-2 2.522,1.452 6.178,1.628 8.893,1.605 3.8,-0.03 7.576,-0.897 11.019,-2.502 0.172,-0.08 0.345,-0.164 0.52,-0.251 0.004,0.053 0.013,0.109 0.057,0.163 3.037,3.732 4.566,7.489 4.963,12.289 0.349,4.205 0.194,8.344 0.204,12.545 -0.052,0.14 -0.1,0.28 -0.141,0.418 -0.091,0.298 0.286,0.466 0.484,0.279 0.132,-0.002 0.265,-0.062 0.309,-0.222 0.03,-0.117 0.048,-0.239 0.076,-0.355 0.88,-1.396 2.117,-2.911 3.773,-3.184 3.047,-0.501 2.651,3.339 2.509,5.315 -0.106,1.523 -0.224,3.099 -0.623,4.578 -0.233,0.86 -0.54,1.619 -0.996,2.389 -0.794,1.34 -3.13,4.114 -4.991,1.233 h -0.001 c -0.059,-1.92 -0.19,-3.247 -0.352,-4.896 -0.026,-0.291 -0.451,-0.254 -0.46,0.047 -0.178,5.745 -0.039,11.801 -2.213,17.222 -1.016,2.531 -2.588,5.321 -5.079,6.632 -2.479,1.304 -5.477,1.313 -8.097,2.25 -0.187,-0.235 -0.634,-0.152 -0.674,0.229 -0.269,2.654 -0.774,5.726 -0.32,8.368 0.059,0.336 0.55,0.291 0.636,0 0.27,-0.925 0.41,-1.929 0.478,-2.956 0.759,0.131 1.522,0.238 2.285,0.338 -1.061,2.22 -1.983,4.497 -3.184,6.649 -1.161,2.082 -3.859,7.064 -6.812,6.428 -2.447,-0.527 -4.541,-3.648 -5.632,-5.675 -1.228,-2.282 -1.958,-4.765 -2.793,-7.205 0.934,-0.203 1.86,-0.425 2.762,-0.691 m 47.746,29.266 c -1.9,1.126 -3.857,2.147 -5.86,3.069 0.118,-6.148 0.605,-12.236 0.858,-18.377 0.014,-0.343 -0.523,-0.418 -0.603,-0.081 -1.401,6.059 -1.645,12.707 -1.336,18.925 -1.681,0.738 -3.387,1.424 -5.124,2.025 -8.549,2.962 -17.633,4.93 -26.63,5.843 -10.734,1.091 -22.85,0.499 -33.118,-3.761 0.177,-3.574 -0.808,-7.581 -1.243,-11.071 -0.459,-3.682 -0.976,-7.356 -1.524,-11.026 -0.054,-0.35 -0.651,-0.27 -0.622,0.085 0.324,3.968 0.689,7.934 1.119,11.892 0.329,3.039 0.311,6.529 1.043,9.584 -3.895,-1.757 -7.503,-4.052 -10.62,-7.04 0.589,-3.802 1.001,-7.615 1.951,-11.374 1.123,-4.448 2.121,-10.253 6.991,-11.919 4.392,-1.503 9.075,-2.449 13.606,-3.427 3.211,-0.695 6.605,-1.099 9.888,-1.767 0.573,3.121 1.483,6.27 3.191,8.957 1.291,2.034 3.675,4.932 6.309,5.113 2.575,0.177 4.607,-2.676 5.908,-4.503 2.052,-2.882 3.541,-6.227 4.738,-9.545 0.031,-0.088 0.029,-0.169 0.015,-0.246 3.477,0.404 6.996,0.592 10.451,1.089 4.759,0.686 9.492,1.694 14.028,3.307 1.406,0.5 3.409,0.981 4.258,2.31 0.605,0.949 0.82,2.417 1.117,3.495 0.63,2.294 1.14,4.623 1.52,6.971 0.582,3.603 0.712,7.18 0.78,10.778 -0.367,0.229 -0.718,0.473 -1.091,0.694"
               id="path1887" />
            <path
               inkscape:connector-curvature="0"
               d="m 277.458,142.518 c -1.316,0.933 -2.678,1.73 -4.184,2.324 -1.322,0.522 -2.25,1.114 -3.046,-1.335 -0.206,-0.632 -0.044,-1.546 -0.004,-2.184 0.016,-0.254 -0.248,-0.54 -0.509,-0.51 -1.364,0.154 -2.477,0.507 -3.665,1.198 -0.392,0.229 -0.254,0.714 0.052,0.876 0.761,2.445 1.66,7.693 5.152,7.466 3.398,-0.22 5.614,-4.566 6.861,-7.178 0.186,-0.39 -0.227,-0.962 -0.657,-0.657 m -5.23,6.38 c -2.214,0.673 -3.192,-0.784 -3.994,-2.602 -0.514,-1.165 -1.013,-2.336 -1.542,-3.494 0.802,-0.444 1.591,-0.73 2.476,-0.884 -0.085,1.586 -0.075,3.903 1.63,4.396 1.629,0.472 3.803,-0.691 5.498,-1.813 -1.011,1.831 -2.291,3.858 -4.068,4.397"
               id="path1889" />
            <path
               inkscape:connector-curvature="0"
               d="m 273.683,139.905 c -1.002,-0.105 -2.005,0.379 -2.275,1.442 -0.323,1.273 0.741,2.339 1.993,2.315 1.164,-0.023 2.661,-1.061 2.651,-2.329 -0.01,-1.185 -1.347,-1.723 -2.369,-1.428 m -0.283,2.672 c -0.716,0.042 -1.25,-0.542 -0.985,-1.248 0.133,-0.354 0.415,-0.567 0.742,-0.689 0.028,0.02 0.05,0.045 0.089,0.055 0.502,0.126 1.768,-0.18 1.722,0.684 -0.035,0.643 -1.018,1.165 -1.568,1.198"
               id="path1891" />
            <path
               inkscape:connector-curvature="0"
               d="m 240.519,56.571 c -2.255,-1.85 -3.826,-4.212 -3.408,-7.255 0.043,-0.312 -0.425,-0.455 -0.482,-0.134 -0.527,2.953 0.633,6.534 3.528,7.86 0.281,0.129 0.647,-0.238 0.362,-0.471"
               id="path1893" />
            <path
               inkscape:connector-curvature="0"
               d="m 243.284,51.344 c 0.084,-0.233 -0.281,-0.382 -0.398,-0.168 -1.003,1.839 -1.102,4.034 -0.643,6.043 0.063,0.282 0.49,0.162 0.432,-0.119 -0.425,-2.025 -0.086,-3.843 0.609,-5.756"
               id="path1895" />
            <path
               inkscape:connector-curvature="0"
               d="m 249.941,53.106 c -1.376,0.305 -2.149,2.02 -2.768,3.322 -0.31,-0.895 -0.475,-1.828 -0.428,-2.789 0.049,-0.987 0.382,-1.899 0.261,-2.889 -0.038,-0.295 -0.456,-0.497 -0.626,-0.169 -0.826,1.607 -1.426,3.283 -1.783,5.042 -0.417,-1.248 -0.636,-2.517 -0.672,-3.865 -0.008,-0.313 -0.489,-0.315 -0.489,0 0.002,1.789 0.319,3.458 0.959,5.131 0.103,0.268 0.547,0.339 0.617,0 0.294,-1.437 0.686,-2.824 1.197,-4.179 -0.107,0.644 -0.22,1.29 -0.169,1.943 0.081,1.009 0.368,1.945 0.774,2.866 0.113,0.254 0.517,0.227 0.637,0 0.341,-0.645 0.677,-1.291 1.014,-1.937 0.126,-0.248 0.254,-0.495 0.384,-0.74 0.436,-1.122 1.274,-1.262 2.514,-0.419 0.035,0.146 0.258,0.113 0.259,-0.035 0.007,-0.947 -0.751,-1.488 -1.681,-1.282"
               id="path1897" />
            <path
               inkscape:connector-curvature="0"
               d="m 250.734,55.233 c -0.227,0.213 -0.419,0.462 -0.62,0.7 -0.181,0.213 0.131,0.523 0.307,0.307 0.21,-0.254 0.431,-0.501 0.61,-0.779 0.117,-0.185 -0.143,-0.37 -0.297,-0.228"
               id="path1899" />
            <path
               inkscape:connector-curvature="0"
               d="m 280.172,84.781 c -0.401,-1.562 -1.961,-2.788 -3.285,-1.274 -1.488,1.702 -1.396,4.892 -1.056,6.966 0.04,0.243 0.436,0.236 0.483,0 0.229,-1.198 0.279,-2.423 0.559,-3.612 0.141,-0.601 0.295,-1.533 0.71,-1.996 0.71,-0.793 1.316,-0.6 1.868,0.22 0.243,0.364 0.836,0.144 0.721,-0.304"
               id="path1901" />
            <path
               inkscape:connector-curvature="0"
               d="m 226.669,84.078 c -0.235,-0.559 -0.556,-1.139 -1.111,-1.437 -0.929,-0.498 -2.24,0.157 -1.948,1.292 0.087,0.342 0.651,0.281 0.627,-0.085 -0.046,-0.656 0.725,-0.421 0.996,-0.114 0.233,0.264 0.362,0.626 0.49,0.947 0.251,0.63 0.456,1.272 0.84,1.836 0.2,0.293 0.694,0.201 0.694,-0.188 -0.004,-0.793 -0.283,-1.529 -0.588,-2.251"
               id="path1903" />
            <path
               inkscape:connector-curvature="0"
               d="m 243.704,75.4 c -0.915,-1.677 -2.643,-2.736 -4.493,-3.06 -2.783,-0.486 -7.162,0.817 -5.889,4.522 0.018,0.054 0.058,0.077 0.088,0.114 -0.144,0.291 0.246,0.626 0.529,0.372 1.409,-1.262 3.382,-1.507 5.143,-0.91 1.528,0.517 2.495,1.687 3.751,2.604 0.172,0.125 0.351,0.072 0.469,-0.053 0.106,0.02 0.222,0 0.326,-0.082 1.08,-0.862 0.662,-2.431 0.076,-3.507 m -9.591,0.935 c 0.154,-1.212 0.358,-2.147 1.752,-2.744 0.844,-0.362 1.904,-0.303 2.796,-0.191 1.887,0.236 5.411,2.245 4.514,4.73 -1.888,-3.013 -6.268,-3.866 -9.062,-1.795"
               id="path1905" />
            <path
               inkscape:connector-curvature="0"
               d="m 269.383,73.26 c -1.345,-1.51 -3.81,-1.423 -5.585,-0.88 -2.022,0.619 -3.754,2.055 -4.656,3.979 -0.38,0.811 -0.618,1.79 -0.169,2.363 0.104,0.543 0.489,1.07 1.012,0.976 0.11,-0.02 0.156,-0.128 0.162,-0.231 0.035,-0.018 0.072,-0.019 0.104,-0.05 1.308,-1.255 2.454,-2.834 4.232,-3.459 1.421,-0.5 2.317,-0.129 3.274,1.026 0.395,0.478 0.313,0.501 0.871,0.782 0.197,0.099 0.374,0.016 0.465,-0.129 0.042,-0.018 0.082,-0.043 0.119,-0.087 1.047,-1.241 1.321,-3 0.171,-4.29 m -0.614,3.292 c -0.795,-1.499 -1.696,-2.302 -3.752,-1.92 -2.19,0.408 -3.869,2.066 -5.073,3.865 -0.667,-1.087 0.909,-2.93 1.522,-3.516 0.732,-0.696 1.665,-1.24 2.628,-1.53 0.943,-0.282 2.2,-0.467 3.152,-0.192 1.793,0.519 1.775,1.877 1.523,3.293"
               id="path1907" />
            <path
               inkscape:connector-curvature="0"
               d="m 254.231,96.994 c -1.552,0.026 -3.88,0.594 -4.48,-1.74 -0.156,-0.605 0.083,-1.506 0.135,-2.109 0.182,-2.074 0.431,-4.154 0.73,-6.215 0.042,-0.284 -0.368,-0.418 -0.445,-0.122 -0.533,2.055 -0.972,4.101 -1.27,6.205 -0.154,1.086 -0.501,2.361 -0.177,3.438 0.713,2.367 3.91,2.061 5.696,1.247 0.351,-0.159 0.167,-0.711 -0.189,-0.704"
               id="path1909" />
            <path
               inkscape:connector-curvature="0"
               d="m 259.247,102.373 c -2.142,-0.057 -4.336,0.634 -6.471,0.853 -1.825,0.187 -3.69,0.157 -5.491,0.52 -0.011,-0.006 -0.017,-0.01 -0.03,-0.015 -0.241,-0.121 -0.544,0.132 -0.387,0.388 0.696,1.133 0.111,2.331 1.465,2.976 1.265,0.6 3.158,0.061 4.464,-0.146 1.702,-0.273 3.931,-0.473 5.486,-1.233 1.16,-0.565 1.2,-1.635 1.257,-2.85 0.101,-0.201 -0.044,-0.487 -0.293,-0.493 m -7.852,3.622 c -0.499,0.057 -1.181,0.221 -1.677,0.136 -0.995,-0.171 -1.105,-0.669 -1.486,-1.287 -0.124,-0.199 -0.193,-0.341 -0.244,-0.45 1.863,0.25 3.81,0.027 5.658,-0.179 1.61,-0.18 3.338,-0.307 4.884,-0.851 -1.592,2.07 -4.602,2.343 -7.135,2.631"
               id="path1911" />
            <path
               inkscape:connector-curvature="0"
               d="m 265.888,81.492 c -0.441,-1.103 -1.589,-1.384 -2.108,-0.665 -0.857,0.28 -0.822,2.505 -0.78,3.147 0.072,1.101 0.844,3.456 2.382,2.29 0.668,-0.508 0.675,-1.383 0.706,-2.146 0.036,-0.863 0.131,-1.802 -0.2,-2.626 m -1.89,0.345 c 0.073,-0.039 0.147,-0.075 0.211,-0.1 0.156,-0.31 0.366,-0.321 0.625,-0.031 0.051,0.133 0.101,0.267 0.152,0.401 0.109,0.411 0.112,0.867 0.092,1.317 -0.131,0.17 -0.214,0.375 -0.39,0.509 -0.191,0.148 -0.44,0.191 -0.675,0.154 -0.007,-0.107 -0.011,-0.207 -0.018,-0.289 -0.012,-0.16 -0.08,-1.295 0.003,-1.961"
               id="path1913" />
            <path
               inkscape:connector-curvature="0"
               d="m 239.802,81.492 c -0.443,-1.103 -1.591,-1.384 -2.11,-0.665 -0.857,0.28 -0.822,2.505 -0.781,3.147 0.073,1.101 0.844,3.456 2.382,2.29 0.668,-0.508 0.674,-1.383 0.707,-2.146 0.036,-0.863 0.131,-1.802 -0.198,-2.626 m -1.891,0.345 c 0.073,-0.039 0.146,-0.075 0.211,-0.1 0.157,-0.31 0.366,-0.321 0.626,-0.031 0.051,0.133 0.1,0.267 0.151,0.401 0.11,0.411 0.113,0.867 0.093,1.317 -0.131,0.17 -0.215,0.375 -0.39,0.509 -0.192,0.148 -0.441,0.191 -0.675,0.154 -0.007,-0.107 -0.011,-0.207 -0.017,-0.289 -0.015,-0.16 -0.081,-1.295 0.001,-1.961"
               id="path1915" />
          </g>
        </g>
      </g>
    </g>
  </g>
</svg>
