<?xml version="1.0" encoding="UTF-8" standalone="no"?>
<!-- Created with Inkscape (http://www.inkscape.org/) -->

<svg
   xmlns:dc="http://purl.org/dc/elements/1.1/"
   xmlns:cc="http://creativecommons.org/ns#"
   xmlns:rdf="http://www.w3.org/1999/02/22-rdf-syntax-ns#"
   xmlns:svg="http://www.w3.org/2000/svg"
   xmlns="http://www.w3.org/2000/svg"
   xmlns:xlink="http://www.w3.org/1999/xlink"
   xmlns:sodipodi="http://sodipodi.sourceforge.net/DTD/sodipodi-0.dtd"
   xmlns:inkscape="http://www.inkscape.org/namespaces/inkscape"
   width="181mm"
   height="181mm"
   viewBox="0 0 181 181"
   version="1.1"
   id="svg4301"
   inkscape:version="0.92.4 (5da689c313, 2019-01-14)"
   sodipodi:docname="AboutCha6.svg">
  <defs
     id="defs4295">
    <clipPath
       id="SVGID_00000113321611784114216870000013912409115802730685_">
      <use
         height="100%"
         width="100%"
         y="0"
         x="0"
         xlink:href="#SVGID_00000000941233820754225300000017452832062705836447_"
         style="overflow:visible"
         id="use1930" />
    </clipPath>
    <path
       inkscape:connector-curvature="0"
       id="SVGID_00000000941233820754225300000017452832062705836447_"
       d="m 172.199,89.229 c 0,38.175 -30.946,69.121 -69.12,69.121 -38.175,0 -69.121,-30.946 -69.121,-69.121 0,-38.174 30.946,-69.12 69.121,-69.12 38.174,0 69.12,30.946 69.12,69.12 z" />
    <clipPath
       id="SVGID_00000052092502169152378210000005145085261227362728_">
      <use
         height="100%"
         width="100%"
         y="0"
         x="0"
         xlink:href="#SVGID_00000165202363642182927450000002705565891009891480_"
         style="overflow:visible"
         id="use1844" />
    </clipPath>
    <path
       inkscape:connector-curvature="0"
       id="SVGID_00000165202363642182927450000002705565891009891480_"
       d="m 319.117,89.229 c 0,38.175 -30.945,69.121 -69.119,69.121 -38.175,0 -69.121,-30.946 -69.121,-69.121 0,-38.174 30.946,-69.12 69.121,-69.12 38.174,0 69.119,30.946 69.119,69.12 z" />
    <clipPath
       id="SVGID_00000036246779500956181350000015724627732898847411_">
      <use
         height="100%"
         width="100%"
         y="0"
         x="0"
         xlink:href="#SVGID_1_"
         style="overflow:visible"
         id="use1764" />
    </clipPath>
    <path
       inkscape:connector-curvature="0"
       id="SVGID_1_"
       d="m 466.037,89.229 c 0,38.175 -30.946,69.121 -69.12,69.121 -38.174,0 -69.12,-30.946 -69.12,-69.121 0,-38.174 30.946,-69.12 69.12,-69.12 38.174,0 69.12,30.946 69.12,69.12 z" />
    <clipPath
       id="SVGID_00000093884470694313660920000011347713797113203852_">
      <use
         height="100%"
         width="100%"
         y="0"
         x="0"
         xlink:href="#SVGID_00000002343308194870606080000011706874031757160848_"
         style="overflow:visible"
         id="use2052" />
    </clipPath>
    <path
       inkscape:connector-curvature="0"
       id="SVGID_00000002343308194870606080000011706874031757160848_"
       d="m 172.086,240.001 c 0,38.175 -30.946,69.121 -69.12,69.121 -38.175,0 -69.121,-30.946 -69.121,-69.121 0,-38.174 30.946,-69.12 69.121,-69.12 38.174,0 69.12,30.946 69.12,69.12 z" />
    <clipPath
       id="SVGID_00000135662002641581206880000010563163072226234243_">
      <use
         height="100%"
         width="100%"
         y="0"
         x="0"
         xlink:href="#SVGID_00000066495268511498018650000013053654329197578394_"
         style="overflow:visible"
         id="use2138" />
    </clipPath>
    <path
       inkscape:connector-curvature="0"
       id="SVGID_00000066495268511498018650000013053654329197578394_"
       d="m 319.555,239.552 c 0,38.173 -30.945,69.122 -69.12,69.122 -38.175,0 -69.121,-30.948 -69.121,-69.122 0,-38.173 30.946,-69.12 69.121,-69.12 38.174,0.001 69.12,30.947 69.12,69.12 z" />
    <clipPath
       id="SVGID_00000115480236926924676850000009218851432419015317_">
      <use
         height="100%"
         width="100%"
         y="0"
         x="0"
         xlink:href="#SVGID_00000021829101869905432590000014797021341769652402_"
         style="overflow:visible"
         id="use2250" />
    </clipPath>
    <path
       inkscape:connector-curvature="0"
       id="SVGID_00000021829101869905432590000014797021341769652402_"
       d="m 466.154,240.033 c 0,38.173 -30.945,69.121 -69.119,69.121 -38.175,0 -69.122,-30.947 -69.122,-69.121 0,-38.174 30.947,-69.121 69.122,-69.121 38.174,0 69.119,30.946 69.119,69.121 z" />
    <clipPath
       id="SVGID_00000026848140016568404620000014151795572181458838_">
      <use
         height="100%"
         width="100%"
         y="0"
         x="0"
         xlink:href="#SVGID_00000133530413689810255510000013406859855755512999_"
         style="overflow:visible"
         id="use2350" />
    </clipPath>
    <path
       inkscape:connector-curvature="0"
       id="SVGID_00000133530413689810255510000013406859855755512999_"
       d="m 172.512,391.156 c 0,38.174 -30.947,69.121 -69.121,69.121 -38.174,0 -69.121,-30.947 -69.121,-69.121 0,-38.174 30.947,-69.119 69.121,-69.119 38.174,0 69.121,30.945 69.121,69.119 z" />
  </defs>
  <sodipodi:namedview
     id="base"
     pagecolor="#ffffff"
     bordercolor="#666666"
     borderopacity="1.0"
     inkscape:pageopacity="0.0"
     inkscape:pageshadow="2"
     inkscape:zoom="0.7"
     inkscape:cx="161.19793"
     inkscape:cy="322.75893"
     inkscape:document-units="mm"
     inkscape:current-layer="Parjo_1_"
     showgrid="false"
     inkscape:window-width="1366"
     inkscape:window-height="745"
     inkscape:window-x="-8"
     inkscape:window-y="-8"
     inkscape:window-maximized="1" />
  <metadata
     id="metadata4298">
    <rdf:RDF>
      <cc:Work
         rdf:about="">
        <dc:format>image/svg+xml</dc:format>
        <dc:type
           rdf:resource="http://purl.org/dc/dcmitype/StillImage" />
        <dc:title></dc:title>
      </cc:Work>
    </rdf:RDF>
  </metadata>
  <g
     inkscape:label="Layer 1"
     inkscape:groupmode="layer"
     id="layer1"
     transform="translate(0,-116)">
    <rect
       style="opacity:1;fill:#f9da55;fill-opacity:1;stroke:none;stroke-width:2.44956493;stroke-miterlimit:4;stroke-dasharray:none;stroke-opacity:1"
       id="rect12114"
       width="182.5625"
       height="184.0744"
       x="-0.75595248"
       y="114.81548" />
    <g
       transform="matrix(1.3965322,0,0,1.3965322,-54.430527,-320.32287)"
       id="Parjo_1_">
      <g
         id="g2440"
         transform="matrix(1.0806267,0,0,1.0248082,-6.0025403,-9.8231299)">
        <defs
           id="defs2348">
          <path
             inkscape:connector-curvature="0"
             id="path7536"
             d="m 172.512,391.156 c 0,38.174 -30.947,69.121 -69.121,69.121 -38.174,0 -69.121,-30.947 -69.121,-69.121 0,-38.174 30.947,-69.119 69.121,-69.119 38.174,0 69.121,30.945 69.121,69.119 z" />
        </defs>
        <clipPath
           id="clipPath7427">
          <use
             height="100%"
             width="100%"
             y="0"
             x="0"
             xlink:href="#SVGID_00000133530413689810255510000013406859855755512999_"
             style="overflow:visible"
             id="use7425" />
        </clipPath>
        <g
           clip-path="url(#SVGID_00000026848140016568404620000014151795572181458838_)"
           id="g2438">
          <g
             id="g2419">
            <path
               inkscape:connector-curvature="0"
               style="fill:#ffffff"
               d="m 109.312,396.349 c -3.724,0.963 -7.592,1.578 -11.427,1.737 -0.05,1.025 0.153,1.984 1.226,2.48 1.3,0.601 3.203,0.479 4.596,0.311 1.563,-0.19 3.406,-0.677 4.687,-1.636 1.11,-0.828 1.23,-1.832 0.918,-2.892 z"
               id="path2353" />
            <path
               inkscape:connector-curvature="0"
               style="fill:#49241a"
               d="m 78.29,371.022 c 0.034,-0.159 0.061,-0.321 0.096,-0.479 0.009,-0.136 0.014,-0.272 0.025,-0.408 0.007,-0.08 0.05,-0.125 0.103,-0.153 0.527,-2.211 1.224,-4.383 1.553,-6.65 0.38,-2.62 0.38,-5.238 0.114,-7.862 -0.38,-0.441 -0.717,-0.953 -0.999,-1.549 -0.104,-0.221 0.165,-0.465 0.352,-0.272 0.276,0.283 0.566,0.529 0.855,0.768 0.093,0.015 0.182,0.061 0.211,0.159 0.003,0.012 0.005,0.023 0.008,0.032 5.373,4.154 12.916,0.996 18.777,-1.015 6.224,-2.135 12.68,-4.356 18.214,-7.97 0.132,-0.309 0.263,-0.622 0.403,-0.928 0.118,-0.259 0.459,-0.057 0.421,0.179 -0.189,1.183 -0.571,2.311 -1.009,3.422 -0.244,0.621 -0.477,1.302 -0.828,1.89 0.927,-0.17 1.874,-0.226 2.786,-0.525 1.244,-0.407 2.356,-1.06 3.48,-1.713 0.036,-0.081 0.059,-0.167 0.096,-0.246 0.088,-0.189 0.407,-0.097 0.393,0.107 -0.004,0.058 -0.012,0.116 -0.018,0.173 0.075,0.11 0.087,0.271 -0.019,0.392 -0.006,0.008 -0.014,0.016 -0.021,0.022 -0.188,2.021 -0.547,3.995 -0.44,6.045 0.128,2.467 0.786,4.735 1.697,7.011 0.967,2.41 2.212,5.01 2.472,7.65 0.324,-0.527 0.771,-0.953 1.329,-1.204 -0.009,-0.049 -0.013,-0.102 -0.001,-0.157 0.84,-3.77 0.657,-8.127 0.592,-11.972 -0.062,-3.699 0.551,-11.348 -4.664,-11.694 -0.116,-0.009 -0.201,-0.054 -0.258,-0.117 -0.256,0.097 -0.581,-0.117 -0.504,-0.445 0.951,-4.05 -2.465,-7.863 -5.973,-9.46 -2.806,-1.275 -5.979,-1.24 -8.994,-1.005 -6.56,0.512 -13.224,1.938 -19.051,5.084 -5.184,2.801 -9.637,7.055 -12.148,12.433 -2.993,6.409 -1.85,12.805 -0.81,19.451 0.689,0.129 1.311,0.475 1.76,1.006 z"
               id="path2355" />
            <path
               inkscape:connector-curvature="0"
               style="fill:#351912"
               d="m 128.933,355.768 c -0.054,-3.178 0.381,-9.258 -2.798,-11.132 -1.925,2.24 -5.68,3.164 -8.1,1.895 -0.179,0.597 -0.391,1.184 -0.62,1.765 -0.244,0.621 -0.477,1.302 -0.828,1.89 0.927,-0.17 1.874,-0.226 2.786,-0.525 1.244,-0.407 2.356,-1.06 3.48,-1.713 0.036,-0.081 0.059,-0.167 0.096,-0.246 0.088,-0.189 0.407,-0.097 0.393,0.107 -0.004,0.058 -0.012,0.116 -0.018,0.173 0.075,0.11 0.087,0.271 -0.019,0.392 -0.006,0.008 -0.014,0.016 -0.021,0.022 -0.188,2.021 -0.547,3.995 -0.44,6.045 0.128,2.467 0.786,4.735 1.697,7.011 0.967,2.41 2.212,5.01 2.472,7.65 0.324,-0.527 0.771,-0.953 1.329,-1.204 -0.009,-0.049 -0.013,-0.102 -0.001,-0.157 0.841,-3.772 0.657,-8.129 0.592,-11.973 z"
               id="path2357" />
            <path
               inkscape:connector-curvature="0"
               style="fill:#351912"
               d="m 116.076,344.231 c -7.481,2.048 -14.689,5.075 -22.268,6.799 -1.365,0.311 -3.836,1.199 -5.105,0.202 -1.003,-0.788 0.468,-2.477 1.636,-3.692 -1.99,0.508 -3.952,1.365 -5.916,1.847 -1.091,0.267 -4.102,1.281 -5.054,0.108 -0.407,-0.503 -0.501,-1.135 -0.384,-1.843 -0.604,0.934 -1.168,1.895 -1.642,2.91 -2.993,6.409 -1.85,12.805 -0.81,19.451 0.688,0.131 1.309,0.478 1.758,1.009 0.034,-0.159 0.061,-0.321 0.096,-0.479 0.009,-0.136 0.014,-0.272 0.025,-0.408 0.007,-0.08 0.05,-0.125 0.103,-0.153 0.527,-2.211 1.224,-4.383 1.553,-6.65 0.38,-2.62 0.38,-5.238 0.114,-7.862 -0.38,-0.441 -0.717,-0.953 -0.999,-1.549 -0.104,-0.221 0.165,-0.465 0.352,-0.272 0.276,0.283 0.566,0.529 0.855,0.768 0.093,0.015 0.182,0.061 0.211,0.159 0.003,0.012 0.005,0.023 0.008,0.032 5.373,4.154 12.916,0.996 18.777,-1.015 6.056,-2.076 12.324,-4.247 17.755,-7.689 -0.462,-0.431 -0.83,-0.987 -1.065,-1.673 z"
               id="path2359" />
            <path
               inkscape:connector-curvature="0"
               style="fill:#ffffff"
               d="m 114.446,374.939 c -0.179,0.327 -0.302,0.749 -0.382,1.21 0.163,0.271 0.413,0.504 0.698,0.639 0.078,0.038 0.151,0.064 0.224,0.091 0.007,-0.238 0.017,-0.477 0.015,-0.715 -0.003,-0.189 0.059,-1.436 -0.555,-1.225 z"
               id="path2361" />
            <path
               inkscape:connector-curvature="0"
               style="fill:#ffffff"
               d="m 90.04,374.939 c -0.179,0.327 -0.302,0.749 -0.382,1.21 0.165,0.271 0.414,0.504 0.698,0.639 0.078,0.038 0.152,0.064 0.224,0.091 0.006,-0.238 0.017,-0.477 0.015,-0.715 -0.002,-0.189 0.06,-1.436 -0.555,-1.225 z"
               id="path2363" />
            <path
               inkscape:connector-curvature="0"
               style="fill:#d69163"
               d="m 78.265,376.535 c -0.305,-0.689 -0.68,-1.366 -1.351,-1.759 -1.277,-0.749 -1.932,1.556 -2.32,2.352 -0.155,0.316 -0.553,0.112 -0.589,-0.16 -0.193,-1.453 1.092,-3.743 2.803,-3.404 0.479,0.094 1.007,0.464 1.444,0.957 0.003,-0.737 0.001,-1.476 0.032,-2.215 -0.086,-0.047 -0.141,-0.137 -0.162,-0.24 -2.543,-3.028 -5.325,0.902 -5.41,3.482 -0.046,1.45 0.243,2.92 0.596,4.322 0.875,3.485 2.421,5.796 5.842,6.911 -0.045,-0.337 -0.091,-0.677 -0.136,-1.011 -0.407,-3.075 -0.673,-6.152 -0.749,-9.235 z"
               id="path2365" />
            <path
               inkscape:connector-curvature="0"
               style="fill:#ea4256"
               d="m 105.259,432.824 c 0.981,-0.265 2.519,-0.992 3.192,-1.784 0.837,-0.984 0.611,-2.535 0.474,-3.782 -0.354,-0.171 -0.71,-0.338 -1.074,-0.493 -0.384,0.121 -0.781,0.229 -1.197,0.298 -1.256,0.21 -2.403,0.137 -3.455,-0.141 -1.101,0.51 -2.142,1.002 -3.145,1.521 0.226,1.066 0.418,2.375 1.109,3.221 0.497,0.611 1.135,0.998 1.833,1.188 0.023,0 0.039,0.012 0.061,0.015 0.702,0.174 1.46,0.155 2.202,-0.043 z"
               id="path2367" />
            <path
               inkscape:connector-curvature="0"
               style="fill:#ea4256"
               d="m 101.773,455.552 c 1.16,1.583 2.604,2.667 3.946,4.054 0.785,-1.134 1.475,-2.393 2.084,-3.287 1.095,-1.612 2.158,-3.246 3.162,-4.917 0.116,-0.193 0.224,-0.391 0.338,-0.586 -0.432,-2.851 -0.708,-5.722 -1.251,-8.56 -0.597,-3.107 -1.505,-6.139 -2.171,-9.231 -0.912,0.561 -1.955,0.966 -2.868,1.118 -0.702,0.116 -1.335,0.106 -1.901,-0.004 -0.906,6.864 -2.255,13.43 -2.008,20.421 0,0.006 -0.003,0.011 -0.003,0.017 0.217,0.329 0.439,0.655 0.672,0.975 z"
               id="path2369" />
            <path
               inkscape:connector-curvature="0"
               style="fill:#a52d3e"
               d="m 108.925,427.258 c -0.354,-0.171 -0.71,-0.338 -1.074,-0.493 -0.384,0.121 -0.781,0.229 -1.197,0.298 -0.695,0.116 -1.353,0.139 -1.982,0.096 1.43,1.184 2.167,2.969 0.934,4.813 -0.257,0.385 -0.601,0.686 -0.959,0.974 0.204,-0.028 0.409,-0.066 0.612,-0.12 0.981,-0.265 2.519,-0.992 3.192,-1.784 0.837,-0.986 0.611,-2.537 0.474,-3.784 z"
               id="path2371" />
            <path
               inkscape:connector-curvature="0"
               style="fill:#a52d3e"
               d="m 110.052,442.256 c -0.597,-3.107 -1.505,-6.139 -2.171,-9.231 -0.912,0.561 -1.955,0.966 -2.868,1.118 -0.661,0.108 -1.256,0.099 -1.798,0.006 -0.021,0.021 -0.046,0.039 -0.066,0.062 -0.031,0.033 -0.041,0.091 -0.065,0.132 -0.043,0.326 -0.091,0.652 -0.136,0.979 0.101,1.061 0.659,2.451 0.838,3.008 0.86,2.677 2.002,5.288 2.701,8.013 0.753,2.934 1.245,6.83 0.931,10.576 0.131,-0.21 0.261,-0.416 0.386,-0.599 1.095,-1.612 2.158,-3.246 3.162,-4.917 0.116,-0.193 0.224,-0.391 0.338,-0.586 -0.433,-2.852 -0.709,-5.723 -1.252,-8.561 z"
               id="path2373" />
            <path
               inkscape:connector-curvature="0"
               style="fill:#ffffff"
               d="m 116.436,440.361 c 1.963,-5.142 3.38,-10.77 4.258,-16.398 -1.032,3.398 -2.452,6.651 -3.951,9.495 -0.176,0.334 -0.609,0.33 -0.865,0.11 -1.251,-1.07 -1.942,-2.671 -3.165,-3.82 -0.834,-0.784 -1.757,-1.4 -2.728,-1.939 0.239,1.279 0.356,2.728 -0.396,3.736 -0.298,0.398 -0.694,0.763 -1.138,1.094 2.373,4.89 3.721,11.103 3.69,16.724 1.637,-2.898 3.108,-5.891 4.295,-9.002 z"
               id="path2375" />
            <path
               inkscape:connector-curvature="0"
               style="fill:#d69163"
               d="m 126.972,371.31 c -0.011,0.073 -0.017,0.146 -0.029,0.22 0.004,0.015 0.019,0.023 0.02,0.043 0.032,0.645 0.043,1.296 0.042,1.946 0.331,-0.689 0.846,-1.229 1.739,-1.316 0.708,-0.071 1.366,0.267 1.747,0.864 0.479,0.755 0.329,1.508 0.237,2.342 -0.032,0.301 -0.527,0.435 -0.582,0.078 -0.125,-0.813 -0.595,-2.39 -1.705,-1.784 -0.767,0.421 -1.071,1.462 -1.505,2.214 -0.166,3.344 -0.623,6.716 -1.014,9.981 -0.018,0.144 -0.037,0.291 -0.055,0.438 3.796,-0.161 5.415,-5.062 6.044,-8.289 0.346,-1.78 0.431,-3.617 0.231,-5.422 -0.132,-1.193 -0.434,-2.938 -1.647,-3.582 -2.211,-1.179 -3.136,0.767 -3.523,2.267 z"
               id="path2377" />
            <path
               inkscape:connector-curvature="0"
               style="fill:#ffffff"
               d="m 108.954,426.318 c 0.104,0.034 0.202,0.076 0.304,0.111 0.164,-0.023 0.339,0.027 0.438,0.162 1.118,0.44 2.162,1.053 3.125,1.821 1.361,1.092 2.146,2.639 3.297,3.857 1.872,-3.603 3.33,-7.392 4.17,-11.372 0.442,-2.096 0.599,-4.113 0.638,-6.132 -1.667,-0.21 -3.34,-0.382 -5.006,-0.532 -0.799,4.814 -2.793,10.059 -6.966,12.085 z"
               id="path2379" />
            <path
               inkscape:connector-curvature="0"
               style="fill:#d69163"
               d="m 107.678,425.575 c 4.747,-1.697 6.218,-6.711 7.127,-11.439 -1.089,-0.094 -2.177,-0.18 -3.256,-0.263 l -1.23,-0.094 -0.07,-1.039 c -0.069,-1.217 -0.108,-2.441 -0.134,-3.661 l -0.023,-1.068 0.887,-0.304 c 2.666,-0.953 5.123,-2.163 7.221,-4.32 2.548,-2.619 4.079,-5.966 5.068,-9.442 1.977,-6.947 1.714,-14.26 3.103,-21.295 -0.123,-0.025 -0.23,-0.114 -0.224,-0.271 0.203,-4.988 -2.164,-8.684 -3.536,-13.297 -0.905,-3.041 -1.169,-6.686 -0.235,-9.826 -1.779,1.424 -4.524,2.404 -6.568,1.699 -0.02,-0.008 -0.031,-0.027 -0.049,-0.036 -0.017,-0.009 -0.034,-0.021 -0.048,-0.033 -0.038,-0.032 -0.076,-0.063 -0.096,-0.104 -10e-4,-0.002 -0.018,-0.004 -0.019,-0.004 -0.026,-0.059 -0.061,-0.116 -0.061,-0.176 v -0.004 c 0,-1.073 0.877,-2.11 1.285,-3.108 0.081,-0.196 0.162,-0.396 0.244,-0.592 -2.221,1.965 -5.189,2.993 -7.901,4.114 -3.979,1.647 -8.017,3.176 -12.123,4.481 -4.297,1.365 -11.934,4.031 -16.042,0.761 0.959,4.994 0.032,10.892 -2.105,15.401 0.5,8.42 0.802,17.239 3.489,25.263 1.421,4.245 4.313,7.948 8.088,10.395 1.89,1.225 4.228,1.619 6.618,1.699 2.014,-0.073 4.028,-0.12 6.043,-0.246 0.205,-0.013 0.218,0.278 0.046,0.338 -1.444,0.501 -3.003,0.786 -4.558,0.809 l 0.023,0.26 c 0.075,0.913 0.13,1.839 0.15,2.762 l 0.006,0.848 -1.377,0.294 c -0.573,0.124 -1.142,0.251 -1.713,0.38 1.497,5.784 4.88,13.65 11.97,11.118 z m 7.437,-45.586 c -1.149,1.604 -1.865,-0.399 -1.961,-1.502 -0.094,-1.094 -0.148,-2.655 0.519,-3.647 0.231,-1.153 1.772,-1.067 2.147,0.043 0.479,1.421 0.175,3.878 -0.705,5.106 z m -4.041,-10.334 c 0.782,-1.522 2.372,-3.36 4.187,-3.618 1.771,-0.253 3.546,1.288 3.909,2.946 0.075,0.346 -0.284,0.662 -0.608,0.47 -1.263,-0.749 -2.014,-2.352 -3.73,-1.85 -1.289,0.375 -2.445,1.434 -3.42,2.313 -0.185,0.165 -0.45,-0.045 -0.338,-0.261 z M 90.71,379.989 c -1.15,1.604 -1.865,-0.399 -1.961,-1.502 -0.095,-1.094 -0.148,-2.655 0.518,-3.647 0.231,-1.153 1.773,-1.067 2.147,0.043 0.48,1.421 0.175,3.878 -0.704,5.106 z m 2.934,-10.203 c -1.628,-1.099 -2.858,-2.376 -4.924,-1.254 -1.075,0.583 -1.927,1.703 -3.157,1.919 -0.217,0.037 -0.404,-0.128 -0.352,-0.353 0.354,-1.556 2.861,-3.324 4.399,-3.492 1.929,-0.211 3.548,1.237 4.385,2.829 0.111,0.212 -0.126,0.504 -0.351,0.351 z m 7.666,6.751 c 0.056,-0.235 0.46,-0.186 0.427,0.058 -0.292,2.191 -0.679,4.36 -1.014,6.546 -0.2,1.313 -0.669,2.974 -0.593,4.305 0.115,2.015 1.518,2.786 3.403,2.979 0.625,0.064 0.626,0.913 0,0.973 -2.357,0.228 -4.601,-1.078 -4.515,-3.57 0.126,-3.682 1.444,-7.717 2.292,-11.291 z m -3.281,24.53 c -0.951,-0.644 -1.056,-1.807 -0.872,-2.953 l 0.16,-0.766 0.649,-0.082 c 3.718,-0.465 7.422,-0.958 11.123,-1.534 l 0.945,-0.154 0.219,0.525 c 0.349,0.945 0.464,1.975 -0.012,2.801 -0.928,1.608 -3.988,2.387 -5.636,2.686 -1.824,0.334 -4.935,0.595 -6.576,-0.523 z"
               id="path2381" />
            <path
               inkscape:connector-curvature="0"
               style="fill:#c47455"
               d="m 81.334,361.548 c 0.085,-0.118 0.17,-0.237 0.266,-0.348 1.593,-1.843 4.53,-0.697 6.569,-0.878 8.854,-0.783 16.887,-4.67 24.822,-8.4 0.35,-0.162 0.776,-0.039 0.888,0.362 0.558,1.998 0.662,3.194 3.094,3.183 0.629,-0.003 1.35,-0.048 1.871,0.393 1.117,0.941 1.739,2.347 2.26,3.684 1.531,3.929 3.159,8.173 4.115,12.281 0.266,1.142 0.498,2.304 0.701,3.484 0.129,-0.89 0.278,-1.776 0.452,-2.658 -0.123,-0.025 -0.23,-0.114 -0.224,-0.271 0.203,-4.988 -2.164,-8.684 -3.536,-13.297 -0.905,-3.041 -1.169,-6.686 -0.235,-9.826 -1.779,1.424 -4.524,2.404 -6.568,1.699 -0.02,-0.008 -0.031,-0.027 -0.049,-0.036 -0.017,-0.009 -0.034,-0.021 -0.048,-0.033 -0.038,-0.032 -0.076,-0.063 -0.096,-0.104 -0.001,-0.002 -0.018,-0.004 -0.019,-0.004 -0.026,-0.059 -0.061,-0.116 -0.061,-0.176 v -0.004 c 0,-1.073 0.877,-2.11 1.285,-3.108 0.081,-0.196 0.162,-0.396 0.244,-0.592 -2.221,1.965 -5.189,2.993 -7.901,4.114 -3.979,1.647 -8.017,3.176 -12.123,4.481 -4.297,1.365 -11.934,4.031 -16.042,0.761 0.324,1.689 0.416,3.484 0.335,5.293 z"
               id="path2383" />
            <path
               inkscape:connector-curvature="0"
               style="fill:#c47455"
               d="m 98.793,412.935 0.006,0.848 -0.225,0.048 c 2.277,1.689 4.924,2.827 7.729,1.934 1.249,-0.397 2.764,-1.18 4,-2.223 l -0.054,-0.801 c -0.068,-1.212 -0.107,-2.43 -0.133,-3.645 -3.808,0.61 -7.652,1.002 -11.436,1.735 0.048,0.7 0.098,1.402 0.113,2.104 z"
               id="path2385" />
            <path
               inkscape:connector-curvature="0"
               style="fill:#ffffff"
               d="m 94.306,440.268 c 1.215,3.796 2.796,7.347 4.735,10.823 0.244,0.438 0.491,0.876 0.741,1.314 -0.324,-2.646 0.262,-5.595 0.569,-8.079 0.43,-3.485 0.941,-7.055 2.031,-10.407 -1.91,-0.762 -2.856,-2.864 -2.843,-5.207 -2.016,1.085 -3.862,2.339 -5.634,4.229 -0.295,0.313 -0.797,0.137 -0.919,-0.242 -1.187,-3.729 -2.676,-7.937 -3.436,-12.152 0.325,2.788 0.758,5.549 1.454,8.322 0.961,3.831 2.098,7.637 3.302,11.399 z"
               id="path2387" />
            <path
               inkscape:connector-curvature="0"
               style="fill:#ffffff"
               d="m 93.745,431.506 c 2.171,-2.233 5.043,-4.27 8.099,-5.08 -4.039,-1.94 -6.291,-7.257 -6.827,-11.817 -1.544,0.349 -3.082,0.712 -4.617,1.098 0.102,2.195 0.243,4.376 0.718,6.605 0.664,3.119 1.607,6.174 2.627,9.194 z"
               id="path2389" />
            <path
               inkscape:connector-curvature="0"
               style="fill:#bfb9b8"
               d="m 116.436,440.361 c 1.963,-5.142 3.38,-10.77 4.258,-16.398 -1.032,3.398 -2.452,6.651 -3.951,9.495 -0.176,0.334 -0.609,0.33 -0.865,0.11 -1.251,-1.07 -1.942,-2.671 -3.165,-3.82 -0.834,-0.784 -1.757,-1.4 -2.728,-1.939 0.239,1.279 0.356,2.728 -0.396,3.736 -0.298,0.398 -0.694,0.763 -1.138,1.094 2.373,4.89 3.721,11.103 3.69,16.724 1.637,-2.898 3.108,-5.891 4.295,-9.002 z"
               id="path2391" />
            <path
               inkscape:connector-curvature="0"
               style="fill:#bfb9b8"
               d="m 120.274,420.964 c 0.004,-0.023 0.01,-0.044 0.015,-0.065 0.442,-2.096 0.599,-4.113 0.638,-6.132 -1.667,-0.21 -3.34,-0.382 -5.006,-0.532 -0.44,2.643 -1.243,5.414 -2.566,7.716 2.056,-0.17 4.463,-0.47 6.919,-0.987 z"
               id="path2393" />
            <path
               inkscape:connector-curvature="0"
               style="fill:#bfb9b8"
               d="m 94.306,440.268 c 1.215,3.796 2.796,7.347 4.735,10.823 0.244,0.438 0.491,0.876 0.741,1.314 -0.324,-2.646 0.262,-5.595 0.569,-8.079 0.43,-3.485 0.941,-7.055 2.031,-10.407 -1.91,-0.762 -2.856,-2.864 -2.843,-5.207 -2.016,1.085 -3.862,2.339 -5.634,4.229 -0.295,0.313 -0.797,0.137 -0.919,-0.242 -1.187,-3.729 -2.676,-7.937 -3.436,-12.152 0.325,2.788 0.758,5.549 1.454,8.322 0.961,3.831 2.098,7.637 3.302,11.399 z"
               id="path2395" />
            <path
               inkscape:connector-curvature="0"
               style="fill:#bfb9b8"
               d="m 96.487,420.164 c -0.766,-1.796 -1.258,-3.735 -1.471,-5.556 -1.544,0.349 -3.082,0.712 -4.617,1.098 0.04,0.857 0.093,1.714 0.162,2.571 1.762,0.844 4.394,1.518 5.926,1.887 z"
               id="path2397" />
            <path
               inkscape:connector-curvature="0"
               style="fill:#1e353f"
               d="m 144.519,427.196 c -0.368,-1.403 -0.676,-2.847 -1.401,-4.112 -0.773,-1.344 -1.985,-2.077 -3.32,-2.827 -5.308,-2.982 -11.35,-4.449 -17.512,-5.31 -0.008,0.249 -0.025,0.501 -0.04,0.751 0.376,4.192 -0.632,8.544 -1.407,12.626 -0.9,4.75 -2.085,9.408 -3.938,13.879 -1.366,3.299 -3.024,6.465 -4.861,9.523 -0.002,0.034 -0.001,0.071 -0.004,0.107 -0.011,0.128 -0.108,0.21 -0.216,0.251 -0.406,0.668 -0.809,1.34 -1.23,1.997 -1.279,1.993 -2.632,3.936 -4.038,5.841 -0.54,0.732 -1.043,1.551 -1.712,2.157 2.175,0.006 4.35,-0.064 6.52,-0.227 8.003,-0.608 15.917,-2.483 23.249,-5.765 0.175,-3.285 0.482,-6.571 0.742,-9.797 0.474,-5.907 1.136,-11.803 2.048,-17.657 0.042,-0.268 0.488,-0.202 0.467,0.063 -0.498,6.017 -1.014,12.033 -1.436,18.058 -0.202,2.886 -0.299,5.799 -0.429,8.707 0.094,-0.045 0.191,-0.084 0.285,-0.129 3.848,-1.857 7.331,-4.109 10.593,-6.662 0.026,-4.246 -0.056,-8.458 -0.636,-12.725 -0.405,-2.946 -0.97,-5.87 -1.724,-8.749 z m -23.244,13.355 c 2.339,1.872 5.865,5.304 4.783,8.378 -1.317,3.741 -4.868,6.603 -7.997,8.801 -0.263,0.183 -0.555,-0.222 -0.334,-0.436 2.377,-2.32 5.065,-4.488 6.702,-7.439 0.622,-1.123 1.221,-2.136 0.63,-3.459 -0.356,-0.797 -1.333,-1.882 -1.817,-2.483 -0.849,-1.06 -1.759,-2.064 -2.593,-3.133 -0.15,0.053 -0.302,0.107 -0.441,0.152 -0.405,0.135 -0.65,-0.478 -0.286,-0.679 3.892,-2.146 10.583,-4.561 8.981,-10.091 -1.403,-4.844 -2.809,-9.717 -5.051,-14.254 -0.087,-0.178 0.165,-0.331 0.268,-0.156 1.61,2.694 2.934,5.524 3.994,8.478 0.856,2.38 2.48,5.57 2.404,8.137 -0.12,3.895 -5.667,6.83 -9.243,8.184 z"
               id="path2399" />
            <path
               inkscape:connector-curvature="0"
               style="fill:#1e353f"
               d="m 98.807,452.953 c -1.979,-3.432 -3.715,-6.916 -4.986,-10.675 -1.455,-4.309 -2.734,-8.719 -3.826,-13.132 -1.025,-4.138 -1.975,-8.593 -1.646,-12.893 -0.604,0.163 -1.206,0.338 -1.808,0.506 -2.927,4.117 -3.954,10.064 -5.079,14.905 -0.343,1.479 -0.868,2.993 -0.563,4.492 0.251,1.227 0.735,1.232 1.761,1.718 0.524,0.247 1.05,0.489 1.578,0.729 2.367,1.077 4.789,1.999 7.074,3.24 0.228,0.125 0.063,0.446 -0.167,0.398 -0.693,-0.143 -1.377,-0.327 -2.054,-0.531 -0.923,1.496 -2.037,2.932 -2.798,4.507 -1.425,2.95 -0.288,4.134 1.457,6.344 2.336,2.957 5.198,5.225 8.043,7.653 0.249,0.214 -0.07,0.549 -0.327,0.424 -4.214,-2.05 -7.754,-5.831 -10.239,-9.761 -0.84,-1.327 -1.194,-2.332 -0.546,-3.823 0.852,-1.962 2.286,-3.911 3.739,-5.554 -2.309,-0.759 -4.536,-1.799 -6.718,-2.847 -2.344,-1.125 -2.494,-1.697 -1.987,-4.2 0.747,-3.685 1.665,-7.344 2.836,-10.918 0.765,-2.336 1.532,-4.676 3.136,-6.539 -0.125,0.038 -0.25,0.068 -0.375,0.105 -4.762,1.438 -10.041,2.68 -14.256,5.409 -5.121,3.315 -6.279,8.584 -7.261,14.238 -0.752,4.335 -1.125,8.724 -1.723,13.078 3.011,2.535 6.446,4.507 10.074,6.073 -0.108,-2.279 -0.187,-4.554 -0.305,-6.797 -0.356,-6.807 -1.145,-13.491 -1.818,-20.261 -0.017,-0.171 0.229,-0.179 0.278,-0.038 2.13,5.989 2.312,13.086 2.691,19.374 0.167,2.765 0.369,5.529 0.573,8.293 3.337,1.327 6.802,2.345 10.243,3.13 6.396,1.462 12.95,2.319 19.516,2.452 0.023,-0.021 0.042,-0.045 0.073,-0.062 0.707,-0.387 1.351,-1.069 1.944,-1.859 -3.039,-1.052 -5.02,-4.549 -6.534,-7.178 z"
               id="path2401" />
            <path
               inkscape:connector-curvature="0"
               style="fill:#132328"
               d="m 122.171,420.461 c 1.145,-0.145 2.291,-0.317 3.437,-0.518 -0.531,-1.367 -1.106,-2.716 -1.758,-4.035 -0.087,-0.178 0.165,-0.331 0.268,-0.156 0.791,1.323 1.51,2.68 2.166,4.067 0.556,-0.104 1.112,-0.191 1.669,-0.308 2.249,-0.467 4.503,-0.992 6.741,-1.593 -3.944,-1.476 -8.144,-2.376 -12.407,-2.972 -0.008,0.249 -0.025,0.501 -0.04,0.751 0.14,1.574 0.087,3.169 -0.076,4.764 z"
               id="path2403" />
            <path
               inkscape:connector-curvature="0"
               style="fill:#132328"
               d="m 132.596,447.398 c -0.952,1.216 -2.2,2.941 -3.936,2.797 -0.898,-0.073 -1.331,-1.141 -1.587,-2.116 -0.385,0.46 -0.792,0.894 -1.214,1.308 -1.438,3.515 -4.8,6.238 -7.798,8.343 -0.263,0.183 -0.555,-0.222 -0.334,-0.436 1.916,-1.87 4.024,-3.647 5.63,-5.811 -0.611,0.45 -1.238,0.887 -1.889,1.304 -2.841,1.813 -5.586,4.103 -8.632,5.553 -2.026,0.967 -4.119,1.424 -6.227,1.505 -0.019,0.026 -0.038,0.052 -0.057,0.078 -0.54,0.732 -1.043,1.551 -1.712,2.157 2.175,0.006 4.35,-0.064 6.52,-0.227 8.003,-0.608 15.917,-2.483 23.249,-5.765 0.175,-3.285 0.482,-6.571 0.742,-9.797 0.104,-1.294 0.22,-2.587 0.343,-3.879 -0.84,1.738 -1.859,3.405 -3.098,4.986 z"
               id="path2405" />
            <path
               inkscape:connector-curvature="0"
               style="fill:#132328"
               d="m 139.388,442.082 c -1.157,-1.283 -1.705,-2.709 -1.941,-4.211 -0.137,0.465 -0.287,0.927 -0.445,1.383 -0.2,2.5 -0.398,5 -0.573,7.502 -0.202,2.886 -0.299,5.799 -0.429,8.707 0.094,-0.045 0.191,-0.084 0.285,-0.129 3.848,-1.857 7.331,-4.109 10.593,-6.662 0.01,-1.532 -0.007,-3.059 -0.044,-4.586 -2.583,0.548 -5.612,0.031 -7.446,-2.004 z"
               id="path2407" />
            <path
               inkscape:connector-curvature="0"
               style="fill:#132328"
               d="m 95.875,457.492 c -2.42,-1.054 -4.679,-2.457 -7.031,-3.642 2.109,2.352 4.534,4.303 6.95,6.365 0.249,0.214 -0.07,0.549 -0.327,0.424 -3.518,-1.71 -6.556,-4.632 -8.913,-7.836 -0.326,-0.132 -0.65,-0.265 -0.983,-0.38 -2.656,-0.925 -4.859,-2.07 -6.674,-4.293 -2.136,-2.621 -4.272,-5.525 -5.618,-8.64 -0.576,-1.331 -0.951,-2.716 -1.375,-4.079 0.67,4.248 0.842,8.678 1.089,12.769 0.167,2.765 0.369,5.529 0.573,8.293 3.337,1.327 6.802,2.345 10.243,3.13 6.396,1.462 12.95,2.319 19.516,2.452 0.023,-0.021 0.042,-0.045 0.073,-0.062 0.707,-0.387 1.351,-1.069 1.944,-1.859 -0.261,-0.09 -0.511,-0.204 -0.757,-0.329 -2.956,-0.211 -5.908,-1.091 -8.71,-2.313 z"
               id="path2409" />
            <path
               inkscape:connector-curvature="0"
               style="fill:#132328"
               d="m 70.523,433.713 c -1.098,5.705 -1.138,11.78 -6.028,15.65 -0.402,0.318 -0.949,0.723 -1.566,1.125 2.804,2.211 5.923,3.992 9.219,5.414 -0.108,-2.279 -0.187,-4.554 -0.305,-6.797 -0.271,-5.17 -0.79,-10.272 -1.32,-15.392 z"
               id="path2411" />
            <path
               inkscape:connector-curvature="0"
               style="fill:#ffffff"
               d="m 102.933,340.797 c -1.239,0 -2.21,0.276 -3.365,0.75 -0.508,0.21 -1.026,0.396 -1.552,0.556 -1.787,0.592 -0.436,-0.633 -0.08,-1.124 0.344,-0.476 -0.122,-1.117 -0.644,-1.123 -2.582,-0.028 -4.907,0.844 -7.277,1.645 2.313,-1.871 4.886,-3.203 7.732,-4.456 0.183,-0.081 0.076,-0.343 -0.094,-0.351 -4.47,-0.175 -8.341,2.868 -11.263,5.97 -0.579,0.615 -0.001,1.54 0.798,1.371 2.968,-0.633 5.631,-2.154 8.611,-2.571 -0.423,0.738 -0.67,1.57 0.094,2.016 0.461,0.272 1.195,0.075 1.62,-0.144 1.796,-0.932 3.402,-2.078 5.433,-2.448 0.05,-0.012 0.036,-0.091 -0.013,-0.091 z"
               id="path2413" />
            <path
               inkscape:connector-curvature="0"
               style="fill:#ffffff"
               d="m 105.733,340.228 c -0.446,0.298 -0.899,0.581 -1.362,0.853 -0.479,0.281 -1.076,0.532 -1.424,0.977 -0.091,0.116 -0.01,0.283 0.146,0.249 0.491,-0.104 0.918,-0.457 1.322,-0.74 0.497,-0.351 0.993,-0.703 1.479,-1.067 0.157,-0.121 0.012,-0.39 -0.161,-0.272 z"
               id="path2415" />
            <path
               inkscape:connector-curvature="0"
               style="fill:#ffffff"
               d="m 107.733,340.516 c -0.432,0.205 -0.983,0.407 -1.229,0.841 -0.069,0.121 0.021,0.246 0.149,0.258 0.537,0.058 0.998,-0.388 1.37,-0.722 0.216,-0.194 -0.058,-0.488 -0.29,-0.377 z"
               id="path2417" />
          </g>
          <g
             id="Parjo">
            <path
               inkscape:connector-curvature="0"
               d="m 147.451,435.699 c -0.48,-3.265 -1.163,-6.502 -2.038,-9.684 -0.666,-2.419 -1.21,-4.24 -3.329,-5.716 -4.88,-3.397 -11.122,-4.94 -16.897,-5.913 -0.945,-0.16 -1.914,-0.319 -2.892,-0.477 l -1.36,-0.214 c -1.595,-0.243 -3.215,-0.468 -4.84,-0.638 l -1.072,-0.107 c -1.169,-0.104 -2.337,-0.177 -3.496,-0.205 -0.059,-1.288 -0.188,-2.582 -0.369,-3.856 5.708,-1.318 10.22,-6.545 12.288,-11.801 1.236,-3.141 1.86,-6.478 2.301,-9.818 5.682,1.553 7.632,-10.191 7.537,-13.79 -0.06,-2.256 -0.648,-5.513 -3.451,-5.81 -0.243,-0.025 -0.468,-0.016 -0.686,0.009 1.046,-1.968 0.876,-4.692 0.981,-6.832 0.153,-3.074 0.103,-6.163 -0.116,-9.233 -0.241,-3.376 -1.184,-8.545 -5.569,-8.249 2.859,-5.491 -5.755,-10.893 -10.231,-11.476 -7.069,-0.921 -15.396,0.904 -21.897,3.627 -6.307,2.641 -12.027,7.09 -15.271,13.209 -3.204,6.047 -3.875,14.735 -1.415,21.247 -0.205,0.02 -0.412,0.05 -0.621,0.109 -2.183,0.615 -3.27,2.954 -3.396,5.052 -0.252,4.156 1.953,13.216 7.656,12.537 0.572,4.182 1.296,8.538 3.087,12.329 1.675,3.547 4.949,7.104 8.479,8.879 1.933,0.972 4.289,1.329 6.655,1.324 -0.04,0.964 -0.063,1.936 -0.068,2.904 -0.658,0.091 -1.314,0.199 -1.969,0.317 l -0.536,0.102 c -1.534,0.291 -3.058,0.653 -4.573,1.043 l -1.285,0.335 c -1.646,0.444 -3.279,0.923 -4.894,1.409 -5.042,1.517 -10.626,2.843 -14.889,6.092 -4.049,3.083 -5.305,7.429 -6.219,12.243 -0.892,4.691 -1.623,9.501 -1.985,14.298 l -0.05,0.732 0.944,0.896 c 3.037,2.732 6.513,4.875 10.242,6.562 l 1.45,0.614 c 7.768,3.219 16.5,4.592 24.622,5.214 12.332,0.941 24.927,-0.667 36.268,-5.616 l 1.39,-0.636 c 1.22,-0.568 2.429,-1.163 3.617,-1.811 2.504,-1.369 4.97,-2.926 7.307,-4.66 l 1.372,-1.049 0.055,-1.659 c 0.081,-3.969 -0.271,-7.977 -0.837,-11.833 m -31.53,-21.465 c 1.666,0.15 3.339,0.322 5.006,0.532 -0.039,2.019 -0.196,4.036 -0.638,6.132 -0.841,3.98 -2.298,7.77 -4.17,11.372 -1.151,-1.219 -1.936,-2.766 -3.297,-3.857 -0.963,-0.769 -2.007,-1.381 -3.125,-1.821 -0.099,-0.135 -0.274,-0.185 -0.438,-0.162 -0.103,-0.035 -0.201,-0.077 -0.304,-0.111 4.172,-2.027 6.166,-7.272 6.966,-12.085 m -3.779,35.128 c 0.031,-5.621 -1.317,-11.834 -3.69,-16.724 0.443,-0.331 0.84,-0.695 1.138,-1.094 0.753,-1.009 0.635,-2.457 0.396,-3.736 0.971,0.539 1.894,1.155 2.728,1.939 1.223,1.15 1.914,2.75 3.165,3.82 0.255,0.22 0.688,0.224 0.865,-0.11 1.499,-2.844 2.919,-6.097 3.951,-9.495 -0.878,5.629 -2.294,11.257 -4.258,16.398 -1.188,3.112 -2.659,6.105 -4.295,9.002 m -9.03,-15.223 c 0.566,0.11 1.199,0.12 1.901,0.004 0.914,-0.152 1.956,-0.557 2.868,-1.118 0.666,3.093 1.574,6.124 2.171,9.231 0.543,2.838 0.819,5.709 1.251,8.56 -0.114,0.195 -0.222,0.393 -0.338,0.586 -1.004,1.671 -2.066,3.305 -3.162,4.917 -0.609,0.895 -1.299,2.153 -2.084,3.287 -1.342,-1.387 -2.786,-2.471 -3.946,-4.054 -0.233,-0.319 -0.455,-0.645 -0.672,-0.976 0,-0.006 0.003,-0.011 0.003,-0.017 -0.248,-6.991 1.102,-13.556 2.008,-20.42 m 2.147,-1.315 c -0.742,0.198 -1.5,0.217 -2.2,0.041 -0.021,-0.003 -0.038,-0.015 -0.061,-0.015 -0.698,-0.189 -1.336,-0.576 -1.833,-1.188 -0.692,-0.846 -0.884,-2.154 -1.109,-3.221 1.002,-0.519 2.043,-1.011 3.145,-1.521 1.051,0.277 2.198,0.351 3.455,0.141 0.416,-0.069 0.813,-0.177 1.197,-0.298 0.364,0.155 0.72,0.322 1.074,0.493 0.137,1.247 0.363,2.798 -0.474,3.782 -0.675,0.794 -2.213,1.522 -3.194,1.786 m 25.236,-63.783 c 1.213,0.644 1.515,2.389 1.647,3.582 0.2,1.805 0.115,3.642 -0.231,5.422 -0.629,3.228 -2.248,8.128 -6.044,8.289 0.019,-0.147 0.038,-0.293 0.055,-0.438 0.391,-3.265 0.848,-6.637 1.014,-9.981 0.434,-0.752 0.738,-1.793 1.505,-2.214 1.11,-0.605 1.58,0.971 1.705,1.784 0.054,0.357 0.549,0.223 0.582,-0.078 0.092,-0.834 0.241,-1.587 -0.237,-2.342 -0.381,-0.598 -1.039,-0.936 -1.747,-0.864 -0.893,0.088 -1.408,0.627 -1.739,1.316 0.001,-0.65 -0.01,-1.302 -0.042,-1.946 -10e-4,-0.02 -0.015,-0.028 -0.02,-0.043 0.013,-0.073 0.019,-0.146 0.029,-0.22 0.387,-1.498 1.312,-3.444 3.523,-2.267 M 77.341,350.563 c 2.511,-5.378 6.965,-9.632 12.148,-12.433 5.827,-3.147 12.492,-4.572 19.051,-5.084 3.014,-0.235 6.188,-0.271 8.994,1.005 3.508,1.597 6.924,5.41 5.973,9.46 -0.077,0.328 0.248,0.542 0.504,0.445 0.057,0.063 0.142,0.108 0.258,0.117 5.214,0.347 4.602,7.995 4.664,11.694 0.065,3.845 0.249,8.201 -0.592,11.972 -0.012,0.056 -0.008,0.108 0.001,0.157 -0.558,0.251 -1.004,0.677 -1.329,1.204 -0.26,-2.641 -1.505,-5.24 -2.472,-7.65 -0.912,-2.275 -1.57,-4.544 -1.697,-7.011 -0.106,-2.05 0.253,-4.025 0.44,-6.045 0.007,-0.007 0.015,-0.015 0.021,-0.022 0.106,-0.121 0.094,-0.281 0.019,-0.392 0.005,-0.057 0.013,-0.115 0.018,-0.173 0.014,-0.204 -0.305,-0.296 -0.393,-0.107 -0.037,0.079 -0.06,0.165 -0.096,0.246 -1.124,0.653 -2.236,1.306 -3.48,1.713 -0.913,0.3 -1.859,0.355 -2.786,0.525 0.351,-0.588 0.584,-1.269 0.828,-1.89 0.438,-1.111 0.82,-2.239 1.009,-3.422 0.038,-0.235 -0.303,-0.438 -0.421,-0.179 -0.14,0.306 -0.271,0.619 -0.403,0.928 -5.534,3.613 -11.99,5.835 -18.214,7.97 -5.861,2.011 -13.404,5.169 -18.777,1.015 -0.003,-0.01 -0.005,-0.021 -0.008,-0.032 -0.03,-0.099 -0.118,-0.145 -0.211,-0.159 -0.29,-0.238 -0.579,-0.484 -0.855,-0.768 -0.188,-0.192 -0.456,0.052 -0.352,0.272 0.281,0.596 0.618,1.108 0.999,1.549 0.267,2.624 0.267,5.242 -0.114,7.862 -0.329,2.268 -1.026,4.439 -1.553,6.65 -0.052,0.028 -0.096,0.073 -0.103,0.153 -0.011,0.136 -0.016,0.272 -0.025,0.408 -0.036,0.158 -0.063,0.32 -0.096,0.479 -0.449,-0.531 -1.071,-0.878 -1.758,-1.009 -1.041,-6.644 -2.185,-13.039 0.808,-19.448 m -4.032,29.306 c -0.354,-1.402 -0.643,-2.872 -0.596,-4.322 0.085,-2.579 2.867,-6.51 5.41,-3.482 0.021,0.104 0.075,0.193 0.162,0.24 -0.031,0.739 -0.028,1.478 -0.032,2.215 -0.438,-0.493 -0.965,-0.863 -1.444,-0.957 -1.711,-0.339 -2.996,1.951 -2.803,3.404 0.037,0.272 0.434,0.477 0.589,0.16 0.388,-0.796 1.043,-3.101 2.32,-2.352 0.671,0.393 1.046,1.069 1.351,1.759 0.076,3.083 0.342,6.16 0.75,9.234 0.045,0.334 0.091,0.674 0.136,1.011 -3.422,-1.114 -4.969,-3.425 -5.843,-6.91 m 24.113,34.207 1.377,-0.294 -0.006,-0.848 c -0.02,-0.923 -0.075,-1.849 -0.15,-2.762 l -0.023,-0.26 c 1.555,-0.022 3.113,-0.308 4.558,-0.809 0.172,-0.06 0.158,-0.351 -0.046,-0.338 -2.016,0.126 -4.029,0.173 -6.043,0.246 -2.391,-0.08 -4.729,-0.475 -6.618,-1.699 -3.776,-2.446 -6.667,-6.149 -8.088,-10.395 -2.687,-8.023 -2.988,-16.843 -3.489,-25.263 2.137,-4.51 3.064,-10.407 2.105,-15.401 4.108,3.27 11.745,0.604 16.042,-0.761 4.106,-1.306 8.144,-2.835 12.123,-4.481 2.712,-1.121 5.68,-2.149 7.901,-4.114 -0.082,0.196 -0.163,0.396 -0.244,0.592 -0.408,0.998 -1.285,2.035 -1.285,3.108 v 0.004 c 0,0.06 0.035,0.117 0.061,0.176 0.001,0 0.018,0.002 0.019,0.004 0.02,0.041 0.058,0.071 0.096,0.104 0.014,0.013 0.031,0.024 0.048,0.033 0.018,0.009 0.029,0.028 0.049,0.036 2.044,0.705 4.789,-0.275 6.568,-1.699 -0.934,3.14 -0.67,6.785 0.235,9.826 1.372,4.613 3.739,8.309 3.536,13.297 -0.006,0.157 0.101,0.246 0.224,0.271 -1.389,7.035 -1.126,14.348 -3.103,21.295 -0.99,3.477 -2.521,6.823 -5.068,9.442 -2.098,2.157 -4.555,3.367 -7.221,4.32 l -0.887,0.304 0.023,1.068 c 0.026,1.22 0.065,2.444 0.134,3.661 l 0.07,1.039 1.23,0.094 c 1.079,0.083 2.167,0.169 3.256,0.263 -0.909,4.728 -2.38,9.741 -7.127,11.439 -7.089,2.532 -10.473,-5.334 -11.969,-11.119 0.57,-0.128 1.14,-0.255 1.712,-0.379 m -2.406,0.532 c 0.536,4.561 2.789,9.878 6.827,11.817 -3.056,0.81 -5.928,2.847 -8.099,5.08 -1.019,-3.02 -1.963,-6.075 -2.628,-9.194 -0.475,-2.229 -0.616,-4.41 -0.718,-6.605 1.536,-0.386 3.074,-0.749 4.618,-1.098 m -2.029,18.09 c 0.121,0.379 0.624,0.555 0.919,0.242 1.772,-1.891 3.618,-3.145 5.634,-4.229 -0.014,2.343 0.933,4.445 2.843,5.207 -1.09,3.353 -1.6,6.922 -2.031,10.407 -0.307,2.484 -0.893,5.433 -0.569,8.079 -0.25,-0.438 -0.497,-0.876 -0.741,-1.314 -1.939,-3.477 -3.52,-7.027 -4.735,-10.823 -1.204,-3.762 -2.341,-7.567 -3.302,-11.399 -0.696,-2.773 -1.129,-5.534 -1.454,-8.322 0.759,4.216 2.249,8.424 3.436,12.152 m 10.411,29.296 c -0.031,0.017 -0.05,0.041 -0.073,0.062 -6.566,-0.133 -13.119,-0.99 -19.516,-2.452 -3.441,-0.785 -6.906,-1.803 -10.243,-3.13 -0.204,-2.764 -0.406,-5.528 -0.573,-8.293 -0.379,-6.288 -0.561,-13.385 -2.691,-19.374 -0.049,-0.141 -0.295,-0.133 -0.278,0.038 0.673,6.77 1.461,13.454 1.818,20.261 0.118,2.243 0.196,4.517 0.305,6.797 -3.628,-1.566 -7.063,-3.538 -10.074,-6.073 0.598,-4.354 0.971,-8.743 1.723,-13.078 0.982,-5.654 2.14,-10.923 7.261,-14.238 4.215,-2.729 9.495,-3.972 14.256,-5.409 0.125,-0.037 0.25,-0.067 0.375,-0.105 -1.605,1.863 -2.371,4.203 -3.136,6.539 -1.171,3.574 -2.089,7.233 -2.836,10.918 -0.507,2.503 -0.357,3.075 1.987,4.2 2.183,1.048 4.41,2.088 6.718,2.847 -1.453,1.642 -2.888,3.592 -3.739,5.554 -0.647,1.491 -0.294,2.496 0.546,3.823 2.485,3.93 6.025,7.711 10.239,9.761 0.257,0.125 0.576,-0.21 0.327,-0.424 -2.845,-2.429 -5.707,-4.696 -8.043,-7.653 -1.746,-2.21 -2.882,-3.394 -1.457,-6.344 0.762,-1.575 1.875,-3.011 2.798,-4.507 0.677,0.204 1.361,0.389 2.054,0.531 0.23,0.048 0.395,-0.273 0.167,-0.398 -2.285,-1.241 -4.707,-2.163 -7.074,-3.24 -0.528,-0.24 -1.054,-0.482 -1.578,-0.729 -1.026,-0.485 -1.511,-0.491 -1.761,-1.718 -0.305,-1.499 0.22,-3.013 0.563,-4.492 1.125,-4.841 2.152,-10.788 5.079,-14.905 0.602,-0.168 1.205,-0.343 1.808,-0.506 -0.329,4.3 0.621,8.755 1.646,12.893 1.092,4.413 2.371,8.823 3.826,13.132 1.271,3.759 3.007,7.243 4.986,10.675 1.514,2.629 3.495,6.126 6.535,7.182 -0.594,0.786 -1.238,1.468 -1.945,1.855 m 32.886,-6.66 c -0.094,0.045 -0.19,0.084 -0.285,0.129 0.13,-2.908 0.228,-5.821 0.429,-8.707 0.422,-6.024 0.938,-12.041 1.436,-18.058 0.021,-0.266 -0.425,-0.331 -0.467,-0.063 -0.912,5.854 -1.574,11.75 -2.048,17.657 -0.26,3.226 -0.567,6.512 -0.742,9.797 -7.333,3.281 -15.246,5.156 -23.249,5.765 -2.17,0.163 -4.344,0.232 -6.52,0.227 0.669,-0.607 1.172,-1.425 1.712,-2.157 1.406,-1.905 2.76,-3.848 4.038,-5.841 0.421,-0.657 0.825,-1.329 1.23,-1.997 0.108,-0.041 0.206,-0.123 0.216,-0.251 0.003,-0.036 0.002,-0.073 0.004,-0.107 1.837,-3.059 3.495,-6.225 4.861,-9.523 1.853,-4.471 3.038,-9.129 3.938,-13.879 0.775,-4.082 1.782,-8.434 1.407,-12.626 0.015,-0.25 0.032,-0.502 0.04,-0.751 6.162,0.86 12.204,2.327 17.512,5.31 1.335,0.75 2.546,1.483 3.32,2.827 0.725,1.266 1.033,2.709 1.401,4.112 0.754,2.879 1.319,5.803 1.722,8.751 0.58,4.267 0.662,8.479 0.636,12.725 -3.259,2.551 -6.743,4.804 -10.591,6.66"
               id="path2421" />
            <path
               inkscape:connector-curvature="0"
               d="m 103.532,390.425 c -1.885,-0.193 -3.288,-0.965 -3.403,-2.979 -0.075,-1.331 0.393,-2.992 0.593,-4.305 0.335,-2.185 0.721,-4.354 1.014,-6.546 0.033,-0.243 -0.371,-0.293 -0.427,-0.058 -0.848,3.574 -2.166,7.608 -2.292,11.29 -0.086,2.492 2.158,3.798 4.515,3.57 0.626,-0.059 0.625,-0.909 0,-0.972"
               id="path2423" />
            <path
               inkscape:connector-curvature="0"
               d="m 110.253,396.103 -0.219,-0.525 -0.945,0.154 c -3.701,0.576 -7.405,1.069 -11.123,1.534 l -0.649,0.082 -0.16,0.766 c -0.184,1.146 -0.079,2.31 0.872,2.953 1.642,1.117 4.752,0.856 6.576,0.523 1.648,-0.3 4.707,-1.078 5.636,-2.686 0.476,-0.826 0.361,-1.855 0.012,-2.801 m -1.859,3.138 c -1.281,0.959 -3.124,1.446 -4.687,1.636 -1.393,0.169 -3.295,0.29 -4.596,-0.311 -1.072,-0.496 -1.275,-1.456 -1.226,-2.48 3.834,-0.159 7.703,-0.774 11.427,-1.737 0.312,1.06 0.192,2.064 -0.918,2.892"
               id="path2425" />
            <path
               inkscape:connector-curvature="0"
               d="m 93.995,369.435 c -0.837,-1.592 -2.456,-3.04 -4.385,-2.829 -1.539,0.168 -4.045,1.937 -4.399,3.492 -0.051,0.225 0.136,0.39 0.352,0.353 1.23,-0.216 2.082,-1.336 3.157,-1.919 2.066,-1.122 3.297,0.155 4.924,1.254 0.225,0.153 0.462,-0.139 0.351,-0.351"
               id="path2427" />
            <path
               inkscape:connector-curvature="0"
               d="m 115.261,366.037 c -1.815,0.258 -3.404,2.097 -4.187,3.618 -0.112,0.216 0.153,0.426 0.337,0.261 0.975,-0.879 2.13,-1.938 3.42,-2.313 1.717,-0.502 2.467,1.101 3.73,1.85 0.325,0.192 0.684,-0.124 0.608,-0.47 -0.362,-1.658 -2.137,-3.199 -3.908,-2.946"
               id="path2429" />
            <path
               inkscape:connector-curvature="0"
               d="m 130.516,432.367 c 0.076,-2.566 -1.548,-5.757 -2.404,-8.137 -1.06,-2.954 -2.384,-5.784 -3.994,-8.478 -0.103,-0.175 -0.355,-0.022 -0.268,0.156 2.242,4.537 3.648,9.41 5.051,14.254 1.602,5.529 -5.089,7.945 -8.981,10.091 -0.364,0.201 -0.119,0.814 0.286,0.679 0.139,-0.045 0.292,-0.1 0.441,-0.152 0.834,1.069 1.745,2.073 2.593,3.133 0.484,0.602 1.461,1.686 1.817,2.483 0.59,1.323 -0.009,2.336 -0.63,3.459 -1.637,2.951 -4.325,5.119 -6.702,7.439 -0.22,0.214 0.071,0.618 0.334,0.436 3.129,-2.197 6.68,-5.06 7.997,-8.801 1.082,-3.074 -2.444,-6.506 -4.783,-8.378 3.578,-1.354 9.125,-4.289 9.243,-8.184"
               id="path2431" />
            <path
               inkscape:connector-curvature="0"
               d="m 91.415,374.883 c -0.374,-1.11 -1.916,-1.196 -2.147,-0.043 -0.666,0.992 -0.613,2.554 -0.518,3.647 0.095,1.103 0.811,3.105 1.961,1.502 0.878,-1.228 1.183,-3.685 0.704,-5.106 m -1.375,0.056 c 0.614,-0.21 0.552,1.036 0.554,1.225 0.002,0.238 -0.008,0.477 -0.015,0.715 -0.072,-0.026 -0.146,-0.053 -0.224,-0.091 -0.285,-0.135 -0.534,-0.368 -0.698,-0.639 0.081,-0.461 0.205,-0.883 0.383,-1.21"
               id="path2433" />
            <path
               inkscape:connector-curvature="0"
               d="m 115.82,374.883 c -0.375,-1.11 -1.916,-1.196 -2.147,-0.043 -0.667,0.992 -0.612,2.554 -0.519,3.647 0.096,1.103 0.811,3.105 1.961,1.502 0.88,-1.228 1.184,-3.685 0.705,-5.106 m -1.374,0.056 c 0.615,-0.21 0.553,1.036 0.554,1.225 0.002,0.238 -0.008,0.477 -0.015,0.715 -0.072,-0.026 -0.146,-0.053 -0.224,-0.091 -0.285,-0.135 -0.534,-0.368 -0.698,-0.639 0.081,-0.461 0.204,-0.883 0.383,-1.21"
               id="path2435" />
          </g>
        </g>
      </g>
    </g>
  </g>
</svg>
