<?xml version="1.0" encoding="UTF-8" standalone="no"?>
<!-- Created with Inkscape (http://www.inkscape.org/) -->

<svg
   xmlns:dc="http://purl.org/dc/elements/1.1/"
   xmlns:cc="http://creativecommons.org/ns#"
   xmlns:rdf="http://www.w3.org/1999/02/22-rdf-syntax-ns#"
   xmlns:svg="http://www.w3.org/2000/svg"
   xmlns="http://www.w3.org/2000/svg"
   xmlns:xlink="http://www.w3.org/1999/xlink"
   xmlns:sodipodi="http://sodipodi.sourceforge.net/DTD/sodipodi-0.dtd"
   xmlns:inkscape="http://www.inkscape.org/namespaces/inkscape"
   width="181mm"
   height="181mm"
   viewBox="0 0 181 181"
   version="1.1"
   id="svg4301"
   inkscape:version="0.92.4 (5da689c313, 2019-01-14)"
   sodipodi:docname="AboutCha5.svg">
  <defs
     id="defs4295">
    <clipPath
       id="SVGID_00000113321611784114216870000013912409115802730685_">
      <use
         height="100%"
         width="100%"
         y="0"
         x="0"
         xlink:href="#SVGID_00000000941233820754225300000017452832062705836447_"
         style="overflow:visible"
         id="use1930" />
    </clipPath>
    <path
       inkscape:connector-curvature="0"
       id="SVGID_00000000941233820754225300000017452832062705836447_"
       d="m 172.199,89.229 c 0,38.175 -30.946,69.121 -69.12,69.121 -38.175,0 -69.121,-30.946 -69.121,-69.121 0,-38.174 30.946,-69.12 69.121,-69.12 38.174,0 69.12,30.946 69.12,69.12 z" />
    <clipPath
       id="SVGID_00000052092502169152378210000005145085261227362728_">
      <use
         height="100%"
         width="100%"
         y="0"
         x="0"
         xlink:href="#SVGID_00000165202363642182927450000002705565891009891480_"
         style="overflow:visible"
         id="use1844" />
    </clipPath>
    <path
       inkscape:connector-curvature="0"
       id="SVGID_00000165202363642182927450000002705565891009891480_"
       d="m 319.117,89.229 c 0,38.175 -30.945,69.121 -69.119,69.121 -38.175,0 -69.121,-30.946 -69.121,-69.121 0,-38.174 30.946,-69.12 69.121,-69.12 38.174,0 69.119,30.946 69.119,69.12 z" />
    <clipPath
       id="SVGID_00000036246779500956181350000015724627732898847411_">
      <use
         height="100%"
         width="100%"
         y="0"
         x="0"
         xlink:href="#SVGID_1_"
         style="overflow:visible"
         id="use1764" />
    </clipPath>
    <path
       inkscape:connector-curvature="0"
       id="SVGID_1_"
       d="m 466.037,89.229 c 0,38.175 -30.946,69.121 -69.12,69.121 -38.174,0 -69.12,-30.946 -69.12,-69.121 0,-38.174 30.946,-69.12 69.12,-69.12 38.174,0 69.12,30.946 69.12,69.12 z" />
    <clipPath
       id="SVGID_00000093884470694313660920000011347713797113203852_">
      <use
         height="100%"
         width="100%"
         y="0"
         x="0"
         xlink:href="#SVGID_00000002343308194870606080000011706874031757160848_"
         style="overflow:visible"
         id="use2052" />
    </clipPath>
    <path
       inkscape:connector-curvature="0"
       id="SVGID_00000002343308194870606080000011706874031757160848_"
       d="m 172.086,240.001 c 0,38.175 -30.946,69.121 -69.12,69.121 -38.175,0 -69.121,-30.946 -69.121,-69.121 0,-38.174 30.946,-69.12 69.121,-69.12 38.174,0 69.12,30.946 69.12,69.12 z" />
    <clipPath
       id="SVGID_00000135662002641581206880000010563163072226234243_">
      <use
         height="100%"
         width="100%"
         y="0"
         x="0"
         xlink:href="#SVGID_00000066495268511498018650000013053654329197578394_"
         style="overflow:visible"
         id="use2138" />
    </clipPath>
    <path
       inkscape:connector-curvature="0"
       id="SVGID_00000066495268511498018650000013053654329197578394_"
       d="m 319.555,239.552 c 0,38.173 -30.945,69.122 -69.12,69.122 -38.175,0 -69.121,-30.948 -69.121,-69.122 0,-38.173 30.946,-69.12 69.121,-69.12 38.174,0.001 69.12,30.947 69.12,69.12 z" />
    <clipPath
       id="SVGID_00000115480236926924676850000009218851432419015317_">
      <use
         height="100%"
         width="100%"
         y="0"
         x="0"
         xlink:href="#SVGID_00000021829101869905432590000014797021341769652402_"
         style="overflow:visible"
         id="use2250" />
    </clipPath>
    <path
       inkscape:connector-curvature="0"
       id="SVGID_00000021829101869905432590000014797021341769652402_"
       d="m 466.154,240.033 c 0,38.173 -30.945,69.121 -69.119,69.121 -38.175,0 -69.122,-30.947 -69.122,-69.121 0,-38.174 30.947,-69.121 69.122,-69.121 38.174,0 69.119,30.946 69.119,69.121 z" />
  </defs>
  <sodipodi:namedview
     id="base"
     pagecolor="#ffffff"
     bordercolor="#666666"
     borderopacity="1.0"
     inkscape:pageopacity="0.0"
     inkscape:pageshadow="2"
     inkscape:zoom="0.7"
     inkscape:cx="161.19793"
     inkscape:cy="351.43754"
     inkscape:document-units="mm"
     inkscape:current-layer="Murni_1_"
     showgrid="false"
     inkscape:window-width="1366"
     inkscape:window-height="745"
     inkscape:window-x="-8"
     inkscape:window-y="-8"
     inkscape:window-maximized="1" />
  <metadata
     id="metadata4298">
    <rdf:RDF>
      <cc:Work
         rdf:about="">
        <dc:format>image/svg+xml</dc:format>
        <dc:type
           rdf:resource="http://purl.org/dc/dcmitype/StillImage" />
        <dc:title></dc:title>
      </cc:Work>
    </rdf:RDF>
  </metadata>
  <g
     inkscape:label="Layer 1"
     inkscape:groupmode="layer"
     id="layer1"
     transform="translate(0,-116)">
    <rect
       style="opacity:1;fill:#7cd1f2;fill-opacity:1;stroke:none;stroke-width:2.44956493;stroke-miterlimit:4;stroke-dasharray:none;stroke-opacity:1"
       id="rect12114"
       width="182.5625"
       height="184.0744"
       x="-0.75595248"
       y="114.81548" />
    <g
       transform="matrix(1.3363799,0,0,1.3363799,-441.00725,-93.700881)"
       id="Murni_1_">
      <g
         id="g2342"
         transform="matrix(1.1073514,0,0,1,-42.570945,-3.1111947)">
        <defs
           id="defs2248">
          <path
             inkscape:connector-curvature="0"
             id="path7360"
             d="m 466.154,240.033 c 0,38.173 -30.945,69.121 -69.119,69.121 -38.175,0 -69.122,-30.947 -69.122,-69.121 0,-38.174 30.947,-69.121 69.122,-69.121 38.174,0 69.119,30.946 69.119,69.121 z" />
        </defs>
        <clipPath
           id="clipPath7249">
          <use
             height="100%"
             width="100%"
             y="0"
             x="0"
             xlink:href="#SVGID_00000021829101869905432590000014797021341769652402_"
             style="overflow:visible"
             id="use7247" />
        </clipPath>
        <g
           clip-path="url(#SVGID_00000115480236926924676850000009218851432419015317_)"
           id="g2340">
          <g
             id="g2315">
            <path
               inkscape:connector-curvature="0"
               style="fill:#ffffff"
               d="m 402.019,266.75 c 0.128,-0.077 0.291,-0.099 0.415,-0.014 0.136,0.091 0.231,0.212 0.308,0.339 0.503,-0.016 1.152,-0.395 1.402,-0.83 0.228,-0.398 -0.186,-0.806 -0.504,-1.096 -0.273,-0.065 -0.525,-0.183 -0.734,-0.347 -0.764,0.108 -1.274,1.343 -0.887,1.948 z"
               id="path2253" />
            <path
               inkscape:connector-curvature="0"
               style="fill:#ffffff"
               d="m 405.012,263.581 c 0.075,-0.354 -0.111,-0.548 -0.305,-0.784 -0.341,-0.051 -0.682,-0.104 -1.022,-0.153 -0.295,0.164 -0.524,0.437 -0.51,0.8 0.019,0.494 0.449,0.762 0.904,0.761 0.393,-10e-4 0.844,-0.21 0.933,-0.624 z"
               id="path2255" />
            <path
               inkscape:connector-curvature="0"
               style="fill:#ffffff"
               d="m 400.917,266.77 c -0.717,0.624 -1.696,1.445 -0.519,2.118 0.608,0.348 1.209,-0.058 1.396,-0.673 0.029,-0.098 0.041,-0.194 0.046,-0.29 -0.488,-0.239 -0.803,-0.662 -0.923,-1.155 z"
               id="path2257" />
            <path
               inkscape:connector-curvature="0"
               style="fill:#f4ae8c"
               d="m 390.949,264.795 c 0.321,0.318 0.476,0.74 0.496,1.177 0.629,-0.189 1.371,0.173 1.768,0.693 0.208,0.27 0.319,0.58 0.358,0.9 0.236,-0.33 0.333,-0.646 0.845,-0.745 0.47,-0.089 0.901,0.085 1.266,0.372 0.192,0.149 0.376,0.322 0.539,0.51 0.758,-0.98 2.396,-1.474 2.848,-0.456 0.363,-0.673 1.079,-1.365 1.863,-1.41 0.022,-0.094 0.045,-0.186 0.079,-0.277 0.233,-0.583 0.753,-1.288 1.379,-1.429 -0.107,-0.252 -0.164,-0.533 -0.135,-0.833 0.031,-0.321 0.161,-0.597 0.35,-0.814 l -1.641,-0.165 v -0.742 c 0,-2.104 0.37,-4.221 0.472,-6.31 l 0.267,-0.907 0.786,-0.264 c 3.578,-1.21 6.351,-3.276 9.256,-6.082 3.186,-3.079 4.236,-6.891 5.253,-11.084 1.054,-4.349 1.616,-8.736 1.65,-13.212 0.022,-2.985 -0.118,-5.99 -0.152,-8.986 -3.555,-4.044 -5.657,-10.178 -5.848,-15.554 -5.97,3.748 -12.799,5.563 -19.651,7.042 -6.435,1.388 -13.91,3.331 -20.474,1.458 -0.12,4.742 -0.617,9.496 -0.637,14.241 -0.025,5.628 0.33,11.261 1.37,16.797 1.031,5.503 2.611,10.736 7.702,13.774 3.314,1.979 7.13,2.58 10.952,2.604 l 0.682,-10e-4 0.002,0.951 c 0.008,1.751 0.03,3.517 0.004,5.272 l -0.021,0.677 -1.082,0.301 c -0.485,0.133 -0.975,0.255 -1.463,0.382 0.153,0.319 0.23,0.688 0.202,0.963 -0.025,0.245 -0.102,0.476 -0.204,0.695 0.343,0.054 0.676,0.22 0.919,0.462 z m 17.764,-42.477 c -0.134,0.75 -0.422,1.51 -0.964,2.064 -0.407,0.419 -0.996,0.732 -1.545,0.386 -0.697,-0.438 -0.595,-1.434 -0.554,-2.132 0.046,-0.763 0.151,-1.641 0.497,-2.318 0.004,-0.014 0.002,-0.026 0.007,-0.042 0.26,-0.638 0.66,-1.212 1.399,-1.281 0.57,-0.053 1.02,0.263 1.2,0.797 0.25,0.736 0.092,1.777 -0.04,2.526 z m 0.825,4.783 c 0.596,-0.612 1.476,-1.023 2.22,-1.423 0.156,-0.082 0.323,0.121 0.191,0.248 -0.623,0.598 -1.379,1.258 -2.231,1.484 -0.18,0.046 -0.309,-0.177 -0.18,-0.309 z m 3.731,-1.274 c 0.161,-0.033 0.316,0.171 0.173,0.296 -0.469,0.411 -1.02,0.7 -1.496,1.104 -0.236,0.201 -0.572,-0.123 -0.345,-0.346 0.479,-0.468 0.996,-0.915 1.668,-1.054 z m -4.976,-15.965 c 1.952,0.123 3.837,1.636 3.809,3.727 -0.002,0.186 -0.172,0.302 -0.348,0.264 -0.558,-0.122 -0.737,-0.362 -1.044,-0.837 -0.524,-0.81 -0.985,-1.395 -1.962,-1.661 -1.958,-0.534 -3.276,1.158 -4.453,2.453 -0.156,0.172 -0.471,-0.008 -0.397,-0.231 0.645,-1.901 2.227,-3.852 4.395,-3.715 z m -14.896,20.209 c 0.122,-0.188 0.391,-0.064 0.35,0.146 -0.236,1.185 -0.57,2.332 -0.659,3.545 -0.137,1.837 1.27,1.867 2.509,2.543 0.228,0.124 0.194,0.53 -0.076,0.58 -1.24,0.237 -3.157,-0.309 -3.617,-1.634 -0.51,-1.461 0.707,-3.964 1.493,-5.18 z m -15.36,-2.217 c -0.167,0.184 -0.477,-0.059 -0.342,-0.265 0.414,-0.633 1.013,-1.128 1.768,-1.28 0.185,-0.038 0.294,0.203 0.128,0.306 -0.57,0.358 -1.102,0.734 -1.554,1.239 z m 3.035,-0.88 c -0.367,0.183 -0.739,0.31 -1.063,0.576 -0.236,0.194 -0.577,-0.136 -0.34,-0.341 0.377,-0.327 0.794,-0.595 1.305,-0.604 0.19,-0.003 0.278,0.281 0.098,0.369 z m 4.97,-4.656 c -0.132,0.75 -0.422,1.51 -0.963,2.064 -0.408,0.419 -0.996,0.732 -1.546,0.386 -0.696,-0.438 -0.595,-1.434 -0.553,-2.132 0.046,-0.763 0.152,-1.641 0.497,-2.318 0.004,-0.014 0.002,-0.026 0.008,-0.042 0.258,-0.638 0.659,-1.212 1.397,-1.281 0.57,-0.053 1.02,0.263 1.2,0.797 0.249,0.736 0.092,1.777 -0.04,2.526 z m 0.536,-8.749 c -0.941,-0.797 -1.921,-1.878 -3.26,-1.501 -1.104,0.311 -1.797,1.253 -2.548,2.035 -0.468,0.489 -1.313,-0.153 -0.94,-0.725 0.84,-1.286 2.071,-2.545 3.7,-2.641 1.648,-0.097 2.695,1.224 3.415,2.548 0.134,0.244 -0.169,0.451 -0.367,0.284 z m 3.569,30.116 -0.364,-0.561 0.47,-0.174 c 3.466,-1.372 7.338,-1.972 11.059,-1.653 l 0.966,0.085 -0.378,0.682 c -1.229,1.939 -3.45,3.313 -5.674,3.62 -2.077,0.285 -4.763,-0.286 -6.079,-1.999 z"
               id="path2259" />
            <path
               inkscape:connector-curvature="0"
               style="fill:#d88473"
               d="m 381.098,211.487 c 0.185,-0.018 0.369,-0.044 0.555,-0.063 0.555,-0.381 1.177,-0.646 1.878,-0.687 0.534,-0.032 0.997,0.097 1.413,0.314 4.341,-0.56 8.629,-1.349 12.922,-2.278 4.152,-0.899 8.329,-1.968 11.808,-4.516 0.308,-0.225 0.833,0 0.902,0.366 0.74,3.883 2.953,6.728 4.956,10.013 1.431,2.349 2.423,4.824 3.109,7.425 -0.024,-2.441 -0.117,-4.89 -0.146,-7.334 -3.555,-4.044 -5.657,-10.178 -5.848,-15.554 -5.97,3.748 -12.799,5.563 -19.651,7.042 -6.435,1.388 -13.91,3.331 -20.474,1.458 -0.037,1.424 -0.109,2.85 -0.189,4.277 2.88,-0.82 5.818,-0.186 8.765,-0.463 z"
               id="path2261" />
            <path
               inkscape:connector-curvature="0"
               style="fill:#d88473"
               d="m 400.964,262.316 v -0.742 c 0,-1.609 0.216,-3.227 0.362,-4.835 -2.973,0.098 -5.981,-0.16 -8.731,-0.463 0.009,1.674 0.028,3.358 0.003,5.037 l -0.021,0.677 -1.082,0.301 c -0.485,0.133 -0.975,0.255 -1.463,0.382 0.153,0.319 0.23,0.688 0.202,0.963 -0.025,0.245 -0.102,0.476 -0.204,0.695 0.343,0.056 0.676,0.222 0.919,0.464 0.321,0.318 0.476,0.74 0.496,1.177 0.629,-0.189 1.371,0.173 1.768,0.693 0.208,0.27 0.319,0.58 0.358,0.9 0.236,-0.33 0.333,-0.646 0.845,-0.745 0.47,-0.089 0.901,0.085 1.266,0.372 0.192,0.149 0.376,0.322 0.539,0.51 0.758,-0.98 2.396,-1.474 2.848,-0.456 0.363,-0.673 1.079,-1.365 1.863,-1.41 0.022,-0.094 0.045,-0.186 0.079,-0.277 0.233,-0.583 0.753,-1.288 1.379,-1.429 -0.107,-0.252 -0.164,-0.533 -0.135,-0.833 0.031,-0.321 0.161,-0.597 0.35,-0.814 z"
               id="path2263" />
            <path
               inkscape:connector-curvature="0"
               style="fill:#ffffff"
               d="m 384.727,219.973 c -0.145,0.03 -0.316,0.221 -0.459,0.395 -0.178,0.304 -0.266,0.669 -0.317,1.037 0.145,0.145 0.289,0.29 0.487,0.376 0.226,0.097 0.501,0.067 0.73,0.145 0.047,-0.358 0.065,-0.721 0.075,-1.075 0.007,-0.315 0.149,-1.004 -0.516,-0.878 z"
               id="path2265" />
            <path
               inkscape:connector-curvature="0"
               style="fill:#ffffff"
               d="m 407.399,219.973 c -0.148,0.03 -0.318,0.221 -0.462,0.395 -0.177,0.304 -0.265,0.669 -0.316,1.037 0.145,0.145 0.29,0.29 0.487,0.376 0.227,0.097 0.502,0.067 0.73,0.145 0.045,-0.358 0.065,-0.721 0.074,-1.075 0.008,-0.315 0.149,-1.004 -0.513,-0.878 z"
               id="path2267" />
            <path
               inkscape:connector-curvature="0"
               style="fill:#f4ae8c"
               d="m 383.395,264.369 c -0.156,6.129 1.309,12.563 3.036,18.349 0.895,2.998 2.069,5.928 3.751,8.574 0.882,1.385 1.892,2.685 3.054,3.85 1.723,1.728 3.616,1.175 5.181,-0.371 2.219,-2.19 3.497,-5.495 4.779,-8.274 1.453,-3.154 2.901,-6.332 4.042,-9.616 1.505,-4.338 2.061,-8.784 2.441,-13.28 -1.238,-0.216 -2.475,-0.422 -3.716,-0.613 0.1,0.314 0.114,0.654 0.033,0.933 -0.175,0.591 -0.666,1.001 -1.234,1.183 0.43,0.417 0.618,1.03 0.26,1.658 -0.404,0.713 -1.267,1.255 -2.116,1.341 -0.061,0.439 -0.246,0.878 -0.477,1.18 -0.587,0.776 -1.606,1.054 -2.483,0.593 -0.016,-0.009 -0.029,-0.018 -0.045,-0.028 -0.624,1.167 -2.472,1.094 -3.457,0.167 -0.601,0.802 -1.883,1.349 -2.83,1.22 -0.718,-0.1 -1.179,-0.636 -1.367,-1.275 -0.544,0.279 -1.184,0.356 -1.749,0.089 -0.657,-0.309 -1.17,-1.201 -0.774,-1.837 -0.358,0.056 -0.738,0.002 -1.099,-0.208 -0.741,-0.426 -1.008,-1.293 -0.903,-2.103 -0.542,0.044 -1.096,-0.074 -1.516,-0.418 -0.578,-0.472 -0.614,-1.113 -0.419,-1.724 -0.799,0.197 -1.596,0.403 -2.392,0.61 z"
               id="path2269" />
            <path
               inkscape:connector-curvature="0"
               style="fill:#ffffff"
               d="m 398.734,267.811 c -0.49,-0.746 -2.251,0.419 -1.748,1.22 0.464,0.736 1.805,0.934 2.06,-0.026 -0.187,-0.335 -0.261,-0.715 -0.201,-1.108 -0.043,-0.019 -0.082,-0.044 -0.111,-0.086 z"
               id="path2271" />
            <path
               inkscape:connector-curvature="0"
               style="fill:#c16c33"
               d="m 385.004,262.634 c 0.034,0.014 0.055,0.041 0.085,0.06 2.125,-0.532 4.267,-0.979 6.416,-1.26 0.032,-1.786 0.162,-3.58 0.316,-5.352 -3.717,0.136 -7.41,-0.453 -10.799,-2.257 -4.502,-2.399 -6.845,-6.475 -8.035,-11.314 -1.502,-6.113 -2.006,-12.47 -2.037,-18.75 -0.027,-5.354 0.078,-10.947 0.846,-16.309 -0.346,-0.115 -0.69,-0.232 -1.031,-0.371 -0.296,-0.121 -0.188,-0.543 0.135,-0.483 0.335,0.061 0.668,0.111 1.001,0.163 l 0.643,0.098 c 7.162,0.98 13.905,-0.277 20.997,-1.825 6.66,-1.456 13.264,-3.289 19.097,-6.899 0.007,-0.499 0.024,-0.993 0.064,-1.472 0.024,-0.268 0.392,-0.266 0.415,0 0.036,0.375 0.072,0.747 0.112,1.119 0.016,-0.01 0.031,-0.018 0.047,-0.027 l 0.064,0.99 c 0.353,2.978 0.902,5.85 2.071,8.682 0.822,1.99 1.917,3.732 3.083,5.45 l 1.011,1.471 c 0.422,0.612 0.847,1.228 1.266,1.86 0.184,0.277 -0.204,0.508 -0.426,0.329 -0.257,-0.211 -0.505,-0.435 -0.751,-0.665 0.423,8.379 -0.116,16.838 -2.43,24.904 -1.265,4.407 -3.454,7.161 -6.91,10.145 -2.179,1.882 -4.834,3.772 -7.732,4.25 0.069,2.108 0.165,4.243 0.159,6.362 2.348,-0.03 4.739,0.268 7.114,0.706 l 1.034,0.198 c 0.043,0.009 0.086,0.031 0.128,0.041 0.847,-0.497 1.459,-1.177 1.988,-2.1 0.573,-0.995 1.238,-2.736 0.428,-3.804 -0.054,-0.069 0.001,-0.106 0.084,-0.106 h 0.007 c -0.026,0 0.244,-0.549 0.46,-0.406 1.966,1.297 3.831,1.893 6.259,1.382 1.56,-0.328 2.357,-1.979 2.454,-3.492 0.053,-0.788 -0.081,-1.458 0.088,-2.176 -0.03,-0.168 0.042,-0.357 0.174,-0.48 0.023,-0.025 0.046,-0.041 0.076,-0.055 0.111,-0.073 0.242,-0.107 0.38,-0.056 3.261,1.211 6.224,-0.438 6.932,-3.863 0.556,-2.684 -0.571,-5.61 -1.986,-7.841 -0.171,-0.27 0.122,-0.622 0.403,-0.546 2.959,-1.536 5.285,-4.358 4.497,-7.872 -0.634,-2.821 -2.427,-4.621 -4.321,-6.612 -0.033,-0.019 -0.052,-0.052 -0.078,-0.082 -0.051,-0.055 -0.1,-0.107 -0.151,-0.162 -0.113,-0.119 -0.085,-0.302 0.011,-0.417 -0.452,-2.952 -0.146,-6.108 -0.25,-9.085 -0.126,-3.537 -0.384,-7.076 -0.934,-10.575 -0.882,-5.594 -2.214,-13.048 -7.089,-16.662 -0.261,0.037 -0.559,-0.108 -0.615,-0.433 -0.026,-0.019 -0.053,-0.041 -0.081,-0.059 -0.147,-0.091 -0.108,-0.299 0.016,-0.363 -1.094,-7.419 -12.395,-8.617 -18.229,-8.717 -7.349,-0.127 -14.759,1.551 -21.286,4.947 -6.75,3.515 -10.86,9.933 -13.259,16.996 -2.435,7.17 -2.665,14.563 -3.434,22.016 -0.01,0.092 -0.057,0.15 -0.117,0.19 -1.321,2.335 -2.881,4.134 -3.618,6.837 -0.932,3.42 -0.766,6.026 1.703,8.574 0.049,0.031 0.084,0.074 0.105,0.131 0.141,0.182 0.083,0.387 -0.069,0.509 -0.789,3.189 -1.528,6.265 0.228,9.338 0.943,1.648 2.472,2.722 4.204,3.425 1.025,0.416 2.022,0.579 2.92,1.232 0.204,0.148 0.201,0.402 0.049,0.543 0.907,2.573 1.654,4.555 4.423,5.798 2.849,1.281 4.658,0.728 7.528,0.059 0.369,-0.089 0.636,0.357 0.369,0.636 -0.015,0.016 -0.031,0.027 -0.048,0.045 0.018,0.874 0.604,1.825 1.211,2.419 0.384,0.373 0.859,0.67 1.377,0.82 0.407,0.115 0.833,0.088 1.238,0.223 z"
               id="path2273" />
            <path
               inkscape:connector-curvature="0"
               style="fill:#9e3f2a"
               d="m 370.899,206.598 c 0.335,0.061 0.668,0.111 1.001,0.163 l 0.643,0.098 c 7.162,0.98 13.905,-0.277 20.997,-1.825 6.66,-1.456 13.264,-3.289 19.097,-6.899 0.007,-0.499 0.024,-0.993 0.064,-1.472 0.009,-0.094 0.064,-0.143 0.128,-0.171 -0.192,-0.393 -0.386,-0.781 -0.592,-1.155 -4.212,1.909 -8.636,3.229 -13.2,4.004 -4.281,0.729 -8.377,1.9 -12.617,2.794 -2.988,0.63 -6.322,1.244 -9.22,-0.034 -1.295,-0.573 -0.878,-2.249 -0.509,-3.545 -2.501,0.93 -7.761,3.344 -10.064,2.292 -2.13,6.854 -2.395,13.902 -3.128,21.005 -0.01,0.092 -0.057,0.15 -0.117,0.19 -1.321,2.335 -2.881,4.134 -3.618,6.837 -0.932,3.42 -0.766,6.026 1.703,8.574 0.049,0.031 0.084,0.074 0.105,0.131 0.141,0.182 0.083,0.387 -0.069,0.509 -0.789,3.189 -1.528,6.265 0.228,9.338 0.943,1.648 2.472,2.722 4.204,3.425 1.025,0.416 2.022,0.579 2.92,1.232 0.204,0.148 0.201,0.402 0.049,0.543 0.907,2.573 1.654,4.555 4.423,5.798 2.849,1.281 4.658,0.728 7.528,0.059 0.369,-0.089 0.636,0.357 0.369,0.636 -0.015,0.016 -0.031,0.027 -0.048,0.045 0.018,0.874 0.604,1.825 1.211,2.419 0.384,0.373 0.859,0.67 1.377,0.82 0.408,0.119 0.834,0.092 1.239,0.227 0.034,0.014 0.055,0.041 0.085,0.06 2.125,-0.532 4.267,-0.979 6.416,-1.26 0.032,-1.786 0.162,-3.58 0.316,-5.352 -3.717,0.136 -7.41,-0.453 -10.799,-2.257 -4.502,-2.399 -6.845,-6.475 -8.035,-11.314 -1.502,-6.113 -2.006,-12.47 -2.037,-18.75 -0.027,-5.354 0.078,-10.947 0.846,-16.309 -0.346,-0.115 -0.69,-0.232 -1.031,-0.371 -0.295,-0.123 -0.188,-0.545 0.135,-0.485 z"
               id="path2275" />
            <path
               inkscape:connector-curvature="0"
               style="fill:#9e3f2a"
               d="m 428.702,238.932 c 2.959,-1.536 5.285,-4.358 4.497,-7.872 -0.634,-2.821 -2.427,-4.621 -4.321,-6.612 -0.033,-0.019 -0.052,-0.052 -0.078,-0.082 -0.051,-0.055 -0.1,-0.107 -0.151,-0.162 -0.113,-0.119 -0.085,-0.302 0.011,-0.417 -0.452,-2.952 -0.146,-6.108 -0.25,-9.085 -0.126,-3.537 -0.384,-7.076 -0.934,-10.575 -0.209,-1.322 -0.443,-2.749 -0.743,-4.205 -1.673,1.356 -3.893,1.193 -6.116,-0.547 -0.988,1.622 -2.205,3.506 -4.361,2.044 -1.478,-1.003 -2.303,-2.616 -3.087,-4.231 0.02,0.198 0.04,0.396 0.06,0.593 0.016,-0.01 0.031,-0.018 0.047,-0.027 l 0.064,0.99 c 0.353,2.978 0.902,5.85 2.071,8.682 0.822,1.99 1.917,3.732 3.083,5.45 l 1.011,1.471 c 0.422,0.612 0.847,1.228 1.266,1.86 0.184,0.277 -0.204,0.508 -0.426,0.329 -0.257,-0.211 -0.505,-0.435 -0.751,-0.665 0.423,8.379 -0.116,16.838 -2.43,24.904 -1.265,4.407 -3.454,7.161 -6.91,10.145 -2.179,1.882 -4.834,3.772 -7.732,4.25 0.069,2.108 0.165,4.243 0.159,6.362 2.348,-0.03 4.739,0.268 7.114,0.706 l 1.034,0.198 c 0.043,0.009 0.086,0.031 0.128,0.041 0.847,-0.497 1.459,-1.177 1.988,-2.1 0.573,-0.995 1.238,-2.736 0.428,-3.804 -0.054,-0.069 0.001,-0.106 0.084,-0.106 h 0.007 c -0.026,0 0.244,-0.549 0.46,-0.406 1.966,1.297 3.831,1.893 6.259,1.382 1.56,-0.328 2.357,-1.979 2.454,-3.492 0.053,-0.788 -0.081,-1.458 0.088,-2.176 -0.03,-0.168 0.042,-0.357 0.174,-0.48 0.023,-0.025 0.046,-0.041 0.076,-0.055 0.111,-0.073 0.242,-0.107 0.38,-0.056 3.261,1.211 6.224,-0.438 6.932,-3.863 0.556,-2.684 -0.571,-5.61 -1.986,-7.841 -0.173,-0.272 0.12,-0.625 0.401,-0.548 z"
               id="path2277" />
            <path
               inkscape:connector-curvature="0"
               style="fill:#ffffff"
               d="m 400.803,242.06 c -3.446,0.026 -6.735,0.479 -10.068,1.459 1.789,1.756 4.892,1.812 7.171,0.859 1.301,-0.543 2.185,-1.348 2.897,-2.318 z"
               id="path2279" />
            <path
               inkscape:connector-curvature="0"
               style="fill:#f4ae8c"
               d="m 430.402,272.071 c -0.825,-1.161 -1.825,-2.115 -2.935,-2.918 -0.79,2.533 -1.278,5.206 -1.774,7.73 -0.763,3.877 -1.316,7.791 -1.638,11.73 -0.455,5.581 -0.279,11.09 -0.016,16.624 1.567,-0.516 3.117,-1.084 4.639,-1.726 2.116,-0.89 4.079,-2.028 6.065,-3.134 -0.131,-4.428 -0.027,-8.853 -0.484,-13.288 -0.506,-4.888 -0.91,-10.875 -3.857,-15.018 z"
               id="path2281" />
            <path
               inkscape:connector-curvature="0"
               style="fill:#ffffff"
               d="m 394.348,267.615 c -0.225,0.067 -0.439,0.399 -0.652,0.534 -0.049,0.03 -0.098,0.03 -0.143,0.024 -0.065,0.389 -0.224,0.766 -0.462,1.078 -0.033,0.046 -0.072,0.083 -0.11,0.126 0.123,0.354 0.279,0.707 0.613,0.827 0.532,0.191 1.441,-0.24 1.827,-0.568 0.653,-0.563 0.311,-1.161 -0.207,-1.66 -0.206,-0.2 -0.548,-0.458 -0.866,-0.361 z"
               id="path2283" />
            <path
               inkscape:connector-curvature="0"
               style="fill:#f4ae8c"
               d="m 363.299,273.832 c -0.823,1.595 -1.302,3.422 -1.805,5.078 -0.748,2.46 -1.428,4.941 -1.982,7.451 -0.995,4.514 -1.226,8.917 -1.355,13.462 3.561,1.862 7.172,3.502 10.85,4.886 -0.434,-4.56 -0.692,-9.148 -1.409,-13.673 -0.895,-5.668 -2.058,-11.779 -4.299,-17.204 z"
               id="path2285" />
            <path
               inkscape:connector-curvature="0"
               style="fill:#d88473"
               d="m 395.775,292.742 c -0.465,1.086 -1.061,2.116 -1.832,2.97 1.25,0.809 2.551,0.541 3.728,-0.32 -0.844,-0.699 -1.549,-1.647 -1.896,-2.65 z"
               id="path2287" />
            <path
               inkscape:connector-curvature="0"
               style="fill:#d88473"
               d="m 426.553,297.649 c -1.658,-4.025 -2.177,-8.293 -2.137,-12.607 -0.139,1.189 -0.264,2.379 -0.361,3.571 -0.455,5.581 -0.279,11.09 -0.016,16.624 1.567,-0.516 3.117,-1.084 4.639,-1.726 0.649,-0.271 1.279,-0.572 1.902,-0.883 -1.661,-1.024 -3.061,-2.629 -4.027,-4.979 z"
               id="path2289" />
            <path
               inkscape:connector-curvature="0"
               style="fill:#d88473"
               d="m 360.268,300.891 c 2.876,1.423 5.785,2.708 8.739,3.818 -0.434,-4.56 -0.692,-9.148 -1.409,-13.673 -0.141,-0.897 -0.293,-1.806 -0.451,-2.72 -0.562,2.186 -1.376,4.287 -2.348,6.188 -1.151,2.247 -2.659,4.59 -4.531,6.387 z"
               id="path2291" />
            <path
               inkscape:connector-curvature="0"
               style="fill:#ea4256"
               d="m 426.716,268.643 c -3.081,-1.958 -6.89,-2.896 -10.368,-3.707 -1.833,-0.428 -3.67,-0.796 -5.51,-1.132 -0.018,0.002 -0.037,0.002 -0.057,0.004 -0.298,5.841 -1.426,11.455 -3.752,17.05 -1.48,3.557 -3.055,7.126 -4.871,10.524 -1.245,2.329 -3.032,5.402 -5.773,6.202 -2.557,0.747 -4.381,-1.886 -5.766,-3.675 -2.03,-2.621 -3.493,-5.628 -4.586,-8.749 -2.21,-6.306 -3.978,-13.777 -3.356,-20.607 -1.31,0.345 -2.614,0.703 -3.91,1.101 -2.439,0.75 -4.856,1.57 -7.245,2.456 -2.392,0.888 -4.923,1.768 -6.754,3.623 -0.342,0.349 -0.635,0.738 -0.904,1.144 2.906,5.163 3.976,11.729 4.881,17.384 0.779,4.87 1.467,9.949 1.711,14.978 8.303,2.954 16.953,4.568 26.151,4.344 7.33,-0.18 14.7,-1.075 21.838,-2.763 1.456,-0.343 2.896,-0.745 4.325,-1.181 -0.653,-6.105 -0.387,-12.397 0.254,-18.403 0.411,-3.871 1.034,-7.722 1.892,-11.52 0.515,-2.289 0.987,-4.77 1.8,-7.073 z"
               id="path2293" />
            <path
               inkscape:connector-curvature="0"
               style="fill:#a52d3e"
               d="m 422.402,297.694 c -0.183,0.312 -0.362,0.625 -0.552,0.928 -1.944,3.146 -4.292,6.287 -7.04,8.975 1.217,-0.239 2.43,-0.493 3.634,-0.778 1.456,-0.343 2.896,-0.745 4.325,-1.181 -0.282,-2.627 -0.384,-5.286 -0.367,-7.944 z"
               id="path2295" />
            <path
               inkscape:connector-curvature="0"
               style="fill:#a52d3e"
               d="m 369.354,294.314 c 0.51,3.602 0.923,7.276 1.101,10.924 2.83,1.008 5.704,1.844 8.622,2.521 -4.093,-3.677 -7.434,-8.396 -9.723,-13.445 z"
               id="path2297" />
            <path
               inkscape:connector-curvature="0"
               style="fill:#ffffff"
               d="m 391.098,267.259 c -0.188,0.294 -0.436,0.531 -0.716,0.703 0.053,0.051 0.096,0.118 0.105,0.21 0.049,0.467 0.219,0.934 0.741,1.003 0.508,0.066 0.997,-0.281 1.241,-0.703 0.253,-0.437 0.285,-1.001 -0.057,-1.404 -0.276,-0.323 -0.647,-0.4 -1.039,-0.446 -0.059,0.226 -0.148,0.443 -0.275,0.637 z"
               id="path2299" />
            <path
               inkscape:connector-curvature="0"
               style="fill:#ffffff"
               d="m 386.48,263.583 c -0.09,0.519 -0.038,1.044 0.499,1.339 0.362,0.2 0.952,0.081 1.303,-0.075 0.383,-0.171 0.731,-0.475 0.912,-0.857 0.225,-0.472 0.066,-0.763 -0.208,-1.044 -0.834,0.212 -1.671,0.426 -2.506,0.637 z"
               id="path2301" />
            <path
               inkscape:connector-curvature="0"
               style="fill:#ffffff"
               d="m 388.738,265.629 c -0.102,0.049 -0.212,0.092 -0.324,0.129 0.051,0.478 0.145,0.982 0.532,1.3 0.51,0.42 1.065,0.177 1.388,-0.343 0.498,-0.801 0.083,-1.66 -0.713,-1.771 -0.248,0.282 -0.545,0.524 -0.883,0.685 z"
               id="path2303" />
            <path
               inkscape:connector-curvature="0"
               style="fill:#ffffff"
               d="m 391.826,190.192 c -1.104,0.263 -2.481,0.804 -3.725,0.803 0.48,-0.68 1.095,-1.279 1.515,-1.994 0.246,-0.417 -0.079,-0.858 -0.517,-0.898 -3.355,-0.302 -6.199,1.473 -9.306,2.007 2.783,-2.637 5.82,-4.929 9.33,-6.571 0.046,-0.023 0.014,-0.099 -0.035,-0.084 -4.419,1.313 -8.609,3.536 -11.707,7.014 -0.481,0.54 -0.017,1.354 0.695,1.196 3.005,-0.664 6.396,-2.548 9.574,-2.517 -0.622,0.592 -1.159,1.255 -1.534,2.063 -0.269,0.582 0.181,1.48 0.927,1.205 1.67,-0.62 3.254,-1.254 4.889,-1.973 0.149,-0.065 0.04,-0.285 -0.106,-0.251 z"
               id="path2305" />
            <path
               inkscape:connector-curvature="0"
               style="fill:#ffffff"
               d="m 398.2,188.936 c -1.406,-0.171 -2.729,0.262 -3.837,1.135 -0.755,0.595 0.253,1.899 1.028,1.333 0.948,-0.694 1.871,-1.481 2.937,-1.999 0.251,-0.123 0.092,-0.443 -0.128,-0.469 z"
               id="path2307" />
            <path
               inkscape:connector-curvature="0"
               style="fill:#ffffff"
               d="m 400.282,188.719 c -0.389,0.245 -0.72,0.499 -1.033,0.836 -0.176,0.188 -0.268,0.459 -0.189,0.712 0.123,0.388 0.478,0.628 0.902,0.512 0.512,-0.141 0.978,-0.723 1.204,-1.177 0.273,-0.548 -0.302,-1.249 -0.884,-0.883 z"
               id="path2309" />
            <path
               inkscape:connector-curvature="0"
               style="fill:#f99582"
               d="m 384.606,228.677 c 0,1.145 -1.85,2.072 -4.132,2.072 -2.281,0 -4.131,-0.927 -4.131,-2.072 0,-1.145 1.85,-2.072 4.131,-2.072 2.283,0 4.132,0.928 4.132,2.072 z"
               id="path2311" />
            <path
               inkscape:connector-curvature="0"
               style="fill:#f99582"
               d="m 413.81,228.677 c 0,1.145 -1.851,2.072 -4.131,2.072 -2.281,0 -4.13,-0.927 -4.13,-2.072 0,-1.145 1.849,-2.072 4.13,-2.072 2.28,0 4.131,0.928 4.131,2.072 z"
               id="path2313" />
          </g>
          <g
             id="Murni">
            <path
               inkscape:connector-curvature="0"
               d="m 435.275,285.712 c -0.591,-4.991 -1.091,-10.756 -4.344,-14.831 -0.895,-1.122 -1.952,-2.041 -3.099,-2.833 l -0.7,-0.472 c -2.543,-1.579 -5.499,-2.54 -8.386,-3.261 -1.965,-0.489 -4.005,-1.023 -6.076,-1.494 0.771,-0.754 1.372,-1.791 1.715,-2.598 0.187,-0.44 0.415,-1.364 0.429,-2.21 1.724,1.065 4.538,0.984 6.179,0.586 2.53,-0.615 3.024,-3.798 2.59,-6.127 2.829,1.483 6.225,-0.523 7.443,-3.347 1.18,-2.727 0.771,-7.141 -1.415,-9.444 2.954,-1.046 5.221,-4.662 4.925,-7.712 -0.305,-3.127 -2.17,-6.641 -5.094,-8.048 0.633,-3.659 0.193,-7.792 0.008,-11.472 -0.182,-3.63 -0.538,-7.261 -1.237,-10.831 -0.941,-4.816 -2.463,-12.286 -7.447,-14.648 -0.443,-6.745 -8.63,-9.065 -14.147,-9.81 -8.062,-1.089 -16.389,0.078 -23.866,3.267 -3.692,1.576 -7.168,3.54 -9.853,6.576 -2.458,2.776 -4.355,6.035 -5.799,9.437 -3.271,7.714 -4.492,16.692 -4.114,25.049 -3.042,1.651 -4.436,6.189 -4.894,9.375 -0.347,2.424 -0.103,6.3 2.643,7.203 -1.732,2.858 -1.771,6.696 -0.229,9.645 1.358,2.598 4.63,5 7.686,5.026 -0.138,3.233 2.027,5.662 4.875,6.936 2.076,0.929 4.913,1.442 7.008,0.315 0.125,0.861 0.764,1.806 1.221,2.321 0.333,0.372 0.819,0.751 1.359,1.028 -1.991,0.559 -3.963,1.173 -5.899,1.795 -4.319,1.388 -10.277,2.682 -13.275,6.39 -0.083,0.103 -0.157,0.212 -0.236,0.318 l -0.495,0.741 c -0.802,1.329 -1.306,2.826 -1.774,4.307 -0.915,2.879 -1.733,5.795 -2.393,8.743 -0.973,4.34 -1.803,9.101 -1.474,13.635 l 0.092,1.041 0.929,0.584 c 3.458,2.171 7.172,3.957 11.034,5.388 l 1.353,0.48 c 8.528,2.95 17.723,4.2 26.56,3.946 7.525,-0.218 15.185,-1.113 22.48,-3.013 1.086,-0.281 2.217,-0.591 3.366,-0.921 l 1.175,-0.351 c 3.666,-1.11 7.462,-2.522 10.705,-4.492 l 1.057,-0.677 0.128,-1.561 c 0.288,-4.645 -0.179,-9.451 -0.714,-13.979 m -54.098,-26.544 c 0.017,-0.018 0.033,-0.029 0.048,-0.045 0.267,-0.279 0,-0.725 -0.369,-0.636 -2.87,0.669 -4.68,1.223 -7.528,-0.059 -2.768,-1.243 -3.516,-3.225 -4.423,-5.798 0.152,-0.141 0.155,-0.395 -0.049,-0.543 -0.898,-0.653 -1.895,-0.816 -2.92,-1.232 -1.732,-0.703 -3.261,-1.776 -4.204,-3.425 -1.757,-3.073 -1.017,-6.149 -0.228,-9.338 0.152,-0.122 0.21,-0.327 0.069,-0.509 -0.022,-0.057 -0.057,-0.1 -0.105,-0.131 -2.469,-2.548 -2.635,-5.154 -1.703,-8.574 0.737,-2.703 2.297,-4.502 3.618,-6.837 0.061,-0.04 0.108,-0.098 0.117,-0.19 0.769,-7.453 0.998,-14.846 3.434,-22.016 2.398,-7.063 6.509,-13.481 13.259,-16.996 6.527,-3.396 13.938,-5.074 21.286,-4.947 5.834,0.1 17.135,1.298 18.229,8.717 -0.124,0.064 -0.162,0.272 -0.016,0.363 0.028,0.018 0.055,0.04 0.081,0.059 0.057,0.325 0.355,0.47 0.615,0.433 4.875,3.614 6.207,11.068 7.089,16.662 0.55,3.499 0.808,7.038 0.934,10.575 0.104,2.977 -0.202,6.133 0.25,9.085 -0.096,0.115 -0.124,0.298 -0.011,0.417 0.052,0.055 0.101,0.106 0.151,0.162 0.026,0.03 0.045,0.063 0.078,0.082 1.895,1.991 3.688,3.791 4.321,6.612 0.788,3.515 -1.538,6.337 -4.497,7.872 -0.281,-0.076 -0.574,0.276 -0.403,0.546 1.415,2.232 2.542,5.157 1.986,7.841 -0.708,3.426 -3.671,5.074 -6.932,3.863 -0.138,-0.052 -0.268,-0.018 -0.38,0.056 -0.03,0.014 -0.053,0.029 -0.076,0.055 -0.132,0.123 -0.204,0.312 -0.174,0.48 -0.169,0.718 -0.035,1.388 -0.088,2.176 -0.098,1.514 -0.895,3.164 -2.454,3.492 -2.428,0.512 -4.293,-0.085 -6.259,-1.382 -0.216,-0.143 -0.486,0.406 -0.46,0.406 h -0.007 c -0.083,0 -0.138,0.037 -0.084,0.106 0.81,1.067 0.145,2.809 -0.428,3.804 -0.529,0.923 -1.142,1.603 -1.988,2.1 -0.042,-0.01 -0.085,-0.032 -0.128,-0.041 l -1.034,-0.198 c -2.375,-0.439 -4.767,-0.736 -7.114,-0.706 0.006,-2.119 -0.09,-4.254 -0.159,-6.362 2.898,-0.478 5.554,-2.368 7.732,-4.25 3.456,-2.983 5.645,-5.738 6.91,-10.145 2.314,-8.066 2.853,-16.525 2.43,-24.904 0.246,0.23 0.494,0.454 0.751,0.665 0.222,0.18 0.609,-0.052 0.426,-0.329 -0.419,-0.632 -0.844,-1.248 -1.266,-1.86 l -1.011,-1.471 c -1.166,-1.717 -2.261,-3.46 -3.083,-5.45 -1.169,-2.832 -1.718,-5.704 -2.071,-8.682 l -0.064,-0.99 c -0.016,0.009 -0.031,0.017 -0.047,0.027 -0.04,-0.372 -0.076,-0.743 -0.112,-1.119 -0.023,-0.266 -0.391,-0.268 -0.415,0 -0.04,0.479 -0.058,0.973 -0.064,1.472 -5.833,3.611 -12.436,5.443 -19.097,6.899 -7.092,1.548 -13.835,2.805 -20.997,1.825 l -0.643,-0.098 c -0.333,-0.052 -0.666,-0.102 -1.001,-0.163 -0.323,-0.06 -0.431,0.363 -0.135,0.483 0.341,0.139 0.686,0.255 1.031,0.371 -0.768,5.362 -0.873,10.955 -0.846,16.309 0.031,6.28 0.535,12.637 2.037,18.75 1.19,4.839 3.533,8.915 8.035,11.314 3.389,1.804 7.082,2.393 10.799,2.257 -0.154,1.771 -0.284,3.565 -0.316,5.352 -2.149,0.281 -4.291,0.728 -6.416,1.26 -0.03,-0.019 -0.051,-0.046 -0.085,-0.06 -0.405,-0.135 -0.831,-0.107 -1.239,-0.227 -0.517,-0.15 -0.993,-0.447 -1.377,-0.82 -0.606,-0.59 -1.192,-1.541 -1.21,-2.415 m 4.61,4.587 c -0.195,0.61 -0.159,1.252 0.419,1.724 0.42,0.344 0.974,0.462 1.516,0.418 -0.104,0.81 0.162,1.678 0.903,2.103 0.36,0.21 0.74,0.264 1.099,0.208 -0.396,0.636 0.116,1.528 0.774,1.837 0.565,0.268 1.205,0.191 1.749,-0.089 0.189,0.64 0.649,1.176 1.367,1.275 0.947,0.129 2.229,-0.418 2.83,-1.22 0.985,0.927 2.833,1 3.457,-0.167 0.016,0.01 0.029,0.02 0.045,0.028 0.877,0.461 1.897,0.184 2.483,-0.593 0.23,-0.302 0.415,-0.741 0.477,-1.18 0.85,-0.086 1.712,-0.628 2.116,-1.341 0.358,-0.628 0.17,-1.241 -0.26,-1.658 0.568,-0.182 1.06,-0.592 1.234,-1.183 0.081,-0.278 0.066,-0.619 -0.033,-0.933 1.241,0.191 2.478,0.397 3.716,0.613 -0.381,4.496 -0.936,8.942 -2.441,13.28 -1.141,3.284 -2.589,6.462 -4.042,9.616 -1.282,2.779 -2.56,6.084 -4.779,8.274 -1.564,1.546 -3.458,2.099 -5.181,0.371 -1.162,-1.165 -2.172,-2.465 -3.054,-3.85 -1.682,-2.646 -2.856,-5.576 -3.751,-8.574 -1.728,-5.785 -3.192,-12.22 -3.036,-18.349 0.796,-0.203 1.593,-0.409 2.392,-0.61 m 4.245,-1.082 c 0.488,-0.127 0.978,-0.249 1.463,-0.382 l 1.082,-0.301 0.021,-0.677 c 0.026,-1.755 0.004,-3.521 -0.004,-5.272 l -0.002,-0.951 -0.682,0.001 c -3.822,-0.024 -7.638,-0.626 -10.952,-2.604 -5.091,-3.039 -6.671,-8.271 -7.702,-13.774 -1.04,-5.536 -1.396,-11.17 -1.37,-16.797 0.02,-4.745 0.517,-9.499 0.637,-14.241 6.563,1.874 14.039,-0.069 20.474,-1.458 6.852,-1.479 13.682,-3.294 19.651,-7.042 0.19,5.376 2.293,11.51 5.848,15.554 0.034,2.996 0.175,6.001 0.152,8.986 -0.034,4.476 -0.597,8.863 -1.65,13.212 -1.017,4.193 -2.067,8.005 -5.253,11.084 -2.905,2.805 -5.678,4.872 -9.256,6.082 l -0.786,0.264 -0.267,0.907 c -0.101,2.09 -0.472,4.206 -0.472,6.31 v 0.742 l 1.641,0.165 c -0.189,0.218 -0.318,0.493 -0.35,0.814 -0.029,0.3 0.027,0.581 0.135,0.833 -0.626,0.141 -1.146,0.846 -1.379,1.429 -0.034,0.092 -0.058,0.184 -0.079,0.277 -0.784,0.045 -1.5,0.737 -1.863,1.41 -0.452,-1.018 -2.09,-0.524 -2.848,0.456 -0.163,-0.188 -0.347,-0.36 -0.539,-0.51 -0.364,-0.287 -0.796,-0.461 -1.266,-0.372 -0.512,0.1 -0.608,0.415 -0.845,0.745 -0.039,-0.319 -0.15,-0.63 -0.358,-0.9 -0.397,-0.521 -1.139,-0.882 -1.768,-0.693 -0.021,-0.437 -0.175,-0.858 -0.496,-1.177 -0.243,-0.242 -0.576,-0.408 -0.919,-0.464 0.103,-0.22 0.179,-0.45 0.204,-0.695 0.029,-0.273 -0.049,-0.642 -0.202,-0.961 m 13.608,2.476 c 0.318,0.29 0.732,0.697 0.504,1.096 -0.25,0.436 -0.9,0.815 -1.402,0.83 -0.076,-0.127 -0.172,-0.248 -0.308,-0.339 -0.124,-0.085 -0.287,-0.063 -0.415,0.014 -0.387,-0.605 0.123,-1.84 0.887,-1.947 0.208,0.164 0.46,0.281 0.734,0.346 m -0.465,-1.706 c -0.014,-0.363 0.215,-0.636 0.51,-0.8 0.341,0.05 0.682,0.103 1.022,0.153 0.193,0.236 0.38,0.431 0.305,0.784 -0.089,0.414 -0.54,0.623 -0.933,0.623 -0.455,0.002 -0.886,-0.265 -0.904,-0.76 m -1.335,4.482 c -0.005,0.096 -0.017,0.192 -0.046,0.29 -0.186,0.615 -0.788,1.021 -1.396,0.673 -1.178,-0.673 -0.198,-1.494 0.519,-2.118 0.12,0.493 0.435,0.916 0.923,1.155 m -2.794,1.08 c -0.255,0.96 -1.596,0.763 -2.06,0.026 -0.503,-0.801 1.258,-1.966 1.748,-1.22 0.028,0.042 0.067,0.066 0.11,0.085 -0.059,0.394 0.015,0.774 0.202,1.109 m -3.626,0.632 c -0.386,0.328 -1.295,0.76 -1.827,0.568 -0.334,-0.12 -0.49,-0.473 -0.613,-0.827 0.038,-0.043 0.077,-0.08 0.11,-0.126 0.238,-0.313 0.397,-0.69 0.462,-1.078 0.046,0.006 0.095,0.006 0.143,-0.024 0.214,-0.135 0.428,-0.467 0.652,-0.534 0.318,-0.098 0.66,0.161 0.865,0.361 0.518,0.499 0.861,1.097 0.208,1.66 m -2.95,-1.165 c -0.244,0.422 -0.733,0.77 -1.241,0.703 -0.522,-0.069 -0.692,-0.536 -0.741,-1.003 -0.01,-0.092 -0.053,-0.159 -0.105,-0.21 0.28,-0.172 0.528,-0.409 0.716,-0.703 0.127,-0.193 0.217,-0.411 0.276,-0.638 0.392,0.046 0.763,0.123 1.039,0.446 0.341,0.404 0.309,0.968 0.056,1.405 m -2.136,-1.757 c -0.322,0.52 -0.878,0.763 -1.388,0.343 -0.388,-0.317 -0.482,-0.822 -0.532,-1.3 0.112,-0.037 0.223,-0.08 0.324,-0.129 0.338,-0.161 0.635,-0.403 0.883,-0.686 0.796,0.112 1.211,0.971 0.713,1.772 m -1.14,-2.725 c -0.181,0.382 -0.529,0.686 -0.912,0.857 -0.351,0.156 -0.94,0.275 -1.303,0.075 -0.537,-0.295 -0.589,-0.82 -0.499,-1.339 0.835,-0.211 1.672,-0.425 2.506,-0.637 0.275,0.282 0.433,0.573 0.208,1.044 m -31.038,35.833 c 0.13,-4.545 0.36,-8.948 1.355,-13.462 0.555,-2.51 1.234,-4.991 1.982,-7.451 0.503,-1.656 0.982,-3.483 1.805,-5.078 2.241,5.425 3.404,11.536 4.299,17.204 0.717,4.525 0.975,9.113 1.409,13.673 -3.678,-1.384 -7.289,-3.024 -10.85,-4.886 m 64.614,5.815 c -1.43,0.436 -2.869,0.838 -4.325,1.181 -7.138,1.688 -14.508,2.583 -21.838,2.763 -9.198,0.225 -17.849,-1.39 -26.151,-4.344 -0.244,-5.028 -0.932,-10.107 -1.711,-14.978 -0.905,-5.654 -1.975,-12.221 -4.881,-17.384 0.27,-0.405 0.563,-0.795 0.904,-1.144 1.831,-1.855 4.362,-2.735 6.754,-3.623 2.39,-0.886 4.807,-1.706 7.245,-2.456 1.296,-0.397 2.601,-0.756 3.91,-1.101 -0.622,6.83 1.146,14.302 3.356,20.607 1.093,3.121 2.556,6.128 4.586,8.749 1.385,1.789 3.209,4.422 5.766,3.675 2.741,-0.8 4.528,-3.873 5.773,-6.202 1.816,-3.398 3.391,-6.968 4.871,-10.524 2.326,-5.595 3.454,-11.209 3.752,-17.05 0.02,-0.002 0.039,-0.002 0.057,-0.004 1.84,0.336 3.677,0.704 5.51,1.132 3.478,0.812 7.287,1.749 10.368,3.707 -0.813,2.304 -1.285,4.784 -1.801,7.072 -0.857,3.798 -1.48,7.648 -1.892,11.52 -0.64,6.006 -0.907,12.298 -0.253,18.404 m 5.908,-2.126 c -1.521,0.642 -3.071,1.21 -4.639,1.726 -0.264,-5.534 -0.44,-11.043 0.016,-16.624 0.321,-3.939 0.875,-7.853 1.638,-11.73 0.496,-2.524 0.984,-5.197 1.774,-7.73 1.11,0.803 2.11,1.757 2.935,2.918 2.946,4.143 3.351,10.13 3.855,15.019 0.457,4.435 0.354,8.86 0.484,13.288 -1.984,1.104 -3.947,2.243 -6.063,3.133"
               id="path2317" />
            <path
               inkscape:connector-curvature="0"
               d="m 386.945,213.285 c -0.72,-1.324 -1.767,-2.645 -3.415,-2.548 -1.629,0.095 -2.86,1.355 -3.7,2.641 -0.373,0.571 0.473,1.213 0.94,0.725 0.751,-0.781 1.443,-1.724 2.548,-2.035 1.339,-0.377 2.318,0.704 3.26,1.501 0.198,0.167 0.501,-0.04 0.367,-0.284"
               id="path2319" />
            <path
               inkscape:connector-curvature="0"
               d="m 408.293,209.862 c -2.168,-0.137 -3.75,1.813 -4.394,3.715 -0.074,0.224 0.24,0.404 0.397,0.231 1.177,-1.295 2.495,-2.987 4.453,-2.453 0.977,0.267 1.438,0.852 1.962,1.661 0.307,0.475 0.486,0.714 1.044,0.837 0.176,0.038 0.346,-0.078 0.348,-0.264 0.027,-2.091 -1.858,-3.603 -3.81,-3.727"
               id="path2321" />
            <path
               inkscape:connector-curvature="0"
               d="m 386.083,219.792 c -0.181,-0.534 -0.63,-0.85 -1.2,-0.797 -0.738,0.069 -1.14,0.643 -1.397,1.281 -0.006,0.015 -0.004,0.028 -0.008,0.042 -0.345,0.678 -0.451,1.556 -0.497,2.318 -0.042,0.698 -0.144,1.693 0.553,2.132 0.55,0.346 1.138,0.033 1.546,-0.386 0.541,-0.554 0.831,-1.314 0.963,-2.064 0.131,-0.749 0.288,-1.79 0.04,-2.526 m -1.814,0.576 c 0.142,-0.174 0.313,-0.365 0.459,-0.395 0.664,-0.126 0.523,0.563 0.516,0.878 -0.01,0.354 -0.028,0.717 -0.075,1.075 -0.229,-0.077 -0.504,-0.047 -0.73,-0.145 -0.198,-0.086 -0.343,-0.231 -0.487,-0.376 0.051,-0.367 0.139,-0.733 0.317,-1.037"
               id="path2323" />
            <path
               inkscape:connector-curvature="0"
               d="m 408.754,219.792 c -0.181,-0.534 -0.63,-0.85 -1.2,-0.797 -0.739,0.069 -1.14,0.643 -1.399,1.281 -0.005,0.015 -0.003,0.028 -0.007,0.042 -0.346,0.678 -0.451,1.556 -0.497,2.318 -0.041,0.698 -0.144,1.693 0.554,2.132 0.549,0.346 1.138,0.033 1.545,-0.386 0.542,-0.554 0.83,-1.314 0.964,-2.064 0.131,-0.749 0.289,-1.79 0.04,-2.526 m -1.816,0.576 c 0.144,-0.174 0.314,-0.365 0.462,-0.395 0.662,-0.126 0.521,0.563 0.514,0.878 -0.009,0.354 -0.029,0.717 -0.074,1.075 -0.229,-0.077 -0.503,-0.047 -0.73,-0.145 -0.197,-0.086 -0.342,-0.231 -0.487,-0.376 0.05,-0.367 0.138,-0.733 0.315,-1.037"
               id="path2325" />
            <path
               inkscape:connector-curvature="0"
               d="m 411.758,225.677 c -0.744,0.4 -1.624,0.812 -2.22,1.423 -0.129,0.133 0,0.356 0.18,0.309 0.853,-0.227 1.608,-0.886 2.231,-1.484 0.132,-0.127 -0.035,-0.33 -0.191,-0.248"
               id="path2327" />
            <path
               inkscape:connector-curvature="0"
               d="m 413.269,225.827 c -0.672,0.139 -1.189,0.586 -1.668,1.054 -0.228,0.223 0.108,0.547 0.345,0.346 0.477,-0.404 1.027,-0.692 1.496,-1.104 0.143,-0.124 -0.012,-0.329 -0.173,-0.296"
               id="path2329" />
            <path
               inkscape:connector-curvature="0"
               d="m 379.463,226.309 c -0.755,0.153 -1.354,0.648 -1.768,1.28 -0.136,0.206 0.175,0.448 0.342,0.265 0.452,-0.505 0.984,-0.881 1.554,-1.239 0.166,-0.104 0.056,-0.344 -0.128,-0.306"
               id="path2331" />
            <path
               inkscape:connector-curvature="0"
               d="m 380.975,226.605 c -0.511,0.009 -0.928,0.277 -1.305,0.604 -0.237,0.205 0.103,0.535 0.34,0.341 0.323,-0.266 0.695,-0.394 1.063,-0.576 0.179,-0.088 0.091,-0.372 -0.098,-0.369"
               id="path2333" />
            <path
               inkscape:connector-curvature="0"
               d="m 395.597,236.305 c -1.239,-0.675 -2.646,-0.705 -2.509,-2.543 0.089,-1.213 0.423,-2.36 0.659,-3.545 0.041,-0.21 -0.228,-0.334 -0.35,-0.146 -0.786,1.216 -2.004,3.72 -1.494,5.18 0.46,1.325 2.377,1.871 3.617,1.634 0.271,-0.05 0.304,-0.455 0.077,-0.58"
               id="path2335" />
            <path
               inkscape:connector-curvature="0"
               d="m 401.311,241.297 c -3.721,-0.319 -7.593,0.281 -11.059,1.653 l -0.47,0.174 0.364,0.561 c 1.315,1.713 4.002,2.284 6.078,1.999 2.224,-0.307 4.444,-1.681 5.674,-3.62 l 0.378,-0.682 z m -3.406,3.082 c -2.279,0.953 -5.382,0.897 -7.171,-0.859 3.333,-0.98 6.622,-1.433 10.068,-1.459 -0.711,0.969 -1.595,1.774 -2.897,2.318"
               id="path2337" />
          </g>
        </g>
      </g>
    </g>
  </g>
</svg>
