<?xml version="1.0" encoding="UTF-8" standalone="no"?>
<!-- Created with Inkscape (http://www.inkscape.org/) -->

<svg
   xmlns:dc="http://purl.org/dc/elements/1.1/"
   xmlns:cc="http://creativecommons.org/ns#"
   xmlns:rdf="http://www.w3.org/1999/02/22-rdf-syntax-ns#"
   xmlns:svg="http://www.w3.org/2000/svg"
   xmlns="http://www.w3.org/2000/svg"
   xmlns:xlink="http://www.w3.org/1999/xlink"
   xmlns:sodipodi="http://sodipodi.sourceforge.net/DTD/sodipodi-0.dtd"
   xmlns:inkscape="http://www.inkscape.org/namespaces/inkscape"
   width="181mm"
   height="181mm"
   viewBox="0 0 181 181"
   version="1.1"
   id="svg4301"
   inkscape:version="0.92.4 (5da689c313, 2019-01-14)"
   sodipodi:docname="AboutCha8.svg">
  <defs
     id="defs4295">
    <clipPath
       id="SVGID_00000113321611784114216870000013912409115802730685_">
      <use
         height="100%"
         width="100%"
         y="0"
         x="0"
         xlink:href="#SVGID_00000000941233820754225300000017452832062705836447_"
         style="overflow:visible"
         id="use1930" />
    </clipPath>
    <path
       inkscape:connector-curvature="0"
       id="SVGID_00000000941233820754225300000017452832062705836447_"
       d="m 172.199,89.229 c 0,38.175 -30.946,69.121 -69.12,69.121 -38.175,0 -69.121,-30.946 -69.121,-69.121 0,-38.174 30.946,-69.12 69.121,-69.12 38.174,0 69.12,30.946 69.12,69.12 z" />
    <clipPath
       id="SVGID_00000052092502169152378210000005145085261227362728_">
      <use
         height="100%"
         width="100%"
         y="0"
         x="0"
         xlink:href="#SVGID_00000165202363642182927450000002705565891009891480_"
         style="overflow:visible"
         id="use1844" />
    </clipPath>
    <path
       inkscape:connector-curvature="0"
       id="SVGID_00000165202363642182927450000002705565891009891480_"
       d="m 319.117,89.229 c 0,38.175 -30.945,69.121 -69.119,69.121 -38.175,0 -69.121,-30.946 -69.121,-69.121 0,-38.174 30.946,-69.12 69.121,-69.12 38.174,0 69.119,30.946 69.119,69.12 z" />
    <clipPath
       id="SVGID_00000036246779500956181350000015724627732898847411_">
      <use
         height="100%"
         width="100%"
         y="0"
         x="0"
         xlink:href="#SVGID_1_"
         style="overflow:visible"
         id="use1764" />
    </clipPath>
    <path
       inkscape:connector-curvature="0"
       id="SVGID_1_"
       d="m 466.037,89.229 c 0,38.175 -30.946,69.121 -69.12,69.121 -38.174,0 -69.12,-30.946 -69.12,-69.121 0,-38.174 30.946,-69.12 69.12,-69.12 38.174,0 69.12,30.946 69.12,69.12 z" />
    <clipPath
       id="SVGID_00000093884470694313660920000011347713797113203852_">
      <use
         height="100%"
         width="100%"
         y="0"
         x="0"
         xlink:href="#SVGID_00000002343308194870606080000011706874031757160848_"
         style="overflow:visible"
         id="use2052" />
    </clipPath>
    <path
       inkscape:connector-curvature="0"
       id="SVGID_00000002343308194870606080000011706874031757160848_"
       d="m 172.086,240.001 c 0,38.175 -30.946,69.121 -69.12,69.121 -38.175,0 -69.121,-30.946 -69.121,-69.121 0,-38.174 30.946,-69.12 69.121,-69.12 38.174,0 69.12,30.946 69.12,69.12 z" />
    <clipPath
       id="SVGID_00000135662002641581206880000010563163072226234243_">
      <use
         height="100%"
         width="100%"
         y="0"
         x="0"
         xlink:href="#SVGID_00000066495268511498018650000013053654329197578394_"
         style="overflow:visible"
         id="use2138" />
    </clipPath>
    <path
       inkscape:connector-curvature="0"
       id="SVGID_00000066495268511498018650000013053654329197578394_"
       d="m 319.555,239.552 c 0,38.173 -30.945,69.122 -69.12,69.122 -38.175,0 -69.121,-30.948 -69.121,-69.122 0,-38.173 30.946,-69.12 69.121,-69.12 38.174,0.001 69.12,30.947 69.12,69.12 z" />
    <clipPath
       id="SVGID_00000115480236926924676850000009218851432419015317_">
      <use
         height="100%"
         width="100%"
         y="0"
         x="0"
         xlink:href="#SVGID_00000021829101869905432590000014797021341769652402_"
         style="overflow:visible"
         id="use2250" />
    </clipPath>
    <path
       inkscape:connector-curvature="0"
       id="SVGID_00000021829101869905432590000014797021341769652402_"
       d="m 466.154,240.033 c 0,38.173 -30.945,69.121 -69.119,69.121 -38.175,0 -69.122,-30.947 -69.122,-69.121 0,-38.174 30.947,-69.121 69.122,-69.121 38.174,0 69.119,30.946 69.119,69.121 z" />
    <clipPath
       id="SVGID_00000026848140016568404620000014151795572181458838_">
      <use
         height="100%"
         width="100%"
         y="0"
         x="0"
         xlink:href="#SVGID_00000133530413689810255510000013406859855755512999_"
         style="overflow:visible"
         id="use2350" />
    </clipPath>
    <path
       inkscape:connector-curvature="0"
       id="SVGID_00000133530413689810255510000013406859855755512999_"
       d="m 172.512,391.156 c 0,38.174 -30.947,69.121 -69.121,69.121 -38.174,0 -69.121,-30.947 -69.121,-69.121 0,-38.174 30.947,-69.119 69.121,-69.119 38.174,0 69.121,30.945 69.121,69.119 z" />
    <clipPath
       id="SVGID_00000033337056078035966800000011635190458111549588_">
      <use
         height="100%"
         width="100%"
         y="0"
         x="0"
         xlink:href="#SVGID_00000166665742956536960770000004827171950430436481_"
         style="overflow:visible"
         id="use2448" />
    </clipPath>
    <path
       inkscape:connector-curvature="0"
       id="SVGID_00000166665742956536960770000004827171950430436481_"
       d="m 317.828,391.156 c 0,38.174 -30.945,69.121 -69.12,69.121 -38.173,0 -69.12,-30.947 -69.12,-69.121 0,-38.174 30.947,-69.119 69.12,-69.119 38.175,0 69.12,30.945 69.12,69.119 z" />
    <clipPath
       id="SVGID_00000152972138096882676890000006032233216646168510_">
      <use
         height="100%"
         width="100%"
         y="0"
         x="0"
         xlink:href="#SVGID_00000133487599382484811370000004147974931180041891_"
         style="overflow:visible"
         id="use2544" />
    </clipPath>
    <path
       inkscape:connector-curvature="0"
       id="SVGID_00000133487599382484811370000004147974931180041891_"
       d="m 465.916,390.639 c 0,38.174 -30.946,69.121 -69.12,69.121 -38.174,0 -69.12,-30.947 -69.12,-69.121 0,-38.174 30.946,-69.12 69.12,-69.12 38.174,0 69.12,30.946 69.12,69.12 z" />
  </defs>
  <sodipodi:namedview
     id="base"
     pagecolor="#ffffff"
     bordercolor="#666666"
     borderopacity="1.0"
     inkscape:pageopacity="0.0"
     inkscape:pageshadow="2"
     inkscape:zoom="0.7"
     inkscape:cx="186.19793"
     inkscape:cy="322.75893"
     inkscape:document-units="mm"
     inkscape:current-layer="layer1"
     showgrid="false"
     inkscape:window-width="1366"
     inkscape:window-height="745"
     inkscape:window-x="-8"
     inkscape:window-y="-8"
     inkscape:window-maximized="1" />
  <metadata
     id="metadata4298">
    <rdf:RDF>
      <cc:Work
         rdf:about="">
        <dc:format>image/svg+xml</dc:format>
        <dc:type
           rdf:resource="http://purl.org/dc/dcmitype/StillImage" />
        <dc:title></dc:title>
      </cc:Work>
    </rdf:RDF>
  </metadata>
  <g
     inkscape:label="Layer 1"
     inkscape:groupmode="layer"
     id="layer1"
     transform="translate(0,-116)">
    <rect
       style="opacity:1;fill:#f9da55;fill-opacity:1;stroke:none;stroke-width:2.44956493;stroke-miterlimit:4;stroke-dasharray:none;stroke-opacity:1"
       id="rect12114"
       width="182.5625"
       height="184.0744"
       x="-0.75595248"
       y="114.81548" />
    <g
       transform="matrix(1.3254546,0,0,1.3254546,-435.59876,-311.11123)"
       id="Gito_1_">
      <path
         inkscape:connector-curvature="0"
         style="fill:#f9da55"
         d="m 465.916,390.639 c 0,38.174 -30.946,69.121 -69.12,69.121 -38.174,0 -69.12,-30.947 -69.12,-69.121 0,-38.174 30.946,-69.12 69.12,-69.12 38.174,0 69.12,30.946 69.12,69.12 z"
         id="path2539" />
      <g
         id="g2616">
        <defs
           id="defs2542">
          <path
             inkscape:connector-curvature="0"
             id="path7865"
             d="m 465.916,390.639 c 0,38.174 -30.946,69.121 -69.12,69.121 -38.174,0 -69.12,-30.947 -69.12,-69.121 0,-38.174 30.946,-69.12 69.12,-69.12 38.174,0 69.12,30.946 69.12,69.12 z" />
        </defs>
        <clipPath
           id="clipPath7774">
          <use
             height="100%"
             width="100%"
             y="0"
             x="0"
             xlink:href="#SVGID_00000133487599382484811370000004147974931180041891_"
             style="overflow:visible"
             id="use7772" />
        </clipPath>
        <g
           clip-path="url(#SVGID_00000152972138096882676890000006032233216646168510_)"
           id="g2614">
          <g
             id="g2597">
            <path
               inkscape:connector-curvature="0"
               style="fill:#1e353f"
               d="m 377.795,345.507 c -0.252,-0.297 -0.502,-0.597 -0.74,-0.906 -0.156,-0.201 0.083,-0.458 0.284,-0.283 3.25,2.849 6.339,5.607 10.235,7.575 3.802,1.92 8.072,3.16 12.32,3.528 8.478,0.729 16.107,-2.488 22.694,-7.578 0.319,-0.245 0.683,0.276 0.419,0.545 -0.84,0.854 -1.731,1.635 -2.66,2.352 0.968,3.721 0.963,8.012 0.939,11.823 -0.013,2.16 -0.094,4.481 -0.449,6.728 0.818,-1.206 2.005,-2.227 3.361,-2.24 -0.063,-2.71 0.107,-5.466 0.162,-8.172 0.058,-2.771 -0.029,-5.633 0.411,-8.379 -0.125,-0.102 -0.186,-0.272 -0.068,-0.432 1.184,-1.59 2.627,-2.903 3.664,-4.623 0.9,-1.49 1.513,-3.097 2.042,-4.739 -1.492,1.518 -4.015,2.712 -5.814,2.159 -0.177,0.115 -0.426,-0.055 -0.394,-0.287 0.445,-3.112 0.61,-6.086 0.737,-9.188 -0.562,0.917 -1.419,1.639 -2.287,2.292 -0.979,0.739 -2.109,1.583 -3.353,1.609 -0.061,0.025 -0.127,0.041 -0.198,0.027 -0.134,-0.023 -0.276,-0.058 -0.413,-0.083 -0.045,-0.01 -0.087,-0.008 -0.134,-0.02 -0.007,-0.002 -0.009,-0.01 -0.015,-0.011 -13.13,-2.652 -39.198,-17.239 -43.863,3.802 -0.065,0.294 -0.404,0.354 -0.627,0.238 -9.27,4.578 -7.618,18.224 -5.858,26.74 0.916,0.06 1.684,0.583 2.294,1.304 -0.569,-4.32 -0.377,-9.033 0.579,-13.116 0.912,-3.884 3.007,-8.703 6.732,-10.665 z"
               id="path2547" />
            <path
               inkscape:connector-curvature="0"
               style="fill:#101f23"
               d="m 377.2,345.052 c -0.907,0.971 -1.941,1.849 -3.102,2.51 -1.282,0.732 -4.075,1.997 -4.815,-0.18 -0.161,-0.473 -0.227,-0.917 -0.236,-1.345 -3.446,6.167 -2.183,15.518 -0.854,21.947 0.916,0.06 1.684,0.583 2.294,1.304 -0.569,-4.32 -0.377,-9.033 0.579,-13.116 0.909,-3.884 3.005,-8.703 6.729,-10.665 -0.16,-0.188 -0.313,-0.382 -0.468,-0.572 -0.043,0.041 -0.085,0.073 -0.127,0.117 z"
               id="path2549" />
            <path
               inkscape:connector-curvature="0"
               style="fill:#101f23"
               d="m 428.368,345.444 c 0.9,-1.49 1.513,-3.097 2.042,-4.739 -1.492,1.518 -4.015,2.712 -5.814,2.159 -0.177,0.115 -0.426,-0.055 -0.394,-0.287 0.01,-0.067 0.017,-0.135 0.026,-0.202 -0.959,1.59 -2.137,3.027 -3.547,4.22 -7.183,6.065 -17.249,2.676 -25.343,0.318 0.135,0.392 0.27,0.783 0.419,1.174 0.109,0.281 -0.117,0.697 -0.422,0.743 -3.962,0.592 -8.018,-0.495 -11.559,-2.286 -1.996,-1.009 -4.094,-3.374 -6.089,-1.921 3.123,2.74 6.129,5.373 9.885,7.27 3.802,1.92 8.072,3.16 12.32,3.528 8.478,0.729 16.107,-2.488 22.694,-7.578 0.319,-0.245 0.683,0.276 0.419,0.545 -0.84,0.854 -1.731,1.635 -2.66,2.352 0.968,3.721 0.963,8.012 0.939,11.823 -0.013,2.16 -0.094,4.481 -0.449,6.728 0.818,-1.206 2.005,-2.227 3.361,-2.24 -0.063,-2.71 0.107,-5.466 0.162,-8.172 0.058,-2.771 -0.029,-5.633 0.411,-8.379 -0.125,-0.102 -0.186,-0.272 -0.068,-0.432 1.187,-1.59 2.63,-2.904 3.667,-4.624 z"
               id="path2551" />
            <path
               inkscape:connector-curvature="0"
               style="fill:#e8a46b"
               d="m 372.508,368.339 c 3.069,-1.471 6.781,-1.335 10.105,-1.241 2.811,0.079 6.726,-0.187 9.272,1.373 0.161,10e-4 0.319,0.064 0.41,0.221 0.006,0.009 0.009,0.022 0.014,0.032 0.005,0.002 0.008,0.003 0.012,0.005 0.117,0.089 0.145,0.209 0.132,0.318 0.611,1.28 0.793,2.978 0.626,4.643 0.573,-0.401 1.249,-0.662 1.912,-0.718 1.214,-0.102 2.364,0.893 2.931,1.92 -0.15,-1.979 -0.06,-5.108 1.379,-6.307 -0.025,-0.095 -10e-4,-0.201 0.096,-0.246 3.068,-1.471 6.781,-1.335 10.105,-1.241 2.81,0.079 6.727,-0.187 9.272,1.373 0.16,10e-4 0.319,0.064 0.409,0.221 0.006,0.009 0.009,0.022 0.014,0.032 0.005,0.002 0.009,0.003 0.012,0.005 0.117,0.089 0.145,0.209 0.132,0.318 0.117,0.243 0.202,0.515 0.289,0.786 0.363,-2.689 0.656,-5.351 0.598,-8.15 -0.074,-3.472 -0.577,-6.953 -0.582,-10.422 -12.425,8.938 -31.432,6.086 -41.467,-5.31 -1.405,1.66 -2.883,3.109 -3.946,5.048 -1.063,1.938 -1.786,4.046 -2.237,6.207 -0.874,4.199 -0.372,8.297 -0.368,12.469 0.201,-0.439 0.459,-0.816 0.788,-1.09 -0.028,-0.095 -0.004,-0.201 0.092,-0.246 z m 31.902,-3.136 c 0.867,-1.416 2.463,-3.29 4.273,-3.363 1.806,-0.071 3.2,1.622 4.017,3.035 0.112,0.195 -0.143,0.371 -0.301,0.23 -1.308,-1.153 -2.638,-2.439 -4.46,-1.526 -1.11,0.555 -1.917,1.557 -3.062,2.093 -0.29,0.137 -0.659,-0.155 -0.467,-0.469 z m -26.792,-0.297 c 0.863,-1.355 2.171,-2.592 3.852,-2.747 1.591,-0.148 3.718,0.821 4.779,1.975 0.376,0.409 -0.011,0.923 -0.499,0.857 -1.221,-0.166 -2.187,-1.088 -3.335,-1.512 -0.805,-0.299 -1.798,-0.411 -2.618,-0.067 -0.703,0.296 -1.39,1.163 -1.957,1.667 -0.116,0.103 -0.314,-0.03 -0.222,-0.173 z"
               id="path2553" />
            <path
               inkscape:connector-curvature="0"
               style="fill:#ffffff"
               d="m 383.306,374.745 c 0.192,0.045 0.456,-0.052 0.686,-0.071 0.291,-0.542 0.368,-1.365 -0.354,-1.504 -0.358,-0.067 -0.763,0.23 -1.108,0.522 0.108,0.452 0.307,0.945 0.776,1.053 z"
               id="path2555" />
            <path
               inkscape:connector-curvature="0"
               style="fill:#e8a46b"
               d="m 371.281,379.129 c -0.169,0.037 -0.35,-0.016 -0.384,-0.224 -0.207,-1.247 -0.275,-2.486 -0.674,-3.7 -0.229,-0.696 -0.526,-1.392 -0.912,-2.014 -0.393,-0.903 -1.14,-0.959 -2.234,-0.175 -0.319,0.495 -0.521,1.041 -0.609,1.635 -0.028,0.256 -0.445,0.37 -0.492,0.065 -0.269,-1.771 1.559,-4.652 3.564,-3.281 0.598,0.406 1.078,1.041 1.444,1.783 0.007,-0.347 0.023,-0.699 0.057,-1.05 -0.033,-0.034 -0.07,-0.063 -0.083,-0.122 -0.082,-0.367 -0.145,-0.75 -0.214,-1.13 -0.256,-0.404 -0.537,-0.799 -0.868,-1.058 -2.555,-1.993 -4.215,0.477 -4.842,2.23 -0.574,1.606 -0.552,3.388 -0.22,5.042 0.548,2.721 2.716,9.105 6.472,7.338 -0.105,-1.791 -0.096,-3.584 -0.005,-5.339 z"
               id="path2557" />
            <path
               inkscape:connector-curvature="0"
               style="fill:#e8a46b"
               d="m 424.292,368.217 c -1.645,-0.064 -2.98,2.209 -3.785,3.211 -0.037,0.047 -0.083,0.071 -0.13,0.088 -0.069,0.263 -0.135,0.527 -0.217,0.784 -0.007,1.064 -0.025,2.127 -0.053,3.189 0.897,-3.025 3.066,-6.283 5.299,-3.903 0.136,0.145 0.046,0.418 -0.171,0.409 -1.73,-0.073 -2.929,1.276 -3.722,2.645 -0.793,1.367 -0.916,2.753 -1.36,4.225 -0.027,0.087 -0.101,0.131 -0.177,0.137 -0.083,1.81 -0.192,3.619 -0.33,5.425 2.832,1.969 4.854,-1.605 5.573,-3.753 0.636,-1.894 1.073,-3.939 1.27,-5.925 0.164,-1.648 0.561,-4.809 -0.933,-6.009 -0.309,-0.252 -0.61,-0.395 -0.903,-0.467 -0.115,0.073 -0.271,0.049 -0.361,-0.056 z"
               id="path2559" />
            <path
               inkscape:connector-curvature="0"
               style="fill:#ffffff"
               d="m 408.618,374.745 c 0.191,0.045 0.456,-0.052 0.686,-0.071 0.291,-0.542 0.367,-1.365 -0.354,-1.504 -0.359,-0.067 -0.762,0.23 -1.108,0.522 0.107,0.452 0.308,0.945 0.776,1.053 z"
               id="path2561" />
            <path
               inkscape:connector-curvature="0"
               style="fill:#6ff757"
               d="m 436.852,430.014 c -0.733,-2.297 -1.611,-6.777 -3.613,-8.245 -1.16,-0.851 -3.134,-1.267 -4.47,-1.773 -1.255,-0.476 -2.508,-0.948 -3.765,-1.414 -2.654,-0.98 -5.317,-1.938 -8.001,-2.833 -1.047,-0.348 -2.1,-0.666 -3.154,-0.972 -1.374,16.339 -33.363,18.177 -32.551,0.155 -1.065,0.31 -2.129,0.621 -3.184,0.949 -2.508,0.776 -5.011,1.568 -7.508,2.375 -2.512,0.813 -5.277,1.449 -7.656,2.613 -2.821,1.381 -3.599,4.07 -4.631,6.822 -0.874,2.33 -1.733,4.668 -2.516,7.031 -1.297,3.912 -2.279,7.871 -3.014,11.905 3.023,2.521 6.097,4.776 9.403,6.703 -0.909,-7.964 -0.853,-16.11 -1.153,-24.106 -0.014,-0.347 0.506,-0.338 0.533,0 0.647,8.183 1.699,16.487 1.668,24.709 2.418,1.331 4.966,2.486 7.73,3.415 8.107,2.721 16.712,3.521 25.225,3.135 8.951,-0.404 18.092,-1.875 26.679,-4.466 2.178,-0.655 4.247,-1.441 6.236,-2.338 -0.236,-4.241 0.331,-8.702 0.757,-12.909 0.421,-4.138 0.989,-8.276 1.861,-12.342 0.058,-0.26 0.492,-0.204 0.467,0.063 -0.414,4.245 -0.924,8.482 -1.309,12.734 -0.358,3.981 -0.354,8.048 -0.815,12.018 3.662,-1.755 7.015,-3.946 10.095,-6.633 -0.249,-2.875 -0.66,-5.733 -1.236,-8.563 -0.552,-2.71 -1.24,-5.393 -2.078,-8.033 z"
               id="path2563" />
            <path
               inkscape:connector-curvature="0"
               style="fill:#42c642"
               d="m 361.051,429.195 c -0.449,-1.681 -0.861,-3.372 -1.271,-5.065 -0.572,1.101 -0.994,2.321 -1.46,3.561 -0.874,2.33 -1.733,4.668 -2.516,7.031 -1.297,3.912 -2.279,7.871 -3.014,11.905 3.023,2.521 6.097,4.776 9.403,6.703 -0.909,-7.964 -0.853,-16.11 -1.153,-24.106 -0.001,-0.012 0.01,-0.018 0.011,-0.029 z"
               id="path2565" />
            <path
               inkscape:connector-curvature="0"
               style="fill:#42c642"
               d="m 429.376,445.617 c -5.79,6.149 -13.068,11.185 -21.111,12.83 -11.603,2.372 -24.257,-0.854 -33.699,-7.939 -4.625,-3.471 -8.481,-7.71 -10.772,-13.081 -0.787,-1.846 -1.432,-3.736 -2.006,-5.647 0.642,7.354 1.481,14.786 1.453,22.154 2.418,1.331 4.966,2.486 7.73,3.415 8.107,2.721 16.712,3.521 25.225,3.135 8.951,-0.404 18.092,-1.875 26.679,-4.466 2.178,-0.655 4.247,-1.441 6.236,-2.338 -0.147,-2.639 0.018,-5.366 0.265,-8.063 z"
               id="path2567" />
            <path
               inkscape:connector-curvature="0"
               style="fill:#42c642"
               d="m 437.978,433.933 c -0.571,0.998 -1.157,1.984 -1.77,2.938 -1.604,2.492 -3.462,4.967 -5.531,7.316 -0.173,3.023 -0.255,6.066 -0.604,9.058 3.662,-1.755 7.015,-3.946 10.095,-6.633 -0.249,-2.875 -0.66,-5.733 -1.236,-8.563 -0.282,-1.38 -0.6,-2.753 -0.954,-4.116 z"
               id="path2569" />
            <path
               inkscape:connector-curvature="0"
               style="fill:#e8a46b"
               d="m 390.133,420.149 c 1.939,1.722 4.517,2.875 7.137,2.911 5.198,0.07 10.325,-4.81 12.02,-9.524 -1.424,-0.367 -2.849,-0.729 -4.272,-1.101 l -1.254,-0.336 -0.013,-1.131 c 0.001,-1.353 0.046,-2.71 0.105,-4.053 l 0.028,-0.615 0.941,-0.207 c 2.574,-0.616 5.031,-1.605 7.067,-3.386 2.475,-2.165 4.099,-5.186 5.077,-8.291 1.791,-5.684 1.898,-11.867 2.338,-17.884 -0.245,0.646 -0.546,1.234 -0.903,1.726 -1.994,2.732 -5.678,4.123 -8.947,3.501 -0.211,-0.039 -0.159,-0.375 0.05,-0.369 2.858,0.096 5.822,-1.127 7.703,-3.314 1.831,-2.129 2.109,-6.277 1.115,-8.861 -3.111,-0.559 -6.047,-1.041 -9.266,-1.118 -2.881,-0.069 -5.647,0.27 -8.482,0.544 -1.884,1.668 -1.836,6.423 -1.037,8.468 1.049,2.683 3.726,3.752 6.34,4.34 0.272,0.063 0.204,0.48 -0.065,0.479 -3.467,-0.015 -7.275,-2.429 -7.791,-6.045 -0.021,-0.15 -0.041,-0.322 -0.06,-0.506 -0.098,0.106 -0.265,0.147 -0.407,0.026 -0.732,-0.618 -1.918,-1.294 -2.882,-1.063 -0.655,0.153 -1.262,0.549 -1.861,0.897 -0.276,1.153 -0.711,2.22 -1.296,3.023 -1.994,2.732 -5.679,4.123 -8.947,3.501 -0.211,-0.039 -0.159,-0.375 0.049,-0.369 2.858,0.096 5.823,-1.127 7.703,-3.314 1.832,-2.129 2.109,-6.277 1.117,-8.861 -3.113,-0.559 -6.048,-1.041 -9.268,-1.118 -2.881,-0.069 -5.646,0.27 -8.482,0.544 -1.883,1.668 -1.836,6.423 -1.036,8.468 1.048,2.683 3.725,3.752 6.339,4.34 0.273,0.063 0.206,0.48 -0.066,0.479 -2.573,-0.011 -5.333,-1.345 -6.796,-3.513 0.102,2.021 0.166,4.043 0.303,6.044 0.032,0.085 0.038,0.177 0.017,0.268 0.341,4.721 1.121,9.322 3.832,13.535 3.414,5.31 8.458,6.824 13.955,7.837 l 0.861,0.156 c 1.344,0.234 2.709,0.45 4.081,0.693 0.333,0.059 0.238,0.564 -0.077,0.568 -1.307,0.014 -2.624,-0.037 -3.929,-0.162 0.085,1.215 0.163,2.43 0.22,3.646 l 0.039,0.88 -1.029,0.345 c -1.34,0.439 -2.691,0.846 -4.049,1.243 0.966,2.505 1.68,4.817 3.778,6.679 z m 17.276,-47.227 c 0.605,-0.836 1.724,-1.211 2.635,-0.382 1.151,1.046 0.591,2.834 -0.569,3.608 -1.095,0.729 -2.883,0.567 -3.053,-0.984 -0.088,-0.786 0.318,-1.759 0.987,-2.242 z m -26.301,2.242 c -0.086,-0.786 0.318,-1.759 0.988,-2.242 0.606,-0.836 1.724,-1.211 2.635,-0.382 1.151,1.046 0.591,2.834 -0.569,3.608 -1.094,0.73 -2.882,0.568 -3.054,-0.984 z m 10.781,8.063 c 0.392,-2.568 0.99,-5.118 1.715,-7.608 0.084,-0.291 0.501,-0.168 0.445,0.121 -0.521,2.671 -0.942,5.341 -1.218,8.052 -0.108,1.062 -0.539,2.83 -0.287,3.892 0.46,1.928 3.178,1.915 4.558,1.136 0.206,-0.115 0.489,0.129 0.343,0.343 -1.23,1.791 -5.085,1.793 -5.993,-0.434 -0.608,-1.491 0.201,-3.959 0.437,-5.502 z m -1.549,13.211 c -0.252,-0.127 -0.145,-0.589 0.15,-0.553 2.257,0.273 4.392,0.489 6.656,0.099 2.007,-0.347 3.86,-1.174 5.832,-1.632 0.295,-0.069 0.452,0.319 0.202,0.482 -3.473,2.26 -8.996,3.541 -12.84,1.604 z"
               id="path2571" />
            <path
               inkscape:connector-curvature="0"
               style="fill:#d37f5e"
               d="m 373.864,356.542 c 0.99,-0.936 2.895,-3.265 4.509,-3.057 2.129,0.275 3.476,2.334 5.344,3.324 2.56,1.356 5.306,2.311 8.151,2.864 6.013,1.174 12.798,1.602 18.845,0.365 3.128,-0.637 6.322,-1.594 8.971,-3.445 0.069,-0.048 0.146,-0.105 0.223,-0.157 -0.136,-1.727 -0.26,-3.452 -0.263,-5.176 -12.425,8.938 -31.432,6.086 -41.467,-5.31 -1.405,1.66 -2.883,3.109 -3.946,5.048 -1.063,1.938 -1.786,4.046 -2.237,6.207 -0.117,0.568 -0.207,1.135 -0.28,1.699 0.668,-0.823 1.369,-1.621 2.15,-2.362 z"
               id="path2573" />
            <path
               inkscape:connector-curvature="0"
               style="fill:#d37f5e"
               d="m 370.897,378.905 c -0.207,-1.247 -0.275,-2.486 -0.674,-3.7 -0.229,-0.696 -0.526,-1.392 -0.912,-2.014 -0.393,-0.903 -1.14,-0.959 -2.234,-0.175 -0.175,0.27 -0.307,0.559 -0.411,0.858 0.915,-0.015 1.751,0.559 2.228,1.424 0.392,0.711 0.265,1.704 0.189,2.463 -0.148,1.494 -0.15,2.449 0.881,3.7 0.658,0.801 1.006,1.991 0.977,3.128 0.115,-0.039 0.227,-0.064 0.345,-0.12 -0.104,-1.793 -0.095,-3.586 -0.004,-5.341 -0.17,0.038 -0.35,-0.015 -0.385,-0.223 z"
               id="path2575" />
            <path
               inkscape:connector-curvature="0"
               style="fill:#d37f5e"
               d="m 421.162,383.178 c -1.114,-1.958 -0.178,-4.17 0.268,-6.212 0.318,-1.455 0.724,-2.777 1.391,-4.002 -0.521,0.477 -0.956,1.071 -1.307,1.675 -0.793,1.367 -0.916,2.753 -1.36,4.225 -0.027,0.087 -0.101,0.131 -0.177,0.137 -0.083,1.81 -0.192,3.619 -0.33,5.425 1.343,0.935 2.501,0.615 3.427,-0.202 -0.715,0.119 -1.397,-0.14 -1.912,-1.046 z"
               id="path2577" />
            <path
               inkscape:connector-curvature="0"
               style="fill:#d37f5e"
               d="m 393.662,391.17 c 1.313,0.657 2.531,-0.085 2.893,-1.222 -1.089,0.621 -2.658,0.677 -3.808,0.108 0.191,0.483 0.473,0.892 0.915,1.114 z"
               id="path2579" />
            <path
               inkscape:connector-curvature="0"
               style="fill:#d37f5e"
               d="m 395.075,406.93 c 0.036,0.007 0.07,0.01 0.106,0.018 0.333,0.059 0.238,0.564 -0.077,0.568 -1.307,0.014 -2.624,-0.037 -3.929,-0.162 0.075,1.076 0.14,2.152 0.195,3.23 3.676,0.204 7.4,-0.26 10.856,-1.514 0.496,-0.181 1.027,-0.387 1.571,-0.61 0.018,-0.516 0.035,-1.031 0.058,-1.543 l 0.028,-0.615 0.941,-0.207 c 1.987,-0.476 3.902,-1.179 5.612,-2.291 -3.705,1.573 -7.794,2.472 -11.669,2.885 -1.224,0.129 -2.457,0.207 -3.692,0.241 z"
               id="path2581" />
            <path
               inkscape:connector-curvature="0"
               style="fill:#e8a46b"
               d="m 403.764,412.1 -0.013,-1.131 c 0,-0.394 0.011,-0.788 0.018,-1.182 -0.093,0.035 -0.19,0.073 -0.28,0.106 -3.906,1.417 -7.985,2.045 -12.059,1.868 l 0.005,0.117 -1.029,0.345 c -1.34,0.439 -2.691,0.846 -4.049,1.243 0.965,2.508 1.679,4.82 3.776,6.683 1.939,1.722 4.517,2.875 7.137,2.911 5.198,0.07 10.325,-4.81 12.02,-9.524 -1.424,-0.367 -2.849,-0.729 -4.272,-1.101 z"
               id="path2583" />
            <path
               inkscape:connector-curvature="0"
               style="fill:#eaaf83"
               d="m 404.393,381.043 c 0.094,-0.005 0.19,0.006 0.292,0.051 0.11,0.052 0.234,0.096 0.351,0.142 0.281,0.075 0.563,0.148 0.845,0.212 0.083,0.019 0.125,0.073 0.149,0.137 1.298,0.381 2.776,0.558 4.032,0.242 -0.201,-0.022 -0.405,-0.03 -0.604,-0.067 -0.211,-0.039 -0.159,-0.375 0.05,-0.369 2.858,0.096 5.822,-1.127 7.703,-3.314 1.831,-2.129 2.109,-6.277 1.115,-8.861 -3.111,-0.559 -6.047,-1.041 -9.266,-1.118 -2.881,-0.069 -5.647,0.27 -8.482,0.544 -1.884,1.668 -1.836,6.423 -1.037,8.468 0.849,2.169 2.766,3.275 4.852,3.933 z m 3.016,-8.121 c 0.605,-0.836 1.724,-1.211 2.635,-0.382 1.151,1.046 0.591,2.834 -0.569,3.608 -1.095,0.729 -2.883,0.567 -3.053,-0.984 -0.088,-0.786 0.318,-1.759 0.987,-2.242 z"
               id="path2585" />
            <path
               inkscape:connector-curvature="0"
               style="fill:#eaaf83"
               d="m 378.993,381.448 c 0.077,0.017 0.122,0.065 0.146,0.122 1.125,0.209 2.265,0.291 3.353,0.136 -0.099,-0.104 -0.043,-0.321 0.128,-0.315 2.858,0.096 5.823,-1.127 7.703,-3.314 1.832,-2.129 2.109,-6.277 1.117,-8.861 -3.113,-0.559 -6.048,-1.041 -9.268,-1.118 -2.881,-0.069 -5.646,0.27 -8.482,0.544 -1.883,1.668 -1.836,6.423 -1.036,8.468 1.048,2.681 3.725,3.75 6.339,4.338 z m 3.104,-8.526 c 0.606,-0.836 1.724,-1.211 2.635,-0.382 1.151,1.046 0.591,2.834 -0.569,3.608 -1.094,0.729 -2.882,0.567 -3.054,-0.984 -0.087,-0.786 0.318,-1.759 0.988,-2.242 z"
               id="path2587" />
            <path
               inkscape:connector-curvature="0"
               style="fill:#42c642"
               d="m 386.502,423.756 c 2.911,2.351 6.616,3.14 10.297,2.965 7.442,-0.353 14.692,-4.594 16.023,-12.231 -0.841,-0.235 -1.682,-0.469 -2.525,-0.69 -1.285,5.303 -8.02,10.743 -13.411,10.438 -5.271,-0.299 -11.354,-4.833 -11.31,-10.543 -1.161,0.339 -2.324,0.67 -3.484,1.004 0.928,3.537 1.294,6.54 4.41,9.057 z"
               id="path2589" />
            <path
               inkscape:connector-curvature="0"
               style="fill:#ffffff"
               d="m 394.769,338.327 c -1.108,0.161 -2.437,0.255 -3.509,-0.064 -0.365,-0.107 -0.95,-0.111 -1.243,0.183 -1.5,1.503 -2.41,0.026 -4.101,-0.294 -0.459,-0.089 -0.821,0.19 -0.86,0.654 -0.06,0.705 -0.065,1.41 -0.075,2.113 -1.218,-1.021 -2.313,-2.227 -3.862,-2.682 -0.083,-0.022 -0.133,0.065 -0.103,0.133 0.907,1.96 2.503,3.654 4.307,4.821 0.531,0.347 1.225,-0.11 1.23,-0.705 0.008,-0.846 -0.067,-1.678 -0.11,-2.517 1.069,0.791 2.222,1.983 3.454,0.664 1.397,-1.493 3.723,0.105 5.194,-1.755 0.213,-0.268 0.015,-0.6 -0.322,-0.551 z"
               id="path2591" />
            <path
               inkscape:connector-curvature="0"
               style="fill:#ffffff"
               d="m 396.556,337.196 c -0.471,-0.204 -0.963,-0.291 -1.458,-0.441 -0.376,-0.113 -0.519,0.449 -0.16,0.58 0.538,0.192 1.013,0.41 1.572,0.218 0.141,-0.049 0.215,-0.283 0.046,-0.357 z"
               id="path2593" />
            <path
               inkscape:connector-curvature="0"
               style="fill:#ffffff"
               d="m 398.703,335.638 c -0.022,-0.137 -0.086,-0.252 -0.11,-0.385 -0.157,-0.901 -1.648,-0.525 -1.39,0.383 0.117,0.405 0.334,0.638 0.732,0.771 0.492,0.166 0.843,-0.336 0.768,-0.769 z"
               id="path2595" />
          </g>
          <g
             id="Gito">
            <path
               inkscape:connector-curvature="0"
               d="m 386.25,364.134 c -1.062,-1.153 -3.189,-2.123 -4.779,-1.975 -1.682,0.155 -2.989,1.392 -3.852,2.747 -0.092,0.142 0.105,0.275 0.223,0.173 0.567,-0.504 1.254,-1.371 1.957,-1.667 0.82,-0.344 1.813,-0.231 2.618,0.067 1.148,0.424 2.114,1.346 3.335,1.512 0.487,0.066 0.874,-0.448 0.498,-0.857"
               id="path2599" />
            <path
               inkscape:connector-curvature="0"
               d="m 412.7,364.875 c -0.816,-1.413 -2.211,-3.106 -4.017,-3.035 -1.811,0.073 -3.406,1.947 -4.273,3.363 -0.192,0.314 0.177,0.605 0.468,0.469 1.145,-0.536 1.951,-1.538 3.062,-2.093 1.822,-0.912 3.152,0.373 4.46,1.526 0.158,0.141 0.413,-0.035 0.3,-0.23"
               id="path2601" />
            <path
               inkscape:connector-curvature="0"
               d="m 384.731,372.54 c -0.911,-0.829 -2.028,-0.454 -2.635,0.382 -0.67,0.483 -1.074,1.456 -0.988,2.242 0.172,1.552 1.96,1.714 3.054,0.984 1.16,-0.774 1.721,-2.562 0.569,-3.608 m -0.739,2.134 c -0.23,0.02 -0.494,0.116 -0.686,0.071 -0.469,-0.108 -0.668,-0.602 -0.775,-1.054 0.346,-0.292 0.75,-0.589 1.108,-0.522 0.721,0.14 0.644,0.963 0.353,1.505"
               id="path2603" />
            <path
               inkscape:connector-curvature="0"
               d="m 410.044,372.54 c -0.911,-0.829 -2.029,-0.454 -2.635,0.382 -0.669,0.483 -1.075,1.456 -0.987,2.242 0.17,1.552 1.958,1.714 3.053,0.984 1.16,-0.774 1.72,-2.562 0.569,-3.608 m -0.739,2.134 c -0.23,0.02 -0.495,0.116 -0.686,0.071 -0.468,-0.108 -0.669,-0.602 -0.775,-1.054 0.347,-0.292 0.749,-0.589 1.108,-0.522 0.72,0.14 0.644,0.963 0.353,1.505"
               id="path2605" />
            <path
               inkscape:connector-curvature="0"
               d="m 441.304,445.583 c -0.287,-2.536 -0.716,-5.043 -1.171,-7.411 -0.605,-3.148 -1.427,-6.254 -2.435,-9.296 -0.739,-2.23 -1.446,-5.143 -2.895,-7.046 -1.428,-1.881 -4.478,-2.449 -6.566,-3.258 -3.058,-1.18 -6.124,-2.339 -9.226,-3.4 -1.714,-0.587 -3.463,-1.188 -5.231,-1.754 -0.094,-0.086 -0.224,-0.119 -0.353,-0.108 -2.762,-0.872 -5.573,-1.652 -8.403,-2.144 -0.011,-1.467 -0.078,-2.94 -0.16,-4.396 2.294,-0.389 4.513,-1.08 6.492,-2.415 2.658,-1.793 4.591,-4.577 5.836,-7.487 1.477,-3.453 2.018,-7.198 2.338,-10.912 0.019,-0.222 0.031,-0.441 0.05,-0.661 1.596,0.943 3.656,0.457 4.963,-0.942 2.284,-2.443 2.809,-6.893 3.068,-10.061 0.192,-2.355 0.317,-6.235 -2.568,-7.13 -0.008,-0.002 -0.014,-0.002 -0.021,-0.004 0.496,-2.35 0.257,-5.024 0.316,-7.361 0.078,-3.072 0.354,-6.259 -0.007,-9.321 3.52,-2.031 5.793,-7.048 6.036,-10.942 0.002,-0.031 -0.02,-0.046 -0.025,-0.073 0.011,-0.02 0.025,-0.04 0.035,-0.064 0.095,-0.192 -0.094,-0.371 -0.284,-0.283 -1.068,0.493 -1.965,1.351 -2.997,1.927 -1.012,0.564 -2.084,0.785 -3.142,1.161 1.37,-3.007 1.067,-6.809 0.587,-9.961 -0.026,-0.171 -0.17,-0.222 -0.306,-0.193 -0.066,-0.012 -0.137,-0.006 -0.195,0.047 -1.853,1.662 -3.592,3.608 -5.98,4.46 -4.508,-2.035 -9.6,-3.185 -14.303,-4.689 -4.664,-1.49 -9.42,-2.941 -14.35,-3.108 -4.052,-0.137 -8.683,0.555 -11.981,3.101 -2.757,2.128 -4.186,5.539 -4.555,8.931 -4.458,0.677 -6.872,6.5 -7.544,10.361 -0.524,3.018 -0.446,6.086 -0.282,9.133 0.138,2.573 0.234,5.4 1.367,7.764 -0.12,0.026 -0.24,0.052 -0.364,0.092 -2.567,0.861 -3.545,4.343 -3.567,6.728 -0.028,3.016 1.193,6.985 3.182,9.29 1.182,1.369 3.104,2.191 4.706,1.468 0.431,5.044 1.784,10.012 4.682,14.031 3.414,4.741 8.665,6.897 14.206,7.594 0.022,1.33 0.045,2.663 0.1,3.991 -4.827,1.117 -9.591,2.733 -14.289,4.191 -2.802,0.868 -5.592,1.769 -8.377,2.689 -2.165,0.716 -4.694,1.265 -6.578,2.616 -1.503,1.079 -2.314,2.679 -2.984,4.352 -1.07,2.663 -2.044,5.377 -2.979,8.091 -1.419,4.122 -2.678,8.361 -3.247,12.693 l -0.17,1.417 0.8,0.853 c 7.695,7.944 19.904,11.921 30.426,13.214 7.491,0.919 15.086,0.599 22.549,-0.407 7.554,-1.017 15.244,-2.469 22.361,-5.259 4.383,-1.718 8.82,-4.075 12.407,-7.284 l 1.2,-1.131 z m -15.746,-76.845 c 1.493,1.2 1.097,4.36 0.933,6.009 -0.197,1.986 -0.635,4.031 -1.27,5.925 -0.72,2.147 -2.741,5.722 -5.573,3.753 0.138,-1.806 0.247,-3.614 0.33,-5.425 0.076,-0.006 0.149,-0.05 0.177,-0.137 0.444,-1.472 0.567,-2.857 1.36,-4.225 0.793,-1.368 1.991,-2.718 3.722,-2.645 0.217,0.009 0.307,-0.265 0.171,-0.409 -2.232,-2.38 -4.401,0.878 -5.299,3.903 0.027,-1.062 0.046,-2.125 0.053,-3.189 0.082,-0.257 0.147,-0.522 0.217,-0.784 0.047,-0.017 0.093,-0.041 0.13,-0.088 0.805,-1.002 2.141,-3.274 3.785,-3.211 0.09,0.105 0.246,0.129 0.362,0.055 0.291,0.074 0.593,0.216 0.902,0.468 m -60.745,8.394 c -0.332,-1.654 -0.354,-3.436 0.22,-5.042 0.627,-1.754 2.287,-4.224 4.842,-2.23 0.331,0.259 0.612,0.653 0.868,1.058 0.069,0.38 0.132,0.763 0.214,1.13 0.013,0.059 0.05,0.088 0.083,0.122 -0.033,0.351 -0.05,0.703 -0.057,1.05 -0.366,-0.742 -0.847,-1.377 -1.444,-1.783 -2.005,-1.371 -3.832,1.51 -3.564,3.281 0.047,0.305 0.464,0.19 0.492,-0.065 0.088,-0.594 0.29,-1.14 0.609,-1.635 1.095,-0.784 1.841,-0.729 2.234,0.175 0.386,0.622 0.683,1.317 0.912,2.014 0.399,1.214 0.467,2.453 0.674,3.7 0.034,0.208 0.215,0.261 0.384,0.224 -0.091,1.755 -0.101,3.548 0.004,5.341 -3.755,1.765 -5.923,-4.619 -6.471,-7.34 m 6.252,-20.96 c -0.956,4.083 -1.148,8.796 -0.579,13.116 -0.61,-0.721 -1.378,-1.244 -2.294,-1.304 -1.76,-8.517 -3.411,-22.162 5.858,-26.74 0.223,0.115 0.561,0.056 0.627,-0.238 4.665,-21.041 30.733,-6.454 43.863,-3.802 0.006,10e-4 0.008,0.009 0.015,0.011 0.047,0.012 0.089,0.01 0.134,0.02 0.137,0.025 0.279,0.06 0.413,0.083 0.071,0.014 0.137,-0.002 0.198,-0.027 1.243,-0.026 2.373,-0.87 3.353,-1.609 0.868,-0.653 1.726,-1.375 2.287,-2.292 -0.127,3.103 -0.292,6.076 -0.737,9.188 -0.032,0.233 0.217,0.402 0.394,0.287 1.799,0.553 4.321,-0.642 5.814,-2.159 -0.529,1.643 -1.142,3.249 -2.042,4.739 -1.037,1.72 -2.48,3.033 -3.664,4.623 -0.117,0.159 -0.057,0.329 0.068,0.432 -0.44,2.746 -0.354,5.607 -0.411,8.379 -0.056,2.706 -0.225,5.462 -0.162,8.172 -1.356,0.014 -2.543,1.034 -3.361,2.24 0.355,-2.246 0.436,-4.567 0.449,-6.728 0.023,-3.811 0.028,-8.103 -0.939,-11.823 0.929,-0.717 1.82,-1.497 2.66,-2.352 0.264,-0.269 -0.1,-0.79 -0.419,-0.545 -6.588,5.09 -14.217,8.307 -22.694,7.578 -4.248,-0.368 -8.518,-1.608 -12.32,-3.528 -3.897,-1.968 -6.985,-4.727 -10.235,-7.575 -0.201,-0.175 -0.441,0.082 -0.284,0.283 0.238,0.31 0.488,0.609 0.74,0.906 -3.727,1.962 -5.822,6.781 -6.732,10.665 m 0.928,1.034 c 0.451,-2.161 1.175,-4.27 2.237,-6.207 1.063,-1.939 2.541,-3.388 3.946,-5.048 10.035,11.396 29.042,14.248 41.467,5.31 0.005,3.469 0.508,6.95 0.582,10.422 0.059,2.8 -0.234,5.462 -0.598,8.15 -0.087,-0.272 -0.172,-0.543 -0.289,-0.786 0.013,-0.109 -0.015,-0.229 -0.132,-0.318 -0.003,-0.002 -0.007,-0.003 -0.012,-0.005 -0.005,-0.01 -0.008,-0.023 -0.014,-0.032 -0.09,-0.157 -0.249,-0.22 -0.409,-0.221 -2.546,-1.56 -6.462,-1.294 -9.272,-1.373 -3.323,-0.094 -7.036,-0.229 -10.105,1.241 -0.097,0.045 -0.121,0.151 -0.096,0.246 -1.438,1.198 -1.529,4.327 -1.379,6.307 -0.566,-1.026 -1.717,-2.022 -2.931,-1.92 -0.663,0.056 -1.339,0.316 -1.912,0.718 0.167,-1.665 -0.015,-3.362 -0.626,-4.643 0.013,-0.109 -0.015,-0.229 -0.132,-0.318 -0.004,-0.002 -0.007,-0.003 -0.012,-0.005 -0.005,-0.01 -0.008,-0.023 -0.014,-0.032 -0.091,-0.157 -0.249,-0.22 -0.41,-0.221 -2.546,-1.56 -6.46,-1.294 -9.272,-1.373 -3.324,-0.094 -7.036,-0.229 -10.105,1.241 -0.096,0.045 -0.12,0.151 -0.095,0.246 -0.329,0.273 -0.587,0.65 -0.788,1.09 -0.001,-4.172 -0.503,-8.27 0.371,-12.469 m 18.412,55.018 1.029,-0.345 -0.039,-0.88 c -0.057,-1.216 -0.135,-2.431 -0.22,-3.646 1.305,0.125 2.622,0.176 3.929,0.162 0.315,-0.004 0.41,-0.51 0.077,-0.568 -1.372,-0.243 -2.737,-0.459 -4.081,-0.693 l -0.861,-0.156 c -5.497,-1.013 -10.541,-2.527 -13.955,-7.837 -2.711,-4.213 -3.491,-8.814 -3.832,-13.535 0.021,-0.091 0.015,-0.183 -0.017,-0.268 -0.137,-2.001 -0.201,-4.023 -0.303,-6.044 1.463,2.168 4.223,3.502 6.796,3.513 0.272,0.002 0.339,-0.416 0.066,-0.479 -2.614,-0.588 -5.291,-1.657 -6.339,-4.34 -0.8,-2.045 -0.847,-6.8 1.036,-8.468 2.836,-0.273 5.602,-0.613 8.482,-0.544 3.22,0.077 6.154,0.56 9.268,1.118 0.992,2.584 0.715,6.732 -1.117,8.861 -1.88,2.188 -4.845,3.41 -7.703,3.314 -0.208,-0.006 -0.26,0.33 -0.049,0.369 3.268,0.622 6.953,-0.769 8.947,-3.501 0.585,-0.804 1.02,-1.87 1.296,-3.023 0.6,-0.348 1.206,-0.743 1.861,-0.897 0.964,-0.23 2.149,0.445 2.882,1.063 0.143,0.121 0.31,0.08 0.407,-0.026 0.019,0.184 0.039,0.355 0.06,0.506 0.516,3.616 4.324,6.03 7.791,6.045 0.27,0.002 0.338,-0.416 0.065,-0.479 -2.614,-0.588 -5.291,-1.657 -6.34,-4.34 -0.799,-2.045 -0.847,-6.8 1.037,-8.468 2.835,-0.273 5.602,-0.613 8.482,-0.544 3.219,0.077 6.154,0.56 9.266,1.118 0.994,2.584 0.716,6.732 -1.115,8.861 -1.881,2.188 -4.845,3.41 -7.703,3.314 -0.209,-0.006 -0.261,0.33 -0.05,0.369 3.269,0.622 6.953,-0.769 8.947,-3.501 0.357,-0.491 0.658,-1.079 0.903,-1.726 -0.44,6.017 -0.547,12.2 -2.338,17.884 -0.978,3.105 -2.602,6.126 -5.077,8.291 -2.036,1.781 -4.493,2.77 -7.067,3.386 l -0.941,0.207 -0.028,0.615 c -0.06,1.343 -0.104,2.7 -0.105,4.053 l 0.013,1.131 1.254,0.336 c 1.423,0.372 2.848,0.733 4.272,1.101 -1.694,4.714 -6.821,9.595 -12.02,9.524 -2.62,-0.036 -5.198,-1.189 -7.137,-2.911 -2.098,-1.862 -2.811,-4.175 -3.776,-6.683 1.356,-0.394 2.707,-0.8 4.047,-1.239 m -4.829,1.469 c -0.045,5.71 6.038,10.244 11.31,10.543 5.392,0.306 12.126,-5.135 13.411,-10.438 0.844,0.222 1.685,0.455 2.525,0.69 -1.331,7.638 -8.581,11.879 -16.023,12.231 -3.681,0.175 -7.386,-0.614 -10.297,-2.965 -3.116,-2.517 -3.483,-5.52 -4.41,-9.059 1.16,-0.332 2.323,-0.663 3.484,-1.002 m 44.497,39.551 c 0.461,-3.97 0.456,-8.036 0.815,-12.018 0.385,-4.252 0.895,-8.489 1.309,-12.734 0.025,-0.268 -0.409,-0.323 -0.467,-0.063 -0.872,4.065 -1.44,8.204 -1.861,12.342 -0.426,4.207 -0.993,8.668 -0.757,12.909 -1.989,0.897 -4.059,1.683 -6.236,2.338 -8.587,2.591 -17.728,4.061 -26.679,4.466 -8.513,0.387 -17.117,-0.414 -25.225,-3.135 -2.765,-0.929 -5.313,-2.084 -7.73,-3.415 0.031,-8.222 -1.021,-16.526 -1.668,-24.709 -0.027,-0.338 -0.547,-0.347 -0.533,0 0.301,7.996 0.244,16.143 1.153,24.106 -3.307,-1.927 -6.38,-4.183 -9.403,-6.703 0.734,-4.034 1.717,-7.993 3.014,-11.905 0.782,-2.363 1.642,-4.701 2.516,-7.031 1.032,-2.752 1.81,-5.441 4.631,-6.822 2.379,-1.164 5.145,-1.8 7.656,-2.613 2.497,-0.807 5,-1.599 7.508,-2.375 1.055,-0.328 2.118,-0.64 3.184,-0.949 -0.813,18.021 31.177,16.184 32.551,-0.155 1.055,0.306 2.108,0.624 3.154,0.972 2.684,0.895 5.347,1.853 8.001,2.833 1.257,0.466 2.51,0.938 3.765,1.414 1.336,0.507 3.31,0.923 4.47,1.773 2.002,1.468 2.881,5.948 3.613,8.245 0.839,2.641 1.526,5.323 2.08,8.035 0.576,2.829 0.987,5.688 1.236,8.563 -3.082,2.685 -6.435,4.876 -10.097,6.631"
               id="path2607" />
            <path
               inkscape:connector-curvature="0"
               d="m 402.977,394.352 c -1.972,0.458 -3.825,1.285 -5.832,1.632 -2.265,0.391 -4.399,0.175 -6.656,-0.099 -0.294,-0.036 -0.401,0.426 -0.15,0.553 3.844,1.938 9.367,0.656 12.84,-1.603 0.251,-0.164 0.093,-0.553 -0.202,-0.483"
               id="path2609" />
            <path
               inkscape:connector-curvature="0"
               d="m 397.102,388.818 c -1.38,0.779 -4.098,0.792 -4.558,-1.136 -0.252,-1.061 0.18,-2.83 0.287,-3.892 0.275,-2.711 0.697,-5.381 1.218,-8.052 0.056,-0.289 -0.361,-0.412 -0.445,-0.121 -0.725,2.49 -1.323,5.04 -1.715,7.608 -0.235,1.543 -1.045,4.012 -0.438,5.501 0.908,2.227 4.763,2.225 5.993,0.434 0.147,-0.213 -0.136,-0.457 -0.342,-0.342"
               id="path2611" />
          </g>
        </g>
      </g>
    </g>
  </g>
</svg>
