<?xml version="1.0" encoding="utf-8"?>
<!-- Generator: Adobe Illustrator 27.5.0, SVG Export Plug-In . SVG Version: 6.00 Build 0)  -->
<svg version="1.1" xmlns="http://www.w3.org/2000/svg" xmlns:xlink="http://www.w3.org/1999/xlink" x="0px" y="0px"
	 viewBox="0 0 500 500" style="enable-background:new 0 0 500 500;" xml:space="preserve">
<g id="BACKGROUND">
	<rect style="fill:#FFF7F1;" width="500" height="500"/>
</g>
<g id="OBJECTS">
	<g>
		<g>
			<g>
				<path style="fill:#FF9A40;" d="M58.483,207.424c0,0-10.181-8.566-4.158-22.549c6.023-13.984,23.619-16.049,40.561-16.054
					c25.845-0.008,56.717,8.888,36.121,38.603C131.006,207.424,105.364,224.383,58.483,207.424z"/>
			</g>
		</g>
		<g>
			<g>
				<path style="fill:#E96D17;" d="M83.975,190.677c-0.326,0-0.63-0.208-0.735-0.536c-1.889-5.85-7.103-9.528-7.155-9.565
					c-0.35-0.244-0.437-0.725-0.194-1.076c0.243-0.35,0.724-0.438,1.075-0.195c0.231,0.16,5.691,4.001,7.745,10.36
					c0.131,0.406-0.092,0.842-0.498,0.973C84.134,190.665,84.054,190.677,83.975,190.677z"/>
			</g>
		</g>
		<g>
			<g>
				<path style="fill:#E96D17;" d="M94.938,201.072c-0.254,0-0.504-0.125-0.651-0.355c-6.74-10.498-26.796-13.54-26.998-13.569
					c-0.422-0.062-0.715-0.454-0.653-0.877c0.062-0.422,0.453-0.715,0.876-0.653c0.852,0.124,20.954,3.172,28.076,14.264
					c0.231,0.359,0.127,0.837-0.233,1.068C95.226,201.033,95.081,201.072,94.938,201.072z"/>
			</g>
		</g>
		<g>
			<g>
				<path style="fill:#FF9A40;" d="M164.474,234.128h-137.2c0,0,1.378-17.115,9.662-20.429c3.347-1.34,11.017-5.155,18.975-9.231
					c11.12-5.694,22.796-11.89,23.989-12.524c0.067-0.036,0.101-0.054,0.101-0.054l1.049,0.237c1.311,0.294,2.628,0.546,3.95,0.755
					c1.306,0.211,2.618,0.381,3.929,0.51c7.242,0.711,14.57,0.214,21.681-1.494c0.01-0.003,0.023-0.005,0.033-0.008
					c0,0,8.974,4.625,18.981,9.662c1.281,0.644,2.579,1.298,3.878,1.948c8.845,4.426,17.703,8.755,21.312,10.2
					C163.093,217.013,164.474,234.128,164.474,234.128z"/>
			</g>
		</g>
		<g>
			<g>
				<g>
					<g>
						<g>
							<g>
								<path style="fill:#E96D17;" d="M102.241,212.342c-7.548,0-13.813-1.987-18.257-4.029
									c-7.037-3.232-11.046-7.188-11.213-7.355c-0.282-0.282-0.283-0.738-0.001-1.021c0.281-0.283,0.738-0.284,1.021-0.002
									c0.04,0.039,4.03,3.968,10.848,7.09c6.27,2.869,16.294,5.626,28.442,2.462c0.387-0.101,0.78,0.131,0.881,0.517
									c0.1,0.386-0.131,0.78-0.517,0.881C109.474,211.919,105.72,212.342,102.241,212.342z"/>
							</g>
						</g>
					</g>
				</g>
			</g>
			<g>
				<g>
					<g>
						<g>
							<g>
								<path style="fill:#E96D17;" d="M98.683,219.301c-2.434,0-5.106-0.244-7.994-0.847c-0.391-0.081-0.641-0.464-0.56-0.854
									c0.082-0.391,0.466-0.64,0.855-0.56c14.262,2.978,23.179-3.276,23.267-3.339c0.324-0.233,0.775-0.159,1.008,0.165
									c0.233,0.324,0.159,0.775-0.165,1.008C114.786,215.095,108.786,219.301,98.683,219.301z"/>
							</g>
						</g>
					</g>
				</g>
			</g>
		</g>
		<g>
			<g>
				<g>
					<g>
						<g>
							<g>
								<g>
									<path style="fill:#FFB8A1;" d="M111.34,195.385c0,0-2.691,8.458-15.055,8.458c-14.421,0-17.815-7.689-17.815-7.689
										c1.253-3.322,2.114-6.397,2.695-9.146h0.004c1.069-5.036,1.219-8.992,1.153-11.418l25.335-1.003
										c0.235,2.145,0.615,4.671,1.046,7.212C109.849,188.546,111.34,195.385,111.34,195.385z"/>
								</g>
							</g>
						</g>
					</g>
				</g>
				<g>
					<g>
						<g>
							<g>
								<g>
									<path style="fill:#3F2037;" d="M108.703,181.798c-3.925,2.73-12.506,6.793-27.534,5.209
										c1.069-5.036,1.219-8.992,1.153-11.418l25.335-1.003C107.892,176.732,108.273,179.257,108.703,181.798z"/>
								</g>
							</g>
						</g>
					</g>
				</g>
			</g>
			<g>
				<g>
					<g>
						<g>
							<g>
								<g>
									<g>
										<path style="fill:#FFB8A1;" d="M72.651,142.55c0,0-7.841-10.672-13.939-4.356c-6.098,6.316,5.663,28.314,16.335,23.522
											L72.651,142.55z"/>
									</g>
								</g>
							</g>
						</g>
					</g>
					<g>
						<g>
							<g>
								<g>
									<g>
										<path style="fill:#FF8A8A;" d="M68.912,155.161c-0.266,0-0.498-0.196-0.536-0.467c-1.031-7.415-6.925-11.966-6.984-12.011
											c-0.238-0.181-0.285-0.521-0.104-0.759s0.521-0.285,0.759-0.104c0.257,0.195,6.31,4.871,7.401,12.724
											c0.041,0.297-0.165,0.57-0.462,0.611C68.962,155.16,68.937,155.161,68.912,155.161z"/>
									</g>
								</g>
							</g>
						</g>
					</g>
					<g>
						<g>
							<g>
								<g>
									<g>
										<path style="fill:#FF8A8A;" d="M67.27,149.836c-0.174,0-0.344-0.084-0.449-0.238c-0.787-1.164-3.141-1.282-3.978-1.23
											c-0.301,0.021-0.556-0.208-0.575-0.507c-0.019-0.299,0.208-0.556,0.507-0.575c0.149-0.009,3.651-0.205,4.943,1.705
											c0.168,0.248,0.103,0.584-0.145,0.752C67.48,149.806,67.374,149.836,67.27,149.836z"/>
									</g>
								</g>
							</g>
						</g>
					</g>
				</g>
			</g>
			<g>
				<g>
					<g>
						<g>
							<g>
								<g>
									<g>
										<path style="fill:#FFB8A1;" d="M120.416,142.55c0,0,7.841-10.672,13.939-4.356c6.098,6.316-5.663,28.314-16.335,23.522
											L120.416,142.55z"/>
									</g>
								</g>
							</g>
						</g>
					</g>
					<g>
						<g>
							<g>
								<g>
									<g>
										<path style="fill:#FF8A8A;" d="M124.156,155.161c-0.025,0-0.05-0.002-0.075-0.005c-0.297-0.041-0.503-0.315-0.462-0.611
											c1.091-7.854,7.144-12.53,7.401-12.725c0.239-0.181,0.578-0.135,0.759,0.104c0.181,0.238,0.135,0.578-0.103,0.759
											c-0.06,0.045-5.955,4.612-6.984,12.011C124.654,154.965,124.422,155.161,124.156,155.161z"/>
									</g>
								</g>
							</g>
						</g>
					</g>
					<g>
						<g>
							<g>
								<g>
									<g>
										<path style="fill:#FF8A8A;" d="M125.798,149.836c-0.105,0-0.21-0.03-0.303-0.093c-0.248-0.168-0.313-0.504-0.145-0.752
											c1.292-1.91,4.794-1.714,4.943-1.705c0.298,0.019,0.525,0.275,0.506,0.574c-0.018,0.299-0.278,0.528-0.573,0.508
											c-0.842-0.05-3.195,0.071-3.979,1.231C126.142,149.752,125.972,149.836,125.798,149.836z"/>
									</g>
								</g>
							</g>
						</g>
					</g>
				</g>
			</g>
			<g>
				<g>
					<g>
						<g>
							<g>
								<path style="fill:#FFB8A1;" d="M103.146,111.44c-21.933-5.351-41.785,14.476-36.838,36.504
									c3.492,15.547,11.152,35.155,29.976,35.598c19.618,0.462,27.49-20.899,30.292-37.106
									c2.564-14.833-6.084-29.436-20.388-34.125C105.196,111.985,104.182,111.693,103.146,111.44z"/>
							</g>
						</g>
					</g>
				</g>
			</g>
			<g>
				<g>
					<path style="fill:#FF8A8A;" d="M97.85,161.354c-0.932,0-1.955-0.244-3.08-0.732c-0.316-0.137-0.503-0.467-0.459-0.809
						l1.568-12.045c0.055-0.423,0.445-0.722,0.866-0.667c0.423,0.055,0.722,0.443,0.667,0.866l-1.491,11.451
						c1.538,0.564,2.726,0.514,3.706-0.147c0.354-0.239,0.834-0.145,1.073,0.209c0.239,0.354,0.145,0.834-0.209,1.073
						C99.701,161.087,98.825,161.354,97.85,161.354z"/>
				</g>
			</g>
			<g>
				<g>
					<path style="fill:#FF8A8A;" d="M96.417,169.295c-4.428,0-7.788-1.828-7.845-1.86c-0.373-0.208-0.506-0.679-0.298-1.052
						c0.208-0.373,0.679-0.506,1.052-0.298c0.375,0.207,8.932,4.818,16.338-2.033c0.313-0.29,0.802-0.271,1.092,0.043
						c0.29,0.313,0.271,0.802-0.043,1.092C103.279,168.364,99.576,169.295,96.417,169.295z"/>
				</g>
			</g>
			<g>
				<g>
					<path style="fill:#FF8A8A;" d="M97.671,173.714c-1.749,0-3.15-0.427-3.248-0.458c-0.407-0.127-0.635-0.561-0.507-0.968
						c0.127-0.407,0.56-0.633,0.967-0.508l0,0c0.035,0.011,3.462,1.045,5.874-0.318c0.371-0.21,0.843-0.079,1.053,0.292
						c0.21,0.372,0.079,0.843-0.292,1.053C100.283,173.506,98.892,173.714,97.671,173.714z"/>
				</g>
			</g>
			<g>
				<g>
					<path style="fill:#3F2037;" d="M81.35,139.37c1.664-0.894,4.093-1.998,6.456-2.343c1.269-0.185,2.067-1.461,1.634-2.669
						l-0.087-0.244c-0.312-0.872-1.179-1.42-2.1-1.322c-2.108,0.224-5.843,0.962-8.279,3.39c-0.528,0.526-0.711,1.307-0.487,2.018
						l0,0C78.864,139.402,80.241,139.966,81.35,139.37z"/>
				</g>
			</g>
			<g>
				<g>
					<path style="fill:#3F2037;" d="M113.338,139.37c-1.664-0.894-4.093-1.998-6.456-2.343c-1.269-0.185-2.067-1.461-1.634-2.669
						l0.087-0.244c0.312-0.872,1.179-1.42,2.1-1.322c2.108,0.224,5.843,0.962,8.279,3.39c0.528,0.526,0.711,1.307,0.487,2.018l0,0
						C115.823,139.402,114.447,139.966,113.338,139.37z"/>
				</g>
			</g>
			<g style="opacity:0.5;">
				<g>
					<path style="fill:#FF8A8A;" d="M87.012,153.268c0,1.896-3.5,3.433-7.817,3.433c-4.317,0-7.817-1.537-7.817-3.433
						c0-1.896,3.5-3.432,7.817-3.432C83.512,149.836,87.012,151.373,87.012,153.268z"/>
				</g>
			</g>
			<g style="opacity:0.5;">
				<g>
					<path style="fill:#FF8A8A;" d="M123.79,153.268c0,1.896-3.5,3.433-7.817,3.433c-4.317,0-7.817-1.537-7.817-3.433
						c0-1.896,3.5-3.432,7.817-3.432C120.29,149.836,123.79,151.373,123.79,153.268z"/>
				</g>
			</g>
			<g>
				<g>
					<g>
						<g>
							<g>
								<path style="fill:#3F2037;" d="M67.123,151.328c0,0-4.12-22.696-2.847-27.886c1.273-5.19,3.933-4.24,3.933-4.24
									S45.99,100.993,57.04,90.671c7.999-7.472,17.201,8.516,17.201,8.516s-4.554-15.718,1.922-17.877
									c8.073-2.691,11.726,16.147,11.726,16.147s-0.666-14.053,5.895-13.776c9.099,0.384,3.973,10.893,13.84,14.993
									c9.867,4.101,24.774,6.183,19.4,22.715c0,0,7.239-0.316-1.767,29.184l0,0c-2.325-3.233-3.491-7.157-3.298-11.134
									c0.148-3.051,0.132-6.588-0.494-8.761c0,0-5.639-3.939-5.382-9.705c0,0-19.863,11.79-38.188,1.282
									c0,0,1.153,6.792-4.613,7.817c0,0-1.884,4.418-2.506,10.704c-0.36,3.644-1.523,7.163-3.47,10.265L67.123,151.328z"/>
							</g>
						</g>
					</g>
				</g>
			</g>
			<g>
				<g>
					<g>
						<g>
							<g>
								<path style="fill:#3F2037;" d="M125.184,111.019c0,0,3.138-10.713,8.207-7.971c3.618,1.956-4.811,10.107-4.811,10.107
									s7.092-3.834,10.589-1.132c3.497,2.701-5.785,5.893-11.135,4.979C122.684,116.089,125.184,111.019,125.184,111.019z"/>
							</g>
						</g>
					</g>
				</g>
			</g>
			<g>
				<g>
					<g>
						<g>
							<g>
								<g>
									<g>
										<path style="fill:#3F2037;" d="M87.558,145.273c0.036,2.094-0.736,3.806-1.724,3.823c-0.989,0.017-1.82-1.666-1.857-3.761
											c-0.036-2.094,0.736-3.806,1.724-3.823C86.69,141.496,87.521,143.18,87.558,145.273z"/>
									</g>
								</g>
							</g>
						</g>
					</g>
				</g>
				<g>
					<g>
						<g>
							<g>
								<g>
									<g>
										<path style="fill:#3F2037;" d="M106.274,145.273c-0.036,2.094,0.736,3.806,1.724,3.823
											c0.989,0.017,1.82-1.666,1.857-3.761c0.036-2.094-0.736-3.806-1.724-3.823C107.141,141.496,106.31,143.18,106.274,145.273
											z"/>
									</g>
								</g>
							</g>
						</g>
					</g>
				</g>
			</g>
		</g>
		<g>
			<g>
				<path style="fill:#FFFFFF;" d="M75.819,212.61v21.518h-1.546V212.61c0-0.173,0.057-0.33,0.152-0.459
					c0.142-0.191,0.368-0.314,0.621-0.314c0.374,0,0.685,0.265,0.757,0.618C75.814,212.504,75.819,212.555,75.819,212.61z"/>
			</g>
		</g>
		<g>
			<g>
				<path style="fill:#FFFFFF;" d="M118.794,212.61v21.518h-1.546V212.61c0-0.425,0.345-0.773,0.773-0.773
					c0.34,0,0.631,0.224,0.732,0.531C118.781,212.442,118.794,212.525,118.794,212.61z"/>
			</g>
		</g>
	</g>
	<g>
		<g>
			<path style="fill:#3F2037;" d="M218.771,104.23c0,0-15.114,13.094-15.738,34.678c-0.624,21.584,11.112,30.859,0.22,40.134
				c-10.892,9.275-35.11,19.323-20.425,44.315h59.841V108.706L218.771,104.23z"/>
		</g>
		<g>
			<path style="fill:#3F2037;" d="M265.985,104.23c0,0,15.114,13.094,15.738,34.678c0.624,21.584-11.112,30.859-0.22,40.134
				c10.892,9.275,35.111,19.323,20.425,44.315h-59.842V108.706L265.985,104.23z"/>
		</g>
		<g>
			<g>
				<path style="fill:#FF4F4E;" d="M310.686,234.129h-137.2c0,0,1.378-17.118,9.662-20.428c1.713-0.685,4.563-2.022,8.005-3.71
					c0.477-0.234,0.966-0.474,1.463-0.721c0.003-0.003,0.008-0.003,0.01-0.005c7.168-3.548,16.386-8.33,23.353-11.978
					c5.934-3.11,10.234-5.395,10.234-5.395l1.049,0.234c9.754,2.185,19.877,2.105,29.593-0.234c0,0,3.54,1.824,8.654,4.429
					c3.025,1.543,6.603,3.36,10.326,5.233c10.007,5.04,21.049,10.491,25.19,12.148C309.308,217.011,310.686,234.129,310.686,234.129
					z"/>
			</g>
			<g>
				<path style="fill:#C42C31;" d="M204.628,234.129h-3.661c-2.837-6.245-7.577-17.028-9.814-24.139
					c0.477-0.234,0.966-0.474,1.463-0.721C194.263,213.477,199.655,226.807,204.628,234.129z"/>
			</g>
			<g>
				<path style="fill:#C42C31;" d="M277.055,234.129h3.661c2.837-6.245,8.047-17.944,10.283-25.055
					c-0.477-0.234-0.833-0.399-1.33-0.647C288.023,212.635,282.028,226.807,277.055,234.129z"/>
			</g>
			<g>
				<path style="fill:#FF4F4E;" d="M234.89,234.129h-29.967c-5.045-7.508-9.723-18.396-12.297-24.865
					c-1.304-3.277-2.069-5.421-2.069-5.421c7.729-6.116,25.422-6.557,25.422-6.557C222.276,205.727,230.4,223.669,234.89,234.129z"
					/>
			</g>
			<g>
				<path style="fill:#FF4F4E;" d="M247.075,234.129h29.967c5.045-7.508,9.724-18.396,12.297-24.865
					c1.304-3.277,2.069-5.421,2.069-5.421c-7.729-6.116-25.899-7.523-25.899-7.523C259.212,204.76,251.565,223.669,247.075,234.129z
					"/>
			</g>
			<g>
				<path style="fill:#FFB8A1;" d="M265.509,196.32c-0.366,3.233-1.141,8.837-2.592,14.809c-2.259,9.293-6.163,19.48-12.728,23
					h-10.821c-9.038-3.751-15.219-14.526-19.006-23.703c-2.34-5.671-3.762-10.728-4.383-13.14c5.934-3.11,10.234-5.395,10.234-5.395
					l1.049,0.234c9.754,2.185,19.877,2.105,29.593-0.234C256.854,191.891,260.395,193.715,265.509,196.32z"/>
			</g>
			<g>
				<path style="fill:#FFF7F1;" d="M262.917,211.129c-2.259,9.293-6.163,19.48-12.728,23h-10.821
					c-9.038-3.751-15.219-14.526-19.006-23.703c4.743,1.958,11.81,3.741,21.809,3.741
					C250.954,214.167,257.823,212.791,262.917,211.129z"/>
			</g>
		</g>
		<g>
			<g>
				<g>
					<g>
						<g>
							<g>
								<path style="fill:#FFB8A1;" d="M257.553,195.385c0,0-2.691,8.458-15.055,8.458c-14.421,0-17.815-7.689-17.815-7.689
									c1.253-3.322,2.114-6.397,2.695-9.146h0.004c1.069-5.036,1.219-8.992,1.153-11.418l25.335-1.003
									c0.235,2.145,0.615,4.671,1.046,7.212C256.061,188.546,257.553,195.385,257.553,195.385z"/>
							</g>
							<g>
								<path style="fill:#FFF7F1;" d="M242.67,207.755c-7.564,0-12.512-3.877-15.33-7.129c-3.041-3.51-4.285-6.972-4.337-7.117
									c-0.092-0.26,0.044-0.546,0.305-0.638c0.26-0.093,0.546,0.044,0.638,0.304c0.012,0.034,1.245,3.455,4.173,6.823
									c3.897,4.484,8.793,6.758,14.551,6.758c5.742,0,10.352-2.263,13.701-6.727c2.518-3.356,3.342-6.767,3.35-6.801
									c0.063-0.269,0.333-0.435,0.601-0.372c0.269,0.063,0.436,0.332,0.373,0.601c-0.034,0.146-0.869,3.62-3.501,7.142
									C254.753,203.862,250.253,207.755,242.67,207.755z"/>
							</g>
						</g>
					</g>
				</g>
				<g>
					<g>
						<g>
							<g>
								<path style="fill:#3F2037;" d="M254.916,181.798c-3.925,2.73-12.506,6.793-27.534,5.209
									c1.069-5.036,1.219-8.992,1.153-11.418l25.335-1.003C254.105,176.732,254.485,179.257,254.916,181.798z"/>
							</g>
						</g>
					</g>
				</g>
			</g>
			<g>
				<g>
					<g>
						<g>
							<g>
								<g>
									<path style="fill:#FFB8A1;" d="M218.864,142.55c0,0-7.841-10.672-13.939-4.356c-6.098,6.316,5.663,28.314,16.335,23.522
										L218.864,142.55z"/>
								</g>
							</g>
						</g>
					</g>
					<g>
						<g>
							<g>
								<g>
									<path style="fill:#FF8A8A;" d="M215.608,155.161c-0.266,0-0.498-0.196-0.536-0.467c-1.031-7.415-6.925-11.966-6.984-12.011
										c-0.238-0.181-0.285-0.521-0.104-0.759c0.181-0.238,0.52-0.285,0.759-0.104c0.257,0.195,6.31,4.871,7.402,12.724
										c0.041,0.297-0.165,0.57-0.462,0.611C215.658,155.16,215.633,155.161,215.608,155.161z"/>
								</g>
							</g>
						</g>
					</g>
					<g>
						<g>
							<g>
								<g>
									<path style="fill:#FF8A8A;" d="M213.965,149.836c-0.173,0-0.344-0.084-0.449-0.238c-0.787-1.164-3.141-1.282-3.978-1.23
										c-0.301,0.021-0.556-0.208-0.574-0.507c-0.019-0.299,0.208-0.556,0.507-0.575c0.149-0.009,3.651-0.205,4.943,1.705
										c0.168,0.248,0.103,0.584-0.145,0.752C214.175,149.806,214.07,149.836,213.965,149.836z"/>
								</g>
							</g>
						</g>
					</g>
				</g>
				<g>
					<g>
						<g>
							<g>
								<g>
									<path style="fill:#FFF7F1;" d="M216.414,162.2c-0.152-0.023-0.301-0.072-0.461-0.115c-0.716,0.295-1.554,0.248-2.139-0.164
										c-1.808-1.271-0.234-4.335-0.213-4.375c0.148-0.282,0.041-0.63-0.241-0.779c-0.281-0.148-0.63-0.041-0.779,0.241
										c-0.086,0.162-2.071,4,0.57,5.857c0.534,0.375,1.194,0.563,1.866,0.563c0.659,0,1.33-0.181,1.906-0.542
										c0.231-0.145,0.431-0.318,0.611-0.505C217.153,162.325,216.794,162.256,216.414,162.2z"/>
								</g>
							</g>
						</g>
					</g>
				</g>
			</g>
			<g>
				<g>
					<g>
						<g>
							<g>
								<g>
									<path style="fill:#FFB8A1;" d="M266.629,142.55c0,0,7.841-10.672,13.939-4.356c6.099,6.316-5.663,28.314-16.335,23.522
										L266.629,142.55z"/>
								</g>
							</g>
						</g>
					</g>
					<g>
						<g>
							<g>
								<g>
									<path style="fill:#FF8A8A;" d="M269.783,155.161c-0.025,0-0.05-0.002-0.075-0.005c-0.296-0.041-0.503-0.315-0.462-0.611
										c1.091-7.854,7.144-12.53,7.401-12.725c0.239-0.181,0.578-0.135,0.759,0.104c0.181,0.238,0.135,0.578-0.103,0.759
										c-0.06,0.045-5.956,4.612-6.984,12.011C270.282,154.965,270.049,155.161,269.783,155.161z"/>
								</g>
							</g>
						</g>
					</g>
					<g>
						<g>
							<g>
								<g>
									<path style="fill:#FF8A8A;" d="M271.425,149.836c-0.105,0-0.21-0.03-0.303-0.093c-0.248-0.168-0.313-0.504-0.145-0.752
										c1.292-1.91,4.794-1.714,4.943-1.705c0.298,0.019,0.525,0.275,0.506,0.574c-0.018,0.299-0.278,0.528-0.573,0.508
										c-0.842-0.05-3.195,0.071-3.979,1.231C271.77,149.752,271.599,149.836,271.425,149.836z"/>
								</g>
							</g>
						</g>
					</g>
				</g>
				<g>
					<g>
						<g>
							<g>
								<g>
									<path style="fill:#FFF7F1;" d="M269.079,162.2c0.152-0.023,0.302-0.072,0.461-0.115c0.716,0.295,1.554,0.248,2.139-0.164
										c1.808-1.271,0.234-4.335,0.213-4.375c-0.148-0.282-0.04-0.63,0.241-0.779c0.282-0.148,0.631-0.041,0.779,0.241
										c0.086,0.162,2.071,4-0.57,5.857c-0.534,0.375-1.194,0.563-1.866,0.563c-0.659,0-1.33-0.181-1.906-0.542
										c-0.231-0.145-0.431-0.318-0.611-0.505C268.34,162.325,268.699,162.256,269.079,162.2z"/>
								</g>
							</g>
						</g>
					</g>
				</g>
			</g>
			<g>
				<g>
					<g>
						<g>
							<path style="fill:#FFB8A1;" d="M246.273,110.557c-23.166-0.676-34.016,11.718-32.249,37.311
								c1.098,15.897,9.649,35.23,28.473,35.673c19.618,0.462,28.546-21.795,28.973-38.236c0.449-17.289-3.656-28.854-17.961-33.543
								C252.518,111.437,247.339,110.588,246.273,110.557z"/>
						</g>
					</g>
				</g>
			</g>
			<g>
				<g>
					<path style="fill:#FF8A8A;" d="M225.859,152.836c0,0.373-0.302,0.675-0.675,0.675c-0.373,0-0.675-0.302-0.675-0.675
						c0-0.373,0.302-0.675,0.675-0.675C225.557,152.161,225.859,152.464,225.859,152.836z"/>
				</g>
				<g>
					<path style="fill:#FF8A8A;" d="M229.154,154.465c0,0.373-0.302,0.675-0.675,0.675c-0.373,0-0.675-0.302-0.675-0.675
						c0-0.373,0.302-0.675,0.675-0.675C228.852,153.79,229.154,154.092,229.154,154.465z"/>
				</g>
				<g>
					<path style="fill:#FF8A8A;" d="M225.859,156.811c0,0.373-0.302,0.675-0.675,0.675c-0.373,0-0.675-0.302-0.675-0.675
						c0-0.373,0.302-0.675,0.675-0.675C225.557,156.137,225.859,156.439,225.859,156.811z"/>
				</g>
				<g>
					<path style="fill:#FF8A8A;" d="M231.039,157.486c0,0.373-0.302,0.675-0.675,0.675c-0.373,0-0.675-0.302-0.675-0.675
						s0.302-0.675,0.675-0.675C230.737,156.811,231.039,157.114,231.039,157.486z"/>
				</g>
				<g>
					<path style="fill:#FF8A8A;" d="M234.491,156.811c0,0.373-0.302,0.675-0.675,0.675s-0.675-0.302-0.675-0.675
						c0-0.373,0.302-0.675,0.675-0.675S234.491,156.439,234.491,156.811z"/>
				</g>
				<g>
					<path style="fill:#FF8A8A;" d="M232.922,153.511c0,0.373-0.302,0.675-0.675,0.675s-0.675-0.302-0.675-0.675
						s0.302-0.675,0.675-0.675S232.922,153.139,232.922,153.511z"/>
				</g>
			</g>
			<g>
				<g>
					<path style="fill:#FF8A8A;" d="M260.207,152.836c0,0.373,0.302,0.675,0.675,0.675c0.373,0,0.675-0.302,0.675-0.675
						c0-0.373-0.302-0.675-0.675-0.675C260.509,152.161,260.207,152.464,260.207,152.836z"/>
				</g>
				<g>
					<path style="fill:#FF8A8A;" d="M256.912,154.465c0,0.373,0.302,0.675,0.675,0.675c0.373,0,0.675-0.302,0.675-0.675
						c0-0.373-0.302-0.675-0.675-0.675C257.215,153.79,256.912,154.092,256.912,154.465z"/>
				</g>
				<g>
					<path style="fill:#FF8A8A;" d="M260.207,156.811c0,0.373,0.302,0.675,0.675,0.675c0.373,0,0.675-0.302,0.675-0.675
						c0-0.373-0.302-0.675-0.675-0.675C260.509,156.137,260.207,156.439,260.207,156.811z"/>
				</g>
				<g>
					<path style="fill:#FF8A8A;" d="M255.028,157.486c0,0.373,0.302,0.675,0.675,0.675c0.373,0,0.675-0.302,0.675-0.675
						s-0.302-0.675-0.675-0.675C255.33,156.811,255.028,157.114,255.028,157.486z"/>
				</g>
				<g>
					<path style="fill:#FF8A8A;" d="M251.575,156.811c0,0.373,0.302,0.675,0.675,0.675c0.373,0,0.675-0.302,0.675-0.675
						c0-0.373-0.302-0.675-0.675-0.675C251.877,156.137,251.575,156.439,251.575,156.811z"/>
				</g>
				<g>
					<path style="fill:#FF8A8A;" d="M253.145,153.511c0,0.373,0.302,0.675,0.675,0.675c0.373,0,0.675-0.302,0.675-0.675
						s-0.302-0.675-0.675-0.675C253.447,152.836,253.145,153.139,253.145,153.511z"/>
				</g>
			</g>
			<g>
				<g>
					<path style="fill:#3F2037;" d="M214.948,152.419c0,0,4.638-9.79,3.092-17.004l-5.067-1.476
						C212.973,133.939,212.2,146.322,214.948,152.419z"/>
				</g>
				<g>
					<path style="fill:#3F2037;" d="M270.492,152.419c0,0-4.638-9.79-3.092-17.004l5.067-1.476
						C272.468,133.939,273.24,146.322,270.492,152.419z"/>
				</g>
			</g>
			<g>
				<path style="fill:#3F2037;" d="M218.771,104.23c-5.618,5.549-9.996,14.641-10.291,20.192c-0.299,5.62,1.143,11.207,5.358,13.352
					c13.176,6.704,40.439-18.505,40.439-18.505s9.616,19.55,17.192,18.628c7.577-0.923,10.802-22.966-7.236-35.298
					C246.226,90.288,227.382,95.725,218.771,104.23z"/>
			</g>
			<g>
				<path style="fill:#3F2037;" d="M223.502,140.74c0,0,1.254-3.103,5.505-5.754c5.371-3.349,9.242,2.412,9.242,2.412
					s-4.214-1.467-7.45-0.437C227.633,137.969,223.502,140.74,223.502,140.74z"/>
			</g>
			<g>
				<path style="fill:#3F2037;" d="M263.081,140.74c0,0-1.254-3.103-5.505-5.754c-5.371-3.349-9.242,2.412-9.242,2.412
					s4.214-1.467,7.45-0.437C258.95,137.969,263.081,140.74,263.081,140.74z"/>
			</g>
			<g>
				<path style="fill:#FF8A8A;" d="M244.063,161.331c-0.929,0-1.948-0.243-3.07-0.73c-0.307-0.133-0.488-0.453-0.445-0.785
					l1.568-12.045c0.054-0.411,0.432-0.701,0.841-0.647c0.411,0.053,0.7,0.43,0.647,0.84l-1.493,11.469
					c1.554,0.573,2.754,0.525,3.744-0.143c0.344-0.232,0.81-0.141,1.041,0.202c0.232,0.343,0.141,0.81-0.203,1.041
					C245.905,161.065,245.033,161.331,244.063,161.331z"/>
			</g>
			<g>
				<path style="fill:#FF8A8A;" d="M242.575,169.294c-0.66,0-1.281-0.041-1.854-0.107c-3.428-0.395-5.825-1.716-5.925-1.772
					c-0.362-0.202-0.491-0.659-0.289-1.02c0.202-0.361,0.658-0.491,1.02-0.29l0,0c0.361,0.201,8.94,4.834,16.366-2.036
					c0.304-0.282,0.779-0.263,1.06,0.041c0.281,0.304,0.263,0.779-0.041,1.06C249.379,168.437,245.583,169.294,242.575,169.294z"/>
			</g>
			<g>
				<path style="fill:#FF8A8A;" d="M243.884,173.692c-1.745,0-3.144-0.426-3.241-0.457c-0.395-0.123-0.616-0.544-0.492-0.939
					c0.123-0.395,0.544-0.616,0.939-0.493c0.051,0.016,3.477,1.045,5.891-0.32c0.36-0.204,0.818-0.077,1.022,0.284
					c0.204,0.361,0.077,0.818-0.284,1.022C246.489,173.484,245.102,173.692,243.884,173.692z"/>
			</g>
			<g>
				<g>
					<g>
						<g>
							<g>
								<g>
									<path style="fill:#3F2037;" d="M233.77,145.273c0.036,2.094-0.736,3.806-1.724,3.823c-0.989,0.017-1.82-1.666-1.857-3.761
										c-0.036-2.094,0.736-3.806,1.724-3.823C232.903,141.496,233.734,143.18,233.77,145.273z"/>
								</g>
							</g>
						</g>
					</g>
				</g>
				<g>
					<g>
						<g>
							<g>
								<g>
									<path style="fill:#3F2037;" d="M252.486,145.273c-0.036,2.094,0.736,3.806,1.724,3.823c0.989,0.017,1.82-1.666,1.857-3.761
										c0.036-2.094-0.736-3.806-1.724-3.823C253.354,141.496,252.523,143.18,252.486,145.273z"/>
								</g>
							</g>
						</g>
					</g>
				</g>
			</g>
		</g>
	</g>
	<g>
		<g>
			<path style="fill:#3F2037;" d="M362.574,215.285c0,0-23.968,4.819-24.981-15.363c-0.438-8.735-1.616-7.369-9.254-14.735
				c-7.638-7.365-7.638-10.366-6.001-17.186c1.637-6.82,8.515-9.163,5.116-15.465c-4.478-8.301-3.105-22.489,6.626-28.02
				c9.406-5.347,10.465-5.275,10.465-10.758c0-7.16,7.435-18.7,22.775-17.501c13.194,1.03,11.144-5.389,20.497-8.25
				c17.418-5.327,25.858,9.759,31.859,10.305c6.001,0.546,16.386,0.648,21.657,8.624c6.537,9.891,0.762,17.965,8.946,18.783
				c8.184,0.818,16.368,7.911,16.095,15.276c-0.273,7.365-4.637,13.64-1.637,16.913c3.001,3.273,4.164,22.661-7.945,26.371
				c-16.548,5.07,0,29.568-30.433,29.114C399.004,212.984,362.574,215.285,362.574,215.285z"/>
		</g>
		<g>
			<g>
				<path style="fill:#0075CF;" d="M461.003,234.129h-137.2c0,0,1.378-17.118,9.662-20.428c1.713-0.685,4.563-2.022,8.005-3.71
					c0.477-0.234,0.966-0.474,1.463-0.721c0.003-0.003,0.008-0.003,0.01-0.005c0.879-0.436,1.788-0.889,2.721-1.358
					c6.673-3.347,14.521-7.42,20.632-10.62c0.714-0.374,1.402-0.734,2.061-1.079c4.844-2.546,8.172-4.315,8.172-4.315l1.049,0.234
					c9.754,2.185,19.877,2.105,29.593-0.234c0,0,3.452,1.778,8.464,4.331c0.064,0.033,0.126,0.064,0.191,0.098
					c3.025,1.543,6.603,3.36,10.326,5.233c10.007,5.04,21.049,10.491,25.19,12.148C459.625,217.011,461.003,234.129,461.003,234.129
					z"/>
			</g>
		</g>
		<g>
			<path style="fill:#0056A8;" d="M393.76,224.993c-3.404,0-6.362-0.492-8.728-1.105c-5.902-1.531-9.42-4.072-9.567-4.179
				c-0.334-0.245-0.407-0.714-0.163-1.048c0.245-0.335,0.714-0.407,1.048-0.163c0.054,0.039,3.495,2.507,9.123,3.955
				c5.192,1.336,13.373,2.052,22.859-2.121c0.379-0.167,0.822,0.005,0.989,0.385c0.167,0.379-0.005,0.822-0.385,0.988
				C403.341,224.165,398.175,224.993,393.76,224.993z"/>
		</g>
		<g>
			<path style="fill:#FFB8A1;" d="M415.635,196.222c-1.618,7.036-6.838,20.179-23.232,20.179c-17.458,0-22.618-14.018-24.046-20.194
				c4.844-2.546,8.172-4.315,8.172-4.315l1.049,0.234c9.754,2.185,19.877,2.105,29.593-0.234
				C407.171,191.891,410.624,193.669,415.635,196.222z"/>
		</g>
		<g>
			<path style="fill:#FFB8A1;" d="M351.384,234.129h-27.581c0,0,1.378-17.118,9.662-20.428c1.713-0.685,4.563-2.022,8.005-3.71
				c0.477-0.234,0.966-0.474,1.463-0.721c0.003-0.003,0.008-0.003,0.01-0.005c0.879-0.436,1.788-0.889,2.721-1.358
				C347.725,213.66,351.144,224.548,351.384,234.129z"/>
		</g>
		<g>
			<path style="fill:#FFB8A1;" d="M433.423,234.129h27.581c0,0-1.378-17.118-9.662-20.428c-1.713-0.685-4.563-2.022-8.005-3.71
				c-0.477-0.234-0.966-0.474-1.463-0.721c-0.003-0.003-0.008-0.003-0.01-0.005c-0.879-0.436-1.788-0.889-2.721-1.358
				C437.081,213.66,433.662,224.548,433.423,234.129z"/>
		</g>
		<g>
			<g>
				<g>
					<g>
						<g>
							<g>
								<path style="fill:#FFB8A1;" d="M407.871,195.385c0,0-2.691,8.458-15.055,8.458c-14.421,0-17.815-7.689-17.815-7.689
									c1.253-3.322,2.114-6.397,2.695-9.146h0.004c1.069-5.036,1.219-8.992,1.153-11.418l25.335-1.003
									c0.235,2.145,0.615,4.671,1.046,7.212C406.379,188.546,407.871,195.385,407.871,195.385z"/>
							</g>
						</g>
					</g>
				</g>
				<g>
					<g>
						<g>
							<g>
								<path style="fill:#3F2037;" d="M405.234,181.798c-3.925,2.73-12.506,6.793-27.534,5.209
									c1.069-5.036,1.219-8.992,1.153-11.418l25.335-1.003C404.422,176.732,404.803,179.257,405.234,181.798z"/>
							</g>
						</g>
					</g>
				</g>
			</g>
			<g>
				<g>
					<g>
						<g>
							<g>
								<g>
									<path style="fill:#FFB8A1;" d="M418.78,143.991c0,0,5.935-8.079,10.552-3.297c4.616,4.781-4.286,21.433-12.365,17.806
										L418.78,143.991z"/>
								</g>
							</g>
						</g>
					</g>
					<g>
						<g>
							<path style="fill:#FFF7F1;" d="M416.327,158.337c-3.787,1.84-6.405,5.725-6.405,10.208c0,6.256,5.089,11.347,11.344,11.347
								c6.256,0,11.344-5.091,11.344-11.347c0-5.617-4.104-10.29-9.471-11.184c-0.51-0.088-1.031-0.137-1.559-0.152
								c0.036-0.443,0.131-0.866,0.271-1.281c0.876,0.039,1.729,0.17,2.548,0.381c5.457,1.396,9.499,6.351,9.499,12.236
								c0,6.967-5.666,12.635-12.632,12.635c-6.967,0-12.632-5.668-12.632-12.635c0-5.284,3.262-9.821,7.879-11.702L416.327,158.337
								z"/>
						</g>
					</g>
					<g>
						<g>
							<g>
								<g>
									<path style="fill:#FF8A8A;" d="M421.168,153.538c-0.019,0-0.038-0.001-0.057-0.004c-0.224-0.031-0.381-0.238-0.35-0.462
										c0.826-5.945,5.408-9.485,5.603-9.633c0.181-0.137,0.437-0.102,0.574,0.079c0.137,0.18,0.102,0.437-0.078,0.574
										c-0.045,0.034-4.508,3.491-5.287,9.092C421.545,153.39,421.369,153.538,421.168,153.538z"/>
								</g>
							</g>
						</g>
					</g>
					<g>
						<g>
							<g>
								<g>
									<path style="fill:#FF8A8A;" d="M422.411,149.507c-0.079,0-0.159-0.023-0.23-0.07c-0.187-0.127-0.237-0.382-0.11-0.569
										c0.978-1.446,3.629-1.297,3.742-1.291c0.226,0.014,0.397,0.209,0.383,0.434c-0.014,0.226-0.211,0.4-0.434,0.384
										c-0.637-0.038-2.418,0.054-3.012,0.932C422.671,149.443,422.542,149.507,422.411,149.507z"/>
								</g>
							</g>
						</g>
					</g>
				</g>
			</g>
			<g>
				<g>
					<g>
						<g>
							<g>
								<g>
									<path style="fill:#FFB8A1;" d="M367.302,143.991c0,0-5.935-8.079-10.552-3.297c-4.617,4.781,4.286,21.433,12.365,17.806
										L367.302,143.991z"/>
								</g>
							</g>
						</g>
					</g>
					<g>
						<g>
							<path style="fill:#FFF7F1;" d="M368.909,156.843c4.617,1.881,7.879,6.418,7.879,11.702c0,6.967-5.665,12.635-12.632,12.635
								s-12.632-5.668-12.632-12.635c0-5.885,4.042-10.839,9.499-12.236c0.819-0.211,1.672-0.343,2.548-0.381
								c0.139,0.415,0.234,0.837,0.271,1.281c-0.528,0.015-1.049,0.064-1.559,0.152c-5.367,0.894-9.471,5.568-9.471,11.184
								c0,6.256,5.089,11.347,11.344,11.347s11.344-5.091,11.344-11.347c0-4.483-2.618-8.368-6.405-10.208L368.909,156.843z"/>
						</g>
					</g>
					<g>
						<g>
							<path style="fill:#FFF7F1;" d="M368.909,156.843c4.617,1.881,7.879,6.418,7.879,11.702c0,6.967-5.665,12.635-12.632,12.635
								s-12.632-5.668-12.632-12.635c0-5.885,4.042-10.839,9.499-12.236c0.819-0.211,1.672-0.343,2.548-0.381
								c0.139,0.415,0.234,0.837,0.271,1.281c-0.528,0.015-1.049,0.064-1.559,0.152c-5.367,0.894-9.471,5.568-9.471,11.184
								c0,6.256,5.089,11.347,11.344,11.347s11.344-5.091,11.344-11.347c0-4.483-2.618-8.368-6.405-10.208L368.909,156.843z"/>
						</g>
					</g>
					<g>
						<g>
							<g>
								<g>
									<path style="fill:#FF8A8A;" d="M364.914,153.538c0.019,0,0.038-0.001,0.057-0.004c0.224-0.031,0.381-0.238,0.35-0.462
										c-0.826-5.945-5.408-9.485-5.603-9.633c-0.181-0.137-0.437-0.102-0.574,0.079c-0.137,0.18-0.102,0.437,0.078,0.574
										c0.045,0.034,4.508,3.491,5.287,9.092C364.537,153.39,364.713,153.538,364.914,153.538z"/>
								</g>
							</g>
						</g>
					</g>
					<g>
						<g>
							<g>
								<g>
									<path style="fill:#FF8A8A;" d="M363.671,149.507c0.079,0,0.159-0.023,0.229-0.07c0.187-0.127,0.237-0.382,0.11-0.569
										c-0.978-1.446-3.629-1.297-3.742-1.291c-0.226,0.014-0.397,0.209-0.383,0.434c0.013,0.226,0.211,0.4,0.434,0.384
										c0.637-0.038,2.418,0.054,3.012,0.932C363.411,149.443,363.54,149.507,363.671,149.507z"/>
								</g>
							</g>
						</g>
					</g>
				</g>
			</g>
			<g>
				<g>
					<g>
						<g>
							<path style="fill:#FFB8A1;" d="M421.788,145.305c-0.428,16.44-9.355,38.698-28.975,38.234
								c-17.36-0.407-25.981-16.881-28.081-31.909c-0.175-1.268-0.307-2.527-0.392-3.764c-1.672-24.229,7.964-36.629,28.655-37.307
								c1.162-0.039,2.36-0.039,3.594-0.003c1.067,0.031,6.245,0.881,7.237,1.206C418.132,116.452,422.236,128.015,421.788,145.305z
								"/>
						</g>
					</g>
				</g>
			</g>
			<g style="opacity:0.5;">
				<g>
					<path style="fill:#FF8A8A;" d="M383.03,155.161c0,1.896-3.5,3.432-7.817,3.432c-4.317,0-7.817-1.537-7.817-3.432
						c0-1.896,3.5-3.433,7.817-3.433C379.53,151.729,383.03,153.266,383.03,155.161z"/>
				</g>
			</g>
			<g style="opacity:0.5;">
				<g>
					<path style="fill:#FF8A8A;" d="M419.808,155.161c0,1.896-3.5,3.432-7.817,3.432c-4.317,0-7.817-1.537-7.817-3.432
						c0-1.896,3.5-3.433,7.817-3.433C416.308,151.729,419.808,153.266,419.808,155.161z"/>
				</g>
			</g>
			<g>
				<g>
					<path style="fill:#3F2037;" d="M381.552,125.364c-5.086,0.386-3.557,6.278-8.564,9.159c-5.496,3.162-4.818,5.055-3.487,9.487
						c1.978,6.585-4.523,8.152-4.523,8.152c-0.082-0.173-0.165-0.35-0.245-0.531c-0.175-1.268-0.307-2.527-0.392-3.764
						c-1.672-24.229,6.07-38.348,28.655-37.307C395.797,121.169,388.357,124.847,381.552,125.364z"/>
				</g>
				<g>
					<path style="fill:#3F2037;" d="M404.013,123.625c6.762-0.107,4.4,6.892,8.393,10.112c4.936,3.981,6.555,2.289,4.387,8.812
						c-2.243,6.745,4.205,9.613,4.205,9.613c0.082-0.173,0.165-0.35,0.245-0.531c0.175-1.268,0.307-2.527,0.392-3.764
						c1.672-24.229-6.522-38.283-28.655-37.307C390.179,121.169,397.19,123.733,404.013,123.625z"/>
				</g>
			</g>
			<g>
				<path style="fill:#3F2037;" d="M386.258,133.748c-2.653,0.06-8.438,0.769-11.04,5.586c0,0,5.978-2.84,10.981-2.536
					c0.956,0.058,1.727-0.768,1.605-1.718l0,0C387.703,134.307,387.038,133.73,386.258,133.748z"/>
			</g>
			<g>
				<path style="fill:#3F2037;" d="M400.946,133.748c2.653,0.06,8.438,0.769,11.04,5.586c0,0-5.978-2.84-10.981-2.536
					c-0.956,0.058-1.728-0.768-1.605-1.718h0C399.5,134.307,400.166,133.73,400.946,133.748z"/>
			</g>
			<g>
				<path style="fill:#FF8A8A;" d="M394.381,161.331c-0.929,0-1.948-0.243-3.07-0.73c-0.307-0.133-0.488-0.453-0.445-0.785
					l1.568-12.045c0.053-0.411,0.427-0.7,0.841-0.647c0.411,0.053,0.7,0.43,0.647,0.84l-1.493,11.469
					c1.554,0.573,2.754,0.525,3.744-0.143c0.343-0.232,0.81-0.141,1.041,0.202c0.232,0.343,0.141,0.81-0.203,1.041
					C396.222,161.065,395.351,161.331,394.381,161.331z"/>
			</g>
			<g>
				<path style="fill:#FF8A8A;" d="M392.893,169.294c-0.659,0-1.281-0.041-1.854-0.107c-3.428-0.395-5.825-1.716-5.925-1.772
					c-0.362-0.202-0.491-0.659-0.289-1.02c0.202-0.361,0.658-0.491,1.02-0.29l0,0c0.362,0.2,8.94,4.834,16.365-2.036
					c0.304-0.282,0.779-0.263,1.06,0.041c0.281,0.304,0.263,0.779-0.041,1.06C399.697,168.437,395.9,169.294,392.893,169.294z"/>
			</g>
			<g>
				<path style="fill:#FF8A8A;" d="M394.202,173.692c-1.745,0-3.144-0.426-3.241-0.457c-0.396-0.123-0.616-0.544-0.492-0.939
					c0.123-0.395,0.543-0.616,0.939-0.493c0.042,0.013,3.474,1.047,5.891-0.32c0.361-0.204,0.818-0.077,1.022,0.284
					c0.204,0.361,0.077,0.818-0.284,1.022C396.806,173.484,395.42,173.692,394.202,173.692z"/>
			</g>
			<g>
				<g>
					<g>
						<g>
							<g>
								<g>
									<path style="fill:#3F2037;" d="M384.088,145.273c0.036,2.094-0.736,3.806-1.724,3.823c-0.989,0.017-1.82-1.666-1.857-3.761
										c-0.036-2.094,0.736-3.806,1.724-3.823C383.221,141.496,384.052,143.18,384.088,145.273z"/>
								</g>
							</g>
						</g>
					</g>
				</g>
				<g>
					<g>
						<g>
							<g>
								<g>
									<path style="fill:#3F2037;" d="M402.804,145.273c-0.036,2.094,0.736,3.806,1.724,3.823c0.989,0.017,1.82-1.666,1.857-3.761
										c0.036-2.094-0.736-3.806-1.724-3.823C403.672,141.496,402.841,143.18,402.804,145.273z"/>
								</g>
							</g>
						</g>
					</g>
				</g>
			</g>
		</g>
	</g>
	<g>
		<g>
			<path style="fill:#3F2037;" d="M216.844,352.271c0,0-4.171,10.521-1.828,14.085c2.343,3.564,6.852-3.522,6.852-3.522
				s-3.607,12.882,1.417,14.17c5.024,1.288,10.39-9.777,10.39-9.777S224.058,347.633,216.844,352.271z"/>
		</g>
		<g>
			<path style="fill:#3F2037;" d="M271.025,352.271c0,0,4.171,10.521,1.828,14.085c-2.343,3.564-6.852-3.522-6.852-3.522
				s3.607,12.882-1.417,14.17c-5.024,1.288-10.39-9.777-10.39-9.777S263.811,347.633,271.025,352.271z"/>
		</g>
		<g>
			<g>
				<path style="fill:#0075CF;" d="M312.382,426.768h-137.2c0,0,0.124-1.546,0.523-3.798c0.137-0.763,0.301-1.608,0.508-2.502
					c0.381-1.669,0.894-3.512,1.577-5.307c0.322-0.853,0.683-1.693,1.087-2.502c1.067-2.141,2.427-4.05,4.158-5.31
					c0.562-0.412,1.165-0.752,1.809-1.01c0.861-0.345,2.01-0.855,3.378-1.492c2.862-1.329,6.681-3.215,10.821-5.307
					c1.559-0.788,3.161-1.605,4.777-2.432c0.046-0.023,0.09-0.046,0.137-0.07c3.486-1.785,7.021-3.617,10.267-5.31
					c1.064-0.557,2.097-1.095,3.087-1.613c0.582-0.304,1.146-0.6,1.695-0.889c0.085-0.046,0.17-0.09,0.255-0.134
					c4.444-2.332,7.711-4.063,8.477-4.473c0.003-0.003,0.005-0.003,0.008-0.003c0.023-0.013,0.046-0.023,0.064-0.034
					c0.067-0.036,0.1-0.054,0.1-0.054l1.049,0.237c1.311,0.294,2.628,0.546,3.95,0.755c1.306,0.211,2.618,0.381,3.929,0.51
					c7.242,0.711,14.57,0.214,21.681-1.494c0.01-0.003,0.023-0.005,0.034-0.008c0,0,3.262,1.68,8.046,4.12
					c0.368,0.188,0.745,0.381,1.131,0.577c1.528,0.778,3.187,1.621,4.926,2.502c1.574,0.796,3.21,1.623,4.877,2.463
					c1.281,0.644,2.579,1.298,3.878,1.948c0.6,0.301,1.203,0.6,1.801,0.899c1.706,0.853,3.398,1.693,5.04,2.502
					c4.246,2.089,8.152,3.975,11.058,5.307c1.389,0.636,2.551,1.146,3.414,1.492c0.644,0.258,1.247,0.598,1.809,1.01
					c1.731,1.26,3.092,3.169,4.158,5.31c0.405,0.809,0.765,1.649,1.087,2.502c0.683,1.796,1.195,3.638,1.577,5.307
					c0.203,0.894,0.371,1.739,0.508,2.502C312.258,425.223,312.382,426.768,312.382,426.768z"/>
			</g>
		</g>
		<g>
			<g>
				<path style="fill:#0056A8;" d="M272.654,391.729h-58.431c1.688-0.881,3.298-1.724,4.782-2.502h48.723
					C269.255,390.005,270.914,390.848,272.654,391.729z"/>
			</g>
			<g>
				<path style="fill:#0056A8;" d="M288.249,399.541h-89.207c1.559-0.788,3.161-1.605,4.777-2.432
					c0.046-0.023,0.09-0.046,0.137-0.07h79.254C284.915,397.892,286.607,398.732,288.249,399.541z"/>
			</g>
			<g>
				<path style="fill:#0056A8;" d="M304.529,407.35H183.035c0.562-0.412,1.165-0.752,1.809-1.01c0.861-0.345,2.01-0.855,3.378-1.492
					h111.086c1.389,0.636,2.551,1.146,3.414,1.492C303.365,406.598,303.967,406.938,304.529,407.35z"/>
			</g>
			<g>
				<path style="fill:#0056A8;" d="M309.775,415.162H177.789c0.322-0.853,0.683-1.693,1.087-2.502h129.811
					C309.092,413.469,309.453,414.309,309.775,415.162z"/>
			</g>
			<g>
				<path style="fill:#0056A8;" d="M311.859,422.971H175.705c0.137-0.763,0.301-1.608,0.508-2.502h135.139
					C311.555,421.363,311.722,422.208,311.859,422.971z"/>
			</g>
		</g>
		<g>
			<path style="fill:#0056A8;" d="M266.596,388.65c-1.572,5.539-8.371,14.248-22.814,14.248c-14.943,0-23.221-8.072-26.473-12.782
				c0.582-0.304,1.146-0.6,1.695-0.889c0.085-0.046,0.17-0.09,0.255-0.134c4.444-2.332,7.711-4.063,8.477-4.473
				c0.003-0.003,0.005-0.003,0.008-0.003c0.023-0.013,0.046-0.023,0.064-0.034c0.067-0.036,0.1-0.054,0.1-0.054l1.049,0.237
				c1.311,0.294,2.628,0.546,3.95,0.755c1.306,0.211,2.618,0.381,3.929,0.51c7.242,0.711,14.57,0.214,21.681-1.494
				c0.01-0.003,0.023-0.005,0.034-0.008C258.55,384.53,261.812,386.21,266.596,388.65z"/>
		</g>
		<g>
			<g>
				<g>
					<g>
						<g>
							<g>
								<g>
									<path style="fill:#FFB8A1;" d="M259.248,388.026c0,0-2.691,8.458-15.055,8.458c-14.421,0-17.815-7.689-17.815-7.689
										c1.253-3.322,2.114-6.397,2.695-9.146h0.004c1.069-5.036,1.219-8.992,1.153-11.418l25.335-1.003
										c0.235,2.145,0.615,4.671,1.046,7.212C257.757,381.187,259.248,388.026,259.248,388.026z"/>
								</g>
							</g>
						</g>
					</g>
				</g>
				<g>
					<g>
						<g>
							<g>
								<g>
									<path style="fill:#3F2037;" d="M256.611,374.44c-3.925,2.73-12.506,6.793-27.534,5.209
										c1.069-5.036,1.219-8.992,1.153-11.418l25.335-1.003C255.8,369.373,256.181,371.899,256.611,374.44z"/>
								</g>
							</g>
						</g>
					</g>
				</g>
			</g>
			<g>
				<g>
					<g>
						<g>
							<g>
								<g>
									<g>
										<path style="fill:#FFB8A1;" d="M220.559,335.191c0,0-7.841-10.672-13.939-4.356c-6.098,6.316,5.663,28.314,16.335,23.522
											L220.559,335.191z"/>
									</g>
								</g>
							</g>
						</g>
					</g>
					<g>
						<g>
							<g>
								<g>
									<g>
										<path style="fill:#FF8A8A;" d="M216.82,347.803c-0.266,0-0.498-0.196-0.536-0.467c-1.031-7.415-6.924-11.966-6.984-12.011
											c-0.238-0.181-0.285-0.521-0.104-0.759c0.181-0.238,0.52-0.285,0.759-0.104c0.257,0.195,6.31,4.871,7.402,12.724
											c0.041,0.297-0.165,0.57-0.462,0.611C216.87,347.801,216.845,347.803,216.82,347.803z"/>
									</g>
								</g>
							</g>
						</g>
					</g>
					<g>
						<g>
							<g>
								<g>
									<g>
										<path style="fill:#FF8A8A;" d="M215.177,342.477c-0.173,0-0.344-0.084-0.449-0.238c-0.787-1.164-3.141-1.282-3.978-1.23
											c-0.301,0.021-0.556-0.208-0.574-0.507c-0.019-0.299,0.208-0.556,0.507-0.574c0.149-0.01,3.651-0.205,4.942,1.705
											c0.168,0.248,0.103,0.584-0.145,0.752C215.388,342.447,215.282,342.477,215.177,342.477z"/>
									</g>
								</g>
							</g>
						</g>
					</g>
				</g>
			</g>
			<g>
				<g>
					<g>
						<g>
							<g>
								<g>
									<g>
										<path style="fill:#FFB8A1;" d="M269.052,335.191c0,0,7.841-10.672,13.939-4.356c6.098,6.316-5.663,28.314-16.335,23.522
											L269.052,335.191z"/>
									</g>
								</g>
							</g>
						</g>
					</g>
					<g>
						<g>
							<g>
								<g>
									<g>
										<path style="fill:#FF8A8A;" d="M272.792,347.803c-0.025,0-0.05-0.002-0.075-0.005c-0.297-0.041-0.503-0.315-0.462-0.611
											c1.091-7.854,7.144-12.53,7.401-12.725c0.239-0.181,0.578-0.135,0.759,0.104c0.181,0.238,0.135,0.578-0.103,0.759
											c-0.06,0.045-5.956,4.612-6.984,12.011C273.29,347.607,273.058,347.803,272.792,347.803z"/>
									</g>
								</g>
							</g>
						</g>
					</g>
					<g>
						<g>
							<g>
								<g>
									<g>
										<path style="fill:#FF8A8A;" d="M274.434,342.477c-0.105,0-0.21-0.03-0.303-0.093c-0.248-0.168-0.313-0.504-0.145-0.752
											c1.292-1.909,4.794-1.714,4.943-1.705c0.298,0.019,0.525,0.275,0.506,0.574c-0.018,0.299-0.279,0.528-0.573,0.508
											c-0.842-0.05-3.195,0.071-3.979,1.231C274.778,342.394,274.607,342.477,274.434,342.477z"/>
									</g>
								</g>
							</g>
						</g>
					</g>
				</g>
			</g>
			<g>
				<g>
					<g>
						<g>
							<g>
								<path style="fill:#FFB8A1;" d="M251.054,304.081c-21.933-5.351-37.102,10.831-35.074,35.836
									c1.288,15.883,9.389,35.822,28.212,36.265c19.618,0.462,29.861-18.372,29.861-40.362c0-16.827-5.653-26.18-19.957-30.87
									C253.104,304.626,252.09,304.334,251.054,304.081z"/>
							</g>
						</g>
					</g>
				</g>
			</g>
			<g>
				<path style="fill:#3F2037;" d="M212.947,317.06c0,0-4.336,10.028-2.772,11.832c1.333,1.536,3.381,0.485,3.381,0.485
					s-0.841,10.957,3.806,11.387c4.646,0.429,4.067-20.118,4.067-20.118s7.688,0.215,6.248-6.162c0,0,19.924,3.789,35.297-0.258
					c0,0-0.643,6.145,4.552,6.956c0,0-3.006,18.646,2.491,20.015c5.496,1.369,5.224-11.453,5.224-11.453s2.419,0.026,3.366-0.906
					c2.258-2.223-1.427-14.269-7.474-22.17C264.513,298.019,231.455,281.591,212.947,317.06z"/>
			</g>
			<g>
				<g>
					<path style="fill:#FF4F4E;" d="M278.283,314.725c0,0-1.463-0.325-4.104-0.755c-0.258-0.044-0.526-0.085-0.806-0.131
						c-2.692-0.42-6.395-0.917-10.873-1.309c-0.26-0.023-0.523-0.046-0.788-0.069c-3.2-0.263-6.773-0.471-10.641-0.562
						c-0.258-0.005-0.515-0.01-0.775-0.015c-3.331-0.062-6.871-0.034-10.571,0.124c-0.258,0.01-0.515,0.021-0.776,0.033
						c-3.445,0.162-7.021,0.438-10.69,0.858c-0.263,0.028-0.526,0.059-0.788,0.093c-3.584,0.425-7.25,0.992-10.963,1.724
						c-0.268,0.052-0.536,0.106-0.806,0.162c-1.402,0.283-2.808,0.592-4.22,0.928c0,0,1.652-11.772,11.141-19.813
						c0.515-0.435,1.054-0.863,1.615-1.273c2.579-1.891,5.663-3.496,9.347-4.578c0.309-0.09,0.621-0.178,0.94-0.263
						c2.022-0.531,4.223-0.907,6.611-1.092h0.003c0.26-0.021,0.52-0.036,0.788-0.054c0.853-0.049,1.729-0.075,2.628-0.075
						c1.226,0,2.409,0.044,3.55,0.129c0.268,0.021,0.533,0.041,0.794,0.067c2.412,0.222,4.63,0.629,6.668,1.185
						c0.32,0.085,0.631,0.175,0.94,0.271h0.003c3.736,1.131,6.843,2.764,9.427,4.663l0.003,0.003c0.559,0.407,1.09,0.827,1.597,1.26
						c0,0,0.003,0,0.003,0.003C276.637,303.932,278.283,314.725,278.283,314.725z"/>
				</g>
				<g>
					<g>
						<g>
							<path style="fill:#C42C31;" d="M224.237,294.719c-3.12,5.315-6.562,12.529-7.729,19.996
								c-0.219,1.381-0.358,2.772-0.402,4.161l-0.773-0.023c0.044-1.327,0.17-2.656,0.368-3.975
								c1.033-6.925,4.004-13.64,6.92-18.885C223.137,295.556,223.675,295.128,224.237,294.719z"/>
						</g>
					</g>
					<g>
						<g>
							<path style="fill:#C42C31;" d="M234.525,289.877c-1.968,4.818-5.109,13.606-6.266,23.02
								c-0.242,1.974-0.397,3.975-0.435,5.972l-0.773-0.015c0.039-1.961,0.186-3.927,0.42-5.864
								c1.105-9.216,4.109-17.855,6.114-22.85C233.894,290.05,234.205,289.962,234.525,289.877z"/>
						</g>
					</g>
					<g>
						<g>
							<path style="fill:#C42C31;" d="M241.927,288.731c-0.618,4.385-1.757,13.428-2.203,23.276c-0.103,2.26-0.167,4.56-0.183,6.858
								l-0.773-0.005c0.015-2.285,0.08-4.573,0.18-6.82c0.441-9.78,1.564-18.78,2.187-23.255h0.003
								C241.399,288.764,241.659,288.749,241.927,288.731z"/>
						</g>
					</g>
					<g>
						<g>
							<path style="fill:#C42C31;" d="M251.259,318.86l-0.773,0.005c-0.016-2.339-0.085-4.684-0.191-6.982
								c-0.448-9.757-1.572-18.71-2.19-23.098c0.268,0.021,0.533,0.041,0.794,0.067c0.623,4.473,1.731,13.369,2.172,23.046
								C251.176,314.191,251.243,316.528,251.259,318.86z"/>
						</g>
					</g>
					<g>
						<g>
							<path style="fill:#C42C31;" d="M262.976,318.855l-0.773,0.015c-0.041-2.146-0.216-4.295-0.492-6.41
								c-1.183-9.146-4.205-17.651-6.145-22.423c0.32,0.085,0.631,0.175,0.94,0.271h0.003c1.968,4.934,4.854,13.281,5.99,22.222
								C262.765,314.616,262.935,316.737,262.976,318.855z"/>
						</g>
					</g>
					<g>
						<g>
							<path style="fill:#C42C31;" d="M274.694,318.852l-0.773,0.023c-0.054-1.682-0.247-3.367-0.549-5.037
								c-1.27-7.036-4.475-13.786-7.433-18.865c0.559,0.407,1.09,0.827,1.597,1.26c0,0,0.003,0,0.003,0.003
								c2.744,4.978,5.511,11.238,6.639,17.734C274.462,315.588,274.642,317.221,274.694,318.852z"/>
						</g>
					</g>
				</g>
				<g>
					<path style="fill:#C42C31;" d="M209.835,315.805c0,0-1.831,3.896,0.34,9.617c0,0,21.878-13.086,69.157-0.848
						c0,0,2.961-3.35,0-9.404C279.332,315.17,242.844,299.161,209.835,315.805z"/>
				</g>
			</g>
			<g>
				<g>
					<path style="fill:#FF8A8A;" d="M245.758,353.995c-0.932,0-1.955-0.244-3.08-0.732c-0.316-0.137-0.503-0.467-0.459-0.809
						l1.568-12.045c0.055-0.423,0.445-0.722,0.866-0.667c0.423,0.055,0.722,0.443,0.667,0.866l-1.491,11.451
						c1.538,0.564,2.726,0.514,3.706-0.147c0.354-0.239,0.834-0.145,1.073,0.209c0.239,0.354,0.145,0.834-0.209,1.073
						C247.609,353.729,246.733,353.995,245.758,353.995z"/>
				</g>
			</g>
			<g>
				<g>
					<path style="fill:#FF8A8A;" d="M244.325,361.936c-4.428,0-7.788-1.828-7.845-1.86c-0.373-0.208-0.506-0.679-0.298-1.052
						c0.208-0.373,0.679-0.506,1.052-0.298c0.375,0.207,8.932,4.818,16.338-2.033c0.313-0.29,0.802-0.271,1.092,0.043
						c0.29,0.313,0.271,0.802-0.042,1.092C251.187,361.005,247.484,361.936,244.325,361.936z"/>
				</g>
			</g>
			<g>
				<g>
					<path style="fill:#FF8A8A;" d="M245.579,366.356c-1.749,0-3.15-0.427-3.248-0.458c-0.408-0.127-0.635-0.561-0.508-0.968
						c0.127-0.407,0.56-0.633,0.967-0.508l0,0c0.035,0.011,3.462,1.046,5.874-0.318c0.371-0.21,0.843-0.079,1.053,0.292
						c0.21,0.372,0.079,0.843-0.292,1.053C248.191,366.147,246.8,366.356,245.579,366.356z"/>
				</g>
			</g>
			<g>
				<g>
					<path style="fill:#3F2037;" d="M229.258,332.011c1.664-0.894,4.093-1.998,6.456-2.343c1.269-0.185,2.067-1.461,1.634-2.669
						l-0.087-0.244c-0.312-0.872-1.179-1.42-2.1-1.322c-2.108,0.224-5.843,0.962-8.279,3.39c-0.528,0.526-0.711,1.307-0.487,2.018
						l0,0C226.772,332.043,228.148,332.607,229.258,332.011z"/>
				</g>
			</g>
			<g>
				<g>
					<path style="fill:#3F2037;" d="M261.246,332.011c-1.664-0.894-4.093-1.998-6.456-2.343c-1.269-0.185-2.067-1.461-1.634-2.669
						l0.088-0.244c0.312-0.872,1.179-1.42,2.1-1.322c2.108,0.224,5.843,0.962,8.279,3.39c0.528,0.526,0.711,1.307,0.487,2.018l0,0
						C263.731,332.043,262.355,332.607,261.246,332.011z"/>
				</g>
			</g>
			<g style="opacity:0.5;">
				<g>
					<path style="fill:#FF8A8A;" d="M234.919,345.91c0,1.896-3.5,3.433-7.817,3.433s-7.817-1.537-7.817-3.433
						c0-1.896,3.5-3.432,7.817-3.432S234.919,344.014,234.919,345.91z"/>
				</g>
			</g>
			<g style="opacity:0.5;">
				<g>
					<path style="fill:#FF8A8A;" d="M271.698,345.91c0,1.896-3.5,3.433-7.817,3.433c-4.317,0-7.817-1.537-7.817-3.433
						c0-1.896,3.5-3.432,7.817-3.432C268.198,342.477,271.698,344.014,271.698,345.91z"/>
				</g>
			</g>
			<g>
				<g>
					<g>
						<g>
							<g>
								<g>
									<g>
										<path style="fill:#3F2037;" d="M235.466,337.915c0.036,2.094-0.736,3.806-1.724,3.823
											c-0.989,0.017-1.82-1.666-1.857-3.761c-0.036-2.094,0.736-3.806,1.724-3.823
											C234.598,334.137,235.429,335.821,235.466,337.915z"/>
									</g>
								</g>
							</g>
						</g>
					</g>
				</g>
				<g>
					<g>
						<g>
							<g>
								<g>
									<g>
										<path style="fill:#3F2037;" d="M254.182,337.915c-0.036,2.094,0.736,3.806,1.724,3.823
											c0.989,0.017,1.82-1.666,1.857-3.761c0.036-2.094-0.736-3.806-1.724-3.823
											C255.049,334.137,254.218,335.821,254.182,337.915z"/>
									</g>
								</g>
							</g>
						</g>
					</g>
				</g>
			</g>
		</g>
	</g>
	<g>
		<g>
			<g>
				<path style="fill:#FF4F4E;" d="M460.87,426.77h-137.2c0,0,1.38-17.115,9.662-20.43c3.348-1.337,11.018-5.155,18.975-9.23
					c2.955-1.512,5.948-3.06,8.772-4.53c0.297-0.155,0.595-0.31,0.888-0.462c2.315-1.207,4.503-2.35,6.438-3.367
					c4.262-2.238,7.313-3.858,7.892-4.165c0.068-0.035,0.1-0.052,0.1-0.052l1.048,0.235c1.312,0.295,2.63,0.548,3.95,0.755
					c1.307,0.212,2.617,0.383,3.93,0.51c7.242,0.712,14.57,0.215,21.68-1.493c0.01-0.002,0.022-0.005,0.035-0.007
					c0,0,3.222,1.66,7.957,4.072c1.967,1.005,4.2,2.143,6.57,3.342c0.3,0.15,0.6,0.303,0.903,0.455
					c1.16,0.585,2.347,1.185,3.55,1.79c1.28,0.645,2.577,1.3,3.878,1.947c8.845,4.428,17.703,8.755,21.313,10.2
					C459.49,409.655,460.87,426.77,460.87,426.77z"/>
			</g>
		</g>
		<g>
			<g>
				<path style="fill:#C42C31;" d="M422.47,392.402c-0.47,1.372-1.01,2.775-1.633,4.175c-2.457,5.527-5.68,9.935-9.582,13.103
					c-4.89,3.97-10.85,5.983-17.718,5.983c-14.347,0-23.202-8.408-28.105-15.458c-1.832-2.635-3.262-5.285-4.353-7.625
					c0.297-0.155,0.595-0.31,0.888-0.462c1.073,2.31,2.487,4.932,4.302,7.543c6.932,9.955,16.107,15.003,27.267,15.003
					c12.055,0,20.933-6.223,26.385-18.49c0.63-1.417,1.175-2.837,1.645-4.225C421.867,392.097,422.167,392.25,422.47,392.402z"/>
			</g>
		</g>
		<g>
			<path style="fill:#FFF7F1;" d="M414.997,388.605c-1.728,7.435-8.272,18.745-22.728,18.745c-15.867,0-21.83-12.84-23.865-18.6
				c4.262-2.238,7.313-3.858,7.892-4.165c0.068-0.035,0.1-0.052,0.1-0.052l1.048,0.235c1.312,0.295,2.63,0.548,3.95,0.755
				c1.307,0.212,2.617,0.383,3.93,0.51c7.242,0.712,14.57,0.215,21.68-1.493c0.01-0.002,0.022-0.005,0.035-0.007
				C407.04,384.532,410.262,386.192,414.997,388.605z"/>
		</g>
		<g>
			<g>
				<g>
					<g>
						<g>
							<g>
								<g>
									<path style="fill:#FFB8A1;" d="M407.737,388.026c0,0-2.691,8.458-15.055,8.458c-14.421,0-17.815-7.689-17.815-7.689
										c1.253-3.322,2.114-6.397,2.695-9.146h0.004c1.069-5.036,1.219-8.992,1.153-11.418l25.335-1.003
										c0.235,2.145,0.615,4.671,1.046,7.212C406.246,381.187,407.737,388.026,407.737,388.026z"/>
								</g>
							</g>
						</g>
					</g>
				</g>
				<g>
					<g>
						<g>
							<g>
								<g>
									<path style="fill:#3F2037;" d="M405.1,374.44c-3.925,2.73-12.506,6.793-27.534,5.209c1.069-5.036,1.219-8.992,1.153-11.418
										l25.335-1.003C404.289,369.373,404.669,371.899,405.1,374.44z"/>
								</g>
							</g>
						</g>
					</g>
				</g>
			</g>
			<g>
				<g>
					<g>
						<g>
							<g>
								<g>
									<g>
										<path style="fill:#FFB8A1;" d="M369.048,335.191c0,0-7.841-10.672-13.939-4.356c-6.098,6.316,5.663,28.314,16.335,23.522
											L369.048,335.191z"/>
									</g>
								</g>
							</g>
						</g>
					</g>
					<g>
						<g>
							<g>
								<g>
									<g>
										<path style="fill:#FF8A8A;" d="M365.309,347.803c-0.266,0-0.498-0.196-0.536-0.467
											c-1.031-7.415-6.924-11.966-6.984-12.011c-0.238-0.181-0.284-0.521-0.103-0.759c0.181-0.238,0.52-0.285,0.759-0.104
											c0.257,0.195,6.31,4.871,7.401,12.724c0.041,0.297-0.165,0.57-0.462,0.611
											C365.359,347.801,365.334,347.803,365.309,347.803z"/>
									</g>
								</g>
							</g>
						</g>
					</g>
					<g>
						<g>
							<g>
								<g>
									<g>
										<path style="fill:#FF8A8A;" d="M363.666,342.477c-0.173,0-0.344-0.084-0.449-0.238c-0.787-1.164-3.141-1.282-3.978-1.23
											c-0.301,0.021-0.556-0.208-0.574-0.507c-0.019-0.299,0.208-0.556,0.507-0.574c0.149-0.01,3.651-0.205,4.943,1.705
											c0.168,0.248,0.103,0.584-0.145,0.752C363.877,342.447,363.771,342.477,363.666,342.477z"/>
									</g>
								</g>
							</g>
						</g>
					</g>
				</g>
			</g>
			<g>
				<g>
					<g>
						<g>
							<g>
								<g>
									<g>
										<path style="fill:#FFB8A1;" d="M416.813,335.191c0,0,7.841-10.672,13.939-4.356c6.098,6.316-5.663,28.314-16.335,23.522
											L416.813,335.191z"/>
									</g>
								</g>
							</g>
						</g>
					</g>
					<g>
						<g>
							<g>
								<g>
									<g>
										<path style="fill:#FF8A8A;" d="M420.553,347.803c-0.025,0-0.05-0.002-0.075-0.005c-0.297-0.041-0.503-0.315-0.462-0.611
											c1.091-7.854,7.144-12.53,7.401-12.725c0.239-0.181,0.578-0.135,0.759,0.104c0.181,0.238,0.135,0.578-0.103,0.759
											c-0.06,0.045-5.956,4.612-6.984,12.011C421.051,347.607,420.819,347.803,420.553,347.803z"/>
									</g>
								</g>
							</g>
						</g>
					</g>
					<g>
						<g>
							<g>
								<g>
									<g>
										<path style="fill:#FF8A8A;" d="M422.195,342.477c-0.105,0-0.21-0.03-0.303-0.093c-0.248-0.168-0.313-0.504-0.145-0.752
											c1.292-1.909,4.794-1.714,4.943-1.705c0.298,0.019,0.525,0.275,0.506,0.574c-0.018,0.299-0.278,0.528-0.573,0.508
											c-0.842-0.05-3.195,0.071-3.979,1.231C422.539,342.394,422.368,342.477,422.195,342.477z"/>
									</g>
								</g>
							</g>
						</g>
					</g>
				</g>
			</g>
			<g>
				<g>
					<g>
						<g>
							<g>
								<path style="fill:#FFB8A1;" d="M397.938,302.098c-22.346-0.01-36.224,11.569-33.73,38.149
									c1.489,15.865,9.649,35.493,28.473,35.936c19.618,0.462,27.49-20.9,30.292-37.106c2.564-14.833-4.981-31.275-19.285-35.964
									C402.697,302.788,399.192,302.098,397.938,302.098z"/>
							</g>
							<g>
								<path style="fill:#3F2037;" d="M363.95,335.395c0,0-2.6-25.195-2.676-30.78c-0.185-13.578,13.515-21.196,33.623-21.152
									c16.216,0.035,18.214,7.135,19.521,12.882c0,0,11.989,0.308,13.818,8.667c1.829,8.36-5.78,33.603-5.78,33.603
									s-2.551-5.811-4.38-14.17c-1.829-8.36-4.208-13.475-9.433-13.581c-5.225-0.105-11.756,0.156-18.809,4.336
									c-7.054,4.18-14.107,4.702-19.071,1.045C370.763,316.246,369.436,328.864,363.95,335.395z"/>
							</g>
						</g>
					</g>
				</g>
			</g>
			<g style="opacity:0.5;">
				<g>
					<path style="fill:#FF8A8A;" d="M383.408,345.91c0,1.896-3.5,3.433-7.817,3.433c-4.317,0-7.817-1.537-7.817-3.433
						c0-1.896,3.5-3.432,7.817-3.432C379.908,342.477,383.408,344.014,383.408,345.91z"/>
				</g>
			</g>
			<g style="opacity:0.5;">
				<g>
					<path style="fill:#FF8A8A;" d="M420.187,345.91c0,1.896-3.5,3.433-7.817,3.433s-7.817-1.537-7.817-3.433
						c0-1.896,3.5-3.432,7.817-3.432S420.187,344.014,420.187,345.91z"/>
				</g>
			</g>
			<g>
				<path style="fill:#3F2037;" d="M423.125,335.395c0,0-0.17,12.266-3.823,27.697c-5.859,24.734-25.96,21.438-25.96,21.438
					s-19.71,3.295-25.568-21.438c-3.653-15.43-3.823-27.697-3.823-27.697l3.21-5.362c0,0,2.249,21.31,10.406,25.002
					c0,0,3.625-5.513,15.775-0.361c12.151-5.153,16.167,0.361,16.167,0.361c8.157-3.692,10.409-25.002,10.409-25.002
					L423.125,335.395z"/>
			</g>
			<g>
				<g>
					<path style="fill:#FF8A8A;" d="M394.247,352.578c-0.932,0-1.955-0.244-3.08-0.733c-0.316-0.137-0.503-0.467-0.459-0.809
						l1.568-12.045c0.055-0.423,0.445-0.722,0.866-0.667c0.423,0.055,0.722,0.443,0.667,0.866l-1.491,11.451
						c1.538,0.564,2.726,0.514,3.706-0.147c0.354-0.239,0.834-0.145,1.073,0.209c0.238,0.354,0.145,0.834-0.209,1.073
						C396.097,352.311,395.221,352.578,394.247,352.578z"/>
				</g>
			</g>
			<g>
				<g>
					<path style="fill:#734669;" d="M392.814,361.936c-4.428,0-7.788-1.828-7.845-1.86c-0.373-0.208-0.506-0.679-0.298-1.052
						c0.208-0.373,0.679-0.506,1.052-0.298c0.375,0.207,8.932,4.818,16.338-2.033c0.313-0.29,0.802-0.271,1.092,0.043
						c0.29,0.313,0.271,0.802-0.043,1.092C399.676,361.005,395.973,361.936,392.814,361.936z"/>
				</g>
			</g>
			<g>
				<g>
					<path style="fill:#734669;" d="M394.068,366.356c-1.749,0-3.151-0.427-3.248-0.458c-0.408-0.127-0.635-0.561-0.508-0.968
						c0.127-0.407,0.56-0.633,0.967-0.508l0,0c0.034,0.011,3.462,1.046,5.874-0.318c0.371-0.21,0.843-0.079,1.053,0.292
						c0.21,0.372,0.079,0.843-0.292,1.053C396.68,366.147,395.289,366.356,394.068,366.356z"/>
				</g>
			</g>
			<g>
				<g>
					<path style="fill:#3F2037;" d="M377.747,332.011c1.664-0.894,4.094-1.998,6.456-2.343c1.269-0.185,2.067-1.461,1.634-2.669
						l-0.087-0.244c-0.312-0.872-1.179-1.42-2.1-1.322c-2.108,0.224-5.843,0.962-8.279,3.39c-0.528,0.526-0.711,1.307-0.487,2.018
						l0,0C375.261,332.043,376.637,332.607,377.747,332.011z"/>
				</g>
			</g>
			<g>
				<g>
					<path style="fill:#3F2037;" d="M409.735,332.011c-1.664-0.894-4.094-1.998-6.456-2.343c-1.269-0.185-2.067-1.461-1.634-2.669
						l0.087-0.244c0.312-0.872,1.179-1.42,2.1-1.322c2.108,0.224,5.843,0.962,8.279,3.39c0.528,0.526,0.711,1.307,0.487,2.018l0,0
						C412.22,332.043,410.844,332.607,409.735,332.011z"/>
				</g>
			</g>
			<g>
				<g>
					<g>
						<g>
							<g>
								<g>
									<g>
										<path style="fill:#3F2037;" d="M383.955,337.915c0.036,2.094-0.736,3.806-1.724,3.823
											c-0.989,0.017-1.82-1.666-1.857-3.761c-0.036-2.094,0.736-3.806,1.724-3.823
											C383.087,334.137,383.918,335.821,383.955,337.915z"/>
									</g>
								</g>
							</g>
						</g>
					</g>
				</g>
				<g>
					<g>
						<g>
							<g>
								<g>
									<g>
										<path style="fill:#3F2037;" d="M402.67,337.915c-0.036,2.094,0.736,3.806,1.724,3.823c0.989,0.017,1.82-1.666,1.857-3.761
											c0.036-2.094-0.736-3.806-1.724-3.823C403.538,334.137,402.707,335.821,402.67,337.915z"/>
									</g>
								</g>
							</g>
						</g>
					</g>
				</g>
			</g>
		</g>
	</g>
	<g>
		<g>
			<g>
				<path style="fill:#3F2037;" d="M166.169,426.771h-137.2c0,0,0.116-1.445,0.484-3.579c0.186-1.067,0.433-2.306,0.76-3.622
					c0.474-1.902,1.116-3.965,1.976-5.9c0.477-1.074,1.02-2.11,1.644-3.058c1.26-1.925,2.834-3.483,4.797-4.269
					c1.713-0.685,4.563-2.022,8.005-3.71c0.477-0.234,0.966-0.474,1.463-0.721c0.003-0.003,0.008-0.003,0.01-0.005
					c0.946-0.469,1.925-0.958,2.932-1.463c1.152-0.577,2.337-1.177,3.54-1.788c5.727-2.909,11.883-6.109,16.881-8.726
					c0.788-0.412,1.546-0.812,2.27-1.193h0.003c0.477-0.25,0.935-0.492,1.381-0.724c0.003-0.003,0.005-0.003,0.005-0.003
					c3.96-2.087,6.575-3.476,6.575-3.476l1.049,0.234c9.754,2.185,19.877,2.105,29.593-0.234c0,0,2.705,1.394,6.804,3.486
					c0.59,0.301,1.208,0.616,1.85,0.943c0.273,0.139,0.549,0.278,0.83,0.42c0,0.003,0.003,0.003,0.003,0.003
					c2.839,1.448,6.106,3.105,9.494,4.81c3.002,1.512,6.096,3.061,9.069,4.532c1.257,0.624,2.491,1.232,3.689,1.816
					c5.416,2.654,10.058,4.849,12.431,5.8c1.948,0.781,3.514,2.324,4.771,4.228c0.634,0.961,1.19,2.015,1.675,3.11
					c0.863,1.94,1.502,4.009,1.976,5.913c0.322,1.291,0.564,2.507,0.747,3.558C166.051,425.308,166.169,426.771,166.169,426.771z"/>
			</g>
			<g>
				<g>
					<g>
						<path style="fill:#734669;" d="M77.999,390.459c0,1.371-1.11,2.481-2.481,2.481c-1.371,0-2.481-1.11-2.481-2.481
							c0-0.67,0.265-1.278,0.696-1.724h0.003c0.477-0.25,0.935-0.492,1.381-0.724c0.003-0.003,0.005-0.003,0.005-0.003
							c0.129-0.021,0.263-0.031,0.397-0.031C76.888,387.978,77.999,389.088,77.999,390.459z"/>
					</g>
					<g>
						<path style="fill:#734669;" d="M89.015,390.459c0,1.37-1.111,2.48-2.48,2.48c-1.37,0-2.48-1.111-2.48-2.48
							s1.111-2.48,2.48-2.48C87.904,387.978,89.015,389.089,89.015,390.459z"/>
					</g>
					<g>
						<path style="fill:#734669;" d="M100.031,390.459c0,1.37-1.11,2.48-2.48,2.48s-2.48-1.111-2.48-2.48s1.111-2.48,2.48-2.48
							S100.031,389.089,100.031,390.459z"/>
					</g>
					<g>
						<path style="fill:#734669;" d="M111.048,390.459c0,1.37-1.111,2.48-2.48,2.48c-1.37,0-2.48-1.111-2.48-2.48
							s1.111-2.48,2.48-2.48C109.938,387.978,111.048,389.089,111.048,390.459z"/>
					</g>
					<g>
						<path style="fill:#734669;" d="M122.066,390.459c0,1.371-1.11,2.481-2.481,2.481c-1.371,0-2.481-1.11-2.481-2.481
							c0-1.219,0.879-2.234,2.038-2.44c0.59,0.301,1.208,0.616,1.85,0.943c0.273,0.139,0.549,0.278,0.83,0.42
							c0,0.003,0.003,0.003,0.003,0.003C121.978,389.709,122.066,390.075,122.066,390.459z"/>
					</g>
				</g>
				<g>
					<g>
						<path style="fill:#734669;" d="M55.965,400.878c0,1.371-1.113,2.481-2.481,2.481c-1.371,0-2.481-1.111-2.481-2.481
							c0-0.149,0.013-0.294,0.039-0.435c1.152-0.577,2.337-1.177,3.54-1.788C55.401,399.061,55.965,399.904,55.965,400.878z"/>
					</g>
					<g>
						<path style="fill:#734669;" d="M66.981,400.879c0,1.37-1.111,2.48-2.48,2.48c-1.37,0-2.48-1.111-2.48-2.48
							s1.111-2.48,2.48-2.48C65.87,398.399,66.981,399.509,66.981,400.879z"/>
					</g>
					<g>
						<path style="fill:#734669;" d="M77.998,400.879c0,1.37-1.111,2.48-2.48,2.48c-1.37,0-2.48-1.111-2.48-2.48
							s1.11-2.48,2.48-2.48C76.887,398.399,77.998,399.509,77.998,400.879z"/>
					</g>
					<g>
						<path style="fill:#734669;" d="M89.015,400.879c0,1.37-1.111,2.48-2.48,2.48c-1.37,0-2.48-1.111-2.48-2.48
							s1.111-2.48,2.48-2.48C87.904,398.399,89.015,399.509,89.015,400.879z"/>
					</g>
					<g>
						<path style="fill:#734669;" d="M100.031,400.879c0,1.37-1.11,2.48-2.48,2.48s-2.48-1.111-2.48-2.48s1.111-2.48,2.48-2.48
							S100.031,399.509,100.031,400.879z"/>
					</g>
					<g>
						<path style="fill:#734669;" d="M111.048,400.879c0,1.37-1.111,2.48-2.48,2.48c-1.37,0-2.48-1.111-2.48-2.48
							s1.111-2.48,2.48-2.48C109.938,398.399,111.048,399.509,111.048,400.879z"/>
					</g>
					<g>
						<path style="fill:#734669;" d="M122.065,400.879c0,1.37-1.11,2.48-2.48,2.48c-1.37,0-2.48-1.111-2.48-2.48
							s1.111-2.48,2.48-2.48C120.955,398.399,122.065,399.509,122.065,400.879z"/>
					</g>
					<g>
						<path style="fill:#734669;" d="M133.082,400.879c0,1.37-1.111,2.48-2.48,2.48c-1.37,0-2.48-1.111-2.48-2.48
							s1.111-2.48,2.48-2.48C131.972,398.399,133.082,399.509,133.082,400.879z"/>
					</g>
					<g>
						<path style="fill:#734669;" d="M144.1,400.878c0,1.371-1.11,2.481-2.481,2.481c-1.371,0-2.481-1.111-2.481-2.481
							c0-0.92,0.502-1.724,1.25-2.151c1.257,0.624,2.491,1.232,3.689,1.816C144.092,400.654,144.1,400.765,144.1,400.878z"/>
					</g>
				</g>
				<g>
					<g>
						<path style="fill:#734669;" d="M33.929,411.3c0,1.113-0.732,2.053-1.739,2.37c0.477-1.074,1.02-2.11,1.644-3.058
							C33.895,410.831,33.929,411.06,33.929,411.3z"/>
					</g>
					<g>
						<path style="fill:#734669;" d="M44.947,411.299c0,1.37-1.111,2.48-2.48,2.48c-1.37,0-2.48-1.11-2.48-2.48
							c0-1.37,1.11-2.48,2.48-2.48C43.836,408.819,44.947,409.929,44.947,411.299z"/>
					</g>
					<g>
						<path style="fill:#734669;" d="M55.964,411.299c0,1.37-1.111,2.48-2.48,2.48s-2.48-1.11-2.48-2.48
							c0-1.37,1.111-2.48,2.48-2.48S55.964,409.929,55.964,411.299z"/>
					</g>
					<g>
						<path style="fill:#734669;" d="M66.981,411.299c0,1.37-1.111,2.48-2.48,2.48c-1.37,0-2.48-1.11-2.48-2.48
							c0-1.37,1.111-2.48,2.48-2.48C65.87,408.819,66.981,409.929,66.981,411.299z"/>
					</g>
					<g>
						<path style="fill:#734669;" d="M77.998,411.299c0,1.37-1.111,2.48-2.48,2.48c-1.37,0-2.48-1.11-2.48-2.48
							c0-1.37,1.11-2.48,2.48-2.48C76.887,408.819,77.998,409.929,77.998,411.299z"/>
					</g>
					<g>
						<path style="fill:#734669;" d="M89.015,411.299c0,1.37-1.111,2.48-2.48,2.48c-1.37,0-2.48-1.11-2.48-2.48
							c0-1.37,1.111-2.48,2.48-2.48C87.904,408.819,89.015,409.929,89.015,411.299z"/>
					</g>
					<g>
						<path style="fill:#734669;" d="M100.031,411.299c0,1.37-1.11,2.48-2.48,2.48s-2.48-1.11-2.48-2.48
							c0-1.37,1.111-2.48,2.48-2.48S100.031,409.929,100.031,411.299z"/>
					</g>
					<g>
						<path style="fill:#734669;" d="M111.048,411.299c0,1.37-1.111,2.48-2.48,2.48c-1.37,0-2.48-1.11-2.48-2.48
							c0-1.37,1.111-2.48,2.48-2.48C109.938,408.819,111.048,409.929,111.048,411.299z"/>
					</g>
					<g>
						<path style="fill:#734669;" d="M122.065,411.299c0,1.37-1.11,2.48-2.48,2.48c-1.37,0-2.48-1.11-2.48-2.48
							c0-1.37,1.111-2.48,2.48-2.48C120.955,408.819,122.065,409.929,122.065,411.299z"/>
					</g>
					<g>
						<path style="fill:#734669;" d="M133.082,411.299c0,1.37-1.111,2.48-2.48,2.48c-1.37,0-2.48-1.11-2.48-2.48
							c0-1.37,1.111-2.48,2.48-2.48C131.972,408.819,133.082,409.929,133.082,411.299z"/>
					</g>
					<g>
						<path style="fill:#734669;" d="M144.099,411.299c0,1.37-1.111,2.48-2.48,2.48s-2.48-1.11-2.48-2.48
							c0-1.37,1.111-2.48,2.48-2.48S144.099,409.929,144.099,411.299z"/>
					</g>
					<g>
						<path style="fill:#734669;" d="M155.116,411.299c0,1.37-1.111,2.48-2.48,2.48c-1.37,0-2.48-1.11-2.48-2.48
							c0-1.37,1.111-2.48,2.48-2.48C154.006,408.819,155.116,409.929,155.116,411.299z"/>
					</g>
					<g>
						<path style="fill:#734669;" d="M162.954,413.68c-1.031-0.301-1.783-1.252-1.783-2.381c0-0.255,0.039-0.5,0.108-0.729
							C161.913,411.531,162.47,412.585,162.954,413.68z"/>
					</g>
				</g>
				<g>
					<g>
						<path style="fill:#734669;" d="M33.929,421.719c0,1.371-1.11,2.481-2.479,2.481c-0.819,0-1.543-0.397-1.997-1.007
							c0.186-1.067,0.433-2.306,0.76-3.622c0.363-0.209,0.786-0.33,1.237-0.33C32.818,419.24,33.929,420.351,33.929,421.719z"/>
					</g>
					<g>
						<path style="fill:#734669;" d="M44.947,421.72c0,1.37-1.111,2.48-2.48,2.48c-1.37,0-2.48-1.111-2.48-2.48s1.11-2.48,2.48-2.48
							C43.836,419.239,44.947,420.35,44.947,421.72z"/>
					</g>
					<g>
						<path style="fill:#734669;" d="M55.964,421.72c0,1.37-1.111,2.48-2.48,2.48s-2.48-1.111-2.48-2.48s1.111-2.48,2.48-2.48
							S55.964,420.35,55.964,421.72z"/>
					</g>
					<g>
						<path style="fill:#734669;" d="M66.981,421.72c0,1.37-1.111,2.48-2.48,2.48c-1.37,0-2.48-1.111-2.48-2.48
							s1.111-2.48,2.48-2.48C65.87,419.239,66.981,420.35,66.981,421.72z"/>
					</g>
					<g>
						<path style="fill:#734669;" d="M77.998,421.72c0,1.37-1.111,2.48-2.48,2.48c-1.37,0-2.48-1.111-2.48-2.48s1.11-2.48,2.48-2.48
							C76.887,419.239,77.998,420.35,77.998,421.72z"/>
					</g>
					<g>
						<path style="fill:#734669;" d="M89.015,421.72c0,1.37-1.111,2.48-2.48,2.48c-1.37,0-2.48-1.111-2.48-2.48
							s1.111-2.48,2.48-2.48C87.904,419.239,89.015,420.35,89.015,421.72z"/>
					</g>
					<g>
						<path style="fill:#734669;" d="M100.031,421.72c0,1.37-1.11,2.48-2.48,2.48s-2.48-1.111-2.48-2.48s1.111-2.48,2.48-2.48
							S100.031,420.35,100.031,421.72z"/>
					</g>
					<g>
						<path style="fill:#734669;" d="M111.048,421.72c0,1.37-1.111,2.48-2.48,2.48c-1.37,0-2.48-1.111-2.48-2.48
							s1.111-2.48,2.48-2.48C109.938,419.239,111.048,420.35,111.048,421.72z"/>
					</g>
					<g>
						<path style="fill:#734669;" d="M122.065,421.72c0,1.37-1.11,2.48-2.48,2.48c-1.37,0-2.48-1.111-2.48-2.48
							s1.111-2.48,2.48-2.48C120.955,419.239,122.065,420.35,122.065,421.72z"/>
					</g>
					<g>
						<path style="fill:#734669;" d="M133.082,421.72c0,1.37-1.111,2.48-2.48,2.48c-1.37,0-2.48-1.111-2.48-2.48
							s1.111-2.48,2.48-2.48C131.972,419.239,133.082,420.35,133.082,421.72z"/>
					</g>
					<g>
						<path style="fill:#734669;" d="M144.099,421.72c0,1.37-1.111,2.48-2.48,2.48s-2.48-1.111-2.48-2.48s1.111-2.48,2.48-2.48
							S144.099,420.35,144.099,421.72z"/>
					</g>
					<g>
						<path style="fill:#734669;" d="M155.116,421.72c0,1.37-1.111,2.48-2.48,2.48c-1.37,0-2.48-1.111-2.48-2.48
							s1.111-2.48,2.48-2.48C154.006,419.239,155.116,420.35,155.116,421.72z"/>
					</g>
					<g>
						<path style="fill:#734669;" d="M165.677,423.151c-0.448,0.634-1.188,1.049-2.025,1.049c-1.371,0-2.481-1.11-2.481-2.481
							c0-1.368,1.11-2.478,2.481-2.478c0.466,0,0.904,0.129,1.278,0.353C165.252,420.884,165.494,422.1,165.677,423.151z"/>
					</g>
				</g>
			</g>
			<g>
				<path style="fill:#FFB8A1;" d="M118.812,387.849c-2.473,5.671-4.952,11.341-7.436,17.01c-3.2,7.309-6.413,14.616-9.644,21.913
					h-5.542c-4.225-7.278-8.551-14.498-12.813-21.755c-1.724-2.935-3.437-5.877-5.127-8.829c-1.44-2.517-2.834-5.06-4.148-7.644
					c4.527-2.381,7.593-4.009,7.593-4.009l1.049,0.234c9.754,2.185,19.877,2.105,29.593-0.234
					C112.337,384.533,114.898,385.852,118.812,387.849z"/>
			</g>
			<g>
				<path style="fill:#FFF7F1;" d="M111.376,404.858c-3.2,7.309-6.413,14.616-9.644,21.913h-5.542
					c-4.225-7.278-8.551-14.498-12.813-21.755C89.832,406.814,99.885,408.223,111.376,404.858z"/>
			</g>
		</g>
		<g>
			<g>
				<g>
					<g>
						<g>
							<g>
								<path style="fill:#FFB8A1;" d="M113.036,388.026c0,0-2.691,8.458-15.055,8.458c-14.421,0-17.815-7.689-17.815-7.689
									c1.253-3.322,2.114-6.397,2.695-9.146h0.004c1.069-5.036,1.219-8.992,1.153-11.418l25.335-1.003
									c0.235,2.145,0.615,4.671,1.046,7.212C111.544,381.187,113.036,388.026,113.036,388.026z"/>
							</g>
							<g>
								<path style="fill:#FFF7F1;" d="M98.153,400.396c-7.564,0-12.512-3.877-15.33-7.129c-3.041-3.509-4.285-6.972-4.337-7.117
									c-0.092-0.26,0.044-0.546,0.305-0.638c0.26-0.092,0.546,0.044,0.638,0.304c0.012,0.034,1.246,3.455,4.173,6.823
									c3.897,4.484,8.793,6.758,14.551,6.758c13.723,0,17.019-13.392,17.051-13.527c0.063-0.269,0.333-0.436,0.601-0.373
									c0.269,0.063,0.436,0.332,0.373,0.601c-0.034,0.146-0.869,3.62-3.501,7.142C110.236,396.504,105.735,400.396,98.153,400.396
									z"/>
							</g>
						</g>
					</g>
				</g>
				<g>
					<g>
						<g>
							<g>
								<path style="fill:#3F2037;" d="M110.399,374.44c-3.925,2.73-12.506,6.793-27.534,5.209
									c1.069-5.036,1.219-8.992,1.153-11.418l25.335-1.003C109.588,369.373,109.968,371.899,110.399,374.44z"/>
							</g>
						</g>
					</g>
				</g>
			</g>
			<g>
				<g>
					<g>
						<g>
							<g>
								<g>
									<path style="fill:#FFB8A1;" d="M74.347,335.191c0,0-7.841-10.672-13.939-4.356c-6.098,6.316,5.663,28.314,16.335,23.522
										L74.347,335.191z"/>
								</g>
							</g>
						</g>
					</g>
					<g>
						<circle style="fill:#FFF7F1;" cx="67.739" cy="348.778" r="2.182"/>
					</g>
					<g>
						<g>
							<g>
								<g>
									<path style="fill:#FF8A8A;" d="M71.09,347.803c-0.266,0-0.498-0.196-0.536-0.467c-1.031-7.415-6.925-11.966-6.984-12.011
										c-0.238-0.181-0.285-0.521-0.104-0.759c0.181-0.238,0.52-0.285,0.759-0.104c0.257,0.195,6.31,4.871,7.401,12.724
										c0.041,0.297-0.165,0.57-0.462,0.611C71.141,347.801,71.115,347.803,71.09,347.803z"/>
								</g>
							</g>
						</g>
					</g>
					<g>
						<g>
							<g>
								<g>
									<path style="fill:#FF8A8A;" d="M69.448,342.477c-0.174,0-0.345-0.084-0.449-0.238c-0.787-1.164-3.141-1.282-3.978-1.23
										c-0.301,0.021-0.556-0.208-0.574-0.507c-0.019-0.299,0.208-0.556,0.507-0.574c0.149-0.01,3.651-0.205,4.942,1.705
										c0.168,0.248,0.103,0.584-0.145,0.752C69.658,342.447,69.553,342.477,69.448,342.477z"/>
								</g>
							</g>
						</g>
					</g>
				</g>
			</g>
			<g>
				<g>
					<g>
						<g>
							<g>
								<g>
									<path style="fill:#FFB8A1;" d="M122.112,335.191c0,0,7.841-10.672,13.939-4.356c6.099,6.316-5.663,28.314-16.335,23.522
										L122.112,335.191z"/>
								</g>
							</g>
						</g>
					</g>
					<g>
						<circle style="fill:#FFF7F1;" cx="128.121" cy="348.778" r="2.182"/>
					</g>
					<g>
						<g>
							<g>
								<g>
									<path style="fill:#FF8A8A;" d="M125.266,347.803c-0.025,0-0.05-0.002-0.075-0.005c-0.297-0.041-0.503-0.315-0.462-0.611
										c1.091-7.854,7.144-12.53,7.401-12.725c0.239-0.181,0.578-0.135,0.759,0.104c0.181,0.238,0.135,0.578-0.103,0.759
										c-0.06,0.045-5.955,4.612-6.984,12.011C125.765,347.607,125.532,347.803,125.266,347.803z"/>
								</g>
							</g>
						</g>
					</g>
					<g>
						<g>
							<g>
								<g>
									<path style="fill:#FF8A8A;" d="M126.908,342.477c-0.105,0-0.21-0.03-0.303-0.093c-0.248-0.168-0.313-0.504-0.145-0.752
										c1.292-1.909,4.794-1.714,4.943-1.705c0.298,0.019,0.525,0.275,0.506,0.574c-0.018,0.299-0.278,0.528-0.573,0.508
										c-0.842-0.05-3.195,0.071-3.979,1.231C127.252,342.394,127.082,342.477,126.908,342.477z"/>
								</g>
							</g>
						</g>
					</g>
				</g>
			</g>
			<g>
				<g>
					<g>
						<g>
							<path style="fill:#FFB8A1;" d="M101.756,303.198c-23.166-0.676-34.016,11.718-32.249,37.311
								c1.098,15.897,9.649,35.23,28.473,35.673c19.618,0.462,28.546-21.795,28.973-38.236c0.448-17.289-3.657-28.854-17.961-33.543
								C108,304.078,102.822,303.229,101.756,303.198z"/>
						</g>
					</g>
				</g>
			</g>
			<g>
				<g>
					<g>
						<path style="fill:#FF4F4E;" d="M116.452,294.886c-0.131,0.325-0.276,0.652-0.43,0.979c-1.438,3.032-3.877,6.189-7.551,9.368
							H90.384c0,0-6.49-3.584-9.875-9.396c-0.178-0.307-0.35-0.624-0.51-0.943c-2.357-4.707-2.52-10.718,4.05-17.391
							C97.051,264.293,123.656,277.214,116.452,294.886z"/>
					</g>
				</g>
				<g>
					<path style="fill:#C42C31;" d="M116.022,295.865c-1.438,3.032-3.877,6.189-7.551,9.368H90.384c0,0-6.49-3.584-9.875-9.396
						c2.115-1.285,9.7-3.88,17.23-2.074C97.738,293.763,107.615,291.274,116.022,295.865z"/>
				</g>
			</g>
			<g>
				<path style="fill:#FF4F4E;" d="M73.522,328.056c0,0,24.63-6.374,24.63-19.227c0,0,5.664,17.751,24.731,19.227l4.101,3.088
					c0,0,2.19-1.767,3.866-2.244c0,0,4.934-39.065-32.76-33.84c0,0-11.705-2.624-21.348,4.051
					c-13.958,9.662-8.388,30.87-8.388,30.87L73.522,328.056z"/>
			</g>
			<g>
				<g>
					<path style="fill:#FF8A8A;" d="M81.342,345.478c0,0.373-0.302,0.675-0.675,0.675c-0.373,0-0.675-0.302-0.675-0.675
						c0-0.373,0.302-0.675,0.675-0.675C81.04,344.803,81.342,345.105,81.342,345.478z"/>
				</g>
				<g>
					<path style="fill:#FF8A8A;" d="M84.637,347.107c0,0.373-0.302,0.675-0.675,0.675s-0.675-0.302-0.675-0.675
						c0-0.373,0.302-0.675,0.675-0.675S84.637,346.734,84.637,347.107z"/>
				</g>
				<g>
					<path style="fill:#FF8A8A;" d="M81.342,349.453c0,0.373-0.302,0.675-0.675,0.675c-0.373,0-0.675-0.302-0.675-0.675
						s0.302-0.675,0.675-0.675C81.04,348.778,81.342,349.08,81.342,349.453z"/>
				</g>
				<g>
					<path style="fill:#FF8A8A;" d="M86.522,350.128c0,0.373-0.302,0.675-0.675,0.675c-0.373,0-0.675-0.302-0.675-0.675
						c0-0.373,0.302-0.675,0.675-0.675C86.22,349.453,86.522,349.755,86.522,350.128z"/>
				</g>
				<g>
					<path style="fill:#FF8A8A;" d="M89.974,349.453c0,0.373-0.302,0.675-0.675,0.675c-0.373,0-0.675-0.302-0.675-0.675
						s0.302-0.675,0.675-0.675C89.672,348.778,89.974,349.08,89.974,349.453z"/>
				</g>
				<g>
					<path style="fill:#FF8A8A;" d="M88.405,346.153c0,0.373-0.302,0.675-0.675,0.675c-0.373,0-0.675-0.302-0.675-0.675
						c0-0.373,0.302-0.675,0.675-0.675C88.102,345.478,88.405,345.78,88.405,346.153z"/>
				</g>
			</g>
			<g>
				<g>
					<path style="fill:#FF8A8A;" d="M115.69,345.478c0,0.373,0.302,0.675,0.675,0.675c0.373,0,0.675-0.302,0.675-0.675
						c0-0.373-0.302-0.675-0.675-0.675C115.992,344.803,115.69,345.105,115.69,345.478z"/>
				</g>
				<g>
					<path style="fill:#FF8A8A;" d="M112.395,347.107c0,0.373,0.302,0.675,0.675,0.675c0.373,0,0.675-0.302,0.675-0.675
						c0-0.373-0.302-0.675-0.675-0.675C112.697,346.432,112.395,346.734,112.395,347.107z"/>
				</g>
				<g>
					<path style="fill:#FF8A8A;" d="M115.69,349.453c0,0.373,0.302,0.675,0.675,0.675c0.373,0,0.675-0.302,0.675-0.675
						s-0.302-0.675-0.675-0.675C115.992,348.778,115.69,349.08,115.69,349.453z"/>
				</g>
				<g>
					<path style="fill:#FF8A8A;" d="M110.51,350.128c0,0.373,0.302,0.675,0.675,0.675s0.675-0.302,0.675-0.675
						c0-0.373-0.302-0.675-0.675-0.675S110.51,349.755,110.51,350.128z"/>
				</g>
				<g>
					<path style="fill:#FF8A8A;" d="M107.058,349.453c0,0.373,0.302,0.675,0.675,0.675c0.373,0,0.675-0.302,0.675-0.675
						s-0.302-0.675-0.675-0.675C107.36,348.778,107.058,349.08,107.058,349.453z"/>
				</g>
				<g>
					<path style="fill:#FF8A8A;" d="M108.628,346.153c0,0.373,0.302,0.675,0.675,0.675s0.675-0.302,0.675-0.675
						c0-0.373-0.302-0.675-0.675-0.675S108.628,345.78,108.628,346.153z"/>
				</g>
			</g>
			<g>
				<g>
					<path style="fill:#FF4F4E;" d="M70.431,345.061c0,0,4.638-9.79,3.092-17.004l-6.088-3.87
						C67.434,324.187,68.38,339.009,70.431,345.061z"/>
				</g>
				<g>
					<path style="fill:#FF4F4E;" d="M125.975,345.061c0,0-4.638-9.79-3.092-17.004l5.067-1.476
						C127.95,326.58,128.723,338.963,125.975,345.061z"/>
				</g>
			</g>
			<g>
				<path style="fill:#FF4F4E;" d="M78.985,333.381c0,0,1.254-3.103,5.505-5.754c5.371-3.349,9.242,2.412,9.242,2.412
					s-4.214-1.467-7.45-0.437C83.116,330.61,78.985,333.381,78.985,333.381z"/>
			</g>
			<g>
				<path style="fill:#FF4F4E;" d="M118.564,333.381c0,0-1.254-3.103-5.505-5.754c-5.371-3.349-9.242,2.412-9.242,2.412
					s4.214-1.467,7.45-0.437C114.433,330.61,118.564,333.381,118.564,333.381z"/>
			</g>
			<g>
				<path style="fill:#FF8A8A;" d="M99.545,353.972c-0.929,0-1.948-0.243-3.07-0.73c-0.307-0.133-0.488-0.453-0.445-0.785
					l1.569-12.045c0.054-0.411,0.431-0.701,0.841-0.647c0.411,0.053,0.7,0.43,0.647,0.84l-1.493,11.469
					c1.554,0.573,2.754,0.525,3.744-0.143c0.344-0.232,0.81-0.141,1.041,0.203c0.232,0.343,0.141,0.81-0.202,1.041
					C101.388,353.707,100.516,353.972,99.545,353.972z"/>
			</g>
			<g>
				<path style="fill:#FF8A8A;" d="M98.058,361.935c-0.66,0-1.281-0.041-1.854-0.107c-3.428-0.395-5.825-1.716-5.925-1.772
					c-0.362-0.202-0.491-0.659-0.289-1.021c0.202-0.361,0.658-0.491,1.02-0.29l0,0c0.361,0.201,8.94,4.833,16.366-2.036
					c0.304-0.281,0.778-0.263,1.06,0.041c0.281,0.304,0.263,0.779-0.041,1.06C104.862,361.078,101.066,361.935,98.058,361.935z"/>
			</g>
			<g>
				<path style="fill:#FF8A8A;" d="M99.367,366.333c-1.745,0-3.144-0.426-3.241-0.457c-0.395-0.123-0.616-0.544-0.493-0.939
					c0.123-0.395,0.544-0.616,0.939-0.493c0.051,0.015,3.477,1.045,5.891-0.32c0.36-0.204,0.818-0.077,1.022,0.284
					c0.204,0.361,0.077,0.818-0.284,1.022C101.971,366.125,100.585,366.333,99.367,366.333z"/>
			</g>
			<g>
				<g>
					<g>
						<g>
							<g>
								<g>
									<path style="fill:#3F2037;" d="M89.253,337.915c0.036,2.094-0.736,3.806-1.724,3.823c-0.989,0.017-1.82-1.666-1.857-3.761
										c-0.036-2.094,0.736-3.806,1.724-3.823C88.386,334.137,89.217,335.821,89.253,337.915z"/>
								</g>
							</g>
						</g>
					</g>
				</g>
				<g>
					<g>
						<g>
							<g>
								<g>
									<path style="fill:#3F2037;" d="M107.969,337.915c-0.036,2.094,0.736,3.806,1.724,3.823c0.989,0.017,1.82-1.666,1.857-3.761
										c0.036-2.094-0.736-3.806-1.724-3.823C108.837,334.137,108.006,335.821,107.969,337.915z"/>
								</g>
							</g>
						</g>
					</g>
				</g>
			</g>
		</g>
		<g>
			<g>
				<path style="fill:#FFFFFF;" d="M85.54,352.602c-6.375,0-11.561-5.186-11.561-11.561c0-6.374,5.186-11.56,11.561-11.56
					c6.375,0,11.561,5.186,11.561,11.56C97.101,347.416,91.915,352.602,85.54,352.602z M85.54,330.481
					c-5.823,0-10.561,4.737-10.561,10.56c0,5.823,4.738,10.561,10.561,10.561c5.823,0,10.561-4.738,10.561-10.561
					C96.101,335.218,91.363,330.481,85.54,330.481z"/>
			</g>
			<g>
				<path style="fill:#FFFFFF;" d="M111.551,352.602c-6.375,0-11.561-5.186-11.561-11.561c0-6.374,5.186-11.56,11.561-11.56
					c6.375,0,11.561,5.186,11.561,11.56C123.112,347.416,117.926,352.602,111.551,352.602z M111.551,330.481
					c-5.823,0-10.561,4.737-10.561,10.56c0,5.823,4.738,10.561,10.561,10.561c5.823,0,10.561-4.738,10.561-10.561
					C122.112,335.218,117.375,330.481,111.551,330.481z"/>
			</g>
			<g>
				<path style="fill:#FFFFFF;" d="M75.787,336.321c-0.168,0-0.332-0.085-0.427-0.239c-0.032-0.052-3.233-5.2-8.104-7.047
					c-0.258-0.098-0.388-0.386-0.29-0.645c0.098-0.258,0.386-0.389,0.645-0.29c5.197,1.97,8.465,7.236,8.602,7.459
					c0.144,0.235,0.07,0.543-0.165,0.687C75.967,336.297,75.876,336.321,75.787,336.321z"/>
			</g>
			<g>
				<path style="fill:#FFFFFF;" d="M122.19,336.321c-0.094,0-0.188-0.026-0.272-0.081c-0.231-0.151-0.297-0.46-0.146-0.692
					c0.152-0.233,3.771-5.724,8.961-7.692c0.258-0.098,0.547,0.032,0.645,0.29c0.098,0.258-0.032,0.547-0.29,0.645
					c-4.879,1.85-8.442,7.248-8.477,7.303C122.513,336.241,122.353,336.321,122.19,336.321z"/>
			</g>
			<g>
				<path style="fill:#FFFFFF;" d="M100.49,339.969c-0.253,0-0.47-0.191-0.497-0.448c-0.017-0.149-0.207-1.479-1.542-1.479
					c-1.317,0-1.453,1.312-1.464,1.462c-0.021,0.274-0.258,0.485-0.534,0.463c-0.274-0.019-0.482-0.255-0.464-0.529
					c0.053-0.828,0.636-2.395,2.462-2.395c1.811,0,2.451,1.554,2.536,2.375c0.028,0.275-0.171,0.52-0.446,0.549
					C100.525,339.969,100.507,339.969,100.49,339.969z"/>
			</g>
		</g>
	</g>
</g>
</svg>
