<?xml version="1.0" encoding="UTF-8" standalone="no"?>
<!-- Created with Inkscape (http://www.inkscape.org/) -->

<svg
   xmlns:dc="http://purl.org/dc/elements/1.1/"
   xmlns:cc="http://creativecommons.org/ns#"
   xmlns:rdf="http://www.w3.org/1999/02/22-rdf-syntax-ns#"
   xmlns:svg="http://www.w3.org/2000/svg"
   xmlns="http://www.w3.org/2000/svg"
   xmlns:sodipodi="http://sodipodi.sourceforge.net/DTD/sodipodi-0.dtd"
   xmlns:inkscape="http://www.inkscape.org/namespaces/inkscape"
   width="181mm"
   height="181mm"
   viewBox="0 0 181 181"
   version="1.1"
   id="svg4301"
   inkscape:version="0.92.4 (5da689c313, 2019-01-14)"
   sodipodi:docname="cha1.svg">
  <defs
     id="defs4295" />
  <sodipodi:namedview
     id="base"
     pagecolor="#ffffff"
     bordercolor="#666666"
     borderopacity="1.0"
     inkscape:pageopacity="0.0"
     inkscape:pageshadow="2"
     inkscape:zoom="0.7"
     inkscape:cx="436.19793"
     inkscape:cy="351.43754"
     inkscape:document-units="mm"
     inkscape:current-layer="layer1"
     showgrid="false"
     inkscape:window-width="1366"
     inkscape:window-height="745"
     inkscape:window-x="-8"
     inkscape:window-y="-8"
     inkscape:window-maximized="1"
     inkscape:snap-global="false" />
  <metadata
     id="metadata4298">
    <rdf:RDF>
      <cc:Work
         rdf:about="">
        <dc:format>image/svg+xml</dc:format>
        <dc:type
           rdf:resource="http://purl.org/dc/dcmitype/StillImage" />
        <dc:title></dc:title>
      </cc:Work>
    </rdf:RDF>
  </metadata>
  <g
     inkscape:label="Layer 1"
     inkscape:groupmode="layer"
     id="layer1"
     transform="translate(0,-116)">
    <rect
       style="opacity:1;fill:#ffffff;fill-opacity:1;stroke:none;stroke-width:2.43443346;stroke-miterlimit:4;stroke-dasharray:none;stroke-opacity:1"
       id="rect12114"
       width="182.18452"
       height="182.18452"
       x="-0.75595248"
       y="115.19345" />
    <g
       transform="matrix(1.1159301,0,0,1.1159301,-14.384512,34.964862)"
       id="g2836">
      <g
         id="g2562">
        <g
           id="g2560">
          <path
             inkscape:connector-curvature="0"
             style="fill:#ff9a40"
             d="m 58.483,207.424 c 0,0 -10.181,-8.566 -4.158,-22.549 6.023,-13.984 23.619,-16.049 40.561,-16.054 25.845,-0.008 56.717,8.888 36.121,38.603 -0.001,0 -25.643,16.959 -72.524,0 z"
             id="path2558" />
        </g>
      </g>
      <g
         id="g2568">
        <g
           id="g2566">
          <path
             inkscape:connector-curvature="0"
             style="fill:#e96d17"
             d="m 83.975,190.677 c -0.326,0 -0.63,-0.208 -0.735,-0.536 -1.889,-5.85 -7.103,-9.528 -7.155,-9.565 -0.35,-0.244 -0.437,-0.725 -0.194,-1.076 0.243,-0.35 0.724,-0.438 1.075,-0.195 0.231,0.16 5.691,4.001 7.745,10.36 0.131,0.406 -0.092,0.842 -0.498,0.973 -0.079,0.027 -0.159,0.039 -0.238,0.039 z"
             id="path2564" />
        </g>
      </g>
      <g
         id="g2574">
        <g
           id="g2572">
          <path
             inkscape:connector-curvature="0"
             style="fill:#e96d17"
             d="m 94.938,201.072 c -0.254,0 -0.504,-0.125 -0.651,-0.355 -6.74,-10.498 -26.796,-13.54 -26.998,-13.569 -0.422,-0.062 -0.715,-0.454 -0.653,-0.877 0.062,-0.422 0.453,-0.715 0.876,-0.653 0.852,0.124 20.954,3.172 28.076,14.264 0.231,0.359 0.127,0.837 -0.233,1.068 -0.129,0.083 -0.274,0.122 -0.417,0.122 z"
             id="path2570" />
        </g>
      </g>
      <g
         id="g2580">
        <g
           id="g2578">
          <path
             inkscape:connector-curvature="0"
             style="fill:#ff9a40"
             d="m 164.474,234.128 h -137.2 c 0,0 1.378,-17.115 9.662,-20.429 3.347,-1.34 11.017,-5.155 18.975,-9.231 11.12,-5.694 22.796,-11.89 23.989,-12.524 0.067,-0.036 0.101,-0.054 0.101,-0.054 l 1.049,0.237 c 1.311,0.294 2.628,0.546 3.95,0.755 1.306,0.211 2.618,0.381 3.929,0.51 7.242,0.711 14.57,0.214 21.681,-1.494 0.01,-0.003 0.023,-0.005 0.033,-0.008 0,0 8.974,4.625 18.981,9.662 1.281,0.644 2.579,1.298 3.878,1.948 8.845,4.426 17.703,8.755 21.312,10.2 8.279,3.313 9.66,20.428 9.66,20.428 z"
             id="path2576" />
        </g>
      </g>
      <g
         id="g2606">
        <g
           id="g2592">
          <g
             id="g2590">
            <g
               id="g2588">
              <g
                 id="g2586">
                <g
                   id="g2584">
                  <path
                     inkscape:connector-curvature="0"
                     style="fill:#e96d17"
                     d="m 102.241,212.342 c -7.548,0 -13.813,-1.987 -18.257,-4.029 -7.037,-3.232 -11.046,-7.188 -11.213,-7.355 -0.282,-0.282 -0.283,-0.738 -0.001,-1.021 0.281,-0.283 0.738,-0.284 1.021,-0.002 0.04,0.039 4.03,3.968 10.848,7.09 6.27,2.869 16.294,5.626 28.442,2.462 0.387,-0.101 0.78,0.131 0.881,0.517 0.1,0.386 -0.131,0.78 -0.517,0.881 -3.971,1.034 -7.725,1.457 -11.204,1.457 z"
                     id="path2582" />
                </g>
              </g>
            </g>
          </g>
        </g>
        <g
           id="g2604">
          <g
             id="g2602">
            <g
               id="g2600">
              <g
                 id="g2598">
                <g
                   id="g2596">
                  <path
                     inkscape:connector-curvature="0"
                     style="fill:#e96d17"
                     d="m 98.683,219.301 c -2.434,0 -5.106,-0.244 -7.994,-0.847 -0.391,-0.081 -0.641,-0.464 -0.56,-0.854 0.082,-0.391 0.466,-0.64 0.855,-0.56 14.262,2.978 23.179,-3.276 23.267,-3.339 0.324,-0.233 0.775,-0.159 1.008,0.165 0.233,0.324 0.159,0.775 -0.165,1.008 -0.308,0.221 -6.308,4.427 -16.411,4.427 z"
                     id="path2594" />
                </g>
              </g>
            </g>
          </g>
        </g>
      </g>
      <g
         id="g2822">
        <g
           id="g2632">
          <g
             id="g2618">
            <g
               id="g2616">
              <g
                 id="g2614">
                <g
                   id="g2612">
                  <g
                     id="g2610">
                    <path
                       inkscape:connector-curvature="0"
                       style="fill:#ffb8a1"
                       d="m 111.34,195.385 c 0,0 -2.691,8.458 -15.055,8.458 -14.421,0 -17.815,-7.689 -17.815,-7.689 1.253,-3.322 2.114,-6.397 2.695,-9.146 h 0.004 c 1.069,-5.036 1.219,-8.992 1.153,-11.418 l 25.335,-1.003 c 0.235,2.145 0.615,4.671 1.046,7.212 1.146,6.747 2.637,13.586 2.637,13.586 z"
                       id="path2608" />
                  </g>
                </g>
              </g>
            </g>
          </g>
          <g
             id="g2630">
            <g
               id="g2628">
              <g
                 id="g2626">
                <g
                   id="g2624">
                  <g
                     id="g2622">
                    <path
                       inkscape:connector-curvature="0"
                       style="fill:#3f2037"
                       d="m 108.703,181.798 c -3.925,2.73 -12.506,6.793 -27.534,5.209 1.069,-5.036 1.219,-8.992 1.153,-11.418 l 25.335,-1.003 c 0.235,2.146 0.616,4.671 1.046,7.212 z"
                       id="path2620" />
                  </g>
                </g>
              </g>
            </g>
          </g>
        </g>
        <g
           id="g2672">
          <g
             id="g2670">
            <g
               id="g2644">
              <g
                 id="g2642">
                <g
                   id="g2640">
                  <g
                     id="g2638">
                    <g
                       id="g2636">
                      <path
                         inkscape:connector-curvature="0"
                         style="fill:#ffb8a1"
                         d="m 72.651,142.55 c 0,0 -7.841,-10.672 -13.939,-4.356 -6.098,6.316 5.663,28.314 16.335,23.522 z"
                         id="path2634" />
                    </g>
                  </g>
                </g>
              </g>
            </g>
            <g
               id="g2656">
              <g
                 id="g2654">
                <g
                   id="g2652">
                  <g
                     id="g2650">
                    <g
                       id="g2648">
                      <path
                         inkscape:connector-curvature="0"
                         style="fill:#ff8a8a"
                         d="m 68.912,155.161 c -0.266,0 -0.498,-0.196 -0.536,-0.467 -1.031,-7.415 -6.925,-11.966 -6.984,-12.011 -0.238,-0.181 -0.285,-0.521 -0.104,-0.759 0.181,-0.238 0.521,-0.285 0.759,-0.104 0.257,0.195 6.31,4.871 7.401,12.724 0.041,0.297 -0.165,0.57 -0.462,0.611 -0.024,0.005 -0.049,0.006 -0.074,0.006 z"
                         id="path2646" />
                    </g>
                  </g>
                </g>
              </g>
            </g>
            <g
               id="g2668">
              <g
                 id="g2666">
                <g
                   id="g2664">
                  <g
                     id="g2662">
                    <g
                       id="g2660">
                      <path
                         inkscape:connector-curvature="0"
                         style="fill:#ff8a8a"
                         d="m 67.27,149.836 c -0.174,0 -0.344,-0.084 -0.449,-0.238 -0.787,-1.164 -3.141,-1.282 -3.978,-1.23 -0.301,0.021 -0.556,-0.208 -0.575,-0.507 -0.019,-0.299 0.208,-0.556 0.507,-0.575 0.149,-0.009 3.651,-0.205 4.943,1.705 0.168,0.248 0.103,0.584 -0.145,0.752 -0.093,0.063 -0.199,0.093 -0.303,0.093 z"
                         id="path2658" />
                    </g>
                  </g>
                </g>
              </g>
            </g>
          </g>
        </g>
        <g
           id="g2712">
          <g
             id="g2710">
            <g
               id="g2684">
              <g
                 id="g2682">
                <g
                   id="g2680">
                  <g
                     id="g2678">
                    <g
                       id="g2676">
                      <path
                         inkscape:connector-curvature="0"
                         style="fill:#ffb8a1"
                         d="m 120.416,142.55 c 0,0 7.841,-10.672 13.939,-4.356 6.098,6.316 -5.663,28.314 -16.335,23.522 z"
                         id="path2674" />
                    </g>
                  </g>
                </g>
              </g>
            </g>
            <g
               id="g2696">
              <g
                 id="g2694">
                <g
                   id="g2692">
                  <g
                     id="g2690">
                    <g
                       id="g2688">
                      <path
                         inkscape:connector-curvature="0"
                         style="fill:#ff8a8a"
                         d="m 124.156,155.161 c -0.025,0 -0.05,-0.002 -0.075,-0.005 -0.297,-0.041 -0.503,-0.315 -0.462,-0.611 1.091,-7.854 7.144,-12.53 7.401,-12.725 0.239,-0.181 0.578,-0.135 0.759,0.104 0.181,0.238 0.135,0.578 -0.103,0.759 -0.06,0.045 -5.955,4.612 -6.984,12.011 -0.038,0.271 -0.27,0.467 -0.536,0.467 z"
                         id="path2686" />
                    </g>
                  </g>
                </g>
              </g>
            </g>
            <g
               id="g2708">
              <g
                 id="g2706">
                <g
                   id="g2704">
                  <g
                     id="g2702">
                    <g
                       id="g2700">
                      <path
                         inkscape:connector-curvature="0"
                         style="fill:#ff8a8a"
                         d="m 125.798,149.836 c -0.105,0 -0.21,-0.03 -0.303,-0.093 -0.248,-0.168 -0.313,-0.504 -0.145,-0.752 1.292,-1.91 4.794,-1.714 4.943,-1.705 0.298,0.019 0.525,0.275 0.506,0.574 -0.018,0.299 -0.278,0.528 -0.573,0.508 -0.842,-0.05 -3.195,0.071 -3.979,1.231 -0.105,0.153 -0.275,0.237 -0.449,0.237 z"
                         id="path2698" />
                    </g>
                  </g>
                </g>
              </g>
            </g>
          </g>
        </g>
        <g
           id="g2724">
          <g
             id="g2722">
            <g
               id="g2720">
              <g
                 id="g2718">
                <g
                   id="g2716">
                  <path
                     inkscape:connector-curvature="0"
                     style="fill:#ffb8a1"
                     d="m 103.146,111.44 c -21.933,-5.351 -41.785,14.476 -36.838,36.504 3.492,15.547 11.152,35.155 29.976,35.598 19.618,0.462 27.49,-20.899 30.292,-37.106 2.564,-14.833 -6.084,-29.436 -20.388,-34.125 -0.992,-0.326 -2.006,-0.618 -3.042,-0.871 z"
                     id="path2714" />
                </g>
              </g>
            </g>
          </g>
        </g>
        <g
           id="g2730">
          <g
             id="g2728">
            <path
               inkscape:connector-curvature="0"
               style="fill:#ff8a8a"
               d="m 97.85,161.354 c -0.932,0 -1.955,-0.244 -3.08,-0.732 -0.316,-0.137 -0.503,-0.467 -0.459,-0.809 l 1.568,-12.045 c 0.055,-0.423 0.445,-0.722 0.866,-0.667 0.423,0.055 0.722,0.443 0.667,0.866 l -1.491,11.451 c 1.538,0.564 2.726,0.514 3.706,-0.147 0.354,-0.239 0.834,-0.145 1.073,0.209 0.239,0.354 0.145,0.834 -0.209,1.073 -0.79,0.534 -1.666,0.801 -2.641,0.801 z"
               id="path2726" />
          </g>
        </g>
        <g
           id="g2736">
          <g
             id="g2734">
            <path
               inkscape:connector-curvature="0"
               style="fill:#ff8a8a"
               d="m 96.417,169.295 c -4.428,0 -7.788,-1.828 -7.845,-1.86 -0.373,-0.208 -0.506,-0.679 -0.298,-1.052 0.208,-0.373 0.679,-0.506 1.052,-0.298 0.375,0.207 8.932,4.818 16.338,-2.033 0.313,-0.29 0.802,-0.271 1.092,0.043 0.29,0.313 0.271,0.802 -0.043,1.092 -3.434,3.177 -7.137,4.108 -10.296,4.108 z"
               id="path2732" />
          </g>
        </g>
        <g
           id="g2742">
          <g
             id="g2740">
            <path
               inkscape:connector-curvature="0"
               style="fill:#ff8a8a"
               d="m 97.671,173.714 c -1.749,0 -3.15,-0.427 -3.248,-0.458 -0.407,-0.127 -0.635,-0.561 -0.507,-0.968 0.127,-0.407 0.56,-0.633 0.967,-0.508 v 0 c 0.035,0.011 3.462,1.045 5.874,-0.318 0.371,-0.21 0.843,-0.079 1.053,0.292 0.21,0.372 0.079,0.843 -0.292,1.053 -1.235,0.699 -2.626,0.907 -3.847,0.907 z"
               id="path2738" />
          </g>
        </g>
        <g
           id="g2748">
          <g
             id="g2746">
            <path
               inkscape:connector-curvature="0"
               style="fill:#3f2037"
               d="m 81.35,139.37 c 1.664,-0.894 4.093,-1.998 6.456,-2.343 1.269,-0.185 2.067,-1.461 1.634,-2.669 l -0.087,-0.244 c -0.312,-0.872 -1.179,-1.42 -2.1,-1.322 -2.108,0.224 -5.843,0.962 -8.279,3.39 -0.528,0.526 -0.711,1.307 -0.487,2.018 v 0 c 0.377,1.202 1.754,1.766 2.863,1.17 z"
               id="path2744" />
          </g>
        </g>
        <g
           id="g2754">
          <g
             id="g2752">
            <path
               inkscape:connector-curvature="0"
               style="fill:#3f2037"
               d="m 113.338,139.37 c -1.664,-0.894 -4.093,-1.998 -6.456,-2.343 -1.269,-0.185 -2.067,-1.461 -1.634,-2.669 l 0.087,-0.244 c 0.312,-0.872 1.179,-1.42 2.1,-1.322 2.108,0.224 5.843,0.962 8.279,3.39 0.528,0.526 0.711,1.307 0.487,2.018 v 0 c -0.378,1.202 -1.754,1.766 -2.863,1.17 z"
               id="path2750" />
          </g>
        </g>
        <g
           style="opacity:0.5"
           id="g2760">
          <g
             id="g2758">
            <path
               inkscape:connector-curvature="0"
               style="fill:#ff8a8a"
               d="m 87.012,153.268 c 0,1.896 -3.5,3.433 -7.817,3.433 -4.317,0 -7.817,-1.537 -7.817,-3.433 0,-1.896 3.5,-3.432 7.817,-3.432 4.317,0 7.817,1.537 7.817,3.432 z"
               id="path2756" />
          </g>
        </g>
        <g
           style="opacity:0.5"
           id="g2766">
          <g
             id="g2764">
            <path
               inkscape:connector-curvature="0"
               style="fill:#ff8a8a"
               d="m 123.79,153.268 c 0,1.896 -3.5,3.433 -7.817,3.433 -4.317,0 -7.817,-1.537 -7.817,-3.433 0,-1.896 3.5,-3.432 7.817,-3.432 4.317,0 7.817,1.537 7.817,3.432 z"
               id="path2762" />
          </g>
        </g>
        <g
           id="g2778">
          <g
             id="g2776">
            <g
               id="g2774">
              <g
                 id="g2772">
                <g
                   id="g2770">
                  <path
                     inkscape:connector-curvature="0"
                     style="fill:#3f2037"
                     d="m 67.123,151.328 c 0,0 -4.12,-22.696 -2.847,-27.886 1.273,-5.19 3.933,-4.24 3.933,-4.24 0,0 -22.219,-18.209 -11.169,-28.531 7.999,-7.472 17.201,8.516 17.201,8.516 0,0 -4.554,-15.718 1.922,-17.877 8.073,-2.691 11.726,16.147 11.726,16.147 0,0 -0.666,-14.053 5.895,-13.776 9.099,0.384 3.973,10.893 13.84,14.993 9.867,4.101 24.774,6.183 19.4,22.715 0,0 7.239,-0.316 -1.767,29.184 v 0 c -2.325,-3.233 -3.491,-7.157 -3.298,-11.134 0.148,-3.051 0.132,-6.588 -0.494,-8.761 0,0 -5.639,-3.939 -5.382,-9.705 0,0 -19.863,11.79 -38.188,1.282 0,0 1.153,6.792 -4.613,7.817 0,0 -1.884,4.418 -2.506,10.704 -0.36,3.644 -1.523,7.163 -3.47,10.265 z"
                     id="path2768" />
                </g>
              </g>
            </g>
          </g>
        </g>
        <g
           id="g2790">
          <g
             id="g2788">
            <g
               id="g2786">
              <g
                 id="g2784">
                <g
                   id="g2782">
                  <path
                     inkscape:connector-curvature="0"
                     style="fill:#3f2037"
                     d="m 125.184,111.019 c 0,0 3.138,-10.713 8.207,-7.971 3.618,1.956 -4.811,10.107 -4.811,10.107 0,0 7.092,-3.834 10.589,-1.132 3.497,2.701 -5.785,5.893 -11.135,4.979 -5.35,-0.913 -2.85,-5.983 -2.85,-5.983 z"
                     id="path2780" />
                </g>
              </g>
            </g>
          </g>
        </g>
        <g
           id="g2820">
          <g
             id="g2804">
            <g
               id="g2802">
              <g
                 id="g2800">
                <g
                   id="g2798">
                  <g
                     id="g2796">
                    <g
                       id="g2794">
                      <path
                         inkscape:connector-curvature="0"
                         style="fill:#3f2037"
                         d="m 87.558,145.273 c 0.036,2.094 -0.736,3.806 -1.724,3.823 -0.989,0.017 -1.82,-1.666 -1.857,-3.761 -0.036,-2.094 0.736,-3.806 1.724,-3.823 0.989,-0.016 1.82,1.668 1.857,3.761 z"
                         id="path2792" />
                    </g>
                  </g>
                </g>
              </g>
            </g>
          </g>
          <g
             id="g2818">
            <g
               id="g2816">
              <g
                 id="g2814">
                <g
                   id="g2812">
                  <g
                     id="g2810">
                    <g
                       id="g2808">
                      <path
                         inkscape:connector-curvature="0"
                         style="fill:#3f2037"
                         d="m 106.274,145.273 c -0.036,2.094 0.736,3.806 1.724,3.823 0.989,0.017 1.82,-1.666 1.857,-3.761 0.036,-2.094 -0.736,-3.806 -1.724,-3.823 -0.99,-0.016 -1.821,1.668 -1.857,3.761 z"
                         id="path2806" />
                    </g>
                  </g>
                </g>
              </g>
            </g>
          </g>
        </g>
      </g>
      <g
         id="g2828">
        <g
           id="g2826">
          <path
             inkscape:connector-curvature="0"
             style="fill:#ffffff"
             d="m 75.819,212.61 v 21.518 H 74.273 V 212.61 c 0,-0.173 0.057,-0.33 0.152,-0.459 0.142,-0.191 0.368,-0.314 0.621,-0.314 0.374,0 0.685,0.265 0.757,0.618 0.011,0.049 0.016,0.1 0.016,0.155 z"
             id="path2824" />
        </g>
      </g>
      <g
         id="g2834">
        <g
           id="g2832">
          <path
             inkscape:connector-curvature="0"
             style="fill:#ffffff"
             d="m 118.794,212.61 v 21.518 h -1.546 V 212.61 c 0,-0.425 0.345,-0.773 0.773,-0.773 0.34,0 0.631,0.224 0.732,0.531 0.028,0.074 0.041,0.157 0.041,0.242 z"
             id="path2830" />
        </g>
      </g>
    </g>
  </g>
</svg>
