<?xml version="1.0" encoding="UTF-8" standalone="no"?>
<!-- Created with Inkscape (http://www.inkscape.org/) -->

<svg
   xmlns:dc="http://purl.org/dc/elements/1.1/"
   xmlns:cc="http://creativecommons.org/ns#"
   xmlns:rdf="http://www.w3.org/1999/02/22-rdf-syntax-ns#"
   xmlns:svg="http://www.w3.org/2000/svg"
   xmlns="http://www.w3.org/2000/svg"
   xmlns:sodipodi="http://sodipodi.sourceforge.net/DTD/sodipodi-0.dtd"
   xmlns:inkscape="http://www.inkscape.org/namespaces/inkscape"
   width="181mm"
   height="181mm"
   viewBox="0 0 181 181"
   version="1.1"
   id="svg4301"
   inkscape:version="0.92.4 (5da689c313, 2019-01-14)"
   sodipodi:docname="cha2.svg">
  <defs
     id="defs4295" />
  <sodipodi:namedview
     id="base"
     pagecolor="#ffffff"
     bordercolor="#666666"
     borderopacity="1.0"
     inkscape:pageopacity="0.0"
     inkscape:pageshadow="2"
     inkscape:zoom="0.7"
     inkscape:cx="411.19793"
     inkscape:cy="351.43754"
     inkscape:document-units="mm"
     inkscape:current-layer="layer1"
     showgrid="false"
     inkscape:window-width="1366"
     inkscape:window-height="745"
     inkscape:window-x="-8"
     inkscape:window-y="-8"
     inkscape:window-maximized="1" />
  <metadata
     id="metadata4298">
    <rdf:RDF>
      <cc:Work
         rdf:about="">
        <dc:format>image/svg+xml</dc:format>
        <dc:type
           rdf:resource="http://purl.org/dc/dcmitype/StillImage" />
        <dc:title></dc:title>
      </cc:Work>
    </rdf:RDF>
  </metadata>
  <g
     inkscape:label="Layer 1"
     inkscape:groupmode="layer"
     id="layer1"
     transform="translate(0,-116)">
    <rect
       style="opacity:1;fill:#ffffff;fill-opacity:1;stroke:none;stroke-width:2.51455092;stroke-miterlimit:4;stroke-dasharray:none;stroke-opacity:1"
       id="rect12951"
       width="181.80656"
       height="180.67262"
       x="-0.37797609"
       y="116.32738" />
    <g
       transform="matrix(1.2035332,0,0,1.2035332,-201.40021,14.038729)"
       id="g3118">
      <g
         id="g2840">
        <path
           inkscape:connector-curvature="0"
           style="fill:#3f2037"
           d="m 218.771,104.23 c 0,0 -15.114,13.094 -15.738,34.678 -0.624,21.584 11.112,30.859 0.22,40.134 -10.892,9.275 -35.11,19.323 -20.425,44.315 h 59.841 V 108.706 Z"
           id="path2838" />
      </g>
      <g
         id="g2844">
        <path
           inkscape:connector-curvature="0"
           style="fill:#3f2037"
           d="m 265.985,104.23 c 0,0 15.114,13.094 15.738,34.678 0.624,21.584 -11.112,30.859 -0.22,40.134 10.892,9.275 35.111,19.323 20.425,44.315 H 242.086 V 108.706 Z"
           id="path2842" />
      </g>
      <g
         id="g2874">
        <g
           id="g2848">
          <path
             inkscape:connector-curvature="0"
             style="fill:#ff4f4e"
             d="m 310.686,234.129 h -137.2 c 0,0 1.378,-17.118 9.662,-20.428 1.713,-0.685 4.563,-2.022 8.005,-3.71 0.477,-0.234 0.966,-0.474 1.463,-0.721 0.003,-0.003 0.008,-0.003 0.01,-0.005 7.168,-3.548 16.386,-8.33 23.353,-11.978 5.934,-3.11 10.234,-5.395 10.234,-5.395 l 1.049,0.234 c 9.754,2.185 19.877,2.105 29.593,-0.234 0,0 3.54,1.824 8.654,4.429 3.025,1.543 6.603,3.36 10.326,5.233 10.007,5.04 21.049,10.491 25.19,12.148 8.283,3.309 9.661,20.427 9.661,20.427 z"
             id="path2846" />
        </g>
        <g
           id="g2852">
          <path
             inkscape:connector-curvature="0"
             style="fill:#c42c31"
             d="m 204.628,234.129 h -3.661 c -2.837,-6.245 -7.577,-17.028 -9.814,-24.139 0.477,-0.234 0.966,-0.474 1.463,-0.721 1.647,4.208 7.039,17.538 12.012,24.86 z"
             id="path2850" />
        </g>
        <g
           id="g2856">
          <path
             inkscape:connector-curvature="0"
             style="fill:#c42c31"
             d="m 277.055,234.129 h 3.661 c 2.837,-6.245 8.047,-17.944 10.283,-25.055 -0.477,-0.234 -0.833,-0.399 -1.33,-0.647 -1.646,4.208 -7.641,18.38 -12.614,25.702 z"
             id="path2854" />
        </g>
        <g
           id="g2860">
          <path
             inkscape:connector-curvature="0"
             style="fill:#ff4f4e"
             d="m 234.89,234.129 h -29.967 c -5.045,-7.508 -9.723,-18.396 -12.297,-24.865 -1.304,-3.277 -2.069,-5.421 -2.069,-5.421 7.729,-6.116 25.422,-6.557 25.422,-6.557 6.297,8.441 14.421,26.383 18.911,36.843 z"
             id="path2858" />
        </g>
        <g
           id="g2864">
          <path
             inkscape:connector-curvature="0"
             style="fill:#ff4f4e"
             d="m 247.075,234.129 h 29.967 c 5.045,-7.508 9.724,-18.396 12.297,-24.865 1.304,-3.277 2.069,-5.421 2.069,-5.421 -7.729,-6.116 -25.899,-7.523 -25.899,-7.523 -6.297,8.44 -13.944,27.349 -18.434,37.809 z"
             id="path2862" />
        </g>
        <g
           id="g2868">
          <path
             inkscape:connector-curvature="0"
             style="fill:#ffb8a1"
             d="m 265.509,196.32 c -0.366,3.233 -1.141,8.837 -2.592,14.809 -2.259,9.293 -6.163,19.48 -12.728,23 h -10.821 c -9.038,-3.751 -15.219,-14.526 -19.006,-23.703 -2.34,-5.671 -3.762,-10.728 -4.383,-13.14 5.934,-3.11 10.234,-5.395 10.234,-5.395 l 1.049,0.234 c 9.754,2.185 19.877,2.105 29.593,-0.234 -0.001,0 3.54,1.824 8.654,4.429 z"
             id="path2866" />
        </g>
        <g
           id="g2872">
          <path
             inkscape:connector-curvature="0"
             style="fill:#fff7f1"
             d="m 262.917,211.129 c -2.259,9.293 -6.163,19.48 -12.728,23 h -10.821 c -9.038,-3.751 -15.219,-14.526 -19.006,-23.703 4.743,1.958 11.81,3.741 21.809,3.741 8.783,0 15.652,-1.376 20.746,-3.038 z"
             id="path2870" />
        </g>
      </g>
      <g
         id="g3116">
        <g
           id="g2900">
          <g
             id="g2888">
            <g
               id="g2886">
              <g
                 id="g2884">
                <g
                   id="g2878">
                  <path
                     inkscape:connector-curvature="0"
                     style="fill:#ffb8a1"
                     d="m 257.553,195.385 c 0,0 -2.691,8.458 -15.055,8.458 -14.421,0 -17.815,-7.689 -17.815,-7.689 1.253,-3.322 2.114,-6.397 2.695,-9.146 h 0.004 c 1.069,-5.036 1.219,-8.992 1.153,-11.418 l 25.335,-1.003 c 0.235,2.145 0.615,4.671 1.046,7.212 1.145,6.747 2.637,13.586 2.637,13.586 z"
                     id="path2876" />
                </g>
                <g
                   id="g2882">
                  <path
                     inkscape:connector-curvature="0"
                     style="fill:#fff7f1"
                     d="m 242.67,207.755 c -7.564,0 -12.512,-3.877 -15.33,-7.129 -3.041,-3.51 -4.285,-6.972 -4.337,-7.117 -0.092,-0.26 0.044,-0.546 0.305,-0.638 0.26,-0.093 0.546,0.044 0.638,0.304 0.012,0.034 1.245,3.455 4.173,6.823 3.897,4.484 8.793,6.758 14.551,6.758 5.742,0 10.352,-2.263 13.701,-6.727 2.518,-3.356 3.342,-6.767 3.35,-6.801 0.063,-0.269 0.333,-0.435 0.601,-0.372 0.269,0.063 0.436,0.332 0.373,0.601 -0.034,0.146 -0.869,3.62 -3.501,7.142 -2.441,3.263 -6.941,7.156 -14.524,7.156 z"
                     id="path2880" />
                </g>
              </g>
            </g>
          </g>
          <g
             id="g2898">
            <g
               id="g2896">
              <g
                 id="g2894">
                <g
                   id="g2892">
                  <path
                     inkscape:connector-curvature="0"
                     style="fill:#3f2037"
                     d="m 254.916,181.798 c -3.925,2.73 -12.506,6.793 -27.534,5.209 1.069,-5.036 1.219,-8.992 1.153,-11.418 l 25.335,-1.003 c 0.235,2.146 0.615,4.671 1.046,7.212 z"
                     id="path2890" />
                </g>
              </g>
            </g>
          </g>
        </g>
        <g
           id="g2946">
          <g
             id="g2932">
            <g
               id="g2910">
              <g
                 id="g2908">
                <g
                   id="g2906">
                  <g
                     id="g2904">
                    <path
                       inkscape:connector-curvature="0"
                       style="fill:#ffb8a1"
                       d="m 218.864,142.55 c 0,0 -7.841,-10.672 -13.939,-4.356 -6.098,6.316 5.663,28.314 16.335,23.522 z"
                       id="path2902" />
                  </g>
                </g>
              </g>
            </g>
            <g
               id="g2920">
              <g
                 id="g2918">
                <g
                   id="g2916">
                  <g
                     id="g2914">
                    <path
                       inkscape:connector-curvature="0"
                       style="fill:#ff8a8a"
                       d="m 215.608,155.161 c -0.266,0 -0.498,-0.196 -0.536,-0.467 -1.031,-7.415 -6.925,-11.966 -6.984,-12.011 -0.238,-0.181 -0.285,-0.521 -0.104,-0.759 0.181,-0.238 0.52,-0.285 0.759,-0.104 0.257,0.195 6.31,4.871 7.402,12.724 0.041,0.297 -0.165,0.57 -0.462,0.611 -0.025,0.005 -0.05,0.006 -0.075,0.006 z"
                       id="path2912" />
                  </g>
                </g>
              </g>
            </g>
            <g
               id="g2930">
              <g
                 id="g2928">
                <g
                   id="g2926">
                  <g
                     id="g2924">
                    <path
                       inkscape:connector-curvature="0"
                       style="fill:#ff8a8a"
                       d="m 213.965,149.836 c -0.173,0 -0.344,-0.084 -0.449,-0.238 -0.787,-1.164 -3.141,-1.282 -3.978,-1.23 -0.301,0.021 -0.556,-0.208 -0.574,-0.507 -0.019,-0.299 0.208,-0.556 0.507,-0.575 0.149,-0.009 3.651,-0.205 4.943,1.705 0.168,0.248 0.103,0.584 -0.145,0.752 -0.094,0.063 -0.199,0.093 -0.304,0.093 z"
                       id="path2922" />
                  </g>
                </g>
              </g>
            </g>
          </g>
          <g
             id="g2944">
            <g
               id="g2942">
              <g
                 id="g2940">
                <g
                   id="g2938">
                  <g
                     id="g2936">
                    <path
                       inkscape:connector-curvature="0"
                       style="fill:#fff7f1"
                       d="m 216.414,162.2 c -0.152,-0.023 -0.301,-0.072 -0.461,-0.115 -0.716,0.295 -1.554,0.248 -2.139,-0.164 -1.808,-1.271 -0.234,-4.335 -0.213,-4.375 0.148,-0.282 0.041,-0.63 -0.241,-0.779 -0.281,-0.148 -0.63,-0.041 -0.779,0.241 -0.086,0.162 -2.071,4 0.57,5.857 0.534,0.375 1.194,0.563 1.866,0.563 0.659,0 1.33,-0.181 1.906,-0.542 0.231,-0.145 0.431,-0.318 0.611,-0.505 -0.381,-0.056 -0.74,-0.125 -1.12,-0.181 z"
                       id="path2934" />
                  </g>
                </g>
              </g>
            </g>
          </g>
        </g>
        <g
           id="g2992">
          <g
             id="g2978">
            <g
               id="g2956">
              <g
                 id="g2954">
                <g
                   id="g2952">
                  <g
                     id="g2950">
                    <path
                       inkscape:connector-curvature="0"
                       style="fill:#ffb8a1"
                       d="m 266.629,142.55 c 0,0 7.841,-10.672 13.939,-4.356 6.099,6.316 -5.663,28.314 -16.335,23.522 z"
                       id="path2948" />
                  </g>
                </g>
              </g>
            </g>
            <g
               id="g2966">
              <g
                 id="g2964">
                <g
                   id="g2962">
                  <g
                     id="g2960">
                    <path
                       inkscape:connector-curvature="0"
                       style="fill:#ff8a8a"
                       d="m 269.783,155.161 c -0.025,0 -0.05,-0.002 -0.075,-0.005 -0.296,-0.041 -0.503,-0.315 -0.462,-0.611 1.091,-7.854 7.144,-12.53 7.401,-12.725 0.239,-0.181 0.578,-0.135 0.759,0.104 0.181,0.238 0.135,0.578 -0.103,0.759 -0.06,0.045 -5.956,4.612 -6.984,12.011 -0.037,0.271 -0.27,0.467 -0.536,0.467 z"
                       id="path2958" />
                  </g>
                </g>
              </g>
            </g>
            <g
               id="g2976">
              <g
                 id="g2974">
                <g
                   id="g2972">
                  <g
                     id="g2970">
                    <path
                       inkscape:connector-curvature="0"
                       style="fill:#ff8a8a"
                       d="m 271.425,149.836 c -0.105,0 -0.21,-0.03 -0.303,-0.093 -0.248,-0.168 -0.313,-0.504 -0.145,-0.752 1.292,-1.91 4.794,-1.714 4.943,-1.705 0.298,0.019 0.525,0.275 0.506,0.574 -0.018,0.299 -0.278,0.528 -0.573,0.508 -0.842,-0.05 -3.195,0.071 -3.979,1.231 -0.104,0.153 -0.275,0.237 -0.449,0.237 z"
                       id="path2968" />
                  </g>
                </g>
              </g>
            </g>
          </g>
          <g
             id="g2990">
            <g
               id="g2988">
              <g
                 id="g2986">
                <g
                   id="g2984">
                  <g
                     id="g2982">
                    <path
                       inkscape:connector-curvature="0"
                       style="fill:#fff7f1"
                       d="m 269.079,162.2 c 0.152,-0.023 0.302,-0.072 0.461,-0.115 0.716,0.295 1.554,0.248 2.139,-0.164 1.808,-1.271 0.234,-4.335 0.213,-4.375 -0.148,-0.282 -0.04,-0.63 0.241,-0.779 0.282,-0.148 0.631,-0.041 0.779,0.241 0.086,0.162 2.071,4 -0.57,5.857 -0.534,0.375 -1.194,0.563 -1.866,0.563 -0.659,0 -1.33,-0.181 -1.906,-0.542 -0.231,-0.145 -0.431,-0.318 -0.611,-0.505 0.381,-0.056 0.74,-0.125 1.12,-0.181 z"
                       id="path2980" />
                  </g>
                </g>
              </g>
            </g>
          </g>
        </g>
        <g
           id="g3002">
          <g
             id="g3000">
            <g
               id="g2998">
              <g
                 id="g2996">
                <path
                   inkscape:connector-curvature="0"
                   style="fill:#ffb8a1"
                   d="m 246.273,110.557 c -23.166,-0.676 -34.016,11.718 -32.249,37.311 1.098,15.897 9.649,35.23 28.473,35.673 19.618,0.462 28.546,-21.795 28.973,-38.236 0.449,-17.289 -3.656,-28.854 -17.961,-33.543 -0.991,-0.325 -6.17,-1.174 -7.236,-1.205 z"
                   id="path2994" />
              </g>
            </g>
          </g>
        </g>
        <g
           id="g3028">
          <g
             id="g3006">
            <path
               inkscape:connector-curvature="0"
               style="fill:#ff8a8a"
               d="m 225.859,152.836 c 0,0.373 -0.302,0.675 -0.675,0.675 -0.373,0 -0.675,-0.302 -0.675,-0.675 0,-0.373 0.302,-0.675 0.675,-0.675 0.373,0 0.675,0.303 0.675,0.675 z"
               id="path3004" />
          </g>
          <g
             id="g3010">
            <path
               inkscape:connector-curvature="0"
               style="fill:#ff8a8a"
               d="m 229.154,154.465 c 0,0.373 -0.302,0.675 -0.675,0.675 -0.373,0 -0.675,-0.302 -0.675,-0.675 0,-0.373 0.302,-0.675 0.675,-0.675 0.373,0 0.675,0.302 0.675,0.675 z"
               id="path3008" />
          </g>
          <g
             id="g3014">
            <path
               inkscape:connector-curvature="0"
               style="fill:#ff8a8a"
               d="m 225.859,156.811 c 0,0.373 -0.302,0.675 -0.675,0.675 -0.373,0 -0.675,-0.302 -0.675,-0.675 0,-0.373 0.302,-0.675 0.675,-0.675 0.373,0.001 0.675,0.303 0.675,0.675 z"
               id="path3012" />
          </g>
          <g
             id="g3018">
            <path
               inkscape:connector-curvature="0"
               style="fill:#ff8a8a"
               d="m 231.039,157.486 c 0,0.373 -0.302,0.675 -0.675,0.675 -0.373,0 -0.675,-0.302 -0.675,-0.675 0,-0.373 0.302,-0.675 0.675,-0.675 0.373,0 0.675,0.303 0.675,0.675 z"
               id="path3016" />
          </g>
          <g
             id="g3022">
            <path
               inkscape:connector-curvature="0"
               style="fill:#ff8a8a"
               d="m 234.491,156.811 c 0,0.373 -0.302,0.675 -0.675,0.675 -0.373,0 -0.675,-0.302 -0.675,-0.675 0,-0.373 0.302,-0.675 0.675,-0.675 0.373,0 0.675,0.303 0.675,0.675 z"
               id="path3020" />
          </g>
          <g
             id="g3026">
            <path
               inkscape:connector-curvature="0"
               style="fill:#ff8a8a"
               d="m 232.922,153.511 c 0,0.373 -0.302,0.675 -0.675,0.675 -0.373,0 -0.675,-0.302 -0.675,-0.675 0,-0.373 0.302,-0.675 0.675,-0.675 0.373,0 0.675,0.303 0.675,0.675 z"
               id="path3024" />
          </g>
        </g>
        <g
           id="g3054">
          <g
             id="g3032">
            <path
               inkscape:connector-curvature="0"
               style="fill:#ff8a8a"
               d="m 260.207,152.836 c 0,0.373 0.302,0.675 0.675,0.675 0.373,0 0.675,-0.302 0.675,-0.675 0,-0.373 -0.302,-0.675 -0.675,-0.675 -0.373,0 -0.675,0.303 -0.675,0.675 z"
               id="path3030" />
          </g>
          <g
             id="g3036">
            <path
               inkscape:connector-curvature="0"
               style="fill:#ff8a8a"
               d="m 256.912,154.465 c 0,0.373 0.302,0.675 0.675,0.675 0.373,0 0.675,-0.302 0.675,-0.675 0,-0.373 -0.302,-0.675 -0.675,-0.675 -0.372,0 -0.675,0.302 -0.675,0.675 z"
               id="path3034" />
          </g>
          <g
             id="g3040">
            <path
               inkscape:connector-curvature="0"
               style="fill:#ff8a8a"
               d="m 260.207,156.811 c 0,0.373 0.302,0.675 0.675,0.675 0.373,0 0.675,-0.302 0.675,-0.675 0,-0.373 -0.302,-0.675 -0.675,-0.675 -0.373,0.001 -0.675,0.303 -0.675,0.675 z"
               id="path3038" />
          </g>
          <g
             id="g3044">
            <path
               inkscape:connector-curvature="0"
               style="fill:#ff8a8a"
               d="m 255.028,157.486 c 0,0.373 0.302,0.675 0.675,0.675 0.373,0 0.675,-0.302 0.675,-0.675 0,-0.373 -0.302,-0.675 -0.675,-0.675 -0.373,0 -0.675,0.303 -0.675,0.675 z"
               id="path3042" />
          </g>
          <g
             id="g3048">
            <path
               inkscape:connector-curvature="0"
               style="fill:#ff8a8a"
               d="m 251.575,156.811 c 0,0.373 0.302,0.675 0.675,0.675 0.373,0 0.675,-0.302 0.675,-0.675 0,-0.373 -0.302,-0.675 -0.675,-0.675 -0.373,0.001 -0.675,0.303 -0.675,0.675 z"
               id="path3046" />
          </g>
          <g
             id="g3052">
            <path
               inkscape:connector-curvature="0"
               style="fill:#ff8a8a"
               d="m 253.145,153.511 c 0,0.373 0.302,0.675 0.675,0.675 0.373,0 0.675,-0.302 0.675,-0.675 0,-0.373 -0.302,-0.675 -0.675,-0.675 -0.373,0 -0.675,0.303 -0.675,0.675 z"
               id="path3050" />
          </g>
        </g>
        <g
           id="g3064">
          <g
             id="g3058">
            <path
               inkscape:connector-curvature="0"
               style="fill:#3f2037"
               d="m 214.948,152.419 c 0,0 4.638,-9.79 3.092,-17.004 l -5.067,-1.476 c 0,0 -0.773,12.383 1.975,18.48 z"
               id="path3056" />
          </g>
          <g
             id="g3062">
            <path
               inkscape:connector-curvature="0"
               style="fill:#3f2037"
               d="m 270.492,152.419 c 0,0 -4.638,-9.79 -3.092,-17.004 l 5.067,-1.476 c 0.001,0 0.773,12.383 -1.975,18.48 z"
               id="path3060" />
          </g>
        </g>
        <g
           id="g3068">
          <path
             inkscape:connector-curvature="0"
             style="fill:#3f2037"
             d="m 218.771,104.23 c -5.618,5.549 -9.996,14.641 -10.291,20.192 -0.299,5.62 1.143,11.207 5.358,13.352 13.176,6.704 40.439,-18.505 40.439,-18.505 0,0 9.616,19.55 17.192,18.628 7.577,-0.923 10.802,-22.966 -7.236,-35.298 -18.007,-12.311 -36.851,-6.874 -45.462,1.631 z"
             id="path3066" />
        </g>
        <g
           id="g3072">
          <path
             inkscape:connector-curvature="0"
             style="fill:#3f2037"
             d="m 223.502,140.74 c 0,0 1.254,-3.103 5.505,-5.754 5.371,-3.349 9.242,2.412 9.242,2.412 0,0 -4.214,-1.467 -7.45,-0.437 -3.166,1.008 -7.297,3.779 -7.297,3.779 z"
             id="path3070" />
        </g>
        <g
           id="g3076">
          <path
             inkscape:connector-curvature="0"
             style="fill:#3f2037"
             d="m 263.081,140.74 c 0,0 -1.254,-3.103 -5.505,-5.754 -5.371,-3.349 -9.242,2.412 -9.242,2.412 0,0 4.214,-1.467 7.45,-0.437 3.166,1.008 7.297,3.779 7.297,3.779 z"
             id="path3074" />
        </g>
        <g
           id="g3080">
          <path
             inkscape:connector-curvature="0"
             style="fill:#ff8a8a"
             d="m 244.063,161.331 c -0.929,0 -1.948,-0.243 -3.07,-0.73 -0.307,-0.133 -0.488,-0.453 -0.445,-0.785 l 1.568,-12.045 c 0.054,-0.411 0.432,-0.701 0.841,-0.647 0.411,0.053 0.7,0.43 0.647,0.84 l -1.493,11.469 c 1.554,0.573 2.754,0.525 3.744,-0.143 0.344,-0.232 0.81,-0.141 1.041,0.202 0.232,0.343 0.141,0.81 -0.203,1.041 -0.788,0.532 -1.66,0.798 -2.63,0.798 z"
             id="path3078" />
        </g>
        <g
           id="g3084">
          <path
             inkscape:connector-curvature="0"
             style="fill:#ff8a8a"
             d="m 242.575,169.294 c -0.66,0 -1.281,-0.041 -1.854,-0.107 -3.428,-0.395 -5.825,-1.716 -5.925,-1.772 -0.362,-0.202 -0.491,-0.659 -0.289,-1.02 0.202,-0.361 0.658,-0.491 1.02,-0.29 v 0 c 0.361,0.201 8.94,4.834 16.366,-2.036 0.304,-0.282 0.779,-0.263 1.06,0.041 0.281,0.304 0.263,0.779 -0.041,1.06 -3.533,3.267 -7.329,4.124 -10.337,4.124 z"
             id="path3082" />
        </g>
        <g
           id="g3088">
          <path
             inkscape:connector-curvature="0"
             style="fill:#ff8a8a"
             d="m 243.884,173.692 c -1.745,0 -3.144,-0.426 -3.241,-0.457 -0.395,-0.123 -0.616,-0.544 -0.492,-0.939 0.123,-0.395 0.544,-0.616 0.939,-0.493 0.051,0.016 3.477,1.045 5.891,-0.32 0.36,-0.204 0.818,-0.077 1.022,0.284 0.204,0.361 0.077,0.818 -0.284,1.022 -1.23,0.695 -2.617,0.903 -3.835,0.903 z"
             id="path3086" />
        </g>
        <g
           id="g3114">
          <g
             id="g3100">
            <g
               id="g3098">
              <g
                 id="g3096">
                <g
                   id="g3094">
                  <g
                     id="g3092">
                    <path
                       inkscape:connector-curvature="0"
                       style="fill:#3f2037"
                       d="m 233.77,145.273 c 0.036,2.094 -0.736,3.806 -1.724,3.823 -0.989,0.017 -1.82,-1.666 -1.857,-3.761 -0.036,-2.094 0.736,-3.806 1.724,-3.823 0.99,-0.016 1.821,1.668 1.857,3.761 z"
                       id="path3090" />
                  </g>
                </g>
              </g>
            </g>
          </g>
          <g
             id="g3112">
            <g
               id="g3110">
              <g
                 id="g3108">
                <g
                   id="g3106">
                  <g
                     id="g3104">
                    <path
                       inkscape:connector-curvature="0"
                       style="fill:#3f2037"
                       d="m 252.486,145.273 c -0.036,2.094 0.736,3.806 1.724,3.823 0.989,0.017 1.82,-1.666 1.857,-3.761 0.036,-2.094 -0.736,-3.806 -1.724,-3.823 -0.989,-0.016 -1.82,1.668 -1.857,3.761 z"
                       id="path3102" />
                  </g>
                </g>
              </g>
            </g>
          </g>
        </g>
      </g>
    </g>
  </g>
</svg>
