<?xml version="1.0" encoding="UTF-8" standalone="no"?>
<!-- Created with Inkscape (http://www.inkscape.org/) -->

<svg
   xmlns:dc="http://purl.org/dc/elements/1.1/"
   xmlns:cc="http://creativecommons.org/ns#"
   xmlns:rdf="http://www.w3.org/1999/02/22-rdf-syntax-ns#"
   xmlns:svg="http://www.w3.org/2000/svg"
   xmlns="http://www.w3.org/2000/svg"
   xmlns:sodipodi="http://sodipodi.sourceforge.net/DTD/sodipodi-0.dtd"
   xmlns:inkscape="http://www.inkscape.org/namespaces/inkscape"
   width="181mm"
   height="181mm"
   viewBox="0 0 181 181"
   version="1.1"
   id="svg4301"
   inkscape:version="0.92.4 (5da689c313, 2019-01-14)"
   sodipodi:docname="cha3.svg">
  <defs
     id="defs4295" />
  <sodipodi:namedview
     id="base"
     pagecolor="#ffffff"
     bordercolor="#666666"
     borderopacity="1.0"
     inkscape:pageopacity="0.0"
     inkscape:pageshadow="2"
     inkscape:zoom="0.7"
     inkscape:cx="411.19793"
     inkscape:cy="351.43754"
     inkscape:document-units="mm"
     inkscape:current-layer="layer1"
     showgrid="false"
     inkscape:window-width="1366"
     inkscape:window-height="745"
     inkscape:window-x="-8"
     inkscape:window-y="-8"
     inkscape:window-maximized="1" />
  <metadata
     id="metadata4298">
    <rdf:RDF>
      <cc:Work
         rdf:about="">
        <dc:format>image/svg+xml</dc:format>
        <dc:type
           rdf:resource="http://purl.org/dc/dcmitype/StillImage" />
        <dc:title></dc:title>
      </cc:Work>
    </rdf:RDF>
  </metadata>
  <g
     inkscape:label="Layer 1"
     inkscape:groupmode="layer"
     id="layer1"
     transform="translate(0,-116)">
    <rect
       style="opacity:1;fill:#ffffff;fill-opacity:1;stroke:none;stroke-width:2.36192417;stroke-miterlimit:4;stroke-dasharray:none;stroke-opacity:1"
       id="rect13722"
       width="182.94046"
       height="180.67261"
       x="-1.511904"
       y="115.94941" />
    <g
       transform="matrix(1.0457172,0,0,1.0816516,-318.6501,43.264644)"
       id="g3334">
      <g
         id="g3122">
        <path
           inkscape:connector-curvature="0"
           style="fill:#3f2037"
           d="m 362.574,215.285 c 0,0 -23.968,4.819 -24.981,-15.363 -0.438,-8.735 -1.616,-7.369 -9.254,-14.735 -7.638,-7.365 -7.638,-10.366 -6.001,-17.186 1.637,-6.82 8.515,-9.163 5.116,-15.465 -4.478,-8.301 -3.105,-22.489 6.626,-28.02 9.406,-5.347 10.465,-5.275 10.465,-10.758 0,-7.16 7.435,-18.7 22.775,-17.501 13.194,1.03 11.144,-5.389 20.497,-8.25 17.418,-5.327 25.858,9.759 31.859,10.305 6.001,0.546 16.386,0.648 21.657,8.624 6.537,9.891 0.762,17.965 8.946,18.783 8.184,0.818 16.368,7.911 16.095,15.276 -0.273,7.365 -4.637,13.64 -1.637,16.913 3.001,3.273 4.164,22.661 -7.945,26.371 -16.548,5.07 0,29.568 -30.433,29.114 -27.355,-0.409 -63.785,1.892 -63.785,1.892 z"
           id="path3120" />
      </g>
      <g
         id="g3128">
        <g
           id="g3126">
          <path
             inkscape:connector-curvature="0"
             style="fill:#0075cf"
             d="m 461.003,234.129 h -137.2 c 0,0 1.378,-17.118 9.662,-20.428 1.713,-0.685 4.563,-2.022 8.005,-3.71 0.477,-0.234 0.966,-0.474 1.463,-0.721 0.003,-0.003 0.008,-0.003 0.01,-0.005 0.879,-0.436 1.788,-0.889 2.721,-1.358 6.673,-3.347 14.521,-7.42 20.632,-10.62 0.714,-0.374 1.402,-0.734 2.061,-1.079 4.844,-2.546 8.172,-4.315 8.172,-4.315 l 1.049,0.234 c 9.754,2.185 19.877,2.105 29.593,-0.234 0,0 3.452,1.778 8.464,4.331 0.064,0.033 0.126,0.064 0.191,0.098 3.025,1.543 6.603,3.36 10.326,5.233 10.007,5.04 21.049,10.491 25.19,12.148 8.283,3.308 9.661,20.426 9.661,20.426 z"
             id="path3124" />
        </g>
      </g>
      <g
         id="g3132">
        <path
           inkscape:connector-curvature="0"
           style="fill:#0056a8"
           d="m 393.76,224.993 c -3.404,0 -6.362,-0.492 -8.728,-1.105 -5.902,-1.531 -9.42,-4.072 -9.567,-4.179 -0.334,-0.245 -0.407,-0.714 -0.163,-1.048 0.245,-0.335 0.714,-0.407 1.048,-0.163 0.054,0.039 3.495,2.507 9.123,3.955 5.192,1.336 13.373,2.052 22.859,-2.121 0.379,-0.167 0.822,0.005 0.989,0.385 0.167,0.379 -0.005,0.822 -0.385,0.988 -5.595,2.46 -10.761,3.288 -15.176,3.288 z"
           id="path3130" />
      </g>
      <g
         id="g3136">
        <path
           inkscape:connector-curvature="0"
           style="fill:#ffb8a1"
           d="m 415.635,196.222 c -1.618,7.036 -6.838,20.179 -23.232,20.179 -17.458,0 -22.618,-14.018 -24.046,-20.194 4.844,-2.546 8.172,-4.315 8.172,-4.315 l 1.049,0.234 c 9.754,2.185 19.877,2.105 29.593,-0.234 0,-0.001 3.453,1.777 8.464,4.33 z"
           id="path3134" />
      </g>
      <g
         id="g3140">
        <path
           inkscape:connector-curvature="0"
           style="fill:#ffb8a1"
           d="m 351.384,234.129 h -27.581 c 0,0 1.378,-17.118 9.662,-20.428 1.713,-0.685 4.563,-2.022 8.005,-3.71 0.477,-0.234 0.966,-0.474 1.463,-0.721 0.003,-0.003 0.008,-0.003 0.01,-0.005 0.879,-0.436 1.788,-0.889 2.721,-1.358 2.061,5.753 5.48,16.641 5.72,26.222 z"
           id="path3138" />
      </g>
      <g
         id="g3144">
        <path
           inkscape:connector-curvature="0"
           style="fill:#ffb8a1"
           d="m 433.423,234.129 h 27.581 c 0,0 -1.378,-17.118 -9.662,-20.428 -1.713,-0.685 -4.563,-2.022 -8.005,-3.71 -0.477,-0.234 -0.966,-0.474 -1.463,-0.721 -0.003,-0.003 -0.008,-0.003 -0.01,-0.005 -0.879,-0.436 -1.788,-0.889 -2.721,-1.358 -2.062,5.753 -5.481,16.641 -5.72,26.222 z"
           id="path3142" />
      </g>
      <g
         id="g3332">
        <g
           id="g3166">
          <g
             id="g3154">
            <g
               id="g3152">
              <g
                 id="g3150">
                <g
                   id="g3148">
                  <path
                     inkscape:connector-curvature="0"
                     style="fill:#ffb8a1"
                     d="m 407.871,195.385 c 0,0 -2.691,8.458 -15.055,8.458 -14.421,0 -17.815,-7.689 -17.815,-7.689 1.253,-3.322 2.114,-6.397 2.695,-9.146 h 0.004 c 1.069,-5.036 1.219,-8.992 1.153,-11.418 l 25.335,-1.003 c 0.235,2.145 0.615,4.671 1.046,7.212 1.145,6.747 2.637,13.586 2.637,13.586 z"
                     id="path3146" />
                </g>
              </g>
            </g>
          </g>
          <g
             id="g3164">
            <g
               id="g3162">
              <g
                 id="g3160">
                <g
                   id="g3158">
                  <path
                     inkscape:connector-curvature="0"
                     style="fill:#3f2037"
                     d="m 405.234,181.798 c -3.925,2.73 -12.506,6.793 -27.534,5.209 1.069,-5.036 1.219,-8.992 1.153,-11.418 l 25.335,-1.003 c 0.234,2.146 0.615,4.671 1.046,7.212 z"
                     id="path3156" />
                </g>
              </g>
            </g>
          </g>
        </g>
        <g
           id="g3206">
          <g
             id="g3204">
            <g
               id="g3176">
              <g
                 id="g3174">
                <g
                   id="g3172">
                  <g
                     id="g3170">
                    <path
                       inkscape:connector-curvature="0"
                       style="fill:#ffb8a1"
                       d="m 418.78,143.991 c 0,0 5.935,-8.079 10.552,-3.297 4.616,4.781 -4.286,21.433 -12.365,17.806 z"
                       id="path3168" />
                  </g>
                </g>
              </g>
            </g>
            <g
               id="g3182">
              <g
                 id="g3180">
                <path
                   inkscape:connector-curvature="0"
                   style="fill:#fff7f1"
                   d="m 416.327,158.337 c -3.787,1.84 -6.405,5.725 -6.405,10.208 0,6.256 5.089,11.347 11.344,11.347 6.256,0 11.344,-5.091 11.344,-11.347 0,-5.617 -4.104,-10.29 -9.471,-11.184 -0.51,-0.088 -1.031,-0.137 -1.559,-0.152 0.036,-0.443 0.131,-0.866 0.271,-1.281 0.876,0.039 1.729,0.17 2.548,0.381 5.457,1.396 9.499,6.351 9.499,12.236 0,6.967 -5.666,12.635 -12.632,12.635 -6.967,0 -12.632,-5.668 -12.632,-12.635 0,-5.284 3.262,-9.821 7.879,-11.702 z"
                   id="path3178" />
              </g>
            </g>
            <g
               id="g3192">
              <g
                 id="g3190">
                <g
                   id="g3188">
                  <g
                     id="g3186">
                    <path
                       inkscape:connector-curvature="0"
                       style="fill:#ff8a8a"
                       d="m 421.168,153.538 c -0.019,0 -0.038,-0.001 -0.057,-0.004 -0.224,-0.031 -0.381,-0.238 -0.35,-0.462 0.826,-5.945 5.408,-9.485 5.603,-9.633 0.181,-0.137 0.437,-0.102 0.574,0.079 0.137,0.18 0.102,0.437 -0.078,0.574 -0.045,0.034 -4.508,3.491 -5.287,9.092 -0.028,0.206 -0.204,0.354 -0.405,0.354 z"
                       id="path3184" />
                  </g>
                </g>
              </g>
            </g>
            <g
               id="g3202">
              <g
                 id="g3200">
                <g
                   id="g3198">
                  <g
                     id="g3196">
                    <path
                       inkscape:connector-curvature="0"
                       style="fill:#ff8a8a"
                       d="m 422.411,149.507 c -0.079,0 -0.159,-0.023 -0.23,-0.07 -0.187,-0.127 -0.237,-0.382 -0.11,-0.569 0.978,-1.446 3.629,-1.297 3.742,-1.291 0.226,0.014 0.397,0.209 0.383,0.434 -0.014,0.226 -0.211,0.4 -0.434,0.384 -0.637,-0.038 -2.418,0.054 -3.012,0.932 -0.079,0.116 -0.208,0.18 -0.339,0.18 z"
                       id="path3194" />
                  </g>
                </g>
              </g>
            </g>
          </g>
        </g>
        <g
           id="g3252">
          <g
             id="g3250">
            <g
               id="g3216">
              <g
                 id="g3214">
                <g
                   id="g3212">
                  <g
                     id="g3210">
                    <path
                       inkscape:connector-curvature="0"
                       style="fill:#ffb8a1"
                       d="m 367.302,143.991 c 0,0 -5.935,-8.079 -10.552,-3.297 -4.617,4.781 4.286,21.433 12.365,17.806 z"
                       id="path3208" />
                  </g>
                </g>
              </g>
            </g>
            <g
               id="g3222">
              <g
                 id="g3220">
                <path
                   inkscape:connector-curvature="0"
                   style="fill:#fff7f1"
                   d="m 368.909,156.843 c 4.617,1.881 7.879,6.418 7.879,11.702 0,6.967 -5.665,12.635 -12.632,12.635 -6.967,0 -12.632,-5.668 -12.632,-12.635 0,-5.885 4.042,-10.839 9.499,-12.236 0.819,-0.211 1.672,-0.343 2.548,-0.381 0.139,0.415 0.234,0.837 0.271,1.281 -0.528,0.015 -1.049,0.064 -1.559,0.152 -5.367,0.894 -9.471,5.568 -9.471,11.184 0,6.256 5.089,11.347 11.344,11.347 6.255,0 11.344,-5.091 11.344,-11.347 0,-4.483 -2.618,-8.368 -6.405,-10.208 z"
                   id="path3218" />
              </g>
            </g>
            <g
               id="g3228">
              <g
                 id="g3226">
                <path
                   inkscape:connector-curvature="0"
                   style="fill:#fff7f1"
                   d="m 368.909,156.843 c 4.617,1.881 7.879,6.418 7.879,11.702 0,6.967 -5.665,12.635 -12.632,12.635 -6.967,0 -12.632,-5.668 -12.632,-12.635 0,-5.885 4.042,-10.839 9.499,-12.236 0.819,-0.211 1.672,-0.343 2.548,-0.381 0.139,0.415 0.234,0.837 0.271,1.281 -0.528,0.015 -1.049,0.064 -1.559,0.152 -5.367,0.894 -9.471,5.568 -9.471,11.184 0,6.256 5.089,11.347 11.344,11.347 6.255,0 11.344,-5.091 11.344,-11.347 0,-4.483 -2.618,-8.368 -6.405,-10.208 z"
                   id="path3224" />
              </g>
            </g>
            <g
               id="g3238">
              <g
                 id="g3236">
                <g
                   id="g3234">
                  <g
                     id="g3232">
                    <path
                       inkscape:connector-curvature="0"
                       style="fill:#ff8a8a"
                       d="m 364.914,153.538 c 0.019,0 0.038,-0.001 0.057,-0.004 0.224,-0.031 0.381,-0.238 0.35,-0.462 -0.826,-5.945 -5.408,-9.485 -5.603,-9.633 -0.181,-0.137 -0.437,-0.102 -0.574,0.079 -0.137,0.18 -0.102,0.437 0.078,0.574 0.045,0.034 4.508,3.491 5.287,9.092 0.028,0.206 0.204,0.354 0.405,0.354 z"
                       id="path3230" />
                  </g>
                </g>
              </g>
            </g>
            <g
               id="g3248">
              <g
                 id="g3246">
                <g
                   id="g3244">
                  <g
                     id="g3242">
                    <path
                       inkscape:connector-curvature="0"
                       style="fill:#ff8a8a"
                       d="m 363.671,149.507 c 0.079,0 0.159,-0.023 0.229,-0.07 0.187,-0.127 0.237,-0.382 0.11,-0.569 -0.978,-1.446 -3.629,-1.297 -3.742,-1.291 -0.226,0.014 -0.397,0.209 -0.383,0.434 0.013,0.226 0.211,0.4 0.434,0.384 0.637,-0.038 2.418,0.054 3.012,0.932 0.08,0.116 0.209,0.18 0.34,0.18 z"
                       id="path3240" />
                  </g>
                </g>
              </g>
            </g>
          </g>
        </g>
        <g
           id="g3262">
          <g
             id="g3260">
            <g
               id="g3258">
              <g
                 id="g3256">
                <path
                   inkscape:connector-curvature="0"
                   style="fill:#ffb8a1"
                   d="m 421.788,145.305 c -0.428,16.44 -9.355,38.698 -28.975,38.234 -17.36,-0.407 -25.981,-16.881 -28.081,-31.909 -0.175,-1.268 -0.307,-2.527 -0.392,-3.764 -1.672,-24.229 7.964,-36.629 28.655,-37.307 1.162,-0.039 2.36,-0.039 3.594,-0.003 1.067,0.031 6.245,0.881 7.237,1.206 14.306,4.69 18.41,16.253 17.962,33.543 z"
                   id="path3254" />
              </g>
            </g>
          </g>
        </g>
        <g
           style="opacity:0.5"
           id="g3268">
          <g
             id="g3266">
            <path
               inkscape:connector-curvature="0"
               style="fill:#ff8a8a"
               d="m 383.03,155.161 c 0,1.896 -3.5,3.432 -7.817,3.432 -4.317,0 -7.817,-1.537 -7.817,-3.432 0,-1.896 3.5,-3.433 7.817,-3.433 4.317,0.001 7.817,1.538 7.817,3.433 z"
               id="path3264" />
          </g>
        </g>
        <g
           style="opacity:0.5"
           id="g3274">
          <g
             id="g3272">
            <path
               inkscape:connector-curvature="0"
               style="fill:#ff8a8a"
               d="m 419.808,155.161 c 0,1.896 -3.5,3.432 -7.817,3.432 -4.317,0 -7.817,-1.537 -7.817,-3.432 0,-1.896 3.5,-3.433 7.817,-3.433 4.317,0.001 7.817,1.538 7.817,3.433 z"
               id="path3270" />
          </g>
        </g>
        <g
           id="g3284">
          <g
             id="g3278">
            <path
               inkscape:connector-curvature="0"
               style="fill:#3f2037"
               d="m 381.552,125.364 c -5.086,0.386 -3.557,6.278 -8.564,9.159 -5.496,3.162 -4.818,5.055 -3.487,9.487 1.978,6.585 -4.523,8.152 -4.523,8.152 -0.082,-0.173 -0.165,-0.35 -0.245,-0.531 -0.175,-1.268 -0.307,-2.527 -0.392,-3.764 -1.672,-24.229 6.07,-38.348 28.655,-37.307 2.801,10.609 -4.639,14.287 -11.444,14.804 z"
               id="path3276" />
          </g>
          <g
             id="g3282">
            <path
               inkscape:connector-curvature="0"
               style="fill:#3f2037"
               d="m 404.013,123.625 c 6.762,-0.107 4.4,6.892 8.393,10.112 4.936,3.981 6.555,2.289 4.387,8.812 -2.243,6.745 4.205,9.613 4.205,9.613 0.082,-0.173 0.165,-0.35 0.245,-0.531 0.175,-1.268 0.307,-2.527 0.392,-3.764 1.672,-24.229 -6.522,-38.283 -28.655,-37.307 -2.801,10.609 4.21,13.173 11.033,13.065 z"
               id="path3280" />
          </g>
        </g>
        <g
           id="g3288">
          <path
             inkscape:connector-curvature="0"
             style="fill:#3f2037"
             d="m 386.258,133.748 c -2.653,0.06 -8.438,0.769 -11.04,5.586 0,0 5.978,-2.84 10.981,-2.536 0.956,0.058 1.727,-0.768 1.605,-1.718 v 0 c -0.101,-0.773 -0.766,-1.35 -1.546,-1.332 z"
             id="path3286" />
        </g>
        <g
           id="g3292">
          <path
             inkscape:connector-curvature="0"
             style="fill:#3f2037"
             d="m 400.946,133.748 c 2.653,0.06 8.438,0.769 11.04,5.586 0,0 -5.978,-2.84 -10.981,-2.536 -0.956,0.058 -1.728,-0.768 -1.605,-1.718 v 0 c 0.1,-0.773 0.766,-1.35 1.546,-1.332 z"
             id="path3290" />
        </g>
        <g
           id="g3296">
          <path
             inkscape:connector-curvature="0"
             style="fill:#ff8a8a"
             d="m 394.381,161.331 c -0.929,0 -1.948,-0.243 -3.07,-0.73 -0.307,-0.133 -0.488,-0.453 -0.445,-0.785 l 1.568,-12.045 c 0.053,-0.411 0.427,-0.7 0.841,-0.647 0.411,0.053 0.7,0.43 0.647,0.84 l -1.493,11.469 c 1.554,0.573 2.754,0.525 3.744,-0.143 0.343,-0.232 0.81,-0.141 1.041,0.202 0.232,0.343 0.141,0.81 -0.203,1.041 -0.789,0.532 -1.66,0.798 -2.63,0.798 z"
             id="path3294" />
        </g>
        <g
           id="g3300">
          <path
             inkscape:connector-curvature="0"
             style="fill:#ff8a8a"
             d="m 392.893,169.294 c -0.659,0 -1.281,-0.041 -1.854,-0.107 -3.428,-0.395 -5.825,-1.716 -5.925,-1.772 -0.362,-0.202 -0.491,-0.659 -0.289,-1.02 0.202,-0.361 0.658,-0.491 1.02,-0.29 v 0 c 0.362,0.2 8.94,4.834 16.365,-2.036 0.304,-0.282 0.779,-0.263 1.06,0.041 0.281,0.304 0.263,0.779 -0.041,1.06 -3.532,3.267 -7.329,4.124 -10.336,4.124 z"
             id="path3298" />
        </g>
        <g
           id="g3304">
          <path
             inkscape:connector-curvature="0"
             style="fill:#ff8a8a"
             d="m 394.202,173.692 c -1.745,0 -3.144,-0.426 -3.241,-0.457 -0.396,-0.123 -0.616,-0.544 -0.492,-0.939 0.123,-0.395 0.543,-0.616 0.939,-0.493 0.042,0.013 3.474,1.047 5.891,-0.32 0.361,-0.204 0.818,-0.077 1.022,0.284 0.204,0.361 0.077,0.818 -0.284,1.022 -1.231,0.695 -2.617,0.903 -3.835,0.903 z"
             id="path3302" />
        </g>
        <g
           id="g3330">
          <g
             id="g3316">
            <g
               id="g3314">
              <g
                 id="g3312">
                <g
                   id="g3310">
                  <g
                     id="g3308">
                    <path
                       inkscape:connector-curvature="0"
                       style="fill:#3f2037"
                       d="m 384.088,145.273 c 0.036,2.094 -0.736,3.806 -1.724,3.823 -0.989,0.017 -1.82,-1.666 -1.857,-3.761 -0.036,-2.094 0.736,-3.806 1.724,-3.823 0.99,-0.016 1.821,1.668 1.857,3.761 z"
                       id="path3306" />
                  </g>
                </g>
              </g>
            </g>
          </g>
          <g
             id="g3328">
            <g
               id="g3326">
              <g
                 id="g3324">
                <g
                   id="g3322">
                  <g
                     id="g3320">
                    <path
                       inkscape:connector-curvature="0"
                       style="fill:#3f2037"
                       d="m 402.804,145.273 c -0.036,2.094 0.736,3.806 1.724,3.823 0.989,0.017 1.82,-1.666 1.857,-3.761 0.036,-2.094 -0.736,-3.806 -1.724,-3.823 -0.989,-0.016 -1.82,1.668 -1.857,3.761 z"
                       id="path3318" />
                  </g>
                </g>
              </g>
            </g>
          </g>
        </g>
      </g>
    </g>
  </g>
</svg>
