<?xml version="1.0" encoding="UTF-8" standalone="no"?>
<!-- Created with Inkscape (http://www.inkscape.org/) -->

<svg
   xmlns:dc="http://purl.org/dc/elements/1.1/"
   xmlns:cc="http://creativecommons.org/ns#"
   xmlns:rdf="http://www.w3.org/1999/02/22-rdf-syntax-ns#"
   xmlns:svg="http://www.w3.org/2000/svg"
   xmlns="http://www.w3.org/2000/svg"
   xmlns:sodipodi="http://sodipodi.sourceforge.net/DTD/sodipodi-0.dtd"
   xmlns:inkscape="http://www.inkscape.org/namespaces/inkscape"
   width="181mm"
   height="181mm"
   viewBox="0 0 181 181"
   version="1.1"
   id="svg4301"
   inkscape:version="0.92.4 (5da689c313, 2019-01-14)"
   sodipodi:docname="cha4.svg">
  <defs
     id="defs4295" />
  <sodipodi:namedview
     id="base"
     pagecolor="#ffffff"
     bordercolor="#666666"
     borderopacity="1.0"
     inkscape:pageopacity="0.0"
     inkscape:pageshadow="2"
     inkscape:zoom="0.7"
     inkscape:cx="411.19793"
     inkscape:cy="351.43754"
     inkscape:document-units="mm"
     inkscape:current-layer="layer1"
     showgrid="false"
     inkscape:window-width="1366"
     inkscape:window-height="745"
     inkscape:window-x="-8"
     inkscape:window-y="-8"
     inkscape:window-maximized="1"
     inkscape:snap-global="false" />
  <metadata
     id="metadata4298">
    <rdf:RDF>
      <cc:Work
         rdf:about="">
        <dc:format>image/svg+xml</dc:format>
        <dc:type
           rdf:resource="http://purl.org/dc/dcmitype/StillImage" />
        <dc:title></dc:title>
      </cc:Work>
    </rdf:RDF>
  </metadata>
  <g
     inkscape:label="Layer 1"
     inkscape:groupmode="layer"
     id="layer1"
     transform="translate(0,-116)">
    <rect
       style="opacity:1;fill:#ffffff;fill-opacity:1;stroke:none;stroke-width:2.31418419;stroke-miterlimit:4;stroke-dasharray:none;stroke-opacity:1"
       id="rect14723"
       width="180.29465"
       height="181.0506"
       x="0.37797746"
       y="115.57143" />
    <g
       transform="matrix(1.16269,0,0,1.1411764,-20.467912,-190.02101)"
       id="g4284">
      <g
         id="g4022">
        <g
           id="g3842">
          <path
             inkscape:connector-curvature="0"
             style="fill:#3f2037"
             d="m 166.169,426.771 h -137.2 c 0,0 0.116,-1.445 0.484,-3.579 0.186,-1.067 0.433,-2.306 0.76,-3.622 0.474,-1.902 1.116,-3.965 1.976,-5.9 0.477,-1.074 1.02,-2.11 1.644,-3.058 1.26,-1.925 2.834,-3.483 4.797,-4.269 1.713,-0.685 4.563,-2.022 8.005,-3.71 0.477,-0.234 0.966,-0.474 1.463,-0.721 0.003,-0.003 0.008,-0.003 0.01,-0.005 0.946,-0.469 1.925,-0.958 2.932,-1.463 1.152,-0.577 2.337,-1.177 3.54,-1.788 5.727,-2.909 11.883,-6.109 16.881,-8.726 0.788,-0.412 1.546,-0.812 2.27,-1.193 h 0.003 c 0.477,-0.25 0.935,-0.492 1.381,-0.724 0.003,-0.003 0.005,-0.003 0.005,-0.003 3.96,-2.087 6.575,-3.476 6.575,-3.476 l 1.049,0.234 c 9.754,2.185 19.877,2.105 29.593,-0.234 0,0 2.705,1.394 6.804,3.486 0.59,0.301 1.208,0.616 1.85,0.943 0.273,0.139 0.549,0.278 0.83,0.42 0,0.003 0.003,0.003 0.003,0.003 2.839,1.448 6.106,3.105 9.494,4.81 3.002,1.512 6.096,3.061 9.069,4.532 1.257,0.624 2.491,1.232 3.689,1.816 5.416,2.654 10.058,4.849 12.431,5.8 1.948,0.781 3.514,2.324 4.771,4.228 0.634,0.961 1.19,2.015 1.675,3.11 0.863,1.94 1.502,4.009 1.976,5.913 0.322,1.291 0.564,2.507 0.747,3.558 0.375,2.155 0.493,3.618 0.493,3.618 z"
             id="path3840" />
        </g>
        <g
           id="g4012">
          <g
             id="g3864">
            <g
               id="g3846">
              <path
                 inkscape:connector-curvature="0"
                 style="fill:#734669"
                 d="m 77.999,390.459 c 0,1.371 -1.11,2.481 -2.481,2.481 -1.371,0 -2.481,-1.11 -2.481,-2.481 0,-0.67 0.265,-1.278 0.696,-1.724 h 0.003 c 0.477,-0.25 0.935,-0.492 1.381,-0.724 0.003,-0.003 0.005,-0.003 0.005,-0.003 0.129,-0.021 0.263,-0.031 0.397,-0.031 1.369,0.001 2.48,1.111 2.48,2.482 z"
                 id="path3844" />
            </g>
            <g
               id="g3850">
              <path
                 inkscape:connector-curvature="0"
                 style="fill:#734669"
                 d="m 89.015,390.459 c 0,1.37 -1.111,2.48 -2.48,2.48 -1.37,0 -2.48,-1.111 -2.48,-2.48 0,-1.369 1.111,-2.48 2.48,-2.48 1.369,-10e-4 2.48,1.11 2.48,2.48 z"
                 id="path3848" />
            </g>
            <g
               id="g3854">
              <path
                 inkscape:connector-curvature="0"
                 style="fill:#734669"
                 d="m 100.031,390.459 c 0,1.37 -1.11,2.48 -2.48,2.48 -1.37,0 -2.48,-1.111 -2.48,-2.48 0,-1.369 1.111,-2.48 2.48,-2.48 1.369,0 2.48,1.11 2.48,2.48 z"
                 id="path3852" />
            </g>
            <g
               id="g3858">
              <path
                 inkscape:connector-curvature="0"
                 style="fill:#734669"
                 d="m 111.048,390.459 c 0,1.37 -1.111,2.48 -2.48,2.48 -1.37,0 -2.48,-1.111 -2.48,-2.48 0,-1.369 1.111,-2.48 2.48,-2.48 1.37,-10e-4 2.48,1.11 2.48,2.48 z"
                 id="path3856" />
            </g>
            <g
               id="g3862">
              <path
                 inkscape:connector-curvature="0"
                 style="fill:#734669"
                 d="m 122.066,390.459 c 0,1.371 -1.11,2.481 -2.481,2.481 -1.371,0 -2.481,-1.11 -2.481,-2.481 0,-1.219 0.879,-2.234 2.038,-2.44 0.59,0.301 1.208,0.616 1.85,0.943 0.273,0.139 0.549,0.278 0.83,0.42 0,0.003 0.003,0.003 0.003,0.003 0.153,0.324 0.241,0.69 0.241,1.074 z"
                 id="path3860" />
            </g>
          </g>
          <g
             id="g3902">
            <g
               id="g3868">
              <path
                 inkscape:connector-curvature="0"
                 style="fill:#734669"
                 d="m 55.965,400.878 c 0,1.371 -1.113,2.481 -2.481,2.481 -1.371,0 -2.481,-1.111 -2.481,-2.481 0,-0.149 0.013,-0.294 0.039,-0.435 1.152,-0.577 2.337,-1.177 3.54,-1.788 0.819,0.406 1.383,1.249 1.383,2.223 z"
                 id="path3866" />
            </g>
            <g
               id="g3872">
              <path
                 inkscape:connector-curvature="0"
                 style="fill:#734669"
                 d="m 66.981,400.879 c 0,1.37 -1.111,2.48 -2.48,2.48 -1.37,0 -2.48,-1.111 -2.48,-2.48 0,-1.369 1.111,-2.48 2.48,-2.48 1.369,0 2.48,1.11 2.48,2.48 z"
                 id="path3870" />
            </g>
            <g
               id="g3876">
              <path
                 inkscape:connector-curvature="0"
                 style="fill:#734669"
                 d="m 77.998,400.879 c 0,1.37 -1.111,2.48 -2.48,2.48 -1.37,0 -2.48,-1.111 -2.48,-2.48 0,-1.369 1.11,-2.48 2.48,-2.48 1.369,0 2.48,1.11 2.48,2.48 z"
                 id="path3874" />
            </g>
            <g
               id="g3880">
              <path
                 inkscape:connector-curvature="0"
                 style="fill:#734669"
                 d="m 89.015,400.879 c 0,1.37 -1.111,2.48 -2.48,2.48 -1.37,0 -2.48,-1.111 -2.48,-2.48 0,-1.369 1.111,-2.48 2.48,-2.48 1.369,0 2.48,1.11 2.48,2.48 z"
                 id="path3878" />
            </g>
            <g
               id="g3884">
              <path
                 inkscape:connector-curvature="0"
                 style="fill:#734669"
                 d="m 100.031,400.879 c 0,1.37 -1.11,2.48 -2.48,2.48 -1.37,0 -2.48,-1.111 -2.48,-2.48 0,-1.369 1.111,-2.48 2.48,-2.48 1.369,0 2.48,1.11 2.48,2.48 z"
                 id="path3882" />
            </g>
            <g
               id="g3888">
              <path
                 inkscape:connector-curvature="0"
                 style="fill:#734669"
                 d="m 111.048,400.879 c 0,1.37 -1.111,2.48 -2.48,2.48 -1.37,0 -2.48,-1.111 -2.48,-2.48 0,-1.369 1.111,-2.48 2.48,-2.48 1.37,0 2.48,1.11 2.48,2.48 z"
                 id="path3886" />
            </g>
            <g
               id="g3892">
              <path
                 inkscape:connector-curvature="0"
                 style="fill:#734669"
                 d="m 122.065,400.879 c 0,1.37 -1.11,2.48 -2.48,2.48 -1.37,0 -2.48,-1.111 -2.48,-2.48 0,-1.369 1.111,-2.48 2.48,-2.48 1.37,0 2.48,1.11 2.48,2.48 z"
                 id="path3890" />
            </g>
            <g
               id="g3896">
              <path
                 inkscape:connector-curvature="0"
                 style="fill:#734669"
                 d="m 133.082,400.879 c 0,1.37 -1.111,2.48 -2.48,2.48 -1.37,0 -2.48,-1.111 -2.48,-2.48 0,-1.369 1.111,-2.48 2.48,-2.48 1.37,0 2.48,1.11 2.48,2.48 z"
                 id="path3894" />
            </g>
            <g
               id="g3900">
              <path
                 inkscape:connector-curvature="0"
                 style="fill:#734669"
                 d="m 144.1,400.878 c 0,1.371 -1.11,2.481 -2.481,2.481 -1.371,0 -2.481,-1.111 -2.481,-2.481 0,-0.92 0.502,-1.724 1.25,-2.151 1.257,0.624 2.491,1.232 3.689,1.816 0.015,0.111 0.023,0.222 0.023,0.335 z"
                 id="path3898" />
            </g>
          </g>
          <g
             id="g3956">
            <g
               id="g3906">
              <path
                 inkscape:connector-curvature="0"
                 style="fill:#734669"
                 d="m 33.929,411.3 c 0,1.113 -0.732,2.053 -1.739,2.37 0.477,-1.074 1.02,-2.11 1.644,-3.058 0.061,0.219 0.095,0.448 0.095,0.688 z"
                 id="path3904" />
            </g>
            <g
               id="g3910">
              <path
                 inkscape:connector-curvature="0"
                 style="fill:#734669"
                 d="m 44.947,411.299 c 0,1.37 -1.111,2.48 -2.48,2.48 -1.37,0 -2.48,-1.11 -2.48,-2.48 0,-1.37 1.11,-2.48 2.48,-2.48 1.369,0 2.48,1.11 2.48,2.48 z"
                 id="path3908" />
            </g>
            <g
               id="g3914">
              <path
                 inkscape:connector-curvature="0"
                 style="fill:#734669"
                 d="m 55.964,411.299 c 0,1.37 -1.111,2.48 -2.48,2.48 -1.369,0 -2.48,-1.11 -2.48,-2.48 0,-1.37 1.111,-2.48 2.48,-2.48 1.369,0 2.48,1.11 2.48,2.48 z"
                 id="path3912" />
            </g>
            <g
               id="g3918">
              <path
                 inkscape:connector-curvature="0"
                 style="fill:#734669"
                 d="m 66.981,411.299 c 0,1.37 -1.111,2.48 -2.48,2.48 -1.37,0 -2.48,-1.11 -2.48,-2.48 0,-1.37 1.111,-2.48 2.48,-2.48 1.369,0 2.48,1.11 2.48,2.48 z"
                 id="path3916" />
            </g>
            <g
               id="g3922">
              <path
                 inkscape:connector-curvature="0"
                 style="fill:#734669"
                 d="m 77.998,411.299 c 0,1.37 -1.111,2.48 -2.48,2.48 -1.37,0 -2.48,-1.11 -2.48,-2.48 0,-1.37 1.11,-2.48 2.48,-2.48 1.369,0 2.48,1.11 2.48,2.48 z"
                 id="path3920" />
            </g>
            <g
               id="g3926">
              <path
                 inkscape:connector-curvature="0"
                 style="fill:#734669"
                 d="m 89.015,411.299 c 0,1.37 -1.111,2.48 -2.48,2.48 -1.37,0 -2.48,-1.11 -2.48,-2.48 0,-1.37 1.111,-2.48 2.48,-2.48 1.369,0 2.48,1.11 2.48,2.48 z"
                 id="path3924" />
            </g>
            <g
               id="g3930">
              <path
                 inkscape:connector-curvature="0"
                 style="fill:#734669"
                 d="m 100.031,411.299 c 0,1.37 -1.11,2.48 -2.48,2.48 -1.37,0 -2.48,-1.11 -2.48,-2.48 0,-1.37 1.111,-2.48 2.48,-2.48 1.369,0 2.48,1.11 2.48,2.48 z"
                 id="path3928" />
            </g>
            <g
               id="g3934">
              <path
                 inkscape:connector-curvature="0"
                 style="fill:#734669"
                 d="m 111.048,411.299 c 0,1.37 -1.111,2.48 -2.48,2.48 -1.37,0 -2.48,-1.11 -2.48,-2.48 0,-1.37 1.111,-2.48 2.48,-2.48 1.37,0 2.48,1.11 2.48,2.48 z"
                 id="path3932" />
            </g>
            <g
               id="g3938">
              <path
                 inkscape:connector-curvature="0"
                 style="fill:#734669"
                 d="m 122.065,411.299 c 0,1.37 -1.11,2.48 -2.48,2.48 -1.37,0 -2.48,-1.11 -2.48,-2.48 0,-1.37 1.111,-2.48 2.48,-2.48 1.37,0 2.48,1.11 2.48,2.48 z"
                 id="path3936" />
            </g>
            <g
               id="g3942">
              <path
                 inkscape:connector-curvature="0"
                 style="fill:#734669"
                 d="m 133.082,411.299 c 0,1.37 -1.111,2.48 -2.48,2.48 -1.37,0 -2.48,-1.11 -2.48,-2.48 0,-1.37 1.111,-2.48 2.48,-2.48 1.37,0 2.48,1.11 2.48,2.48 z"
                 id="path3940" />
            </g>
            <g
               id="g3946">
              <path
                 inkscape:connector-curvature="0"
                 style="fill:#734669"
                 d="m 144.099,411.299 c 0,1.37 -1.111,2.48 -2.48,2.48 -1.369,0 -2.48,-1.11 -2.48,-2.48 0,-1.37 1.111,-2.48 2.48,-2.48 1.369,0 2.48,1.11 2.48,2.48 z"
                 id="path3944" />
            </g>
            <g
               id="g3950">
              <path
                 inkscape:connector-curvature="0"
                 style="fill:#734669"
                 d="m 155.116,411.299 c 0,1.37 -1.111,2.48 -2.48,2.48 -1.37,0 -2.48,-1.11 -2.48,-2.48 0,-1.37 1.111,-2.48 2.48,-2.48 1.37,0 2.48,1.11 2.48,2.48 z"
                 id="path3948" />
            </g>
            <g
               id="g3954">
              <path
                 inkscape:connector-curvature="0"
                 style="fill:#734669"
                 d="m 162.954,413.68 c -1.031,-0.301 -1.783,-1.252 -1.783,-2.381 0,-0.255 0.039,-0.5 0.108,-0.729 0.634,0.961 1.191,2.015 1.675,3.11 z"
                 id="path3952" />
            </g>
          </g>
          <g
             id="g4010">
            <g
               id="g3960">
              <path
                 inkscape:connector-curvature="0"
                 style="fill:#734669"
                 d="m 33.929,421.719 c 0,1.371 -1.11,2.481 -2.479,2.481 -0.819,0 -1.543,-0.397 -1.997,-1.007 0.186,-1.067 0.433,-2.306 0.76,-3.622 0.363,-0.209 0.786,-0.33 1.237,-0.33 1.368,-10e-4 2.479,1.11 2.479,2.478 z"
                 id="path3958" />
            </g>
            <g
               id="g3964">
              <path
                 inkscape:connector-curvature="0"
                 style="fill:#734669"
                 d="m 44.947,421.72 c 0,1.37 -1.111,2.48 -2.48,2.48 -1.37,0 -2.48,-1.111 -2.48,-2.48 0,-1.369 1.11,-2.48 2.48,-2.48 1.369,-0.001 2.48,1.11 2.48,2.48 z"
                 id="path3962" />
            </g>
            <g
               id="g3968">
              <path
                 inkscape:connector-curvature="0"
                 style="fill:#734669"
                 d="m 55.964,421.72 c 0,1.37 -1.111,2.48 -2.48,2.48 -1.369,0 -2.48,-1.111 -2.48,-2.48 0,-1.369 1.111,-2.48 2.48,-2.48 1.369,0 2.48,1.11 2.48,2.48 z"
                 id="path3966" />
            </g>
            <g
               id="g3972">
              <path
                 inkscape:connector-curvature="0"
                 style="fill:#734669"
                 d="m 66.981,421.72 c 0,1.37 -1.111,2.48 -2.48,2.48 -1.37,0 -2.48,-1.111 -2.48,-2.48 0,-1.369 1.111,-2.48 2.48,-2.48 1.369,-0.001 2.48,1.11 2.48,2.48 z"
                 id="path3970" />
            </g>
            <g
               id="g3976">
              <path
                 inkscape:connector-curvature="0"
                 style="fill:#734669"
                 d="m 77.998,421.72 c 0,1.37 -1.111,2.48 -2.48,2.48 -1.37,0 -2.48,-1.111 -2.48,-2.48 0,-1.369 1.11,-2.48 2.48,-2.48 1.369,-0.001 2.48,1.11 2.48,2.48 z"
                 id="path3974" />
            </g>
            <g
               id="g3980">
              <path
                 inkscape:connector-curvature="0"
                 style="fill:#734669"
                 d="m 89.015,421.72 c 0,1.37 -1.111,2.48 -2.48,2.48 -1.37,0 -2.48,-1.111 -2.48,-2.48 0,-1.369 1.111,-2.48 2.48,-2.48 1.369,-0.001 2.48,1.11 2.48,2.48 z"
                 id="path3978" />
            </g>
            <g
               id="g3984">
              <path
                 inkscape:connector-curvature="0"
                 style="fill:#734669"
                 d="m 100.031,421.72 c 0,1.37 -1.11,2.48 -2.48,2.48 -1.37,0 -2.48,-1.111 -2.48,-2.48 0,-1.369 1.111,-2.48 2.48,-2.48 1.369,0 2.48,1.11 2.48,2.48 z"
                 id="path3982" />
            </g>
            <g
               id="g3988">
              <path
                 inkscape:connector-curvature="0"
                 style="fill:#734669"
                 d="m 111.048,421.72 c 0,1.37 -1.111,2.48 -2.48,2.48 -1.37,0 -2.48,-1.111 -2.48,-2.48 0,-1.369 1.111,-2.48 2.48,-2.48 1.37,-0.001 2.48,1.11 2.48,2.48 z"
                 id="path3986" />
            </g>
            <g
               id="g3992">
              <path
                 inkscape:connector-curvature="0"
                 style="fill:#734669"
                 d="m 122.065,421.72 c 0,1.37 -1.11,2.48 -2.48,2.48 -1.37,0 -2.48,-1.111 -2.48,-2.48 0,-1.369 1.111,-2.48 2.48,-2.48 1.37,-0.001 2.48,1.11 2.48,2.48 z"
                 id="path3990" />
            </g>
            <g
               id="g3996">
              <path
                 inkscape:connector-curvature="0"
                 style="fill:#734669"
                 d="m 133.082,421.72 c 0,1.37 -1.111,2.48 -2.48,2.48 -1.37,0 -2.48,-1.111 -2.48,-2.48 0,-1.369 1.111,-2.48 2.48,-2.48 1.37,-0.001 2.48,1.11 2.48,2.48 z"
                 id="path3994" />
            </g>
            <g
               id="g4000">
              <path
                 inkscape:connector-curvature="0"
                 style="fill:#734669"
                 d="m 144.099,421.72 c 0,1.37 -1.111,2.48 -2.48,2.48 -1.369,0 -2.48,-1.111 -2.48,-2.48 0,-1.369 1.111,-2.48 2.48,-2.48 1.369,0 2.48,1.11 2.48,2.48 z"
                 id="path3998" />
            </g>
            <g
               id="g4004">
              <path
                 inkscape:connector-curvature="0"
                 style="fill:#734669"
                 d="m 155.116,421.72 c 0,1.37 -1.111,2.48 -2.48,2.48 -1.37,0 -2.48,-1.111 -2.48,-2.48 0,-1.369 1.111,-2.48 2.48,-2.48 1.37,-0.001 2.48,1.11 2.48,2.48 z"
                 id="path4002" />
            </g>
            <g
               id="g4008">
              <path
                 inkscape:connector-curvature="0"
                 style="fill:#734669"
                 d="m 165.677,423.151 c -0.448,0.634 -1.188,1.049 -2.025,1.049 -1.371,0 -2.481,-1.11 -2.481,-2.481 0,-1.368 1.11,-2.478 2.481,-2.478 0.466,0 0.904,0.129 1.278,0.353 0.322,1.29 0.564,2.506 0.747,3.557 z"
                 id="path4006" />
            </g>
          </g>
        </g>
        <g
           id="g4016">
          <path
             inkscape:connector-curvature="0"
             style="fill:#ffb8a1"
             d="m 118.812,387.849 c -2.473,5.671 -4.952,11.341 -7.436,17.01 -3.2,7.309 -6.413,14.616 -9.644,21.913 H 96.19 c -4.225,-7.278 -8.551,-14.498 -12.813,-21.755 -1.724,-2.935 -3.437,-5.877 -5.127,-8.829 -1.44,-2.517 -2.834,-5.06 -4.148,-7.644 4.527,-2.381 7.593,-4.009 7.593,-4.009 l 1.049,0.234 c 9.754,2.185 19.877,2.105 29.593,-0.234 0,-0.002 2.561,1.317 6.475,3.314 z"
             id="path4014" />
        </g>
        <g
           id="g4020">
          <path
             inkscape:connector-curvature="0"
             style="fill:#fff7f1"
             d="m 111.376,404.858 c -3.2,7.309 -6.413,14.616 -9.644,21.913 H 96.19 c -4.225,-7.278 -8.551,-14.498 -12.813,-21.755 6.455,1.798 16.508,3.207 27.999,-0.158 z"
             id="path4018" />
        </g>
      </g>
      <g
         id="g4260">
        <g
           id="g4048">
          <g
             id="g4036">
            <g
               id="g4034">
              <g
                 id="g4032">
                <g
                   id="g4026">
                  <path
                     inkscape:connector-curvature="0"
                     style="fill:#ffb8a1"
                     d="m 113.036,388.026 c 0,0 -2.691,8.458 -15.055,8.458 -14.421,0 -17.815,-7.689 -17.815,-7.689 1.253,-3.322 2.114,-6.397 2.695,-9.146 h 0.004 c 1.069,-5.036 1.219,-8.992 1.153,-11.418 l 25.335,-1.003 c 0.235,2.145 0.615,4.671 1.046,7.212 1.145,6.747 2.637,13.586 2.637,13.586 z"
                     id="path4024" />
                </g>
                <g
                   id="g4030">
                  <path
                     inkscape:connector-curvature="0"
                     style="fill:#fff7f1"
                     d="m 98.153,400.396 c -7.564,0 -12.512,-3.877 -15.33,-7.129 -3.041,-3.509 -4.285,-6.972 -4.337,-7.117 -0.092,-0.26 0.044,-0.546 0.305,-0.638 0.26,-0.092 0.546,0.044 0.638,0.304 0.012,0.034 1.246,3.455 4.173,6.823 3.897,4.484 8.793,6.758 14.551,6.758 13.723,0 17.019,-13.392 17.051,-13.527 0.063,-0.269 0.333,-0.436 0.601,-0.373 0.269,0.063 0.436,0.332 0.373,0.601 -0.034,0.146 -0.869,3.62 -3.501,7.142 -2.441,3.264 -6.942,7.156 -14.524,7.156 z"
                     id="path4028" />
                </g>
              </g>
            </g>
          </g>
          <g
             id="g4046">
            <g
               id="g4044">
              <g
                 id="g4042">
                <g
                   id="g4040">
                  <path
                     inkscape:connector-curvature="0"
                     style="fill:#3f2037"
                     d="m 110.399,374.44 c -3.925,2.73 -12.506,6.793 -27.534,5.209 1.069,-5.036 1.219,-8.992 1.153,-11.418 l 25.335,-1.003 c 0.235,2.145 0.615,4.671 1.046,7.212 z"
                     id="path4038" />
                </g>
              </g>
            </g>
          </g>
        </g>
        <g
           id="g4086">
          <g
             id="g4084">
            <g
               id="g4058">
              <g
                 id="g4056">
                <g
                   id="g4054">
                  <g
                     id="g4052">
                    <path
                       inkscape:connector-curvature="0"
                       style="fill:#ffb8a1"
                       d="m 74.347,335.191 c 0,0 -7.841,-10.672 -13.939,-4.356 -6.098,6.316 5.663,28.314 16.335,23.522 z"
                       id="path4050" />
                  </g>
                </g>
              </g>
            </g>
            <g
               id="g4062">
              <circle
                 style="fill:#fff7f1"
                 cx="67.738998"
                 cy="348.77802"
                 r="2.1819999"
                 id="circle4060" />
            </g>
            <g
               id="g4072">
              <g
                 id="g4070">
                <g
                   id="g4068">
                  <g
                     id="g4066">
                    <path
                       inkscape:connector-curvature="0"
                       style="fill:#ff8a8a"
                       d="m 71.09,347.803 c -0.266,0 -0.498,-0.196 -0.536,-0.467 -1.031,-7.415 -6.925,-11.966 -6.984,-12.011 -0.238,-0.181 -0.285,-0.521 -0.104,-0.759 0.181,-0.238 0.52,-0.285 0.759,-0.104 0.257,0.195 6.31,4.871 7.401,12.724 0.041,0.297 -0.165,0.57 -0.462,0.611 -0.023,0.004 -0.049,0.006 -0.074,0.006 z"
                       id="path4064" />
                  </g>
                </g>
              </g>
            </g>
            <g
               id="g4082">
              <g
                 id="g4080">
                <g
                   id="g4078">
                  <g
                     id="g4076">
                    <path
                       inkscape:connector-curvature="0"
                       style="fill:#ff8a8a"
                       d="m 69.448,342.477 c -0.174,0 -0.345,-0.084 -0.449,-0.238 -0.787,-1.164 -3.141,-1.282 -3.978,-1.23 -0.301,0.021 -0.556,-0.208 -0.574,-0.507 -0.019,-0.299 0.208,-0.556 0.507,-0.574 0.149,-0.01 3.651,-0.205 4.942,1.705 0.168,0.248 0.103,0.584 -0.145,0.752 -0.093,0.062 -0.198,0.092 -0.303,0.092 z"
                       id="path4074" />
                  </g>
                </g>
              </g>
            </g>
          </g>
        </g>
        <g
           id="g4124">
          <g
             id="g4122">
            <g
               id="g4096">
              <g
                 id="g4094">
                <g
                   id="g4092">
                  <g
                     id="g4090">
                    <path
                       inkscape:connector-curvature="0"
                       style="fill:#ffb8a1"
                       d="m 122.112,335.191 c 0,0 7.841,-10.672 13.939,-4.356 6.099,6.316 -5.663,28.314 -16.335,23.522 z"
                       id="path4088" />
                  </g>
                </g>
              </g>
            </g>
            <g
               id="g4100">
              <circle
                 style="fill:#fff7f1"
                 cx="128.121"
                 cy="348.77802"
                 r="2.1819999"
                 id="circle4098" />
            </g>
            <g
               id="g4110">
              <g
                 id="g4108">
                <g
                   id="g4106">
                  <g
                     id="g4104">
                    <path
                       inkscape:connector-curvature="0"
                       style="fill:#ff8a8a"
                       d="m 125.266,347.803 c -0.025,0 -0.05,-0.002 -0.075,-0.005 -0.297,-0.041 -0.503,-0.315 -0.462,-0.611 1.091,-7.854 7.144,-12.53 7.401,-12.725 0.239,-0.181 0.578,-0.135 0.759,0.104 0.181,0.238 0.135,0.578 -0.103,0.759 -0.06,0.045 -5.955,4.612 -6.984,12.011 -0.037,0.271 -0.27,0.467 -0.536,0.467 z"
                       id="path4102" />
                  </g>
                </g>
              </g>
            </g>
            <g
               id="g4120">
              <g
                 id="g4118">
                <g
                   id="g4116">
                  <g
                     id="g4114">
                    <path
                       inkscape:connector-curvature="0"
                       style="fill:#ff8a8a"
                       d="m 126.908,342.477 c -0.105,0 -0.21,-0.03 -0.303,-0.093 -0.248,-0.168 -0.313,-0.504 -0.145,-0.752 1.292,-1.909 4.794,-1.714 4.943,-1.705 0.298,0.019 0.525,0.275 0.506,0.574 -0.018,0.299 -0.278,0.528 -0.573,0.508 -0.842,-0.05 -3.195,0.071 -3.979,1.231 -0.105,0.154 -0.275,0.237 -0.449,0.237 z"
                       id="path4112" />
                  </g>
                </g>
              </g>
            </g>
          </g>
        </g>
        <g
           id="g4134">
          <g
             id="g4132">
            <g
               id="g4130">
              <g
                 id="g4128">
                <path
                   inkscape:connector-curvature="0"
                   style="fill:#ffb8a1"
                   d="m 101.756,303.198 c -23.166,-0.676 -34.016,11.718 -32.249,37.311 1.098,15.897 9.649,35.23 28.473,35.673 19.618,0.462 28.546,-21.795 28.973,-38.236 0.448,-17.289 -3.657,-28.854 -17.961,-33.543 -0.992,-0.325 -6.17,-1.174 -7.236,-1.205 z"
                   id="path4126" />
              </g>
            </g>
          </g>
        </g>
        <g
           id="g4146">
          <g
             id="g4140">
            <g
               id="g4138">
              <path
                 inkscape:connector-curvature="0"
                 style="fill:#ff4f4e"
                 d="m 116.452,294.886 c -0.131,0.325 -0.276,0.652 -0.43,0.979 -1.438,3.032 -3.877,6.189 -7.551,9.368 H 90.384 c 0,0 -6.49,-3.584 -9.875,-9.396 -0.178,-0.307 -0.35,-0.624 -0.51,-0.943 -2.357,-4.707 -2.52,-10.718 4.05,-17.391 13.002,-13.21 39.607,-0.289 32.403,17.383 z"
                 id="path4136" />
            </g>
          </g>
          <g
             id="g4144">
            <path
               inkscape:connector-curvature="0"
               style="fill:#c42c31"
               d="m 116.022,295.865 c -1.438,3.032 -3.877,6.189 -7.551,9.368 H 90.384 c 0,0 -6.49,-3.584 -9.875,-9.396 2.115,-1.285 9.7,-3.88 17.23,-2.074 -0.001,0 9.876,-2.489 18.283,2.102 z"
               id="path4142" />
          </g>
        </g>
        <g
           id="g4150">
          <path
             inkscape:connector-curvature="0"
             style="fill:#ff4f4e"
             d="m 73.522,328.056 c 0,0 24.63,-6.374 24.63,-19.227 0,0 5.664,17.751 24.731,19.227 l 4.101,3.088 c 0,0 2.19,-1.767 3.866,-2.244 0,0 4.934,-39.065 -32.76,-33.84 0,0 -11.705,-2.624 -21.348,4.051 -13.958,9.662 -8.388,30.87 -8.388,30.87 z"
             id="path4148" />
        </g>
        <g
           id="g4176">
          <g
             id="g4154">
            <path
               inkscape:connector-curvature="0"
               style="fill:#ff8a8a"
               d="m 81.342,345.478 c 0,0.373 -0.302,0.675 -0.675,0.675 -0.373,0 -0.675,-0.302 -0.675,-0.675 0,-0.373 0.302,-0.675 0.675,-0.675 0.373,0 0.675,0.302 0.675,0.675 z"
               id="path4152" />
          </g>
          <g
             id="g4158">
            <path
               inkscape:connector-curvature="0"
               style="fill:#ff8a8a"
               d="m 84.637,347.107 c 0,0.373 -0.302,0.675 -0.675,0.675 -0.373,0 -0.675,-0.302 -0.675,-0.675 0,-0.373 0.302,-0.675 0.675,-0.675 0.373,0 0.675,0.302 0.675,0.675 z"
               id="path4156" />
          </g>
          <g
             id="g4162">
            <path
               inkscape:connector-curvature="0"
               style="fill:#ff8a8a"
               d="m 81.342,349.453 c 0,0.373 -0.302,0.675 -0.675,0.675 -0.373,0 -0.675,-0.302 -0.675,-0.675 0,-0.373 0.302,-0.675 0.675,-0.675 0.373,0 0.675,0.302 0.675,0.675 z"
               id="path4160" />
          </g>
          <g
             id="g4166">
            <path
               inkscape:connector-curvature="0"
               style="fill:#ff8a8a"
               d="m 86.522,350.128 c 0,0.373 -0.302,0.675 -0.675,0.675 -0.373,0 -0.675,-0.302 -0.675,-0.675 0,-0.373 0.302,-0.675 0.675,-0.675 0.373,0 0.675,0.302 0.675,0.675 z"
               id="path4164" />
          </g>
          <g
             id="g4170">
            <path
               inkscape:connector-curvature="0"
               style="fill:#ff8a8a"
               d="m 89.974,349.453 c 0,0.373 -0.302,0.675 -0.675,0.675 -0.373,0 -0.675,-0.302 -0.675,-0.675 0,-0.373 0.302,-0.675 0.675,-0.675 0.373,0 0.675,0.302 0.675,0.675 z"
               id="path4168" />
          </g>
          <g
             id="g4174">
            <path
               inkscape:connector-curvature="0"
               style="fill:#ff8a8a"
               d="m 88.405,346.153 c 0,0.373 -0.302,0.675 -0.675,0.675 -0.373,0 -0.675,-0.302 -0.675,-0.675 0,-0.373 0.302,-0.675 0.675,-0.675 0.372,0 0.675,0.302 0.675,0.675 z"
               id="path4172" />
          </g>
        </g>
        <g
           id="g4202">
          <g
             id="g4180">
            <path
               inkscape:connector-curvature="0"
               style="fill:#ff8a8a"
               d="m 115.69,345.478 c 0,0.373 0.302,0.675 0.675,0.675 0.373,0 0.675,-0.302 0.675,-0.675 0,-0.373 -0.302,-0.675 -0.675,-0.675 -0.373,0 -0.675,0.302 -0.675,0.675 z"
               id="path4178" />
          </g>
          <g
             id="g4184">
            <path
               inkscape:connector-curvature="0"
               style="fill:#ff8a8a"
               d="m 112.395,347.107 c 0,0.373 0.302,0.675 0.675,0.675 0.373,0 0.675,-0.302 0.675,-0.675 0,-0.373 -0.302,-0.675 -0.675,-0.675 -0.373,0 -0.675,0.302 -0.675,0.675 z"
               id="path4182" />
          </g>
          <g
             id="g4188">
            <path
               inkscape:connector-curvature="0"
               style="fill:#ff8a8a"
               d="m 115.69,349.453 c 0,0.373 0.302,0.675 0.675,0.675 0.373,0 0.675,-0.302 0.675,-0.675 0,-0.373 -0.302,-0.675 -0.675,-0.675 -0.373,0 -0.675,0.302 -0.675,0.675 z"
               id="path4186" />
          </g>
          <g
             id="g4192">
            <path
               inkscape:connector-curvature="0"
               style="fill:#ff8a8a"
               d="m 110.51,350.128 c 0,0.373 0.302,0.675 0.675,0.675 0.373,0 0.675,-0.302 0.675,-0.675 0,-0.373 -0.302,-0.675 -0.675,-0.675 -0.373,0 -0.675,0.302 -0.675,0.675 z"
               id="path4190" />
          </g>
          <g
             id="g4196">
            <path
               inkscape:connector-curvature="0"
               style="fill:#ff8a8a"
               d="m 107.058,349.453 c 0,0.373 0.302,0.675 0.675,0.675 0.373,0 0.675,-0.302 0.675,-0.675 0,-0.373 -0.302,-0.675 -0.675,-0.675 -0.373,0 -0.675,0.302 -0.675,0.675 z"
               id="path4194" />
          </g>
          <g
             id="g4200">
            <path
               inkscape:connector-curvature="0"
               style="fill:#ff8a8a"
               d="m 108.628,346.153 c 0,0.373 0.302,0.675 0.675,0.675 0.373,0 0.675,-0.302 0.675,-0.675 0,-0.373 -0.302,-0.675 -0.675,-0.675 -0.373,0 -0.675,0.302 -0.675,0.675 z"
               id="path4198" />
          </g>
        </g>
        <g
           id="g4212">
          <g
             id="g4206">
            <path
               inkscape:connector-curvature="0"
               style="fill:#ff4f4e"
               d="m 70.431,345.061 c 0,0 4.638,-9.79 3.092,-17.004 l -6.088,-3.87 c -0.001,0 0.945,14.822 2.996,20.874 z"
               id="path4204" />
          </g>
          <g
             id="g4210">
            <path
               inkscape:connector-curvature="0"
               style="fill:#ff4f4e"
               d="m 125.975,345.061 c 0,0 -4.638,-9.79 -3.092,-17.004 l 5.067,-1.476 c 0,-0.001 0.773,12.382 -1.975,18.48 z"
               id="path4208" />
          </g>
        </g>
        <g
           id="g4216">
          <path
             inkscape:connector-curvature="0"
             style="fill:#ff4f4e"
             d="m 78.985,333.381 c 0,0 1.254,-3.103 5.505,-5.754 5.371,-3.349 9.242,2.412 9.242,2.412 0,0 -4.214,-1.467 -7.45,-0.437 -3.166,1.008 -7.297,3.779 -7.297,3.779 z"
             id="path4214" />
        </g>
        <g
           id="g4220">
          <path
             inkscape:connector-curvature="0"
             style="fill:#ff4f4e"
             d="m 118.564,333.381 c 0,0 -1.254,-3.103 -5.505,-5.754 -5.371,-3.349 -9.242,2.412 -9.242,2.412 0,0 4.214,-1.467 7.45,-0.437 3.166,1.008 7.297,3.779 7.297,3.779 z"
             id="path4218" />
        </g>
        <g
           id="g4224">
          <path
             inkscape:connector-curvature="0"
             style="fill:#ff8a8a"
             d="m 99.545,353.972 c -0.929,0 -1.948,-0.243 -3.07,-0.73 -0.307,-0.133 -0.488,-0.453 -0.445,-0.785 l 1.569,-12.045 c 0.054,-0.411 0.431,-0.701 0.841,-0.647 0.411,0.053 0.7,0.43 0.647,0.84 l -1.493,11.469 c 1.554,0.573 2.754,0.525 3.744,-0.143 0.344,-0.232 0.81,-0.141 1.041,0.203 0.232,0.343 0.141,0.81 -0.202,1.041 -0.789,0.532 -1.661,0.797 -2.632,0.797 z"
             id="path4222" />
        </g>
        <g
           id="g4228">
          <path
             inkscape:connector-curvature="0"
             style="fill:#ff8a8a"
             d="m 98.058,361.935 c -0.66,0 -1.281,-0.041 -1.854,-0.107 -3.428,-0.395 -5.825,-1.716 -5.925,-1.772 -0.362,-0.202 -0.491,-0.659 -0.289,-1.021 0.202,-0.361 0.658,-0.491 1.02,-0.29 v 0 c 0.361,0.201 8.94,4.833 16.366,-2.036 0.304,-0.281 0.778,-0.263 1.06,0.041 0.281,0.304 0.263,0.779 -0.041,1.06 -3.533,3.268 -7.329,4.125 -10.337,4.125 z"
             id="path4226" />
        </g>
        <g
           id="g4232">
          <path
             inkscape:connector-curvature="0"
             style="fill:#ff8a8a"
             d="m 99.367,366.333 c -1.745,0 -3.144,-0.426 -3.241,-0.457 -0.395,-0.123 -0.616,-0.544 -0.493,-0.939 0.123,-0.395 0.544,-0.616 0.939,-0.493 0.051,0.015 3.477,1.045 5.891,-0.32 0.36,-0.204 0.818,-0.077 1.022,0.284 0.204,0.361 0.077,0.818 -0.284,1.022 -1.23,0.695 -2.616,0.903 -3.834,0.903 z"
             id="path4230" />
        </g>
        <g
           id="g4258">
          <g
             id="g4244">
            <g
               id="g4242">
              <g
                 id="g4240">
                <g
                   id="g4238">
                  <g
                     id="g4236">
                    <path
                       inkscape:connector-curvature="0"
                       style="fill:#3f2037"
                       d="m 89.253,337.915 c 0.036,2.094 -0.736,3.806 -1.724,3.823 -0.989,0.017 -1.82,-1.666 -1.857,-3.761 -0.036,-2.094 0.736,-3.806 1.724,-3.823 0.99,-0.017 1.821,1.667 1.857,3.761 z"
                       id="path4234" />
                  </g>
                </g>
              </g>
            </g>
          </g>
          <g
             id="g4256">
            <g
               id="g4254">
              <g
                 id="g4252">
                <g
                   id="g4250">
                  <g
                     id="g4248">
                    <path
                       inkscape:connector-curvature="0"
                       style="fill:#3f2037"
                       d="m 107.969,337.915 c -0.036,2.094 0.736,3.806 1.724,3.823 0.989,0.017 1.82,-1.666 1.857,-3.761 0.036,-2.094 -0.736,-3.806 -1.724,-3.823 -0.989,-0.017 -1.82,1.667 -1.857,3.761 z"
                       id="path4246" />
                  </g>
                </g>
              </g>
            </g>
          </g>
        </g>
      </g>
      <g
         id="g4282">
        <g
           id="g4264">
          <path
             inkscape:connector-curvature="0"
             style="fill:#ffffff"
             d="m 85.54,352.602 c -6.375,0 -11.561,-5.186 -11.561,-11.561 0,-6.374 5.186,-11.56 11.561,-11.56 6.375,0 11.561,5.186 11.561,11.56 0,6.375 -5.186,11.561 -11.561,11.561 z m 0,-22.121 c -5.823,0 -10.561,4.737 -10.561,10.56 0,5.823 4.738,10.561 10.561,10.561 5.823,0 10.561,-4.738 10.561,-10.561 0,-5.823 -4.738,-10.56 -10.561,-10.56 z"
             id="path4262" />
        </g>
        <g
           id="g4268">
          <path
             inkscape:connector-curvature="0"
             style="fill:#ffffff"
             d="m 111.551,352.602 c -6.375,0 -11.561,-5.186 -11.561,-11.561 0,-6.374 5.186,-11.56 11.561,-11.56 6.375,0 11.561,5.186 11.561,11.56 0,6.375 -5.186,11.561 -11.561,11.561 z m 0,-22.121 c -5.823,0 -10.561,4.737 -10.561,10.56 0,5.823 4.738,10.561 10.561,10.561 5.823,0 10.561,-4.738 10.561,-10.561 0,-5.823 -4.737,-10.56 -10.561,-10.56 z"
             id="path4266" />
        </g>
        <g
           id="g4272">
          <path
             inkscape:connector-curvature="0"
             style="fill:#ffffff"
             d="m 75.787,336.321 c -0.168,0 -0.332,-0.085 -0.427,-0.239 -0.032,-0.052 -3.233,-5.2 -8.104,-7.047 -0.258,-0.098 -0.388,-0.386 -0.29,-0.645 0.098,-0.258 0.386,-0.389 0.645,-0.29 5.197,1.97 8.465,7.236 8.602,7.459 0.144,0.235 0.07,0.543 -0.165,0.687 -0.081,0.051 -0.172,0.075 -0.261,0.075 z"
             id="path4270" />
        </g>
        <g
           id="g4276">
          <path
             inkscape:connector-curvature="0"
             style="fill:#ffffff"
             d="m 122.19,336.321 c -0.094,0 -0.188,-0.026 -0.272,-0.081 -0.231,-0.151 -0.297,-0.46 -0.146,-0.692 0.152,-0.233 3.771,-5.724 8.961,-7.692 0.258,-0.098 0.547,0.032 0.645,0.29 0.098,0.258 -0.032,0.547 -0.29,0.645 -4.879,1.85 -8.442,7.248 -8.477,7.303 -0.098,0.147 -0.258,0.227 -0.421,0.227 z"
             id="path4274" />
        </g>
        <g
           id="g4280">
          <path
             inkscape:connector-curvature="0"
             style="fill:#ffffff"
             d="m 100.49,339.969 c -0.253,0 -0.47,-0.191 -0.497,-0.448 -0.017,-0.149 -0.207,-1.479 -1.542,-1.479 -1.317,0 -1.453,1.312 -1.464,1.462 -0.021,0.274 -0.258,0.485 -0.534,0.463 -0.274,-0.019 -0.482,-0.255 -0.464,-0.529 0.053,-0.828 0.636,-2.395 2.462,-2.395 1.811,0 2.451,1.554 2.536,2.375 0.028,0.275 -0.171,0.52 -0.446,0.549 -0.016,0.002 -0.034,0.002 -0.051,0.002 z"
             id="path4278" />
        </g>
      </g>
    </g>
  </g>
</svg>
