<?xml version="1.0" encoding="UTF-8" standalone="no"?>
<!-- Created with Inkscape (http://www.inkscape.org/) -->

<svg
   xmlns:dc="http://purl.org/dc/elements/1.1/"
   xmlns:cc="http://creativecommons.org/ns#"
   xmlns:rdf="http://www.w3.org/1999/02/22-rdf-syntax-ns#"
   xmlns:svg="http://www.w3.org/2000/svg"
   xmlns="http://www.w3.org/2000/svg"
   xmlns:sodipodi="http://sodipodi.sourceforge.net/DTD/sodipodi-0.dtd"
   xmlns:inkscape="http://www.inkscape.org/namespaces/inkscape"
   width="181mm"
   height="181mm"
   viewBox="0 0 181 181"
   version="1.1"
   id="svg4301"
   inkscape:version="0.92.4 (5da689c313, 2019-01-14)"
   sodipodi:docname="cha5.svg">
  <defs
     id="defs4295" />
  <sodipodi:namedview
     id="base"
     pagecolor="#ffffff"
     bordercolor="#666666"
     borderopacity="1.0"
     inkscape:pageopacity="0.0"
     inkscape:pageshadow="2"
     inkscape:zoom="0.7"
     inkscape:cx="411.19793"
     inkscape:cy="351.43754"
     inkscape:document-units="mm"
     inkscape:current-layer="layer1"
     showgrid="false"
     inkscape:window-width="1366"
     inkscape:window-height="745"
     inkscape:window-x="-8"
     inkscape:window-y="-8"
     inkscape:window-maximized="1"
     inkscape:snap-global="false" />
  <metadata
     id="metadata4298">
    <rdf:RDF>
      <cc:Work
         rdf:about="">
        <dc:format>image/svg+xml</dc:format>
        <dc:type
           rdf:resource="http://purl.org/dc/dcmitype/StillImage" />
        <dc:title></dc:title>
      </cc:Work>
    </rdf:RDF>
  </metadata>
  <g
     inkscape:label="Layer 1"
     inkscape:groupmode="layer"
     id="layer1"
     transform="translate(0,-116)">
    <rect
       style="opacity:1;fill:#ffffff;fill-opacity:1;stroke:none;stroke-width:2.48565698;stroke-miterlimit:4;stroke-dasharray:none;stroke-opacity:1"
       id="rect15564"
       width="181.0506"
       height="178.78275"
       x="0.37797612"
       y="116.32738" />
    <g
       transform="matrix(1.2525457,0,0,1.2525457,-214.0019,-237.54644)"
       id="g3620">
      <g
         id="g3338">
        <path
           inkscape:connector-curvature="0"
           style="fill:#3f2037"
           d="m 216.844,352.271 c 0,0 -4.171,10.521 -1.828,14.085 2.343,3.564 6.852,-3.522 6.852,-3.522 0,0 -3.607,12.882 1.417,14.17 5.024,1.288 10.39,-9.777 10.39,-9.777 0,0 -9.617,-19.594 -16.831,-14.956 z"
           id="path3336" />
      </g>
      <g
         id="g3342">
        <path
           inkscape:connector-curvature="0"
           style="fill:#3f2037"
           d="m 271.025,352.271 c 0,0 4.171,10.521 1.828,14.085 -2.343,3.564 -6.852,-3.522 -6.852,-3.522 0,0 3.607,12.882 -1.417,14.17 -5.024,1.288 -10.39,-9.777 -10.39,-9.777 0,0 9.617,-19.594 16.831,-14.956 z"
           id="path3340" />
      </g>
      <g
         id="g3348">
        <g
           id="g3346">
          <path
             inkscape:connector-curvature="0"
             style="fill:#0075cf"
             d="m 312.382,426.768 h -137.2 c 0,0 0.124,-1.546 0.523,-3.798 0.137,-0.763 0.301,-1.608 0.508,-2.502 0.381,-1.669 0.894,-3.512 1.577,-5.307 0.322,-0.853 0.683,-1.693 1.087,-2.502 1.067,-2.141 2.427,-4.05 4.158,-5.31 0.562,-0.412 1.165,-0.752 1.809,-1.01 0.861,-0.345 2.01,-0.855 3.378,-1.492 2.862,-1.329 6.681,-3.215 10.821,-5.307 1.559,-0.788 3.161,-1.605 4.777,-2.432 0.046,-0.023 0.09,-0.046 0.137,-0.07 3.486,-1.785 7.021,-3.617 10.267,-5.31 1.064,-0.557 2.097,-1.095 3.087,-1.613 0.582,-0.304 1.146,-0.6 1.695,-0.889 0.085,-0.046 0.17,-0.09 0.255,-0.134 4.444,-2.332 7.711,-4.063 8.477,-4.473 0.003,-0.003 0.005,-0.003 0.008,-0.003 0.023,-0.013 0.046,-0.023 0.064,-0.034 0.067,-0.036 0.1,-0.054 0.1,-0.054 l 1.049,0.237 c 1.311,0.294 2.628,0.546 3.95,0.755 1.306,0.211 2.618,0.381 3.929,0.51 7.242,0.711 14.57,0.214 21.681,-1.494 0.01,-0.003 0.023,-0.005 0.034,-0.008 0,0 3.262,1.68 8.046,4.12 0.368,0.188 0.745,0.381 1.131,0.577 1.528,0.778 3.187,1.621 4.926,2.502 1.574,0.796 3.21,1.623 4.877,2.463 1.281,0.644 2.579,1.298 3.878,1.948 0.6,0.301 1.203,0.6 1.801,0.899 1.706,0.853 3.398,1.693 5.04,2.502 4.246,2.089 8.152,3.975 11.058,5.307 1.389,0.636 2.551,1.146 3.414,1.492 0.644,0.258 1.247,0.598 1.809,1.01 1.731,1.26 3.092,3.169 4.158,5.31 0.405,0.809 0.765,1.649 1.087,2.502 0.683,1.796 1.195,3.638 1.577,5.307 0.203,0.894 0.371,1.739 0.508,2.502 0.395,2.254 0.519,3.799 0.519,3.799 z"
             id="path3344" />
        </g>
      </g>
      <g
         id="g3370">
        <g
           id="g3352">
          <path
             inkscape:connector-curvature="0"
             style="fill:#0056a8"
             d="m 272.654,391.729 h -58.431 c 1.688,-0.881 3.298,-1.724 4.782,-2.502 h 48.723 c 1.527,0.778 3.186,1.621 4.926,2.502 z"
             id="path3350" />
        </g>
        <g
           id="g3356">
          <path
             inkscape:connector-curvature="0"
             style="fill:#0056a8"
             d="m 288.249,399.541 h -89.207 c 1.559,-0.788 3.161,-1.605 4.777,-2.432 0.046,-0.023 0.09,-0.046 0.137,-0.07 h 79.254 c 1.705,0.853 3.397,1.693 5.039,2.502 z"
             id="path3354" />
        </g>
        <g
           id="g3360">
          <path
             inkscape:connector-curvature="0"
             style="fill:#0056a8"
             d="M 304.529,407.35 H 183.035 c 0.562,-0.412 1.165,-0.752 1.809,-1.01 0.861,-0.345 2.01,-0.855 3.378,-1.492 h 111.086 c 1.389,0.636 2.551,1.146 3.414,1.492 0.643,0.258 1.245,0.598 1.807,1.01 z"
             id="path3358" />
        </g>
        <g
           id="g3364">
          <path
             inkscape:connector-curvature="0"
             style="fill:#0056a8"
             d="M 309.775,415.162 H 177.789 c 0.322,-0.853 0.683,-1.693 1.087,-2.502 h 129.811 c 0.405,0.809 0.766,1.649 1.088,2.502 z"
             id="path3362" />
        </g>
        <g
           id="g3368">
          <path
             inkscape:connector-curvature="0"
             style="fill:#0056a8"
             d="M 311.859,422.971 H 175.705 c 0.137,-0.763 0.301,-1.608 0.508,-2.502 h 135.139 c 0.203,0.894 0.37,1.739 0.507,2.502 z"
             id="path3366" />
        </g>
      </g>
      <g
         id="g3374">
        <path
           inkscape:connector-curvature="0"
           style="fill:#0056a8"
           d="m 266.596,388.65 c -1.572,5.539 -8.371,14.248 -22.814,14.248 -14.943,0 -23.221,-8.072 -26.473,-12.782 0.582,-0.304 1.146,-0.6 1.695,-0.889 0.085,-0.046 0.17,-0.09 0.255,-0.134 4.444,-2.332 7.711,-4.063 8.477,-4.473 0.003,-0.003 0.005,-0.003 0.008,-0.003 0.023,-0.013 0.046,-0.023 0.064,-0.034 0.067,-0.036 0.1,-0.054 0.1,-0.054 l 1.049,0.237 c 1.311,0.294 2.628,0.546 3.95,0.755 1.306,0.211 2.618,0.381 3.929,0.51 7.242,0.711 14.57,0.214 21.681,-1.494 0.01,-0.003 0.023,-0.005 0.034,-0.008 -10e-4,10e-4 3.261,1.681 8.045,4.121 z"
           id="path3372" />
      </g>
      <g
         id="g3618">
        <g
           id="g3400">
          <g
             id="g3386">
            <g
               id="g3384">
              <g
                 id="g3382">
                <g
                   id="g3380">
                  <g
                     id="g3378">
                    <path
                       inkscape:connector-curvature="0"
                       style="fill:#ffb8a1"
                       d="m 259.248,388.026 c 0,0 -2.691,8.458 -15.055,8.458 -14.421,0 -17.815,-7.689 -17.815,-7.689 1.253,-3.322 2.114,-6.397 2.695,-9.146 h 0.004 c 1.069,-5.036 1.219,-8.992 1.153,-11.418 l 25.335,-1.003 c 0.235,2.145 0.615,4.671 1.046,7.212 1.146,6.747 2.637,13.586 2.637,13.586 z"
                       id="path3376" />
                  </g>
                </g>
              </g>
            </g>
          </g>
          <g
             id="g3398">
            <g
               id="g3396">
              <g
                 id="g3394">
                <g
                   id="g3392">
                  <g
                     id="g3390">
                    <path
                       inkscape:connector-curvature="0"
                       style="fill:#3f2037"
                       d="m 256.611,374.44 c -3.925,2.73 -12.506,6.793 -27.534,5.209 1.069,-5.036 1.219,-8.992 1.153,-11.418 l 25.335,-1.003 c 0.235,2.145 0.616,4.671 1.046,7.212 z"
                       id="path3388" />
                  </g>
                </g>
              </g>
            </g>
          </g>
        </g>
        <g
           id="g3440">
          <g
             id="g3438">
            <g
               id="g3412">
              <g
                 id="g3410">
                <g
                   id="g3408">
                  <g
                     id="g3406">
                    <g
                       id="g3404">
                      <path
                         inkscape:connector-curvature="0"
                         style="fill:#ffb8a1"
                         d="m 220.559,335.191 c 0,0 -7.841,-10.672 -13.939,-4.356 -6.098,6.316 5.663,28.314 16.335,23.522 z"
                         id="path3402" />
                    </g>
                  </g>
                </g>
              </g>
            </g>
            <g
               id="g3424">
              <g
                 id="g3422">
                <g
                   id="g3420">
                  <g
                     id="g3418">
                    <g
                       id="g3416">
                      <path
                         inkscape:connector-curvature="0"
                         style="fill:#ff8a8a"
                         d="m 216.82,347.803 c -0.266,0 -0.498,-0.196 -0.536,-0.467 -1.031,-7.415 -6.924,-11.966 -6.984,-12.011 -0.238,-0.181 -0.285,-0.521 -0.104,-0.759 0.181,-0.238 0.52,-0.285 0.759,-0.104 0.257,0.195 6.31,4.871 7.402,12.724 0.041,0.297 -0.165,0.57 -0.462,0.611 -0.025,0.004 -0.05,0.006 -0.075,0.006 z"
                         id="path3414" />
                    </g>
                  </g>
                </g>
              </g>
            </g>
            <g
               id="g3436">
              <g
                 id="g3434">
                <g
                   id="g3432">
                  <g
                     id="g3430">
                    <g
                       id="g3428">
                      <path
                         inkscape:connector-curvature="0"
                         style="fill:#ff8a8a"
                         d="m 215.177,342.477 c -0.173,0 -0.344,-0.084 -0.449,-0.238 -0.787,-1.164 -3.141,-1.282 -3.978,-1.23 -0.301,0.021 -0.556,-0.208 -0.574,-0.507 -0.019,-0.299 0.208,-0.556 0.507,-0.574 0.149,-0.01 3.651,-0.205 4.942,1.705 0.168,0.248 0.103,0.584 -0.145,0.752 -0.092,0.062 -0.198,0.092 -0.303,0.092 z"
                         id="path3426" />
                    </g>
                  </g>
                </g>
              </g>
            </g>
          </g>
        </g>
        <g
           id="g3480">
          <g
             id="g3478">
            <g
               id="g3452">
              <g
                 id="g3450">
                <g
                   id="g3448">
                  <g
                     id="g3446">
                    <g
                       id="g3444">
                      <path
                         inkscape:connector-curvature="0"
                         style="fill:#ffb8a1"
                         d="m 269.052,335.191 c 0,0 7.841,-10.672 13.939,-4.356 6.098,6.316 -5.663,28.314 -16.335,23.522 z"
                         id="path3442" />
                    </g>
                  </g>
                </g>
              </g>
            </g>
            <g
               id="g3464">
              <g
                 id="g3462">
                <g
                   id="g3460">
                  <g
                     id="g3458">
                    <g
                       id="g3456">
                      <path
                         inkscape:connector-curvature="0"
                         style="fill:#ff8a8a"
                         d="m 272.792,347.803 c -0.025,0 -0.05,-0.002 -0.075,-0.005 -0.297,-0.041 -0.503,-0.315 -0.462,-0.611 1.091,-7.854 7.144,-12.53 7.401,-12.725 0.239,-0.181 0.578,-0.135 0.759,0.104 0.181,0.238 0.135,0.578 -0.103,0.759 -0.06,0.045 -5.956,4.612 -6.984,12.011 -0.038,0.271 -0.27,0.467 -0.536,0.467 z"
                         id="path3454" />
                    </g>
                  </g>
                </g>
              </g>
            </g>
            <g
               id="g3476">
              <g
                 id="g3474">
                <g
                   id="g3472">
                  <g
                     id="g3470">
                    <g
                       id="g3468">
                      <path
                         inkscape:connector-curvature="0"
                         style="fill:#ff8a8a"
                         d="m 274.434,342.477 c -0.105,0 -0.21,-0.03 -0.303,-0.093 -0.248,-0.168 -0.313,-0.504 -0.145,-0.752 1.292,-1.909 4.794,-1.714 4.943,-1.705 0.298,0.019 0.525,0.275 0.506,0.574 -0.018,0.299 -0.279,0.528 -0.573,0.508 -0.842,-0.05 -3.195,0.071 -3.979,1.231 -0.105,0.154 -0.276,0.237 -0.449,0.237 z"
                         id="path3466" />
                    </g>
                  </g>
                </g>
              </g>
            </g>
          </g>
        </g>
        <g
           id="g3492">
          <g
             id="g3490">
            <g
               id="g3488">
              <g
                 id="g3486">
                <g
                   id="g3484">
                  <path
                     inkscape:connector-curvature="0"
                     style="fill:#ffb8a1"
                     d="m 251.054,304.081 c -21.933,-5.351 -37.102,10.831 -35.074,35.836 1.288,15.883 9.389,35.822 28.212,36.265 19.618,0.462 29.861,-18.372 29.861,-40.362 0,-16.827 -5.653,-26.18 -19.957,-30.87 -0.992,-0.324 -2.006,-0.616 -3.042,-0.869 z"
                     id="path3482" />
                </g>
              </g>
            </g>
          </g>
        </g>
        <g
           id="g3496">
          <path
             inkscape:connector-curvature="0"
             style="fill:#3f2037"
             d="m 212.947,317.06 c 0,0 -4.336,10.028 -2.772,11.832 1.333,1.536 3.381,0.485 3.381,0.485 0,0 -0.841,10.957 3.806,11.387 4.646,0.429 4.067,-20.118 4.067,-20.118 0,0 7.688,0.215 6.248,-6.162 0,0 19.924,3.789 35.297,-0.258 0,0 -0.643,6.145 4.552,6.956 0,0 -3.006,18.646 2.491,20.015 5.496,1.369 5.224,-11.453 5.224,-11.453 0,0 2.419,0.026 3.366,-0.906 2.258,-2.223 -1.427,-14.269 -7.474,-22.17 -6.62,-8.649 -39.678,-25.077 -58.186,10.392 z"
             id="path3494" />
        </g>
        <g
           id="g3544">
          <g
             id="g3500">
            <path
               inkscape:connector-curvature="0"
               style="fill:#ff4f4e"
               d="m 278.283,314.725 c 0,0 -1.463,-0.325 -4.104,-0.755 -0.258,-0.044 -0.526,-0.085 -0.806,-0.131 -2.692,-0.42 -6.395,-0.917 -10.873,-1.309 -0.26,-0.023 -0.523,-0.046 -0.788,-0.069 -3.2,-0.263 -6.773,-0.471 -10.641,-0.562 -0.258,-0.005 -0.515,-0.01 -0.775,-0.015 -3.331,-0.062 -6.871,-0.034 -10.571,0.124 -0.258,0.01 -0.515,0.021 -0.776,0.033 -3.445,0.162 -7.021,0.438 -10.69,0.858 -0.263,0.028 -0.526,0.059 -0.788,0.093 -3.584,0.425 -7.25,0.992 -10.963,1.724 -0.268,0.052 -0.536,0.106 -0.806,0.162 -1.402,0.283 -2.808,0.592 -4.22,0.928 0,0 1.652,-11.772 11.141,-19.813 0.515,-0.435 1.054,-0.863 1.615,-1.273 2.579,-1.891 5.663,-3.496 9.347,-4.578 0.309,-0.09 0.621,-0.178 0.94,-0.263 2.022,-0.531 4.223,-0.907 6.611,-1.092 h 0.003 c 0.26,-0.021 0.52,-0.036 0.788,-0.054 0.853,-0.049 1.729,-0.075 2.628,-0.075 1.226,0 2.409,0.044 3.55,0.129 0.268,0.021 0.533,0.041 0.794,0.067 2.412,0.222 4.63,0.629 6.668,1.185 0.32,0.085 0.631,0.175 0.94,0.271 h 0.003 c 3.736,1.131 6.843,2.764 9.427,4.663 l 0.003,0.003 c 0.559,0.407 1.09,0.827 1.597,1.26 0,0 0.003,0 0.003,0.003 9.097,7.693 10.743,18.486 10.743,18.486 z"
               id="path3498" />
          </g>
          <g
             id="g3538">
            <g
               id="g3506">
              <g
                 id="g3504">
                <path
                   inkscape:connector-curvature="0"
                   style="fill:#c42c31"
                   d="m 224.237,294.719 c -3.12,5.315 -6.562,12.529 -7.729,19.996 -0.219,1.381 -0.358,2.772 -0.402,4.161 l -0.773,-0.023 c 0.044,-1.327 0.17,-2.656 0.368,-3.975 1.033,-6.925 4.004,-13.64 6.92,-18.885 0.516,-0.437 1.054,-0.865 1.616,-1.274 z"
                   id="path3502" />
              </g>
            </g>
            <g
               id="g3512">
              <g
                 id="g3510">
                <path
                   inkscape:connector-curvature="0"
                   style="fill:#c42c31"
                   d="m 234.525,289.877 c -1.968,4.818 -5.109,13.606 -6.266,23.02 -0.242,1.974 -0.397,3.975 -0.435,5.972 l -0.773,-0.015 c 0.039,-1.961 0.186,-3.927 0.42,-5.864 1.105,-9.216 4.109,-17.855 6.114,-22.85 0.309,-0.09 0.62,-0.178 0.94,-0.263 z"
                   id="path3508" />
              </g>
            </g>
            <g
               id="g3518">
              <g
                 id="g3516">
                <path
                   inkscape:connector-curvature="0"
                   style="fill:#c42c31"
                   d="m 241.927,288.731 c -0.618,4.385 -1.757,13.428 -2.203,23.276 -0.103,2.26 -0.167,4.56 -0.183,6.858 l -0.773,-0.005 c 0.015,-2.285 0.08,-4.573 0.18,-6.82 0.441,-9.78 1.564,-18.78 2.187,-23.255 h 0.003 c 0.261,-0.021 0.521,-0.036 0.789,-0.054 z"
                   id="path3514" />
              </g>
            </g>
            <g
               id="g3524">
              <g
                 id="g3522">
                <path
                   inkscape:connector-curvature="0"
                   style="fill:#c42c31"
                   d="m 251.259,318.86 -0.773,0.005 c -0.016,-2.339 -0.085,-4.684 -0.191,-6.982 -0.448,-9.757 -1.572,-18.71 -2.19,-23.098 0.268,0.021 0.533,0.041 0.794,0.067 0.623,4.473 1.731,13.369 2.172,23.046 0.105,2.293 0.172,4.63 0.188,6.962 z"
                   id="path3520" />
              </g>
            </g>
            <g
               id="g3530">
              <g
                 id="g3528">
                <path
                   inkscape:connector-curvature="0"
                   style="fill:#c42c31"
                   d="m 262.976,318.855 -0.773,0.015 c -0.041,-2.146 -0.216,-4.295 -0.492,-6.41 -1.183,-9.146 -4.205,-17.651 -6.145,-22.423 0.32,0.085 0.631,0.175 0.94,0.271 h 0.003 c 1.968,4.934 4.854,13.281 5.99,22.222 0.266,2.086 0.436,4.207 0.477,6.325 z"
                   id="path3526" />
              </g>
            </g>
            <g
               id="g3536">
              <g
                 id="g3534">
                <path
                   inkscape:connector-curvature="0"
                   style="fill:#c42c31"
                   d="m 274.694,318.852 -0.773,0.023 c -0.054,-1.682 -0.247,-3.367 -0.549,-5.037 -1.27,-7.036 -4.475,-13.786 -7.433,-18.865 0.559,0.407 1.09,0.827 1.597,1.26 0,0 0.003,0 0.003,0.003 2.744,4.978 5.511,11.238 6.639,17.734 0.284,1.618 0.464,3.251 0.516,4.882 z"
                   id="path3532" />
              </g>
            </g>
          </g>
          <g
             id="g3542">
            <path
               inkscape:connector-curvature="0"
               style="fill:#c42c31"
               d="m 209.835,315.805 c 0,0 -1.831,3.896 0.34,9.617 0,0 21.878,-13.086 69.157,-0.848 0,0 2.961,-3.35 0,-9.404 0,0 -36.488,-16.009 -69.497,0.635 z"
               id="path3540" />
          </g>
        </g>
        <g
           id="g3550">
          <g
             id="g3548">
            <path
               inkscape:connector-curvature="0"
               style="fill:#ff8a8a"
               d="m 245.758,353.995 c -0.932,0 -1.955,-0.244 -3.08,-0.732 -0.316,-0.137 -0.503,-0.467 -0.459,-0.809 l 1.568,-12.045 c 0.055,-0.423 0.445,-0.722 0.866,-0.667 0.423,0.055 0.722,0.443 0.667,0.866 l -1.491,11.451 c 1.538,0.564 2.726,0.514 3.706,-0.147 0.354,-0.239 0.834,-0.145 1.073,0.209 0.239,0.354 0.145,0.834 -0.209,1.073 -0.79,0.535 -1.666,0.801 -2.641,0.801 z"
               id="path3546" />
          </g>
        </g>
        <g
           id="g3556">
          <g
             id="g3554">
            <path
               inkscape:connector-curvature="0"
               style="fill:#ff8a8a"
               d="m 244.325,361.936 c -4.428,0 -7.788,-1.828 -7.845,-1.86 -0.373,-0.208 -0.506,-0.679 -0.298,-1.052 0.208,-0.373 0.679,-0.506 1.052,-0.298 0.375,0.207 8.932,4.818 16.338,-2.033 0.313,-0.29 0.802,-0.271 1.092,0.043 0.29,0.313 0.271,0.802 -0.042,1.092 -3.435,3.177 -7.138,4.108 -10.297,4.108 z"
               id="path3552" />
          </g>
        </g>
        <g
           id="g3562">
          <g
             id="g3560">
            <path
               inkscape:connector-curvature="0"
               style="fill:#ff8a8a"
               d="m 245.579,366.356 c -1.749,0 -3.15,-0.427 -3.248,-0.458 -0.408,-0.127 -0.635,-0.561 -0.508,-0.968 0.127,-0.407 0.56,-0.633 0.967,-0.508 v 0 c 0.035,0.011 3.462,1.046 5.874,-0.318 0.371,-0.21 0.843,-0.079 1.053,0.292 0.21,0.372 0.079,0.843 -0.292,1.053 -1.234,0.698 -2.625,0.907 -3.846,0.907 z"
               id="path3558" />
          </g>
        </g>
        <g
           id="g3568">
          <g
             id="g3566">
            <path
               inkscape:connector-curvature="0"
               style="fill:#3f2037"
               d="m 229.258,332.011 c 1.664,-0.894 4.093,-1.998 6.456,-2.343 1.269,-0.185 2.067,-1.461 1.634,-2.669 l -0.087,-0.244 c -0.312,-0.872 -1.179,-1.42 -2.1,-1.322 -2.108,0.224 -5.843,0.962 -8.279,3.39 -0.528,0.526 -0.711,1.307 -0.487,2.018 v 0 c 0.377,1.202 1.753,1.766 2.863,1.17 z"
               id="path3564" />
          </g>
        </g>
        <g
           id="g3574">
          <g
             id="g3572">
            <path
               inkscape:connector-curvature="0"
               style="fill:#3f2037"
               d="m 261.246,332.011 c -1.664,-0.894 -4.093,-1.998 -6.456,-2.343 -1.269,-0.185 -2.067,-1.461 -1.634,-2.669 l 0.088,-0.244 c 0.312,-0.872 1.179,-1.42 2.1,-1.322 2.108,0.224 5.843,0.962 8.279,3.39 0.528,0.526 0.711,1.307 0.487,2.018 v 0 c -0.379,1.202 -1.755,1.766 -2.864,1.17 z"
               id="path3570" />
          </g>
        </g>
        <g
           style="opacity:0.5"
           id="g3580">
          <g
             id="g3578">
            <path
               inkscape:connector-curvature="0"
               style="fill:#ff8a8a"
               d="m 234.919,345.91 c 0,1.896 -3.5,3.433 -7.817,3.433 -4.317,0 -7.817,-1.537 -7.817,-3.433 0,-1.896 3.5,-3.432 7.817,-3.432 4.317,0 7.817,1.536 7.817,3.432 z"
               id="path3576" />
          </g>
        </g>
        <g
           style="opacity:0.5"
           id="g3586">
          <g
             id="g3584">
            <path
               inkscape:connector-curvature="0"
               style="fill:#ff8a8a"
               d="m 271.698,345.91 c 0,1.896 -3.5,3.433 -7.817,3.433 -4.317,0 -7.817,-1.537 -7.817,-3.433 0,-1.896 3.5,-3.432 7.817,-3.432 4.317,-0.001 7.817,1.536 7.817,3.432 z"
               id="path3582" />
          </g>
        </g>
        <g
           id="g3616">
          <g
             id="g3600">
            <g
               id="g3598">
              <g
                 id="g3596">
                <g
                   id="g3594">
                  <g
                     id="g3592">
                    <g
                       id="g3590">
                      <path
                         inkscape:connector-curvature="0"
                         style="fill:#3f2037"
                         d="m 235.466,337.915 c 0.036,2.094 -0.736,3.806 -1.724,3.823 -0.989,0.017 -1.82,-1.666 -1.857,-3.761 -0.036,-2.094 0.736,-3.806 1.724,-3.823 0.989,-0.017 1.82,1.667 1.857,3.761 z"
                         id="path3588" />
                    </g>
                  </g>
                </g>
              </g>
            </g>
          </g>
          <g
             id="g3614">
            <g
               id="g3612">
              <g
                 id="g3610">
                <g
                   id="g3608">
                  <g
                     id="g3606">
                    <g
                       id="g3604">
                      <path
                         inkscape:connector-curvature="0"
                         style="fill:#3f2037"
                         d="m 254.182,337.915 c -0.036,2.094 0.736,3.806 1.724,3.823 0.989,0.017 1.82,-1.666 1.857,-3.761 0.036,-2.094 -0.736,-3.806 -1.724,-3.823 -0.99,-0.017 -1.821,1.667 -1.857,3.761 z"
                         id="path3602" />
                    </g>
                  </g>
                </g>
              </g>
            </g>
          </g>
        </g>
      </g>
    </g>
  </g>
</svg>
