<?xml version="1.0" encoding="UTF-8" standalone="no"?>
<!-- Created with Inkscape (http://www.inkscape.org/) -->

<svg
   xmlns:dc="http://purl.org/dc/elements/1.1/"
   xmlns:cc="http://creativecommons.org/ns#"
   xmlns:rdf="http://www.w3.org/1999/02/22-rdf-syntax-ns#"
   xmlns:svg="http://www.w3.org/2000/svg"
   xmlns="http://www.w3.org/2000/svg"
   xmlns:sodipodi="http://sodipodi.sourceforge.net/DTD/sodipodi-0.dtd"
   xmlns:inkscape="http://www.inkscape.org/namespaces/inkscape"
   width="181mm"
   height="181mm"
   viewBox="0 0 181 181"
   version="1.1"
   id="svg4301"
   inkscape:version="0.92.4 (5da689c313, 2019-01-14)"
   sodipodi:docname="cha6.svg">
  <defs
     id="defs4295" />
  <sodipodi:namedview
     id="base"
     pagecolor="#ffffff"
     bordercolor="#666666"
     borderopacity="1.0"
     inkscape:pageopacity="0.0"
     inkscape:pageshadow="2"
     inkscape:zoom="0.7"
     inkscape:cx="461.19793"
     inkscape:cy="351.43754"
     inkscape:document-units="mm"
     inkscape:current-layer="layer1"
     showgrid="false"
     inkscape:window-width="1366"
     inkscape:window-height="745"
     inkscape:window-x="-8"
     inkscape:window-y="-8"
     inkscape:window-maximized="1" />
  <metadata
     id="metadata4298">
    <rdf:RDF>
      <cc:Work
         rdf:about="">
        <dc:format>image/svg+xml</dc:format>
        <dc:type
           rdf:resource="http://purl.org/dc/dcmitype/StillImage" />
        <dc:title></dc:title>
      </cc:Work>
    </rdf:RDF>
  </metadata>
  <g
     inkscape:label="Layer 1"
     inkscape:groupmode="layer"
     id="layer1"
     transform="translate(0,-116)">
    <g
       transform="matrix(0.80475155,0,0,0.80475155,-226.09953,-48.500713)"
       id="g3838">
      <g
         id="g3626">
        <g
           id="g3624">
          <path
             inkscape:connector-curvature="0"
             style="fill:#ff4f4e"
             d="m 460.87,426.77 h -137.2 c 0,0 1.38,-17.115 9.662,-20.43 3.348,-1.337 11.018,-5.155 18.975,-9.23 2.955,-1.512 5.948,-3.06 8.772,-4.53 0.297,-0.155 0.595,-0.31 0.888,-0.462 2.315,-1.207 4.503,-2.35 6.438,-3.367 4.262,-2.238 7.313,-3.858 7.892,-4.165 0.068,-0.035 0.1,-0.052 0.1,-0.052 l 1.048,0.235 c 1.312,0.295 2.63,0.548 3.95,0.755 1.307,0.212 2.617,0.383 3.93,0.51 7.242,0.712 14.57,0.215 21.68,-1.493 0.01,-0.002 0.022,-0.005 0.035,-0.007 0,0 3.222,1.66 7.957,4.072 1.967,1.005 4.2,2.143 6.57,3.342 0.3,0.15 0.6,0.303 0.903,0.455 1.16,0.585 2.347,1.185 3.55,1.79 1.28,0.645 2.577,1.3 3.878,1.947 8.845,4.428 17.703,8.755 21.313,10.2 8.279,3.315 9.659,20.43 9.659,20.43 z"
             id="path3622" />
        </g>
      </g>
      <g
         id="g3632">
        <g
           id="g3630">
          <path
             inkscape:connector-curvature="0"
             style="fill:#c42c31"
             d="m 422.47,392.402 c -0.47,1.372 -1.01,2.775 -1.633,4.175 -2.457,5.527 -5.68,9.935 -9.582,13.103 -4.89,3.97 -10.85,5.983 -17.718,5.983 -14.347,0 -23.202,-8.408 -28.105,-15.458 -1.832,-2.635 -3.262,-5.285 -4.353,-7.625 0.297,-0.155 0.595,-0.31 0.888,-0.462 1.073,2.31 2.487,4.932 4.302,7.543 6.932,9.955 16.107,15.003 27.267,15.003 12.055,0 20.933,-6.223 26.385,-18.49 0.63,-1.417 1.175,-2.837 1.645,-4.225 0.301,0.148 0.601,0.301 0.904,0.453 z"
             id="path3628" />
        </g>
      </g>
      <g
         id="g3636">
        <path
           inkscape:connector-curvature="0"
           style="fill:#fff7f1"
           d="m 414.997,388.605 c -1.728,7.435 -8.272,18.745 -22.728,18.745 -15.867,0 -21.83,-12.84 -23.865,-18.6 4.262,-2.238 7.313,-3.858 7.892,-4.165 0.068,-0.035 0.1,-0.052 0.1,-0.052 l 1.048,0.235 c 1.312,0.295 2.63,0.548 3.95,0.755 1.307,0.212 2.617,0.383 3.93,0.51 7.242,0.712 14.57,0.215 21.68,-1.493 0.01,-0.002 0.022,-0.005 0.035,-0.007 0.001,-0.001 3.223,1.659 7.958,4.072 z"
           id="path3634" />
      </g>
      <g
         id="g3836">
        <g
           id="g3662">
          <g
             id="g3648">
            <g
               id="g3646">
              <g
                 id="g3644">
                <g
                   id="g3642">
                  <g
                     id="g3640">
                    <path
                       inkscape:connector-curvature="0"
                       style="fill:#ffb8a1"
                       d="m 407.737,388.026 c 0,0 -2.691,8.458 -15.055,8.458 -14.421,0 -17.815,-7.689 -17.815,-7.689 1.253,-3.322 2.114,-6.397 2.695,-9.146 h 0.004 c 1.069,-5.036 1.219,-8.992 1.153,-11.418 l 25.335,-1.003 c 0.235,2.145 0.615,4.671 1.046,7.212 1.146,6.747 2.637,13.586 2.637,13.586 z"
                       id="path3638" />
                  </g>
                </g>
              </g>
            </g>
          </g>
          <g
             id="g3660">
            <g
               id="g3658">
              <g
                 id="g3656">
                <g
                   id="g3654">
                  <g
                     id="g3652">
                    <path
                       inkscape:connector-curvature="0"
                       style="fill:#3f2037"
                       d="m 405.1,374.44 c -3.925,2.73 -12.506,6.793 -27.534,5.209 1.069,-5.036 1.219,-8.992 1.153,-11.418 l 25.335,-1.003 c 0.235,2.145 0.615,4.671 1.046,7.212 z"
                       id="path3650" />
                  </g>
                </g>
              </g>
            </g>
          </g>
        </g>
        <g
           id="g3702">
          <g
             id="g3700">
            <g
               id="g3674">
              <g
                 id="g3672">
                <g
                   id="g3670">
                  <g
                     id="g3668">
                    <g
                       id="g3666">
                      <path
                         inkscape:connector-curvature="0"
                         style="fill:#ffb8a1"
                         d="m 369.048,335.191 c 0,0 -7.841,-10.672 -13.939,-4.356 -6.098,6.316 5.663,28.314 16.335,23.522 z"
                         id="path3664" />
                    </g>
                  </g>
                </g>
              </g>
            </g>
            <g
               id="g3686">
              <g
                 id="g3684">
                <g
                   id="g3682">
                  <g
                     id="g3680">
                    <g
                       id="g3678">
                      <path
                         inkscape:connector-curvature="0"
                         style="fill:#ff8a8a"
                         d="m 365.309,347.803 c -0.266,0 -0.498,-0.196 -0.536,-0.467 -1.031,-7.415 -6.924,-11.966 -6.984,-12.011 -0.238,-0.181 -0.284,-0.521 -0.103,-0.759 0.181,-0.238 0.52,-0.285 0.759,-0.104 0.257,0.195 6.31,4.871 7.401,12.724 0.041,0.297 -0.165,0.57 -0.462,0.611 -0.025,0.004 -0.05,0.006 -0.075,0.006 z"
                         id="path3676" />
                    </g>
                  </g>
                </g>
              </g>
            </g>
            <g
               id="g3698">
              <g
                 id="g3696">
                <g
                   id="g3694">
                  <g
                     id="g3692">
                    <g
                       id="g3690">
                      <path
                         inkscape:connector-curvature="0"
                         style="fill:#ff8a8a"
                         d="m 363.666,342.477 c -0.173,0 -0.344,-0.084 -0.449,-0.238 -0.787,-1.164 -3.141,-1.282 -3.978,-1.23 -0.301,0.021 -0.556,-0.208 -0.574,-0.507 -0.019,-0.299 0.208,-0.556 0.507,-0.574 0.149,-0.01 3.651,-0.205 4.943,1.705 0.168,0.248 0.103,0.584 -0.145,0.752 -0.093,0.062 -0.199,0.092 -0.304,0.092 z"
                         id="path3688" />
                    </g>
                  </g>
                </g>
              </g>
            </g>
          </g>
        </g>
        <g
           id="g3742">
          <g
             id="g3740">
            <g
               id="g3714">
              <g
                 id="g3712">
                <g
                   id="g3710">
                  <g
                     id="g3708">
                    <g
                       id="g3706">
                      <path
                         inkscape:connector-curvature="0"
                         style="fill:#ffb8a1"
                         d="m 416.813,335.191 c 0,0 7.841,-10.672 13.939,-4.356 6.098,6.316 -5.663,28.314 -16.335,23.522 z"
                         id="path3704" />
                    </g>
                  </g>
                </g>
              </g>
            </g>
            <g
               id="g3726">
              <g
                 id="g3724">
                <g
                   id="g3722">
                  <g
                     id="g3720">
                    <g
                       id="g3718">
                      <path
                         inkscape:connector-curvature="0"
                         style="fill:#ff8a8a"
                         d="m 420.553,347.803 c -0.025,0 -0.05,-0.002 -0.075,-0.005 -0.297,-0.041 -0.503,-0.315 -0.462,-0.611 1.091,-7.854 7.144,-12.53 7.401,-12.725 0.239,-0.181 0.578,-0.135 0.759,0.104 0.181,0.238 0.135,0.578 -0.103,0.759 -0.06,0.045 -5.956,4.612 -6.984,12.011 -0.038,0.271 -0.27,0.467 -0.536,0.467 z"
                         id="path3716" />
                    </g>
                  </g>
                </g>
              </g>
            </g>
            <g
               id="g3738">
              <g
                 id="g3736">
                <g
                   id="g3734">
                  <g
                     id="g3732">
                    <g
                       id="g3730">
                      <path
                         inkscape:connector-curvature="0"
                         style="fill:#ff8a8a"
                         d="m 422.195,342.477 c -0.105,0 -0.21,-0.03 -0.303,-0.093 -0.248,-0.168 -0.313,-0.504 -0.145,-0.752 1.292,-1.909 4.794,-1.714 4.943,-1.705 0.298,0.019 0.525,0.275 0.506,0.574 -0.018,0.299 -0.278,0.528 -0.573,0.508 -0.842,-0.05 -3.195,0.071 -3.979,1.231 -0.105,0.154 -0.276,0.237 -0.449,0.237 z"
                         id="path3728" />
                    </g>
                  </g>
                </g>
              </g>
            </g>
          </g>
        </g>
        <g
           id="g3758">
          <g
             id="g3756">
            <g
               id="g3754">
              <g
                 id="g3752">
                <g
                   id="g3746">
                  <path
                     inkscape:connector-curvature="0"
                     style="fill:#ffb8a1"
                     d="m 397.938,302.098 c -22.346,-0.01 -36.224,11.569 -33.73,38.149 1.489,15.865 9.649,35.493 28.473,35.936 19.618,0.462 27.49,-20.9 30.292,-37.106 2.564,-14.833 -4.981,-31.275 -19.285,-35.964 -0.991,-0.325 -4.496,-1.015 -5.75,-1.015 z"
                     id="path3744" />
                </g>
                <g
                   id="g3750">
                  <path
                     inkscape:connector-curvature="0"
                     style="fill:#3f2037"
                     d="m 363.95,335.395 c 0,0 -2.6,-25.195 -2.676,-30.78 -0.185,-13.578 13.515,-21.196 33.623,-21.152 16.216,0.035 18.214,7.135 19.521,12.882 0,0 11.989,0.308 13.818,8.667 1.829,8.36 -5.78,33.603 -5.78,33.603 0,0 -2.551,-5.811 -4.38,-14.17 -1.829,-8.36 -4.208,-13.475 -9.433,-13.581 -5.225,-0.105 -11.756,0.156 -18.809,4.336 -7.054,4.18 -14.107,4.702 -19.071,1.045 0,10e-4 -1.327,12.619 -6.813,19.15 z"
                     id="path3748" />
                </g>
              </g>
            </g>
          </g>
        </g>
        <g
           style="opacity:0.5"
           id="g3764">
          <g
             id="g3762">
            <path
               inkscape:connector-curvature="0"
               style="fill:#ff8a8a"
               d="m 383.408,345.91 c 0,1.896 -3.5,3.433 -7.817,3.433 -4.317,0 -7.817,-1.537 -7.817,-3.433 0,-1.896 3.5,-3.432 7.817,-3.432 4.317,-0.001 7.817,1.536 7.817,3.432 z"
               id="path3760" />
          </g>
        </g>
        <g
           style="opacity:0.5"
           id="g3770">
          <g
             id="g3768">
            <path
               inkscape:connector-curvature="0"
               style="fill:#ff8a8a"
               d="m 420.187,345.91 c 0,1.896 -3.5,3.433 -7.817,3.433 -4.317,0 -7.817,-1.537 -7.817,-3.433 0,-1.896 3.5,-3.432 7.817,-3.432 4.317,0 7.817,1.536 7.817,3.432 z"
               id="path3766" />
          </g>
        </g>
        <g
           id="g3774">
          <path
             inkscape:connector-curvature="0"
             style="fill:#3f2037"
             d="m 423.125,335.395 c 0,0 -0.17,12.266 -3.823,27.697 -5.859,24.734 -25.96,21.438 -25.96,21.438 0,0 -19.71,3.295 -25.568,-21.438 -3.653,-15.43 -3.823,-27.697 -3.823,-27.697 l 3.21,-5.362 c 0,0 2.249,21.31 10.406,25.002 0,0 3.625,-5.513 15.775,-0.361 12.151,-5.153 16.167,0.361 16.167,0.361 8.157,-3.692 10.409,-25.002 10.409,-25.002 z"
             id="path3772" />
        </g>
        <g
           id="g3780">
          <g
             id="g3778">
            <path
               inkscape:connector-curvature="0"
               style="fill:#ff8a8a"
               d="m 394.247,352.578 c -0.932,0 -1.955,-0.244 -3.08,-0.733 -0.316,-0.137 -0.503,-0.467 -0.459,-0.809 l 1.568,-12.045 c 0.055,-0.423 0.445,-0.722 0.866,-0.667 0.423,0.055 0.722,0.443 0.667,0.866 l -1.491,11.451 c 1.538,0.564 2.726,0.514 3.706,-0.147 0.354,-0.239 0.834,-0.145 1.073,0.209 0.238,0.354 0.145,0.834 -0.209,1.073 -0.791,0.535 -1.667,0.802 -2.641,0.802 z"
               id="path3776" />
          </g>
        </g>
        <g
           id="g3786">
          <g
             id="g3784">
            <path
               inkscape:connector-curvature="0"
               style="fill:#734669"
               d="m 392.814,361.936 c -4.428,0 -7.788,-1.828 -7.845,-1.86 -0.373,-0.208 -0.506,-0.679 -0.298,-1.052 0.208,-0.373 0.679,-0.506 1.052,-0.298 0.375,0.207 8.932,4.818 16.338,-2.033 0.313,-0.29 0.802,-0.271 1.092,0.043 0.29,0.313 0.271,0.802 -0.043,1.092 -3.434,3.177 -7.137,4.108 -10.296,4.108 z"
               id="path3782" />
          </g>
        </g>
        <g
           id="g3792">
          <g
             id="g3790">
            <path
               inkscape:connector-curvature="0"
               style="fill:#734669"
               d="m 394.068,366.356 c -1.749,0 -3.151,-0.427 -3.248,-0.458 -0.408,-0.127 -0.635,-0.561 -0.508,-0.968 0.127,-0.407 0.56,-0.633 0.967,-0.508 v 0 c 0.034,0.011 3.462,1.046 5.874,-0.318 0.371,-0.21 0.843,-0.079 1.053,0.292 0.21,0.372 0.079,0.843 -0.292,1.053 -1.234,0.698 -2.625,0.907 -3.846,0.907 z"
               id="path3788" />
          </g>
        </g>
        <g
           id="g3798">
          <g
             id="g3796">
            <path
               inkscape:connector-curvature="0"
               style="fill:#3f2037"
               d="m 377.747,332.011 c 1.664,-0.894 4.094,-1.998 6.456,-2.343 1.269,-0.185 2.067,-1.461 1.634,-2.669 l -0.087,-0.244 c -0.312,-0.872 -1.179,-1.42 -2.1,-1.322 -2.108,0.224 -5.843,0.962 -8.279,3.39 -0.528,0.526 -0.711,1.307 -0.487,2.018 v 0 c 0.377,1.202 1.753,1.766 2.863,1.17 z"
               id="path3794" />
          </g>
        </g>
        <g
           id="g3804">
          <g
             id="g3802">
            <path
               inkscape:connector-curvature="0"
               style="fill:#3f2037"
               d="m 409.735,332.011 c -1.664,-0.894 -4.094,-1.998 -6.456,-2.343 -1.269,-0.185 -2.067,-1.461 -1.634,-2.669 l 0.087,-0.244 c 0.312,-0.872 1.179,-1.42 2.1,-1.322 2.108,0.224 5.843,0.962 8.279,3.39 0.528,0.526 0.711,1.307 0.487,2.018 v 0 c -0.378,1.202 -1.754,1.766 -2.863,1.17 z"
               id="path3800" />
          </g>
        </g>
        <g
           id="g3834">
          <g
             id="g3818">
            <g
               id="g3816">
              <g
                 id="g3814">
                <g
                   id="g3812">
                  <g
                     id="g3810">
                    <g
                       id="g3808">
                      <path
                         inkscape:connector-curvature="0"
                         style="fill:#3f2037"
                         d="m 383.955,337.915 c 0.036,2.094 -0.736,3.806 -1.724,3.823 -0.989,0.017 -1.82,-1.666 -1.857,-3.761 -0.036,-2.094 0.736,-3.806 1.724,-3.823 0.989,-0.017 1.82,1.667 1.857,3.761 z"
                         id="path3806" />
                    </g>
                  </g>
                </g>
              </g>
            </g>
          </g>
          <g
             id="g3832">
            <g
               id="g3830">
              <g
                 id="g3828">
                <g
                   id="g3826">
                  <g
                     id="g3824">
                    <g
                       id="g3822">
                      <path
                         inkscape:connector-curvature="0"
                         style="fill:#3f2037"
                         d="m 402.67,337.915 c -0.036,2.094 0.736,3.806 1.724,3.823 0.989,0.017 1.82,-1.666 1.857,-3.761 0.036,-2.094 -0.736,-3.806 -1.724,-3.823 -0.989,-0.017 -1.82,1.667 -1.857,3.761 z"
                         id="path3820" />
                    </g>
                  </g>
                </g>
              </g>
            </g>
          </g>
        </g>
      </g>
    </g>
  </g>
</svg>
